%
M48
M72
T01C0.0236
T02C0.0320
T03C0.0354
T04C0.0400
T05C0.0472
%
T01
X9591Y9769
X10941Y11219
X10091Y12219
X9541Y12869
X8941Y12869
X11041Y12969
X11416Y14094
X9541Y15169
X8941Y15169
X11541Y15669
X14741Y13119
X16641Y14419
X16741Y16269
X17041Y17769
X16441Y17769
X18141Y18469
X18541Y18319
X19591Y17269
X19591Y16819
X19441Y16219
X20441Y17019
X20641Y17419
X20841Y17919
X20841Y18369
X20841Y18819
X20941Y19769
X20041Y19869
X23041Y20419
X24741Y19869
X25841Y19869
X25841Y18869
X24741Y18869
X27541Y17419
X26812Y16669
X25141Y16669
X23791Y16669
X22041Y16069
X21541Y17369
X20341Y15319
X19891Y14169
X20641Y12569
X21391Y10619
X24441Y8919
X25541Y9819
X27441Y9819
X29641Y9969
X31191Y10619
X30841Y12869
X30791Y15169
X29041Y15169
X28041Y15419
X27591Y15169
X27591Y14519
X26612Y14497
X26741Y15169
X25891Y14869
X24991Y14369
X25746Y11913
X29841Y8069
X23041Y7419
X21341Y7519
X17891Y5869
X17241Y8169
X16241Y8169
X15591Y8169
X30591Y17319
X29691Y18519
X30841Y18769
X30741Y19419
X30841Y20869
X30841Y21869
X31941Y21769
X26791Y21169
X24791Y22719
X23341Y23669
X24141Y24069
X22541Y22169
X21791Y22069
X20241Y23569
X19041Y22719
X10041Y23769
T02
X5891Y23769
X5891Y22769
X5891Y21869
X5891Y20869
X5891Y19969
X5891Y18969
T03
X6391Y16708
X6391Y15330
T04
X7041Y6269
X8041Y6269
X8041Y7269
X7041Y7269
X7041Y8269
X8041Y8269
X7041Y9769
X7041Y10769
X7041Y11769
X7041Y12769
X19780Y21308
X20487Y22015
X21194Y22722
X21901Y23429
X31441Y23269
X32441Y23269
X32441Y22269
X31441Y22269
X31441Y21269
X32441Y21269
X32441Y20269
X31441Y20269
X31441Y19269
X32441Y19269
X32441Y18269
X31441Y18269
X31441Y17269
X32441Y17269
X32441Y16269
X31441Y16269
X31441Y15269
X32441Y15269
X32441Y14269
X31441Y14269
X32491Y12769
X33491Y12769
X33491Y11769
X32491Y11769
X32491Y10769
X33491Y10769
T05
X32441Y8700
X32441Y7519
X32441Y6338
X12372Y8619
X11191Y8619
X10010Y8619
M30
