G75*
%MOIN*%
%OFA0B0*%
%FSLAX25Y25*%
%IPPOS*%
%LPD*%
%AMOC8*
5,1,8,0,0,1.08239X$1,22.5*
%
%ADD10R,0.05906X0.05118*%
%ADD11R,0.05118X0.05906*%
%ADD12R,0.12402X0.07874*%
%ADD13OC8,0.06000*%
%ADD14OC8,0.05200*%
%ADD15C,0.07087*%
%ADD16C,0.06000*%
%ADD17C,0.03562*%
%ADD18C,0.01200*%
%ADD19C,0.02400*%
%ADD20C,0.03200*%
%ADD21C,0.05600*%
D10*
X0090406Y0072448D03*
X0090406Y0079928D03*
X0093406Y0108448D03*
X0102406Y0108448D03*
X0102406Y0115928D03*
X0093406Y0115928D03*
X0120906Y0122448D03*
X0120906Y0129928D03*
X0130406Y0129928D03*
X0139406Y0129928D03*
X0139406Y0122448D03*
X0130406Y0122448D03*
X0107406Y0136448D03*
X0107406Y0143928D03*
X0098406Y0143928D03*
X0089406Y0143928D03*
X0089406Y0136448D03*
X0098406Y0136448D03*
X0150406Y0189448D03*
X0150406Y0196928D03*
X0160406Y0196928D03*
X0170406Y0196928D03*
X0170406Y0189448D03*
X0160406Y0189448D03*
X0119406Y0228448D03*
X0119406Y0235928D03*
X0109406Y0235928D03*
X0109406Y0228448D03*
X0090406Y0228948D03*
X0080406Y0228948D03*
X0080406Y0236428D03*
X0090406Y0236428D03*
X0070406Y0236428D03*
X0070406Y0228948D03*
X0234406Y0157428D03*
X0234406Y0149948D03*
X0243406Y0149948D03*
X0253406Y0149948D03*
X0253406Y0157428D03*
X0243406Y0157428D03*
X0240406Y0172948D03*
X0240406Y0180428D03*
X0252906Y0180428D03*
X0252906Y0172948D03*
X0265406Y0172948D03*
X0265406Y0180428D03*
X0265406Y0195448D03*
X0265406Y0202928D03*
X0240406Y0202928D03*
X0240406Y0195448D03*
X0291406Y0218948D03*
X0291406Y0226428D03*
X0300406Y0226428D03*
X0300406Y0218948D03*
X0274906Y0123928D03*
X0274906Y0116448D03*
X0265406Y0116448D03*
X0265406Y0123928D03*
X0308406Y0121928D03*
X0308406Y0114448D03*
X0255406Y0069428D03*
X0255406Y0061948D03*
X0245406Y0061948D03*
X0245406Y0069428D03*
X0235406Y0069428D03*
X0235406Y0061948D03*
X0223406Y0061448D03*
X0213406Y0061448D03*
X0213406Y0068928D03*
X0223406Y0068928D03*
X0203406Y0068928D03*
X0203406Y0061448D03*
X0172406Y0062448D03*
X0172406Y0069928D03*
X0162406Y0069928D03*
X0152406Y0069928D03*
X0152406Y0062448D03*
X0162406Y0062448D03*
D11*
X0174166Y0144188D03*
X0181646Y0144188D03*
X0179666Y0169188D03*
X0187146Y0169188D03*
X0215166Y0183688D03*
X0222646Y0183688D03*
X0222646Y0192688D03*
X0215166Y0192688D03*
X0282166Y0083188D03*
X0289646Y0083188D03*
X0289646Y0073188D03*
X0282166Y0073188D03*
X0282166Y0063188D03*
X0289646Y0063188D03*
D12*
X0187906Y0066042D03*
X0187906Y0085334D03*
D13*
X0314406Y0142688D03*
X0324406Y0142688D03*
X0324406Y0152688D03*
X0314406Y0152688D03*
X0314406Y0162688D03*
X0324406Y0162688D03*
X0324406Y0172688D03*
X0314406Y0172688D03*
X0314406Y0182688D03*
X0324406Y0182688D03*
X0324406Y0192688D03*
X0314406Y0192688D03*
X0314406Y0202688D03*
X0324406Y0202688D03*
X0324406Y0212688D03*
X0314406Y0212688D03*
X0314406Y0222688D03*
X0324406Y0222688D03*
X0324406Y0232688D03*
X0314406Y0232688D03*
D14*
X0058906Y0227688D03*
X0058906Y0218688D03*
X0058906Y0208688D03*
X0058906Y0199688D03*
X0058906Y0189688D03*
X0058906Y0237688D03*
D15*
X0100095Y0086188D03*
X0111906Y0086188D03*
X0123717Y0086188D03*
X0324406Y0086999D03*
X0324406Y0075188D03*
X0324406Y0063377D03*
D16*
X0324906Y0107688D03*
X0334906Y0107688D03*
X0334906Y0117688D03*
X0324906Y0117688D03*
X0324906Y0127688D03*
X0334906Y0127688D03*
X0197800Y0213082D03*
X0204871Y0220153D03*
X0211942Y0227224D03*
X0219013Y0234295D03*
X0070406Y0127688D03*
X0070406Y0117688D03*
X0070406Y0107688D03*
X0070406Y0097688D03*
X0070406Y0082688D03*
X0080406Y0082688D03*
X0080406Y0072688D03*
X0070406Y0072688D03*
X0070406Y0062688D03*
X0080406Y0062688D03*
D17*
X0095906Y0097688D03*
X0109406Y0112188D03*
X0100906Y0122188D03*
X0095406Y0128688D03*
X0089406Y0128688D03*
X0110406Y0129688D03*
X0114156Y0140938D03*
X0095406Y0151688D03*
X0089406Y0151688D03*
X0115406Y0156688D03*
X0147406Y0131188D03*
X0166406Y0144188D03*
X0167406Y0162688D03*
X0164406Y0177688D03*
X0170406Y0177688D03*
X0181406Y0184688D03*
X0185406Y0183188D03*
X0195906Y0172688D03*
X0195906Y0168188D03*
X0194406Y0162188D03*
X0204406Y0170188D03*
X0206406Y0174188D03*
X0208406Y0179188D03*
X0208406Y0183688D03*
X0208406Y0188188D03*
X0209406Y0197688D03*
X0200406Y0198688D03*
X0230406Y0204188D03*
X0247406Y0198688D03*
X0258406Y0198688D03*
X0258406Y0188688D03*
X0247406Y0188688D03*
X0275406Y0174188D03*
X0268123Y0166688D03*
X0251406Y0166688D03*
X0237906Y0166688D03*
X0220406Y0160688D03*
X0215406Y0173688D03*
X0203406Y0153188D03*
X0198906Y0141688D03*
X0206406Y0125688D03*
X0213906Y0106188D03*
X0244406Y0089188D03*
X0255406Y0098188D03*
X0274406Y0098188D03*
X0296406Y0099688D03*
X0311906Y0106188D03*
X0308406Y0128688D03*
X0307906Y0151688D03*
X0290406Y0151688D03*
X0280406Y0154188D03*
X0275906Y0151688D03*
X0275906Y0145188D03*
X0266123Y0144972D03*
X0267406Y0151688D03*
X0258906Y0148688D03*
X0249906Y0143688D03*
X0257461Y0119133D03*
X0298406Y0080688D03*
X0230406Y0074188D03*
X0213406Y0075188D03*
X0178906Y0058688D03*
X0172406Y0081688D03*
X0162406Y0081688D03*
X0155906Y0081688D03*
X0305906Y0173188D03*
X0296906Y0185188D03*
X0308406Y0187688D03*
X0307406Y0194188D03*
X0308406Y0208688D03*
X0308406Y0218688D03*
X0319406Y0217688D03*
X0267906Y0211688D03*
X0247906Y0227188D03*
X0233406Y0236688D03*
X0241406Y0240688D03*
X0225406Y0221688D03*
X0217906Y0220688D03*
X0202406Y0235688D03*
X0190406Y0227188D03*
X0100406Y0237688D03*
D18*
X0047206Y0245888D02*
X0047206Y0053488D01*
X0357606Y0053488D01*
X0357606Y0245888D01*
X0047206Y0245888D01*
X0047206Y0245847D02*
X0357606Y0245847D01*
X0357606Y0244648D02*
X0047206Y0244648D01*
X0047206Y0243450D02*
X0239104Y0243450D01*
X0239378Y0243724D02*
X0238742Y0243088D01*
X0211929Y0243088D01*
X0211047Y0242723D01*
X0210372Y0242048D01*
X0210372Y0242048D01*
X0205617Y0237293D01*
X0205442Y0237717D01*
X0204435Y0238724D01*
X0203118Y0239269D01*
X0201694Y0239269D01*
X0201257Y0239088D01*
X0124159Y0239088D01*
X0124159Y0239233D01*
X0123105Y0240287D01*
X0115708Y0240287D01*
X0114653Y0239233D01*
X0114653Y0232624D01*
X0115089Y0232188D01*
X0114653Y0231753D01*
X0114653Y0230848D01*
X0114159Y0230848D01*
X0114159Y0231753D01*
X0113582Y0232330D01*
X0113639Y0232387D01*
X0113850Y0232752D01*
X0113959Y0233159D01*
X0113959Y0235328D01*
X0110006Y0235328D01*
X0110006Y0236528D01*
X0113959Y0236528D01*
X0113959Y0238698D01*
X0113850Y0239105D01*
X0113639Y0239470D01*
X0113341Y0239768D01*
X0112976Y0239978D01*
X0112570Y0240087D01*
X0110006Y0240087D01*
X0110006Y0236528D01*
X0108806Y0236528D01*
X0108806Y0235328D01*
X0104853Y0235328D01*
X0104853Y0233159D01*
X0104962Y0232752D01*
X0105173Y0232387D01*
X0105230Y0232330D01*
X0104653Y0231753D01*
X0104653Y0230848D01*
X0104640Y0230848D01*
X0102806Y0232682D01*
X0102806Y0235024D01*
X0103442Y0235660D01*
X0103987Y0236976D01*
X0103987Y0238400D01*
X0103442Y0239717D01*
X0102435Y0240724D01*
X0101118Y0241269D01*
X0099694Y0241269D01*
X0098378Y0240724D01*
X0097370Y0239717D01*
X0096825Y0238400D01*
X0096825Y0236976D01*
X0097370Y0235660D01*
X0098006Y0235024D01*
X0098006Y0231211D01*
X0098372Y0230329D01*
X0099047Y0229654D01*
X0102287Y0226413D01*
X0103072Y0226088D01*
X0095159Y0226088D01*
X0095159Y0232253D01*
X0094723Y0232688D01*
X0095159Y0233124D01*
X0095159Y0239733D01*
X0094105Y0240787D01*
X0086708Y0240787D01*
X0085653Y0239733D01*
X0085653Y0238822D01*
X0084959Y0238534D01*
X0084959Y0239198D01*
X0084850Y0239605D01*
X0084639Y0239970D01*
X0084341Y0240268D01*
X0083976Y0240478D01*
X0083570Y0240587D01*
X0081006Y0240587D01*
X0081006Y0237028D01*
X0079806Y0237028D01*
X0079806Y0235828D01*
X0075853Y0235828D01*
X0075853Y0233659D01*
X0075962Y0233252D01*
X0076173Y0232887D01*
X0076230Y0232830D01*
X0075653Y0232253D01*
X0075653Y0227589D01*
X0075159Y0227095D01*
X0075159Y0232253D01*
X0074582Y0232830D01*
X0074639Y0232887D01*
X0074850Y0233252D01*
X0074959Y0233659D01*
X0074959Y0235828D01*
X0071006Y0235828D01*
X0071006Y0237028D01*
X0074959Y0237028D01*
X0074959Y0239198D01*
X0074850Y0239605D01*
X0074639Y0239970D01*
X0074341Y0240268D01*
X0073976Y0240478D01*
X0073570Y0240587D01*
X0071006Y0240587D01*
X0071006Y0237028D01*
X0069806Y0237028D01*
X0069806Y0235828D01*
X0065853Y0235828D01*
X0065853Y0234135D01*
X0063306Y0236682D01*
X0063306Y0239511D01*
X0060729Y0242088D01*
X0057084Y0242088D01*
X0054506Y0239511D01*
X0054506Y0235866D01*
X0057084Y0233288D01*
X0059912Y0233288D01*
X0065653Y0227547D01*
X0065653Y0225643D01*
X0066708Y0224589D01*
X0072653Y0224589D01*
X0069152Y0221088D01*
X0062729Y0221088D01*
X0060729Y0223088D01*
X0057084Y0223088D01*
X0054506Y0220511D01*
X0054506Y0216866D01*
X0057084Y0214288D01*
X0060729Y0214288D01*
X0062729Y0216288D01*
X0070624Y0216288D01*
X0071506Y0216654D01*
X0072181Y0217329D01*
X0079441Y0224589D01*
X0083006Y0224589D01*
X0083006Y0217182D01*
X0059912Y0194088D01*
X0057084Y0194088D01*
X0054506Y0191511D01*
X0054506Y0187866D01*
X0057084Y0185288D01*
X0060729Y0185288D01*
X0063306Y0187866D01*
X0063306Y0190694D01*
X0086766Y0214154D01*
X0087441Y0214829D01*
X0087806Y0215711D01*
X0087806Y0224589D01*
X0088006Y0224589D01*
X0088006Y0224211D01*
X0088372Y0223329D01*
X0089372Y0222329D01*
X0090047Y0221654D01*
X0090929Y0221288D01*
X0130884Y0221288D01*
X0131766Y0221654D01*
X0140400Y0230288D01*
X0171612Y0230288D01*
X0143047Y0201723D01*
X0143047Y0201723D01*
X0142372Y0201048D01*
X0142006Y0200166D01*
X0142006Y0190211D01*
X0142372Y0189329D01*
X0143372Y0188329D01*
X0144047Y0187654D01*
X0144929Y0187288D01*
X0145653Y0187288D01*
X0145653Y0186143D01*
X0146708Y0185089D01*
X0154105Y0185089D01*
X0155159Y0186143D01*
X0155159Y0187048D01*
X0155653Y0187048D01*
X0155653Y0186143D01*
X0156708Y0185089D01*
X0158006Y0185089D01*
X0158006Y0181211D01*
X0158372Y0180329D01*
X0160825Y0177875D01*
X0160825Y0176976D01*
X0161370Y0175660D01*
X0162378Y0174652D01*
X0163694Y0174107D01*
X0165017Y0174107D01*
X0161998Y0171088D01*
X0095730Y0171088D01*
X0094480Y0170571D01*
X0093524Y0169614D01*
X0057024Y0133114D01*
X0056506Y0131864D01*
X0056506Y0101012D01*
X0057024Y0099762D01*
X0061024Y0095762D01*
X0061980Y0094806D01*
X0063230Y0094288D01*
X0067018Y0094288D01*
X0067687Y0093619D01*
X0069451Y0092888D01*
X0071361Y0092888D01*
X0073125Y0093619D01*
X0074475Y0094969D01*
X0075206Y0096733D01*
X0075206Y0098643D01*
X0074475Y0100407D01*
X0073125Y0101757D01*
X0071361Y0102488D01*
X0069451Y0102488D01*
X0067687Y0101757D01*
X0067018Y0101088D01*
X0065314Y0101088D01*
X0063306Y0103096D01*
X0063306Y0129780D01*
X0085825Y0152299D01*
X0085825Y0150976D01*
X0086370Y0149660D01*
X0086406Y0149624D01*
X0086406Y0148287D01*
X0085708Y0148287D01*
X0084653Y0147233D01*
X0084653Y0140624D01*
X0085089Y0140188D01*
X0084653Y0139753D01*
X0084653Y0133143D01*
X0085708Y0132089D01*
X0086406Y0132089D01*
X0086406Y0130753D01*
X0086370Y0130717D01*
X0085825Y0129400D01*
X0085825Y0127976D01*
X0086370Y0126660D01*
X0087378Y0125652D01*
X0088694Y0125107D01*
X0090118Y0125107D01*
X0091435Y0125652D01*
X0092406Y0126624D01*
X0093378Y0125652D01*
X0094694Y0125107D01*
X0096118Y0125107D01*
X0097435Y0125652D01*
X0098442Y0126660D01*
X0098987Y0127976D01*
X0098987Y0128027D01*
X0100949Y0129989D01*
X0101406Y0131091D01*
X0101406Y0132089D01*
X0102105Y0132089D01*
X0103081Y0133066D01*
X0103173Y0132907D01*
X0103471Y0132609D01*
X0103836Y0132398D01*
X0104243Y0132289D01*
X0106806Y0132289D01*
X0106806Y0135848D01*
X0108006Y0135848D01*
X0108006Y0132289D01*
X0110570Y0132289D01*
X0110976Y0132398D01*
X0111341Y0132609D01*
X0111639Y0132907D01*
X0111850Y0133271D01*
X0111959Y0133678D01*
X0111959Y0135848D01*
X0108006Y0135848D01*
X0108006Y0137048D01*
X0111959Y0137048D01*
X0111959Y0138071D01*
X0112128Y0137902D01*
X0113444Y0137357D01*
X0114868Y0137357D01*
X0116185Y0137902D01*
X0117192Y0138910D01*
X0117737Y0140226D01*
X0117737Y0141650D01*
X0117192Y0142967D01*
X0116185Y0143974D01*
X0114868Y0144519D01*
X0114818Y0144519D01*
X0112865Y0146472D01*
X0112159Y0146764D01*
X0112159Y0147233D01*
X0111105Y0148287D01*
X0103708Y0148287D01*
X0102906Y0147486D01*
X0102105Y0148287D01*
X0101406Y0148287D01*
X0101406Y0149285D01*
X0100949Y0150388D01*
X0098987Y0152350D01*
X0098987Y0152400D01*
X0098442Y0153717D01*
X0097435Y0154724D01*
X0096118Y0155269D01*
X0094694Y0155269D01*
X0093378Y0154724D01*
X0092406Y0153753D01*
X0091435Y0154724D01*
X0090118Y0155269D01*
X0088796Y0155269D01*
X0097814Y0164288D01*
X0157006Y0164288D01*
X0157006Y0135012D01*
X0157524Y0133762D01*
X0158480Y0132806D01*
X0158480Y0132806D01*
X0186698Y0104588D01*
X0177400Y0104588D01*
X0150987Y0131001D01*
X0150987Y0131900D01*
X0150442Y0133217D01*
X0149435Y0134224D01*
X0148118Y0134769D01*
X0146694Y0134769D01*
X0145378Y0134224D01*
X0144370Y0133217D01*
X0144159Y0132706D01*
X0144159Y0133233D01*
X0143105Y0134287D01*
X0135708Y0134287D01*
X0134906Y0133486D01*
X0134105Y0134287D01*
X0132806Y0134287D01*
X0132806Y0142166D01*
X0132441Y0143048D01*
X0118987Y0156501D01*
X0118987Y0157400D01*
X0118442Y0158717D01*
X0117435Y0159724D01*
X0116118Y0160269D01*
X0114694Y0160269D01*
X0113378Y0159724D01*
X0112370Y0158717D01*
X0111825Y0157400D01*
X0111825Y0155976D01*
X0112370Y0154660D01*
X0113378Y0153652D01*
X0114694Y0153107D01*
X0115593Y0153107D01*
X0128006Y0140694D01*
X0128006Y0134287D01*
X0126708Y0134287D01*
X0125653Y0133233D01*
X0125653Y0126624D01*
X0126089Y0126188D01*
X0125656Y0125755D01*
X0125082Y0126330D01*
X0125139Y0126387D01*
X0125350Y0126752D01*
X0125459Y0127159D01*
X0125459Y0129328D01*
X0121506Y0129328D01*
X0121506Y0130528D01*
X0125459Y0130528D01*
X0125459Y0132698D01*
X0125350Y0133105D01*
X0125139Y0133470D01*
X0124841Y0133768D01*
X0124476Y0133978D01*
X0124070Y0134087D01*
X0121506Y0134087D01*
X0121506Y0130528D01*
X0120306Y0130528D01*
X0120306Y0129328D01*
X0116353Y0129328D01*
X0116353Y0127159D01*
X0116462Y0126752D01*
X0116673Y0126387D01*
X0116730Y0126330D01*
X0116153Y0125753D01*
X0116153Y0125188D01*
X0102971Y0125188D01*
X0102935Y0125224D01*
X0101618Y0125769D01*
X0100194Y0125769D01*
X0098878Y0125224D01*
X0097870Y0124217D01*
X0097325Y0122900D01*
X0097325Y0121476D01*
X0097870Y0120160D01*
X0098367Y0119663D01*
X0098173Y0119470D01*
X0097962Y0119105D01*
X0097906Y0118895D01*
X0097850Y0119105D01*
X0097639Y0119470D01*
X0097341Y0119768D01*
X0096976Y0119978D01*
X0096570Y0120087D01*
X0094006Y0120087D01*
X0094006Y0116528D01*
X0097959Y0116528D01*
X0101806Y0116528D01*
X0101806Y0115328D01*
X0094006Y0115328D01*
X0094006Y0116528D01*
X0092806Y0116528D01*
X0092806Y0115328D01*
X0088853Y0115328D01*
X0088853Y0113159D01*
X0088962Y0112752D01*
X0089173Y0112387D01*
X0089230Y0112330D01*
X0088653Y0111753D01*
X0088653Y0105143D01*
X0089708Y0104089D01*
X0091006Y0104089D01*
X0091006Y0099711D01*
X0091372Y0098829D01*
X0092047Y0098154D01*
X0092325Y0097875D01*
X0092325Y0096976D01*
X0092870Y0095660D01*
X0093878Y0094652D01*
X0095194Y0094107D01*
X0096618Y0094107D01*
X0097935Y0094652D01*
X0098942Y0095660D01*
X0099487Y0096976D01*
X0099487Y0098400D01*
X0098942Y0099717D01*
X0097935Y0100724D01*
X0096618Y0101269D01*
X0095806Y0101269D01*
X0095806Y0104089D01*
X0097105Y0104089D01*
X0097906Y0104891D01*
X0098708Y0104089D01*
X0106105Y0104089D01*
X0107159Y0105143D01*
X0107159Y0105188D01*
X0107598Y0105188D01*
X0121665Y0091121D01*
X0120690Y0090718D01*
X0119187Y0089215D01*
X0118374Y0087251D01*
X0118374Y0085125D01*
X0119187Y0083161D01*
X0120690Y0081658D01*
X0122654Y0080845D01*
X0124780Y0080845D01*
X0126744Y0081658D01*
X0128247Y0083161D01*
X0129060Y0085125D01*
X0129060Y0087251D01*
X0128247Y0089215D01*
X0127174Y0090288D01*
X0180177Y0090288D01*
X0179977Y0090088D01*
X0136730Y0090088D01*
X0135480Y0089571D01*
X0134524Y0088614D01*
X0111998Y0066088D01*
X0083794Y0066088D01*
X0083125Y0066757D01*
X0081361Y0067488D01*
X0079451Y0067488D01*
X0077687Y0066757D01*
X0076337Y0065407D01*
X0075606Y0063643D01*
X0075606Y0061733D01*
X0076337Y0059969D01*
X0077687Y0058619D01*
X0079451Y0057888D01*
X0081361Y0057888D01*
X0083125Y0058619D01*
X0083794Y0059288D01*
X0114082Y0059288D01*
X0115332Y0059806D01*
X0138814Y0083288D01*
X0152693Y0083288D01*
X0152325Y0082400D01*
X0152325Y0081501D01*
X0150372Y0079548D01*
X0150006Y0078666D01*
X0150006Y0074287D01*
X0148708Y0074287D01*
X0147653Y0073233D01*
X0147653Y0066624D01*
X0148230Y0066047D01*
X0148173Y0065989D01*
X0147962Y0065625D01*
X0147853Y0065218D01*
X0147853Y0063048D01*
X0151806Y0063048D01*
X0151806Y0061848D01*
X0147853Y0061848D01*
X0147853Y0059678D01*
X0147962Y0059271D01*
X0148173Y0058907D01*
X0148471Y0058609D01*
X0148836Y0058398D01*
X0149243Y0058289D01*
X0151806Y0058289D01*
X0151806Y0061848D01*
X0153006Y0061848D01*
X0153006Y0058289D01*
X0155570Y0058289D01*
X0155976Y0058398D01*
X0156341Y0058609D01*
X0156639Y0058907D01*
X0156850Y0059271D01*
X0156959Y0059678D01*
X0156959Y0061848D01*
X0153006Y0061848D01*
X0153006Y0063048D01*
X0156959Y0063048D01*
X0156959Y0065218D01*
X0156850Y0065625D01*
X0156639Y0065989D01*
X0156582Y0066047D01*
X0157159Y0066624D01*
X0157159Y0073233D01*
X0156105Y0074287D01*
X0154806Y0074287D01*
X0154806Y0077194D01*
X0155719Y0078107D01*
X0156618Y0078107D01*
X0157935Y0078652D01*
X0158942Y0079660D01*
X0159156Y0080177D01*
X0159370Y0079660D01*
X0160006Y0079024D01*
X0160006Y0074287D01*
X0158708Y0074287D01*
X0157653Y0073233D01*
X0157653Y0066624D01*
X0158230Y0066047D01*
X0158173Y0065989D01*
X0157962Y0065625D01*
X0157853Y0065218D01*
X0157853Y0063048D01*
X0161806Y0063048D01*
X0161806Y0061848D01*
X0157853Y0061848D01*
X0157853Y0059678D01*
X0157962Y0059271D01*
X0158173Y0058907D01*
X0158471Y0058609D01*
X0158836Y0058398D01*
X0159243Y0058289D01*
X0161806Y0058289D01*
X0161806Y0061848D01*
X0163006Y0061848D01*
X0163006Y0058289D01*
X0165570Y0058289D01*
X0165976Y0058398D01*
X0166341Y0058609D01*
X0166639Y0058907D01*
X0166850Y0059271D01*
X0166959Y0059678D01*
X0166959Y0061848D01*
X0163006Y0061848D01*
X0163006Y0063048D01*
X0166959Y0063048D01*
X0166959Y0065218D01*
X0166850Y0065625D01*
X0166639Y0065989D01*
X0166582Y0066047D01*
X0167159Y0066624D01*
X0167159Y0073233D01*
X0166105Y0074287D01*
X0164806Y0074287D01*
X0164806Y0079024D01*
X0165442Y0079660D01*
X0165987Y0080976D01*
X0165987Y0082400D01*
X0165620Y0083288D01*
X0169193Y0083288D01*
X0168825Y0082400D01*
X0168825Y0080976D01*
X0169370Y0079660D01*
X0170006Y0079024D01*
X0170006Y0074287D01*
X0168708Y0074287D01*
X0167653Y0073233D01*
X0167653Y0066624D01*
X0168230Y0066047D01*
X0168173Y0065989D01*
X0167962Y0065625D01*
X0167853Y0065218D01*
X0167853Y0063048D01*
X0171806Y0063048D01*
X0171806Y0061848D01*
X0167853Y0061848D01*
X0167853Y0059678D01*
X0167962Y0059271D01*
X0168173Y0058907D01*
X0168471Y0058609D01*
X0168836Y0058398D01*
X0169243Y0058289D01*
X0171806Y0058289D01*
X0171806Y0061848D01*
X0173006Y0061848D01*
X0173006Y0058289D01*
X0175570Y0058289D01*
X0175976Y0058398D01*
X0176341Y0058609D01*
X0176639Y0058907D01*
X0176850Y0059271D01*
X0176959Y0059678D01*
X0176959Y0061848D01*
X0173006Y0061848D01*
X0173006Y0063048D01*
X0176959Y0063048D01*
X0176959Y0065218D01*
X0176850Y0065625D01*
X0176639Y0065989D01*
X0176582Y0066047D01*
X0177159Y0066624D01*
X0177159Y0073233D01*
X0176105Y0074287D01*
X0174806Y0074287D01*
X0174806Y0079024D01*
X0175442Y0079660D01*
X0175987Y0080976D01*
X0175987Y0082400D01*
X0175620Y0083288D01*
X0179905Y0083288D01*
X0179905Y0080651D01*
X0180960Y0079597D01*
X0194853Y0079597D01*
X0195907Y0080651D01*
X0195907Y0090016D01*
X0195635Y0090288D01*
X0238498Y0090288D01*
X0241189Y0087597D01*
X0241370Y0087160D01*
X0242378Y0086152D01*
X0243694Y0085607D01*
X0245118Y0085607D01*
X0245556Y0085788D01*
X0271006Y0085788D01*
X0271006Y0076012D01*
X0271524Y0074762D01*
X0272480Y0073806D01*
X0275980Y0070306D01*
X0277230Y0069788D01*
X0277807Y0069788D01*
X0277807Y0069490D01*
X0278861Y0068435D01*
X0279166Y0068435D01*
X0279166Y0067941D01*
X0278861Y0067941D01*
X0277807Y0066887D01*
X0277807Y0059490D01*
X0278861Y0058435D01*
X0285471Y0058435D01*
X0285906Y0058871D01*
X0286342Y0058435D01*
X0292951Y0058435D01*
X0294005Y0059490D01*
X0294005Y0066887D01*
X0292951Y0067941D01*
X0292646Y0067941D01*
X0292646Y0068435D01*
X0292951Y0068435D01*
X0294005Y0069490D01*
X0294005Y0070189D01*
X0295106Y0070645D01*
X0300106Y0075645D01*
X0300949Y0076489D01*
X0301406Y0077591D01*
X0301406Y0078624D01*
X0301442Y0078660D01*
X0301987Y0079976D01*
X0301987Y0081400D01*
X0301442Y0082717D01*
X0300435Y0083724D01*
X0299118Y0084269D01*
X0297694Y0084269D01*
X0296378Y0083724D01*
X0295370Y0082717D01*
X0294825Y0081400D01*
X0294825Y0079976D01*
X0295155Y0079180D01*
X0293434Y0077458D01*
X0292951Y0077941D01*
X0292646Y0077941D01*
X0292646Y0078435D01*
X0292951Y0078435D01*
X0294005Y0079490D01*
X0294005Y0086887D01*
X0292951Y0087941D01*
X0286342Y0087941D01*
X0285765Y0087364D01*
X0285707Y0087421D01*
X0285343Y0087632D01*
X0284936Y0087741D01*
X0282766Y0087741D01*
X0282766Y0083788D01*
X0281566Y0083788D01*
X0281566Y0082588D01*
X0282766Y0082588D01*
X0282766Y0078635D01*
X0284936Y0078635D01*
X0285343Y0078744D01*
X0285707Y0078955D01*
X0285765Y0079012D01*
X0286342Y0078435D01*
X0286646Y0078435D01*
X0286646Y0077941D01*
X0286342Y0077941D01*
X0285906Y0077505D01*
X0285471Y0077941D01*
X0278861Y0077941D01*
X0278412Y0077491D01*
X0277806Y0078096D01*
X0277806Y0097039D01*
X0277987Y0097476D01*
X0277987Y0098900D01*
X0277620Y0099788D01*
X0292825Y0099788D01*
X0292825Y0098976D01*
X0293370Y0097660D01*
X0294378Y0096652D01*
X0295694Y0096107D01*
X0297118Y0096107D01*
X0298435Y0096652D01*
X0299442Y0097660D01*
X0299987Y0098976D01*
X0299987Y0100400D01*
X0299442Y0101717D01*
X0298435Y0102724D01*
X0298280Y0102788D01*
X0310757Y0102788D01*
X0311194Y0102607D01*
X0312618Y0102607D01*
X0313935Y0103152D01*
X0314942Y0104160D01*
X0315487Y0105476D01*
X0315487Y0106900D01*
X0314942Y0108217D01*
X0313935Y0109224D01*
X0312618Y0109769D01*
X0311194Y0109769D01*
X0310757Y0109588D01*
X0278306Y0109588D01*
X0278306Y0112089D01*
X0278605Y0112089D01*
X0279659Y0113143D01*
X0279659Y0119753D01*
X0279082Y0120330D01*
X0279139Y0120387D01*
X0279350Y0120752D01*
X0279459Y0121159D01*
X0279459Y0123328D01*
X0275506Y0123328D01*
X0275506Y0124528D01*
X0279459Y0124528D01*
X0279459Y0126698D01*
X0279350Y0127105D01*
X0279139Y0127470D01*
X0278841Y0127768D01*
X0278476Y0127978D01*
X0278070Y0128087D01*
X0275506Y0128087D01*
X0275506Y0124528D01*
X0274306Y0124528D01*
X0274306Y0123328D01*
X0270353Y0123328D01*
X0270353Y0121159D01*
X0270462Y0120752D01*
X0270673Y0120387D01*
X0270730Y0120330D01*
X0270156Y0119755D01*
X0269582Y0120330D01*
X0269639Y0120387D01*
X0269850Y0120752D01*
X0269959Y0121159D01*
X0269959Y0123328D01*
X0266006Y0123328D01*
X0266006Y0124528D01*
X0269959Y0124528D01*
X0269959Y0126698D01*
X0269850Y0127105D01*
X0269639Y0127470D01*
X0269341Y0127768D01*
X0268976Y0127978D01*
X0268570Y0128087D01*
X0266006Y0128087D01*
X0266006Y0124528D01*
X0264806Y0124528D01*
X0264806Y0123328D01*
X0260853Y0123328D01*
X0260853Y0121159D01*
X0260962Y0120752D01*
X0261173Y0120387D01*
X0261230Y0120330D01*
X0261152Y0120251D01*
X0260678Y0120724D01*
X0260497Y0121162D01*
X0259490Y0122169D01*
X0258174Y0122714D01*
X0256749Y0122714D01*
X0255433Y0122169D01*
X0254425Y0121162D01*
X0253880Y0119845D01*
X0253880Y0118421D01*
X0254425Y0117105D01*
X0255433Y0116097D01*
X0255870Y0115916D01*
X0258220Y0113566D01*
X0259470Y0113048D01*
X0260749Y0113048D01*
X0261708Y0112089D01*
X0269105Y0112089D01*
X0270156Y0113141D01*
X0271208Y0112089D01*
X0271506Y0112089D01*
X0271506Y0109588D01*
X0215056Y0109588D01*
X0214618Y0109769D01*
X0213194Y0109769D01*
X0212757Y0109588D01*
X0191314Y0109588D01*
X0163806Y0137096D01*
X0163806Y0141724D01*
X0164378Y0141152D01*
X0165694Y0140607D01*
X0167118Y0140607D01*
X0168435Y0141152D01*
X0169071Y0141788D01*
X0169807Y0141788D01*
X0169807Y0140490D01*
X0170861Y0139435D01*
X0177471Y0139435D01*
X0177906Y0139871D01*
X0178342Y0139435D01*
X0184951Y0139435D01*
X0186005Y0140490D01*
X0186005Y0141788D01*
X0194564Y0141788D01*
X0194707Y0141645D01*
X0195325Y0141027D01*
X0195325Y0140976D01*
X0195870Y0139660D01*
X0196878Y0138652D01*
X0198194Y0138107D01*
X0199618Y0138107D01*
X0200935Y0138652D01*
X0201942Y0139660D01*
X0202015Y0139836D01*
X0203406Y0138446D01*
X0203406Y0127753D01*
X0203370Y0127717D01*
X0202825Y0126400D01*
X0202825Y0124976D01*
X0203370Y0123660D01*
X0204378Y0122652D01*
X0205694Y0122107D01*
X0207118Y0122107D01*
X0208435Y0122652D01*
X0209442Y0123660D01*
X0209987Y0124976D01*
X0209987Y0126400D01*
X0209442Y0127717D01*
X0209406Y0127753D01*
X0209406Y0140285D01*
X0208949Y0141388D01*
X0208106Y0142231D01*
X0208106Y0142231D01*
X0190549Y0159788D01*
X0191742Y0159788D01*
X0192378Y0159152D01*
X0193694Y0158607D01*
X0194593Y0158607D01*
X0199825Y0153375D01*
X0199825Y0152476D01*
X0200370Y0151160D01*
X0201378Y0150152D01*
X0202694Y0149607D01*
X0204118Y0149607D01*
X0205435Y0150152D01*
X0206442Y0151160D01*
X0206910Y0152290D01*
X0228372Y0130829D01*
X0229047Y0130154D01*
X0229929Y0129788D01*
X0304986Y0129788D01*
X0304825Y0129400D01*
X0304825Y0127976D01*
X0305370Y0126660D01*
X0305743Y0126287D01*
X0304708Y0126287D01*
X0303653Y0125233D01*
X0303653Y0118624D01*
X0304230Y0118047D01*
X0304173Y0117989D01*
X0303962Y0117625D01*
X0303853Y0117218D01*
X0303853Y0115048D01*
X0307806Y0115048D01*
X0307806Y0113848D01*
X0303853Y0113848D01*
X0303853Y0111678D01*
X0303962Y0111271D01*
X0304173Y0110907D01*
X0304471Y0110609D01*
X0304836Y0110398D01*
X0305243Y0110289D01*
X0307806Y0110289D01*
X0307806Y0113848D01*
X0309006Y0113848D01*
X0309006Y0110289D01*
X0311570Y0110289D01*
X0311976Y0110398D01*
X0312341Y0110609D01*
X0312639Y0110907D01*
X0312850Y0111271D01*
X0312959Y0111678D01*
X0312959Y0113848D01*
X0309006Y0113848D01*
X0309006Y0115048D01*
X0312959Y0115048D01*
X0312959Y0117218D01*
X0312850Y0117625D01*
X0312639Y0117989D01*
X0312582Y0118047D01*
X0313159Y0118624D01*
X0313159Y0125233D01*
X0312105Y0126287D01*
X0311070Y0126287D01*
X0311442Y0126660D01*
X0311987Y0127976D01*
X0311987Y0129400D01*
X0311827Y0129788D01*
X0320581Y0129788D01*
X0320106Y0128643D01*
X0320106Y0126733D01*
X0320837Y0124969D01*
X0322187Y0123619D01*
X0323951Y0122888D01*
X0325861Y0122888D01*
X0327625Y0123619D01*
X0328975Y0124969D01*
X0329706Y0126733D01*
X0329706Y0128643D01*
X0328975Y0130407D01*
X0327625Y0131757D01*
X0326344Y0132288D01*
X0328384Y0132288D01*
X0329266Y0132654D01*
X0335441Y0138829D01*
X0335806Y0139711D01*
X0335806Y0152166D01*
X0335441Y0153048D01*
X0329441Y0159048D01*
X0328766Y0159723D01*
X0328386Y0159880D01*
X0329206Y0160700D01*
X0329206Y0164676D01*
X0326394Y0167488D01*
X0322418Y0167488D01*
X0321570Y0166640D01*
X0321806Y0167211D01*
X0321806Y0168500D01*
X0322418Y0167888D01*
X0326394Y0167888D01*
X0329206Y0170700D01*
X0329206Y0174676D01*
X0326394Y0177488D01*
X0322418Y0177488D01*
X0321806Y0176876D01*
X0321806Y0178500D01*
X0322418Y0177888D01*
X0326394Y0177888D01*
X0329206Y0180700D01*
X0329206Y0184676D01*
X0326394Y0187488D01*
X0322418Y0187488D01*
X0321452Y0186522D01*
X0321441Y0186548D01*
X0318266Y0189723D01*
X0318240Y0189734D01*
X0319206Y0190700D01*
X0319206Y0194676D01*
X0318594Y0195288D01*
X0319884Y0195288D01*
X0320454Y0195525D01*
X0319606Y0194676D01*
X0319606Y0190700D01*
X0322418Y0187888D01*
X0326394Y0187888D01*
X0329206Y0190700D01*
X0329206Y0194676D01*
X0326394Y0197488D01*
X0322600Y0197488D01*
X0323000Y0197888D01*
X0326394Y0197888D01*
X0329206Y0200700D01*
X0329206Y0204676D01*
X0326394Y0207488D01*
X0322600Y0207488D01*
X0323000Y0207888D01*
X0326394Y0207888D01*
X0329206Y0210700D01*
X0329206Y0214676D01*
X0326394Y0217488D01*
X0322987Y0217488D01*
X0322987Y0218088D01*
X0324006Y0218088D01*
X0324006Y0222288D01*
X0324806Y0222288D01*
X0324806Y0218088D01*
X0326312Y0218088D01*
X0329006Y0220783D01*
X0329006Y0222288D01*
X0324806Y0222288D01*
X0324806Y0223088D01*
X0324006Y0223088D01*
X0324006Y0227288D01*
X0322501Y0227288D01*
X0321351Y0226138D01*
X0320766Y0226723D01*
X0317997Y0229491D01*
X0319206Y0230700D01*
X0319206Y0234676D01*
X0316394Y0237488D01*
X0312418Y0237488D01*
X0311018Y0236088D01*
X0242730Y0236088D01*
X0241480Y0235571D01*
X0237024Y0231114D01*
X0236506Y0229864D01*
X0236506Y0216988D01*
X0231306Y0216988D01*
X0231306Y0218666D01*
X0230941Y0219548D01*
X0228987Y0221501D01*
X0228987Y0222400D01*
X0228442Y0223717D01*
X0227435Y0224724D01*
X0226118Y0225269D01*
X0224694Y0225269D01*
X0223378Y0224724D01*
X0222370Y0223717D01*
X0221825Y0222400D01*
X0221825Y0220976D01*
X0222370Y0219660D01*
X0223378Y0218652D01*
X0224694Y0218107D01*
X0225593Y0218107D01*
X0226506Y0217194D01*
X0226506Y0216639D01*
X0226320Y0216562D01*
X0226240Y0216482D01*
X0207988Y0216482D01*
X0208940Y0217434D01*
X0209671Y0219198D01*
X0209671Y0221107D01*
X0208940Y0222872D01*
X0207590Y0224222D01*
X0205825Y0224953D01*
X0203916Y0224953D01*
X0202152Y0224222D01*
X0200801Y0222872D01*
X0200071Y0221107D01*
X0200071Y0219198D01*
X0200801Y0217434D01*
X0201753Y0216482D01*
X0201188Y0216482D01*
X0200519Y0217151D01*
X0198754Y0217882D01*
X0196845Y0217882D01*
X0195081Y0217151D01*
X0193730Y0215801D01*
X0193000Y0214036D01*
X0193000Y0213090D01*
X0174959Y0195049D01*
X0174959Y0196328D01*
X0171006Y0196328D01*
X0171006Y0197528D01*
X0174959Y0197528D01*
X0174959Y0199698D01*
X0174850Y0200105D01*
X0174639Y0200470D01*
X0174341Y0200768D01*
X0173976Y0200978D01*
X0173570Y0201087D01*
X0171006Y0201087D01*
X0171006Y0197528D01*
X0169806Y0197528D01*
X0169806Y0196328D01*
X0165853Y0196328D01*
X0165853Y0196135D01*
X0165159Y0196830D01*
X0165159Y0200233D01*
X0164105Y0201287D01*
X0156708Y0201287D01*
X0155653Y0200233D01*
X0155653Y0193624D01*
X0156089Y0193188D01*
X0155653Y0192753D01*
X0155653Y0191848D01*
X0155159Y0191848D01*
X0155159Y0192753D01*
X0154582Y0193330D01*
X0154639Y0193387D01*
X0154850Y0193752D01*
X0154959Y0194159D01*
X0154959Y0196328D01*
X0151006Y0196328D01*
X0151006Y0197528D01*
X0154959Y0197528D01*
X0154959Y0199698D01*
X0154850Y0200105D01*
X0154639Y0200470D01*
X0154341Y0200768D01*
X0153976Y0200978D01*
X0153570Y0201087D01*
X0151006Y0201087D01*
X0151006Y0197528D01*
X0149806Y0197528D01*
X0149806Y0201087D01*
X0149199Y0201087D01*
X0176400Y0228288D01*
X0207384Y0228288D01*
X0207461Y0228320D01*
X0207455Y0228301D01*
X0207342Y0227586D01*
X0207342Y0226862D01*
X0207455Y0226147D01*
X0207679Y0225458D01*
X0208007Y0224813D01*
X0208410Y0224258D01*
X0211376Y0227224D01*
X0211942Y0226658D01*
X0212507Y0227224D01*
X0215473Y0224258D01*
X0215876Y0224813D01*
X0216205Y0225458D01*
X0216428Y0226147D01*
X0216530Y0226788D01*
X0226384Y0226788D01*
X0227266Y0227154D01*
X0227941Y0227829D01*
X0233219Y0233107D01*
X0234118Y0233107D01*
X0235435Y0233652D01*
X0236442Y0234660D01*
X0236987Y0235976D01*
X0236987Y0237400D01*
X0236620Y0238288D01*
X0238742Y0238288D01*
X0239378Y0237652D01*
X0240694Y0237107D01*
X0242118Y0237107D01*
X0243435Y0237652D01*
X0244442Y0238660D01*
X0244987Y0239976D01*
X0244987Y0241400D01*
X0244442Y0242717D01*
X0243435Y0243724D01*
X0242118Y0244269D01*
X0240694Y0244269D01*
X0239378Y0243724D01*
X0241406Y0240688D02*
X0212406Y0240688D01*
X0204406Y0232688D01*
X0139406Y0232688D01*
X0130406Y0223688D01*
X0091406Y0223688D01*
X0090406Y0224688D01*
X0090406Y0228948D01*
X0088006Y0224274D02*
X0087806Y0224274D01*
X0087806Y0223075D02*
X0088625Y0223075D01*
X0087806Y0221877D02*
X0089823Y0221877D01*
X0087806Y0220678D02*
X0162002Y0220678D01*
X0160804Y0219480D02*
X0087806Y0219480D01*
X0087806Y0218281D02*
X0159605Y0218281D01*
X0158407Y0217083D02*
X0087806Y0217083D01*
X0087806Y0215884D02*
X0157208Y0215884D01*
X0156010Y0214686D02*
X0087298Y0214686D01*
X0086766Y0214154D02*
X0086766Y0214154D01*
X0086099Y0213487D02*
X0154811Y0213487D01*
X0153613Y0212289D02*
X0084901Y0212289D01*
X0083702Y0211090D02*
X0152414Y0211090D01*
X0151216Y0209892D02*
X0082504Y0209892D01*
X0081305Y0208693D02*
X0150017Y0208693D01*
X0148819Y0207495D02*
X0080107Y0207495D01*
X0078908Y0206296D02*
X0147620Y0206296D01*
X0146422Y0205098D02*
X0077710Y0205098D01*
X0076511Y0203899D02*
X0145223Y0203899D01*
X0144024Y0202701D02*
X0075313Y0202701D01*
X0074114Y0201502D02*
X0142826Y0201502D01*
X0142063Y0200304D02*
X0072916Y0200304D01*
X0071717Y0199105D02*
X0142006Y0199105D01*
X0142006Y0197907D02*
X0070519Y0197907D01*
X0069320Y0196708D02*
X0142006Y0196708D01*
X0142006Y0195510D02*
X0068122Y0195510D01*
X0066923Y0194311D02*
X0142006Y0194311D01*
X0142006Y0193112D02*
X0065725Y0193112D01*
X0064526Y0191914D02*
X0142006Y0191914D01*
X0142006Y0190715D02*
X0063328Y0190715D01*
X0063306Y0189517D02*
X0142294Y0189517D01*
X0143372Y0188329D02*
X0143372Y0188329D01*
X0143382Y0188318D02*
X0063306Y0188318D01*
X0062560Y0187120D02*
X0145653Y0187120D01*
X0145875Y0185921D02*
X0061362Y0185921D01*
X0058906Y0189688D02*
X0085406Y0216188D01*
X0085406Y0235688D01*
X0086146Y0236428D01*
X0090406Y0236428D01*
X0085253Y0238656D02*
X0084959Y0238656D01*
X0084706Y0239854D02*
X0085775Y0239854D01*
X0081006Y0239854D02*
X0079806Y0239854D01*
X0079806Y0240587D02*
X0077243Y0240587D01*
X0076836Y0240478D01*
X0076471Y0240268D01*
X0076173Y0239970D01*
X0075962Y0239605D01*
X0075853Y0239198D01*
X0075853Y0237028D01*
X0079806Y0237028D01*
X0079806Y0240587D01*
X0079806Y0238656D02*
X0081006Y0238656D01*
X0081006Y0237457D02*
X0079806Y0237457D01*
X0080406Y0236428D02*
X0080406Y0244688D01*
X0070406Y0244688D01*
X0070406Y0236428D01*
X0069806Y0236259D02*
X0063730Y0236259D01*
X0063306Y0237457D02*
X0065853Y0237457D01*
X0065853Y0237028D02*
X0069806Y0237028D01*
X0069806Y0240587D01*
X0067243Y0240587D01*
X0066836Y0240478D01*
X0066471Y0240268D01*
X0066173Y0239970D01*
X0065962Y0239605D01*
X0065853Y0239198D01*
X0065853Y0237028D01*
X0065853Y0238656D02*
X0063306Y0238656D01*
X0062962Y0239854D02*
X0066106Y0239854D01*
X0069806Y0239854D02*
X0071006Y0239854D01*
X0071006Y0238656D02*
X0069806Y0238656D01*
X0069806Y0237457D02*
X0071006Y0237457D01*
X0071006Y0236259D02*
X0079806Y0236259D01*
X0076064Y0232663D02*
X0074748Y0232663D01*
X0074959Y0233862D02*
X0075853Y0233862D01*
X0075853Y0235060D02*
X0074959Y0235060D01*
X0074959Y0237457D02*
X0075853Y0237457D01*
X0075853Y0238656D02*
X0074959Y0238656D01*
X0074706Y0239854D02*
X0076106Y0239854D01*
X0080406Y0244688D02*
X0109406Y0244688D01*
X0109406Y0235928D01*
X0108806Y0236259D02*
X0103690Y0236259D01*
X0104853Y0236528D02*
X0108806Y0236528D01*
X0108806Y0240087D01*
X0106243Y0240087D01*
X0105836Y0239978D01*
X0105471Y0239768D01*
X0105173Y0239470D01*
X0104962Y0239105D01*
X0104853Y0238698D01*
X0104853Y0236528D01*
X0104853Y0237457D02*
X0103987Y0237457D01*
X0103881Y0238656D02*
X0104853Y0238656D01*
X0105621Y0239854D02*
X0103304Y0239854D01*
X0101641Y0241053D02*
X0209377Y0241053D01*
X0210575Y0242251D02*
X0047206Y0242251D01*
X0047206Y0241053D02*
X0056048Y0241053D01*
X0054850Y0239854D02*
X0047206Y0239854D01*
X0047206Y0238656D02*
X0054506Y0238656D01*
X0054506Y0237457D02*
X0047206Y0237457D01*
X0047206Y0236259D02*
X0054506Y0236259D01*
X0055311Y0235060D02*
X0047206Y0235060D01*
X0047206Y0233862D02*
X0056510Y0233862D01*
X0057084Y0232088D02*
X0054506Y0229511D01*
X0054506Y0225866D01*
X0057084Y0223288D01*
X0060729Y0223288D01*
X0063306Y0225866D01*
X0063306Y0229511D01*
X0060729Y0232088D01*
X0057084Y0232088D01*
X0056460Y0231465D02*
X0047206Y0231465D01*
X0047206Y0232663D02*
X0060537Y0232663D01*
X0061352Y0231465D02*
X0061735Y0231465D01*
X0062550Y0230266D02*
X0062934Y0230266D01*
X0063306Y0229068D02*
X0064132Y0229068D01*
X0063306Y0227869D02*
X0065331Y0227869D01*
X0065653Y0226671D02*
X0063306Y0226671D01*
X0062913Y0225472D02*
X0065824Y0225472D01*
X0067646Y0228948D02*
X0058906Y0237688D01*
X0061764Y0241053D02*
X0099172Y0241053D01*
X0097508Y0239854D02*
X0095037Y0239854D01*
X0095159Y0238656D02*
X0096931Y0238656D01*
X0096825Y0237457D02*
X0095159Y0237457D01*
X0095159Y0236259D02*
X0097122Y0236259D01*
X0097969Y0235060D02*
X0095159Y0235060D01*
X0095159Y0233862D02*
X0098006Y0233862D01*
X0098006Y0232663D02*
X0094748Y0232663D01*
X0095159Y0231465D02*
X0098006Y0231465D01*
X0098434Y0230266D02*
X0095159Y0230266D01*
X0095159Y0229068D02*
X0099632Y0229068D01*
X0100831Y0227869D02*
X0095159Y0227869D01*
X0095159Y0226671D02*
X0102029Y0226671D01*
X0103646Y0228448D02*
X0100406Y0231688D01*
X0100406Y0237688D01*
X0102843Y0235060D02*
X0104853Y0235060D01*
X0104853Y0233862D02*
X0102806Y0233862D01*
X0102825Y0232663D02*
X0105013Y0232663D01*
X0104653Y0231465D02*
X0104024Y0231465D01*
X0103646Y0228448D02*
X0119406Y0228448D01*
X0109406Y0228448D01*
X0114159Y0231465D02*
X0114653Y0231465D01*
X0114653Y0232663D02*
X0113799Y0232663D01*
X0113959Y0233862D02*
X0114653Y0233862D01*
X0114653Y0235060D02*
X0113959Y0235060D01*
X0114653Y0236259D02*
X0110006Y0236259D01*
X0110006Y0237457D02*
X0108806Y0237457D01*
X0108806Y0238656D02*
X0110006Y0238656D01*
X0110006Y0239854D02*
X0108806Y0239854D01*
X0113191Y0239854D02*
X0115275Y0239854D01*
X0114653Y0238656D02*
X0113959Y0238656D01*
X0113959Y0237457D02*
X0114653Y0237457D01*
X0119406Y0235928D02*
X0120166Y0236688D01*
X0201406Y0236688D01*
X0202406Y0235688D01*
X0205549Y0237457D02*
X0205781Y0237457D01*
X0206980Y0238656D02*
X0204503Y0238656D01*
X0208178Y0239854D02*
X0123537Y0239854D01*
X0109406Y0244688D02*
X0356406Y0244688D01*
X0356406Y0086999D01*
X0356406Y0054688D01*
X0235406Y0054688D01*
X0213406Y0054688D01*
X0178906Y0054688D01*
X0178906Y0058688D01*
X0176612Y0058879D02*
X0198853Y0058879D01*
X0198853Y0058678D02*
X0198962Y0058271D01*
X0199173Y0057907D01*
X0199471Y0057609D01*
X0199836Y0057398D01*
X0200243Y0057289D01*
X0202806Y0057289D01*
X0202806Y0060848D01*
X0198853Y0060848D01*
X0198853Y0058678D01*
X0199399Y0057681D02*
X0047206Y0057681D01*
X0047206Y0058879D02*
X0067823Y0058879D01*
X0067995Y0058754D02*
X0068640Y0058425D01*
X0069329Y0058201D01*
X0070006Y0058094D01*
X0070006Y0062288D01*
X0065812Y0062288D01*
X0065919Y0061611D01*
X0066143Y0060922D01*
X0066472Y0060277D01*
X0066897Y0059691D01*
X0067409Y0059179D01*
X0067995Y0058754D01*
X0066617Y0060078D02*
X0047206Y0060078D01*
X0047206Y0061276D02*
X0066028Y0061276D01*
X0065812Y0063088D02*
X0070006Y0063088D01*
X0070006Y0062288D01*
X0070806Y0062288D01*
X0070806Y0058094D01*
X0071483Y0058201D01*
X0072172Y0058425D01*
X0072817Y0058754D01*
X0073403Y0059179D01*
X0073915Y0059691D01*
X0074340Y0060277D01*
X0074669Y0060922D01*
X0074893Y0061611D01*
X0075000Y0062288D01*
X0070806Y0062288D01*
X0070806Y0063088D01*
X0070006Y0063088D01*
X0070006Y0067282D01*
X0069329Y0067175D01*
X0068640Y0066951D01*
X0067995Y0066622D01*
X0067409Y0066197D01*
X0066897Y0065685D01*
X0066472Y0065099D01*
X0066143Y0064454D01*
X0065919Y0063765D01*
X0065812Y0063088D01*
X0065905Y0063673D02*
X0047206Y0063673D01*
X0047206Y0062475D02*
X0070006Y0062475D01*
X0070806Y0062475D02*
X0075606Y0062475D01*
X0075000Y0063088D02*
X0074893Y0063765D01*
X0074669Y0064454D01*
X0074340Y0065099D01*
X0073915Y0065685D01*
X0073403Y0066197D01*
X0072817Y0066622D01*
X0072172Y0066951D01*
X0071483Y0067175D01*
X0070806Y0067282D01*
X0070806Y0063088D01*
X0075000Y0063088D01*
X0074907Y0063673D02*
X0075619Y0063673D01*
X0076115Y0064872D02*
X0074456Y0064872D01*
X0073529Y0066070D02*
X0077000Y0066070D01*
X0078922Y0067269D02*
X0070890Y0067269D01*
X0070806Y0067269D02*
X0070006Y0067269D01*
X0069922Y0067269D02*
X0047206Y0067269D01*
X0047206Y0068467D02*
X0068053Y0068467D01*
X0067687Y0068619D02*
X0069451Y0067888D01*
X0071361Y0067888D01*
X0073125Y0068619D01*
X0074475Y0069969D01*
X0075206Y0071733D01*
X0075206Y0073246D01*
X0075608Y0073647D01*
X0075606Y0073643D01*
X0075606Y0071733D01*
X0076337Y0069969D01*
X0077687Y0068619D01*
X0079451Y0067888D01*
X0081361Y0067888D01*
X0083125Y0068619D01*
X0084194Y0069688D01*
X0085653Y0069688D01*
X0085653Y0069143D01*
X0086708Y0068089D01*
X0094105Y0068089D01*
X0095159Y0069143D01*
X0095159Y0069448D01*
X0102263Y0069448D01*
X0103365Y0069905D01*
X0104209Y0070749D01*
X0114449Y0080989D01*
X0114684Y0081555D01*
X0114933Y0081658D01*
X0116436Y0083161D01*
X0117249Y0085125D01*
X0117249Y0087251D01*
X0116436Y0089215D01*
X0114933Y0090718D01*
X0112969Y0091531D01*
X0110843Y0091531D01*
X0108879Y0090718D01*
X0107376Y0089215D01*
X0106563Y0087251D01*
X0106563Y0085125D01*
X0107376Y0083161D01*
X0107757Y0082781D01*
X0100423Y0075448D01*
X0095159Y0075448D01*
X0095159Y0075753D01*
X0094723Y0076188D01*
X0095159Y0076624D01*
X0095159Y0076688D01*
X0098503Y0076688D01*
X0099606Y0077145D01*
X0100449Y0077989D01*
X0102638Y0080178D01*
X0103095Y0081280D01*
X0103095Y0081647D01*
X0103122Y0081658D01*
X0104625Y0083161D01*
X0105438Y0085125D01*
X0105438Y0087251D01*
X0104625Y0089215D01*
X0103122Y0090718D01*
X0101158Y0091531D01*
X0099032Y0091531D01*
X0097068Y0090718D01*
X0095565Y0089215D01*
X0094752Y0087251D01*
X0094752Y0085125D01*
X0095565Y0083161D01*
X0096039Y0082688D01*
X0095159Y0082688D01*
X0095159Y0083233D01*
X0094105Y0084287D01*
X0086708Y0084287D01*
X0085653Y0083233D01*
X0085653Y0082416D01*
X0085207Y0082231D01*
X0085206Y0082231D01*
X0085206Y0083643D01*
X0084475Y0085407D01*
X0083125Y0086757D01*
X0081361Y0087488D01*
X0079451Y0087488D01*
X0077687Y0086757D01*
X0076337Y0085407D01*
X0075606Y0083643D01*
X0075606Y0081733D01*
X0076039Y0080688D01*
X0074809Y0080688D01*
X0074766Y0080670D01*
X0075206Y0081733D01*
X0075206Y0083643D01*
X0074475Y0085407D01*
X0073125Y0086757D01*
X0071361Y0087488D01*
X0069451Y0087488D01*
X0067687Y0086757D01*
X0066337Y0085407D01*
X0065606Y0083643D01*
X0065606Y0081733D01*
X0066337Y0079969D01*
X0067687Y0078619D01*
X0069451Y0077888D01*
X0071361Y0077888D01*
X0071365Y0077890D01*
X0070964Y0077488D01*
X0069451Y0077488D01*
X0067687Y0076757D01*
X0066337Y0075407D01*
X0066276Y0075260D01*
X0066207Y0075231D01*
X0065363Y0074388D01*
X0064906Y0073285D01*
X0064906Y0072091D01*
X0065363Y0070989D01*
X0066207Y0070145D01*
X0066276Y0070116D01*
X0066337Y0069969D01*
X0067687Y0068619D01*
X0066640Y0069666D02*
X0047206Y0069666D01*
X0047206Y0070864D02*
X0065487Y0070864D01*
X0064918Y0072063D02*
X0047206Y0072063D01*
X0047206Y0073261D02*
X0064906Y0073261D01*
X0065435Y0074460D02*
X0047206Y0074460D01*
X0047206Y0075658D02*
X0066588Y0075658D01*
X0067927Y0076857D02*
X0047206Y0076857D01*
X0047206Y0078055D02*
X0069048Y0078055D01*
X0067052Y0079254D02*
X0047206Y0079254D01*
X0047206Y0080452D02*
X0066137Y0080452D01*
X0065640Y0081651D02*
X0047206Y0081651D01*
X0047206Y0082849D02*
X0065606Y0082849D01*
X0065774Y0084048D02*
X0047206Y0084048D01*
X0047206Y0085246D02*
X0066270Y0085246D01*
X0067375Y0086445D02*
X0047206Y0086445D01*
X0047206Y0087644D02*
X0094914Y0087644D01*
X0094752Y0086445D02*
X0083438Y0086445D01*
X0084542Y0085246D02*
X0094752Y0085246D01*
X0094344Y0084048D02*
X0095198Y0084048D01*
X0095159Y0082849D02*
X0095877Y0082849D01*
X0095411Y0088842D02*
X0047206Y0088842D01*
X0047206Y0090041D02*
X0096391Y0090041D01*
X0098326Y0091239D02*
X0047206Y0091239D01*
X0047206Y0092438D02*
X0120348Y0092438D01*
X0119150Y0093636D02*
X0073142Y0093636D01*
X0074341Y0094835D02*
X0093695Y0094835D01*
X0092716Y0096033D02*
X0074916Y0096033D01*
X0075206Y0097232D02*
X0092325Y0097232D01*
X0091770Y0098430D02*
X0075206Y0098430D01*
X0074798Y0099629D02*
X0091040Y0099629D01*
X0091006Y0100827D02*
X0074055Y0100827D01*
X0072478Y0102026D02*
X0091006Y0102026D01*
X0091006Y0103224D02*
X0072172Y0103224D01*
X0071361Y0102888D02*
X0073125Y0103619D01*
X0074475Y0104969D01*
X0075206Y0106733D01*
X0075206Y0108643D01*
X0074475Y0110407D01*
X0073125Y0111757D01*
X0071361Y0112488D01*
X0069451Y0112488D01*
X0067687Y0111757D01*
X0066337Y0110407D01*
X0065606Y0108643D01*
X0065606Y0106733D01*
X0066337Y0104969D01*
X0067687Y0103619D01*
X0069451Y0102888D01*
X0071361Y0102888D01*
X0068640Y0103224D02*
X0063306Y0103224D01*
X0063306Y0104423D02*
X0066883Y0104423D01*
X0066067Y0105621D02*
X0063306Y0105621D01*
X0063306Y0106820D02*
X0065606Y0106820D01*
X0065606Y0108018D02*
X0063306Y0108018D01*
X0063306Y0109217D02*
X0065844Y0109217D01*
X0066345Y0110415D02*
X0063306Y0110415D01*
X0063306Y0111614D02*
X0067544Y0111614D01*
X0067687Y0113619D02*
X0069451Y0112888D01*
X0071361Y0112888D01*
X0073125Y0113619D01*
X0074475Y0114969D01*
X0075206Y0116733D01*
X0075206Y0118643D01*
X0074475Y0120407D01*
X0073125Y0121757D01*
X0071361Y0122488D01*
X0069451Y0122488D01*
X0067687Y0121757D01*
X0066337Y0120407D01*
X0065606Y0118643D01*
X0065606Y0116733D01*
X0066337Y0114969D01*
X0067687Y0113619D01*
X0067295Y0114011D02*
X0063306Y0114011D01*
X0063306Y0115209D02*
X0066237Y0115209D01*
X0065741Y0116408D02*
X0063306Y0116408D01*
X0063306Y0117606D02*
X0065606Y0117606D01*
X0065673Y0118805D02*
X0063306Y0118805D01*
X0063306Y0120003D02*
X0066170Y0120003D01*
X0067132Y0121202D02*
X0063306Y0121202D01*
X0063306Y0122400D02*
X0069239Y0122400D01*
X0069329Y0123201D02*
X0070006Y0123094D01*
X0070006Y0127288D01*
X0070806Y0127288D01*
X0070806Y0123094D01*
X0071483Y0123201D01*
X0072172Y0123425D01*
X0072817Y0123754D01*
X0073403Y0124179D01*
X0073915Y0124691D01*
X0074340Y0125277D01*
X0074669Y0125922D01*
X0074893Y0126611D01*
X0075000Y0127288D01*
X0070806Y0127288D01*
X0070806Y0128088D01*
X0075000Y0128088D01*
X0074893Y0128765D01*
X0074669Y0129454D01*
X0074340Y0130099D01*
X0073915Y0130685D01*
X0073403Y0131197D01*
X0072817Y0131622D01*
X0072172Y0131951D01*
X0071483Y0132175D01*
X0070806Y0132282D01*
X0070806Y0128088D01*
X0070006Y0128088D01*
X0070006Y0127288D01*
X0065812Y0127288D01*
X0065919Y0126611D01*
X0066143Y0125922D01*
X0066472Y0125277D01*
X0066897Y0124691D01*
X0067409Y0124179D01*
X0067995Y0123754D01*
X0068640Y0123425D01*
X0069329Y0123201D01*
X0070006Y0123599D02*
X0070806Y0123599D01*
X0070806Y0124797D02*
X0070006Y0124797D01*
X0070006Y0125996D02*
X0070806Y0125996D01*
X0070806Y0127194D02*
X0070006Y0127194D01*
X0070006Y0128088D02*
X0065812Y0128088D01*
X0065919Y0128765D01*
X0066143Y0129454D01*
X0066472Y0130099D01*
X0066897Y0130685D01*
X0067409Y0131197D01*
X0067995Y0131622D01*
X0068640Y0131951D01*
X0069329Y0132175D01*
X0070006Y0132282D01*
X0070006Y0128088D01*
X0070006Y0128393D02*
X0070806Y0128393D01*
X0070806Y0129591D02*
X0070006Y0129591D01*
X0070006Y0130790D02*
X0070806Y0130790D01*
X0070806Y0131988D02*
X0070006Y0131988D01*
X0068755Y0131988D02*
X0065515Y0131988D01*
X0064316Y0130790D02*
X0067003Y0130790D01*
X0066213Y0129591D02*
X0063306Y0129591D01*
X0063306Y0128393D02*
X0065860Y0128393D01*
X0065827Y0127194D02*
X0063306Y0127194D01*
X0063306Y0125996D02*
X0066119Y0125996D01*
X0066821Y0124797D02*
X0063306Y0124797D01*
X0063306Y0123599D02*
X0068300Y0123599D01*
X0071573Y0122400D02*
X0097325Y0122400D01*
X0097439Y0121202D02*
X0073681Y0121202D01*
X0074643Y0120003D02*
X0089929Y0120003D01*
X0089836Y0119978D02*
X0089471Y0119768D01*
X0089173Y0119470D01*
X0088962Y0119105D01*
X0088853Y0118698D01*
X0088853Y0116528D01*
X0092806Y0116528D01*
X0092806Y0120087D01*
X0090243Y0120087D01*
X0089836Y0119978D01*
X0088882Y0118805D02*
X0075139Y0118805D01*
X0075206Y0117606D02*
X0088853Y0117606D01*
X0088853Y0115209D02*
X0074575Y0115209D01*
X0075071Y0116408D02*
X0092806Y0116408D01*
X0092806Y0117606D02*
X0094006Y0117606D01*
X0094006Y0116408D02*
X0101806Y0116408D01*
X0103006Y0116408D02*
X0151944Y0116408D01*
X0150745Y0117606D02*
X0106959Y0117606D01*
X0106959Y0116528D02*
X0106959Y0118698D01*
X0106850Y0119105D01*
X0106802Y0119188D01*
X0116153Y0119188D01*
X0116153Y0119143D01*
X0117208Y0118089D01*
X0124605Y0118089D01*
X0125656Y0119141D01*
X0126708Y0118089D01*
X0134105Y0118089D01*
X0134906Y0118891D01*
X0135708Y0118089D01*
X0143105Y0118089D01*
X0144159Y0119143D01*
X0144159Y0124193D01*
X0171264Y0097088D01*
X0125314Y0097088D01*
X0112806Y0109596D01*
X0112806Y0111039D01*
X0112987Y0111476D01*
X0112987Y0112900D01*
X0112442Y0114217D01*
X0111435Y0115224D01*
X0110118Y0115769D01*
X0108694Y0115769D01*
X0107378Y0115224D01*
X0106959Y0114805D01*
X0106959Y0115328D01*
X0103006Y0115328D01*
X0103006Y0116528D01*
X0106959Y0116528D01*
X0106959Y0115209D02*
X0107363Y0115209D01*
X0106930Y0118805D02*
X0116492Y0118805D01*
X0111449Y0115209D02*
X0153142Y0115209D01*
X0154341Y0114011D02*
X0112527Y0114011D01*
X0112987Y0112812D02*
X0155539Y0112812D01*
X0156738Y0111614D02*
X0112987Y0111614D01*
X0112806Y0110415D02*
X0157936Y0110415D01*
X0159135Y0109217D02*
X0113186Y0109217D01*
X0114384Y0108018D02*
X0160333Y0108018D01*
X0161532Y0106820D02*
X0115583Y0106820D01*
X0116781Y0105621D02*
X0162731Y0105621D01*
X0163929Y0104423D02*
X0117980Y0104423D01*
X0119178Y0103224D02*
X0165128Y0103224D01*
X0166326Y0102026D02*
X0120377Y0102026D01*
X0121576Y0100827D02*
X0167525Y0100827D01*
X0168723Y0099629D02*
X0122774Y0099629D01*
X0123973Y0098430D02*
X0169922Y0098430D01*
X0171120Y0097232D02*
X0125171Y0097232D01*
X0117951Y0094835D02*
X0098117Y0094835D01*
X0099097Y0096033D02*
X0116753Y0096033D01*
X0115554Y0097232D02*
X0099487Y0097232D01*
X0099475Y0098430D02*
X0114356Y0098430D01*
X0113157Y0099629D02*
X0098979Y0099629D01*
X0097686Y0100827D02*
X0111959Y0100827D01*
X0110760Y0102026D02*
X0095806Y0102026D01*
X0095806Y0103224D02*
X0109562Y0103224D01*
X0108363Y0104423D02*
X0106438Y0104423D01*
X0098374Y0104423D02*
X0097438Y0104423D01*
X0093406Y0108448D02*
X0093406Y0100188D01*
X0095906Y0097688D01*
X0089374Y0104423D02*
X0073929Y0104423D01*
X0074745Y0105621D02*
X0088653Y0105621D01*
X0088653Y0106820D02*
X0075206Y0106820D01*
X0075206Y0108018D02*
X0088653Y0108018D01*
X0088653Y0109217D02*
X0074968Y0109217D01*
X0074467Y0110415D02*
X0088653Y0110415D01*
X0088653Y0111614D02*
X0073269Y0111614D01*
X0073517Y0114011D02*
X0088853Y0114011D01*
X0088946Y0112812D02*
X0063306Y0112812D01*
X0056506Y0112812D02*
X0047206Y0112812D01*
X0047206Y0111614D02*
X0056506Y0111614D01*
X0056506Y0110415D02*
X0047206Y0110415D01*
X0047206Y0109217D02*
X0056506Y0109217D01*
X0056506Y0108018D02*
X0047206Y0108018D01*
X0047206Y0106820D02*
X0056506Y0106820D01*
X0056506Y0105621D02*
X0047206Y0105621D01*
X0047206Y0104423D02*
X0056506Y0104423D01*
X0056506Y0103224D02*
X0047206Y0103224D01*
X0047206Y0102026D02*
X0056506Y0102026D01*
X0056583Y0100827D02*
X0047206Y0100827D01*
X0047206Y0099629D02*
X0057157Y0099629D01*
X0058356Y0098430D02*
X0047206Y0098430D01*
X0047206Y0097232D02*
X0059554Y0097232D01*
X0060753Y0096033D02*
X0047206Y0096033D01*
X0047206Y0094835D02*
X0061951Y0094835D01*
X0061024Y0095762D02*
X0061024Y0095762D01*
X0067670Y0093636D02*
X0047206Y0093636D01*
X0064377Y0102026D02*
X0068335Y0102026D01*
X0056506Y0114011D02*
X0047206Y0114011D01*
X0047206Y0115209D02*
X0056506Y0115209D01*
X0056506Y0116408D02*
X0047206Y0116408D01*
X0047206Y0117606D02*
X0056506Y0117606D01*
X0056506Y0118805D02*
X0047206Y0118805D01*
X0047206Y0120003D02*
X0056506Y0120003D01*
X0056506Y0121202D02*
X0047206Y0121202D01*
X0047206Y0122400D02*
X0056506Y0122400D01*
X0056506Y0123599D02*
X0047206Y0123599D01*
X0047206Y0124797D02*
X0056506Y0124797D01*
X0056506Y0125996D02*
X0047206Y0125996D01*
X0047206Y0127194D02*
X0056506Y0127194D01*
X0056506Y0128393D02*
X0047206Y0128393D01*
X0047206Y0129591D02*
X0056506Y0129591D01*
X0056506Y0130790D02*
X0047206Y0130790D01*
X0047206Y0131988D02*
X0056558Y0131988D01*
X0057097Y0133187D02*
X0047206Y0133187D01*
X0047206Y0134385D02*
X0058295Y0134385D01*
X0059494Y0135584D02*
X0047206Y0135584D01*
X0047206Y0136782D02*
X0060692Y0136782D01*
X0061891Y0137981D02*
X0047206Y0137981D01*
X0047206Y0139179D02*
X0063089Y0139179D01*
X0064288Y0140378D02*
X0047206Y0140378D01*
X0047206Y0141577D02*
X0065486Y0141577D01*
X0066685Y0142775D02*
X0047206Y0142775D01*
X0047206Y0143974D02*
X0067883Y0143974D01*
X0069082Y0145172D02*
X0047206Y0145172D01*
X0047206Y0146371D02*
X0070280Y0146371D01*
X0071479Y0147569D02*
X0047206Y0147569D01*
X0047206Y0148768D02*
X0072677Y0148768D01*
X0073876Y0149966D02*
X0065194Y0149966D01*
X0064617Y0149727D02*
X0065929Y0150270D01*
X0066934Y0151275D01*
X0067478Y0152588D01*
X0067478Y0154009D01*
X0066934Y0155322D01*
X0065929Y0156326D01*
X0064617Y0156870D01*
X0063196Y0156870D01*
X0061883Y0156326D01*
X0060878Y0155322D01*
X0060335Y0154009D01*
X0060335Y0152588D01*
X0060878Y0151275D01*
X0061883Y0150270D01*
X0063196Y0149727D01*
X0064617Y0149727D01*
X0062618Y0149966D02*
X0047206Y0149966D01*
X0047206Y0151165D02*
X0060989Y0151165D01*
X0060428Y0152363D02*
X0047206Y0152363D01*
X0047206Y0153562D02*
X0060335Y0153562D01*
X0060646Y0154760D02*
X0047206Y0154760D01*
X0047206Y0155959D02*
X0061515Y0155959D01*
X0066297Y0155959D02*
X0079868Y0155959D01*
X0081067Y0157157D02*
X0047206Y0157157D01*
X0047206Y0158356D02*
X0082265Y0158356D01*
X0083464Y0159554D02*
X0047206Y0159554D01*
X0047206Y0160753D02*
X0084662Y0160753D01*
X0085861Y0161951D02*
X0047206Y0161951D01*
X0047206Y0163150D02*
X0087059Y0163150D01*
X0088258Y0164348D02*
X0066228Y0164348D01*
X0065929Y0164050D02*
X0066934Y0165055D01*
X0067478Y0166367D01*
X0067478Y0167788D01*
X0066934Y0169101D01*
X0065929Y0170106D01*
X0064617Y0170650D01*
X0063196Y0170650D01*
X0061883Y0170106D01*
X0060878Y0169101D01*
X0060335Y0167788D01*
X0060335Y0166367D01*
X0060878Y0165055D01*
X0061883Y0164050D01*
X0063196Y0163506D01*
X0064617Y0163506D01*
X0065929Y0164050D01*
X0067138Y0165547D02*
X0089456Y0165547D01*
X0090655Y0166745D02*
X0067478Y0166745D01*
X0067413Y0167944D02*
X0091853Y0167944D01*
X0093052Y0169142D02*
X0066893Y0169142D01*
X0065362Y0170341D02*
X0094250Y0170341D01*
X0093524Y0169614D02*
X0093524Y0169614D01*
X0096676Y0163150D02*
X0157006Y0163150D01*
X0157006Y0161951D02*
X0095478Y0161951D01*
X0094279Y0160753D02*
X0157006Y0160753D01*
X0157006Y0159554D02*
X0117605Y0159554D01*
X0118592Y0158356D02*
X0157006Y0158356D01*
X0157006Y0157157D02*
X0118987Y0157157D01*
X0119530Y0155959D02*
X0157006Y0155959D01*
X0157006Y0154760D02*
X0120728Y0154760D01*
X0121927Y0153562D02*
X0157006Y0153562D01*
X0157006Y0152363D02*
X0123125Y0152363D01*
X0124324Y0151165D02*
X0157006Y0151165D01*
X0157006Y0149966D02*
X0125522Y0149966D01*
X0126721Y0148768D02*
X0157006Y0148768D01*
X0157006Y0147569D02*
X0127919Y0147569D01*
X0129118Y0146371D02*
X0157006Y0146371D01*
X0157006Y0145172D02*
X0130316Y0145172D01*
X0131515Y0143974D02*
X0157006Y0143974D01*
X0157006Y0142775D02*
X0132554Y0142775D01*
X0132806Y0141577D02*
X0157006Y0141577D01*
X0157006Y0140378D02*
X0132806Y0140378D01*
X0132806Y0139179D02*
X0157006Y0139179D01*
X0157006Y0137981D02*
X0132806Y0137981D01*
X0132806Y0136782D02*
X0157006Y0136782D01*
X0157006Y0135584D02*
X0132806Y0135584D01*
X0132806Y0134385D02*
X0145767Y0134385D01*
X0144358Y0133187D02*
X0144159Y0133187D01*
X0147406Y0131188D02*
X0176406Y0102188D01*
X0293906Y0102188D01*
X0296406Y0099688D01*
X0292825Y0099629D02*
X0277686Y0099629D01*
X0277987Y0098430D02*
X0293051Y0098430D01*
X0293798Y0097232D02*
X0277886Y0097232D01*
X0277806Y0096033D02*
X0357606Y0096033D01*
X0357606Y0094835D02*
X0277806Y0094835D01*
X0277806Y0093636D02*
X0357606Y0093636D01*
X0357606Y0092438D02*
X0277806Y0092438D01*
X0277806Y0091239D02*
X0321492Y0091239D01*
X0321710Y0091398D02*
X0321056Y0090922D01*
X0320483Y0090350D01*
X0320007Y0089695D01*
X0319640Y0088974D01*
X0319390Y0088204D01*
X0319291Y0087580D01*
X0323825Y0087580D01*
X0323825Y0086418D01*
X0324987Y0086418D01*
X0324987Y0081884D01*
X0325611Y0081983D01*
X0326380Y0082233D01*
X0327102Y0082600D01*
X0327757Y0083076D01*
X0328329Y0083649D01*
X0328805Y0084304D01*
X0329173Y0085025D01*
X0329423Y0085795D01*
X0329522Y0086418D01*
X0324987Y0086418D01*
X0324987Y0087580D01*
X0329522Y0087580D01*
X0329423Y0088204D01*
X0329173Y0088974D01*
X0328805Y0089695D01*
X0328329Y0090350D01*
X0327757Y0090922D01*
X0327102Y0091398D01*
X0326380Y0091766D01*
X0325611Y0092016D01*
X0324987Y0092115D01*
X0324987Y0087580D01*
X0323825Y0087580D01*
X0323825Y0092115D01*
X0323202Y0092016D01*
X0322432Y0091766D01*
X0321710Y0091398D01*
X0320258Y0090041D02*
X0277806Y0090041D01*
X0277806Y0088842D02*
X0319597Y0088842D01*
X0319301Y0087644D02*
X0293248Y0087644D01*
X0294005Y0086445D02*
X0323825Y0086445D01*
X0323825Y0086418D02*
X0319291Y0086418D01*
X0319390Y0085795D01*
X0319640Y0085025D01*
X0320007Y0084304D01*
X0320483Y0083649D01*
X0321056Y0083076D01*
X0321710Y0082600D01*
X0322432Y0082233D01*
X0323202Y0081983D01*
X0323825Y0081884D01*
X0323825Y0086418D01*
X0324987Y0086445D02*
X0357606Y0086445D01*
X0357606Y0087644D02*
X0329512Y0087644D01*
X0329215Y0088842D02*
X0357606Y0088842D01*
X0357606Y0090041D02*
X0328554Y0090041D01*
X0327321Y0091239D02*
X0357606Y0091239D01*
X0357606Y0085246D02*
X0329245Y0085246D01*
X0328619Y0084048D02*
X0357606Y0084048D01*
X0357606Y0082849D02*
X0327445Y0082849D01*
X0324987Y0082849D02*
X0323825Y0082849D01*
X0323825Y0084048D02*
X0324987Y0084048D01*
X0324987Y0085246D02*
X0323825Y0085246D01*
X0323825Y0087644D02*
X0324987Y0087644D01*
X0324987Y0088842D02*
X0323825Y0088842D01*
X0323825Y0090041D02*
X0324987Y0090041D01*
X0324987Y0091239D02*
X0323825Y0091239D01*
X0318712Y0093068D02*
X0315906Y0095874D01*
X0314007Y0103224D02*
X0323140Y0103224D01*
X0323951Y0102888D02*
X0325861Y0102888D01*
X0327625Y0103619D01*
X0328975Y0104969D01*
X0329706Y0106733D01*
X0329706Y0108643D01*
X0328975Y0110407D01*
X0327625Y0111757D01*
X0325861Y0112488D01*
X0323951Y0112488D01*
X0322187Y0111757D01*
X0320837Y0110407D01*
X0320106Y0108643D01*
X0320106Y0106733D01*
X0320837Y0104969D01*
X0322187Y0103619D01*
X0323951Y0102888D01*
X0326672Y0103224D02*
X0333140Y0103224D01*
X0333951Y0102888D02*
X0335861Y0102888D01*
X0337625Y0103619D01*
X0338975Y0104969D01*
X0339706Y0106733D01*
X0339706Y0107680D01*
X0344289Y0112262D01*
X0344806Y0113512D01*
X0344806Y0225864D01*
X0344289Y0227114D01*
X0336789Y0234614D01*
X0335832Y0235571D01*
X0334582Y0236088D01*
X0327794Y0236088D01*
X0326394Y0237488D01*
X0322418Y0237488D01*
X0319606Y0234676D01*
X0319606Y0230700D01*
X0322418Y0227888D01*
X0326394Y0227888D01*
X0327794Y0229288D01*
X0332498Y0229288D01*
X0338006Y0223780D01*
X0338006Y0131094D01*
X0337903Y0131197D01*
X0337317Y0131622D01*
X0336672Y0131951D01*
X0335983Y0132175D01*
X0335306Y0132282D01*
X0335306Y0128088D01*
X0334506Y0128088D01*
X0334506Y0127288D01*
X0335306Y0127288D01*
X0335306Y0123094D01*
X0335983Y0123201D01*
X0336672Y0123425D01*
X0337317Y0123754D01*
X0337903Y0124179D01*
X0338006Y0124283D01*
X0338006Y0121376D01*
X0337625Y0121757D01*
X0335861Y0122488D01*
X0333951Y0122488D01*
X0332187Y0121757D01*
X0330837Y0120407D01*
X0330106Y0118643D01*
X0330106Y0116733D01*
X0330837Y0114969D01*
X0332187Y0113619D01*
X0333951Y0112888D01*
X0335298Y0112888D01*
X0334898Y0112488D01*
X0333951Y0112488D01*
X0332187Y0111757D01*
X0330837Y0110407D01*
X0330106Y0108643D01*
X0330106Y0106733D01*
X0330837Y0104969D01*
X0332187Y0103619D01*
X0333951Y0102888D01*
X0336672Y0103224D02*
X0357606Y0103224D01*
X0357606Y0102026D02*
X0299133Y0102026D01*
X0299811Y0100827D02*
X0357606Y0100827D01*
X0357606Y0099629D02*
X0299987Y0099629D01*
X0299761Y0098430D02*
X0357606Y0098430D01*
X0357606Y0097232D02*
X0299014Y0097232D01*
X0286044Y0087644D02*
X0285299Y0087644D01*
X0282766Y0087644D02*
X0281566Y0087644D01*
X0281566Y0087741D02*
X0279396Y0087741D01*
X0278989Y0087632D01*
X0278625Y0087421D01*
X0278327Y0087123D01*
X0278116Y0086758D01*
X0278007Y0086352D01*
X0278007Y0083788D01*
X0281566Y0083788D01*
X0281566Y0087741D01*
X0281566Y0086445D02*
X0282766Y0086445D01*
X0282766Y0085246D02*
X0281566Y0085246D01*
X0281566Y0084048D02*
X0282766Y0084048D01*
X0281566Y0082849D02*
X0277806Y0082849D01*
X0278007Y0082588D02*
X0278007Y0080025D01*
X0278116Y0079618D01*
X0278327Y0079253D01*
X0278625Y0078955D01*
X0278989Y0078744D01*
X0279396Y0078635D01*
X0281566Y0078635D01*
X0281566Y0082588D01*
X0278007Y0082588D01*
X0278007Y0081651D02*
X0277806Y0081651D01*
X0277806Y0080452D02*
X0278007Y0080452D01*
X0277806Y0079254D02*
X0278326Y0079254D01*
X0277847Y0078055D02*
X0286646Y0078055D01*
X0282766Y0079254D02*
X0281566Y0079254D01*
X0281566Y0080452D02*
X0282766Y0080452D01*
X0282766Y0081651D02*
X0281566Y0081651D01*
X0278007Y0084048D02*
X0277806Y0084048D01*
X0277806Y0085246D02*
X0278007Y0085246D01*
X0278032Y0086445D02*
X0277806Y0086445D01*
X0277806Y0087644D02*
X0279033Y0087644D01*
X0271006Y0085246D02*
X0195907Y0085246D01*
X0195907Y0084048D02*
X0271006Y0084048D01*
X0271006Y0082849D02*
X0195907Y0082849D01*
X0195907Y0081651D02*
X0271006Y0081651D01*
X0271006Y0080452D02*
X0195708Y0080452D01*
X0195907Y0086445D02*
X0242085Y0086445D01*
X0241142Y0087644D02*
X0195907Y0087644D01*
X0195907Y0088842D02*
X0239944Y0088842D01*
X0238745Y0090041D02*
X0195883Y0090041D01*
X0179905Y0082849D02*
X0175801Y0082849D01*
X0175987Y0081651D02*
X0179905Y0081651D01*
X0180104Y0080452D02*
X0175770Y0080452D01*
X0175036Y0079254D02*
X0271006Y0079254D01*
X0271006Y0078055D02*
X0215603Y0078055D01*
X0215435Y0078224D02*
X0214118Y0078769D01*
X0212694Y0078769D01*
X0211378Y0078224D01*
X0210370Y0077217D01*
X0209825Y0075900D01*
X0209825Y0074476D01*
X0210317Y0073287D01*
X0209708Y0073287D01*
X0208749Y0072328D01*
X0208064Y0072328D01*
X0207105Y0073287D01*
X0199708Y0073287D01*
X0198653Y0072233D01*
X0198653Y0072197D01*
X0197720Y0071811D01*
X0195907Y0069997D01*
X0195907Y0070725D01*
X0194853Y0071779D01*
X0180960Y0071779D01*
X0179905Y0070725D01*
X0179905Y0061360D01*
X0180960Y0060305D01*
X0194853Y0060305D01*
X0195907Y0061360D01*
X0195907Y0062288D01*
X0197082Y0062288D01*
X0198332Y0062806D01*
X0198853Y0063327D01*
X0198853Y0062048D01*
X0202806Y0062048D01*
X0202806Y0060848D01*
X0204006Y0060848D01*
X0204006Y0057289D01*
X0206570Y0057289D01*
X0206976Y0057398D01*
X0207341Y0057609D01*
X0207639Y0057907D01*
X0207850Y0058271D01*
X0207959Y0058678D01*
X0207959Y0060848D01*
X0204006Y0060848D01*
X0204006Y0062048D01*
X0207959Y0062048D01*
X0207959Y0064218D01*
X0207850Y0064625D01*
X0207639Y0064989D01*
X0207582Y0065047D01*
X0208064Y0065528D01*
X0208749Y0065528D01*
X0209230Y0065047D01*
X0209173Y0064989D01*
X0208962Y0064625D01*
X0208853Y0064218D01*
X0208853Y0062048D01*
X0212806Y0062048D01*
X0212806Y0060848D01*
X0208853Y0060848D01*
X0208853Y0058678D01*
X0208962Y0058271D01*
X0209173Y0057907D01*
X0209471Y0057609D01*
X0209836Y0057398D01*
X0210243Y0057289D01*
X0212806Y0057289D01*
X0212806Y0060848D01*
X0214006Y0060848D01*
X0214006Y0057289D01*
X0216570Y0057289D01*
X0216976Y0057398D01*
X0217341Y0057609D01*
X0217639Y0057907D01*
X0217850Y0058271D01*
X0217959Y0058678D01*
X0217959Y0060848D01*
X0214006Y0060848D01*
X0214006Y0062048D01*
X0217959Y0062048D01*
X0217959Y0064218D01*
X0217850Y0064625D01*
X0217639Y0064989D01*
X0217582Y0065047D01*
X0218064Y0065528D01*
X0218749Y0065528D01*
X0219230Y0065047D01*
X0219173Y0064989D01*
X0218962Y0064625D01*
X0218853Y0064218D01*
X0218853Y0062048D01*
X0222806Y0062048D01*
X0222806Y0060848D01*
X0218853Y0060848D01*
X0218853Y0058678D01*
X0218962Y0058271D01*
X0219173Y0057907D01*
X0219471Y0057609D01*
X0219836Y0057398D01*
X0220243Y0057289D01*
X0222806Y0057289D01*
X0222806Y0060848D01*
X0224006Y0060848D01*
X0224006Y0057289D01*
X0226570Y0057289D01*
X0226976Y0057398D01*
X0227341Y0057609D01*
X0227639Y0057907D01*
X0227850Y0058271D01*
X0227959Y0058678D01*
X0227959Y0060848D01*
X0224006Y0060848D01*
X0224006Y0062048D01*
X0227959Y0062048D01*
X0227959Y0064218D01*
X0227850Y0064625D01*
X0227639Y0064989D01*
X0227582Y0065047D01*
X0228159Y0065624D01*
X0228159Y0066867D01*
X0228480Y0066546D01*
X0229730Y0066028D01*
X0230749Y0066028D01*
X0231230Y0065547D01*
X0231173Y0065489D01*
X0230962Y0065125D01*
X0230853Y0064718D01*
X0230853Y0062548D01*
X0234806Y0062548D01*
X0234806Y0061348D01*
X0230853Y0061348D01*
X0230853Y0059178D01*
X0230962Y0058771D01*
X0231173Y0058407D01*
X0231471Y0058109D01*
X0231836Y0057898D01*
X0232243Y0057789D01*
X0234806Y0057789D01*
X0234806Y0061348D01*
X0236006Y0061348D01*
X0236006Y0057789D01*
X0238570Y0057789D01*
X0238976Y0057898D01*
X0239341Y0058109D01*
X0239639Y0058407D01*
X0239850Y0058771D01*
X0239959Y0059178D01*
X0239959Y0061348D01*
X0236006Y0061348D01*
X0236006Y0062548D01*
X0239959Y0062548D01*
X0239959Y0064718D01*
X0239850Y0065125D01*
X0239639Y0065489D01*
X0239582Y0065547D01*
X0240064Y0066028D01*
X0240749Y0066028D01*
X0241230Y0065547D01*
X0241173Y0065489D01*
X0240962Y0065125D01*
X0240853Y0064718D01*
X0240853Y0062548D01*
X0244806Y0062548D01*
X0244806Y0061348D01*
X0240853Y0061348D01*
X0240853Y0059178D01*
X0240962Y0058771D01*
X0241173Y0058407D01*
X0241471Y0058109D01*
X0241836Y0057898D01*
X0242243Y0057789D01*
X0244806Y0057789D01*
X0244806Y0061348D01*
X0246006Y0061348D01*
X0246006Y0057789D01*
X0248570Y0057789D01*
X0248976Y0057898D01*
X0249341Y0058109D01*
X0249639Y0058407D01*
X0249850Y0058771D01*
X0249959Y0059178D01*
X0249959Y0061348D01*
X0246006Y0061348D01*
X0246006Y0062548D01*
X0249959Y0062548D01*
X0249959Y0064718D01*
X0249850Y0065125D01*
X0249639Y0065489D01*
X0249582Y0065547D01*
X0250159Y0066124D01*
X0250159Y0066428D01*
X0250653Y0066428D01*
X0250653Y0066124D01*
X0251230Y0065547D01*
X0251173Y0065489D01*
X0250962Y0065125D01*
X0250853Y0064718D01*
X0250853Y0062548D01*
X0254806Y0062548D01*
X0254806Y0061348D01*
X0250853Y0061348D01*
X0250853Y0059178D01*
X0250962Y0058771D01*
X0251173Y0058407D01*
X0251471Y0058109D01*
X0251836Y0057898D01*
X0252243Y0057789D01*
X0254806Y0057789D01*
X0254806Y0061348D01*
X0256006Y0061348D01*
X0256006Y0057789D01*
X0258570Y0057789D01*
X0258976Y0057898D01*
X0259341Y0058109D01*
X0259639Y0058407D01*
X0259850Y0058771D01*
X0259959Y0059178D01*
X0259959Y0061348D01*
X0256006Y0061348D01*
X0256006Y0062548D01*
X0259959Y0062548D01*
X0259959Y0064718D01*
X0259850Y0065125D01*
X0259639Y0065489D01*
X0259582Y0065547D01*
X0260159Y0066124D01*
X0260159Y0072733D01*
X0259105Y0073787D01*
X0251708Y0073787D01*
X0250653Y0072733D01*
X0250653Y0072428D01*
X0250159Y0072428D01*
X0250159Y0072733D01*
X0249105Y0073787D01*
X0241708Y0073787D01*
X0240749Y0072828D01*
X0240064Y0072828D01*
X0239105Y0073787D01*
X0233987Y0073787D01*
X0233987Y0074900D01*
X0233442Y0076217D01*
X0232435Y0077224D01*
X0231118Y0077769D01*
X0229694Y0077769D01*
X0228378Y0077224D01*
X0227370Y0076217D01*
X0226825Y0074900D01*
X0226825Y0073476D01*
X0226903Y0073287D01*
X0219708Y0073287D01*
X0218749Y0072328D01*
X0218064Y0072328D01*
X0217105Y0073287D01*
X0216495Y0073287D01*
X0216987Y0074476D01*
X0216987Y0075900D01*
X0216442Y0077217D01*
X0215435Y0078224D01*
X0216591Y0076857D02*
X0228010Y0076857D01*
X0227139Y0075658D02*
X0216987Y0075658D01*
X0216981Y0074460D02*
X0226825Y0074460D01*
X0232802Y0076857D02*
X0271006Y0076857D01*
X0271153Y0075658D02*
X0233673Y0075658D01*
X0233987Y0074460D02*
X0271826Y0074460D01*
X0273025Y0073261D02*
X0259630Y0073261D01*
X0260159Y0072063D02*
X0274223Y0072063D01*
X0275422Y0070864D02*
X0260159Y0070864D01*
X0260159Y0069666D02*
X0277807Y0069666D01*
X0278829Y0068467D02*
X0260159Y0068467D01*
X0260159Y0067269D02*
X0278189Y0067269D01*
X0277807Y0066070D02*
X0260106Y0066070D01*
X0259918Y0064872D02*
X0277807Y0064872D01*
X0277807Y0063673D02*
X0259959Y0063673D01*
X0259959Y0061276D02*
X0277807Y0061276D01*
X0277807Y0060078D02*
X0259959Y0060078D01*
X0259879Y0058879D02*
X0278418Y0058879D01*
X0277807Y0062475D02*
X0256006Y0062475D01*
X0256006Y0061276D02*
X0254806Y0061276D01*
X0254806Y0060078D02*
X0256006Y0060078D01*
X0256006Y0058879D02*
X0254806Y0058879D01*
X0250934Y0058879D02*
X0249879Y0058879D01*
X0249959Y0060078D02*
X0250853Y0060078D01*
X0250853Y0061276D02*
X0249959Y0061276D01*
X0249959Y0063673D02*
X0250853Y0063673D01*
X0250895Y0064872D02*
X0249918Y0064872D01*
X0250106Y0066070D02*
X0250707Y0066070D01*
X0254806Y0062475D02*
X0246006Y0062475D01*
X0246006Y0061276D02*
X0244806Y0061276D01*
X0244806Y0060078D02*
X0246006Y0060078D01*
X0246006Y0058879D02*
X0244806Y0058879D01*
X0240934Y0058879D02*
X0239879Y0058879D01*
X0239959Y0060078D02*
X0240853Y0060078D01*
X0240853Y0061276D02*
X0239959Y0061276D01*
X0239959Y0063673D02*
X0240853Y0063673D01*
X0240895Y0064872D02*
X0239918Y0064872D01*
X0236006Y0062475D02*
X0244806Y0062475D01*
X0236006Y0061276D02*
X0234806Y0061276D01*
X0234806Y0060078D02*
X0236006Y0060078D01*
X0236006Y0058879D02*
X0234806Y0058879D01*
X0230934Y0058879D02*
X0227959Y0058879D01*
X0227959Y0060078D02*
X0230853Y0060078D01*
X0230853Y0061276D02*
X0224006Y0061276D01*
X0224006Y0060078D02*
X0222806Y0060078D01*
X0222806Y0061276D02*
X0214006Y0061276D01*
X0214006Y0060078D02*
X0212806Y0060078D01*
X0212806Y0061276D02*
X0204006Y0061276D01*
X0204006Y0060078D02*
X0202806Y0060078D01*
X0202806Y0061276D02*
X0195823Y0061276D01*
X0197533Y0062475D02*
X0198853Y0062475D01*
X0198853Y0060078D02*
X0176959Y0060078D01*
X0176959Y0061276D02*
X0179989Y0061276D01*
X0179905Y0062475D02*
X0173006Y0062475D01*
X0172406Y0062448D02*
X0162406Y0062448D01*
X0152406Y0062448D01*
X0151806Y0062475D02*
X0118001Y0062475D01*
X0119200Y0063673D02*
X0147853Y0063673D01*
X0147853Y0064872D02*
X0120398Y0064872D01*
X0121597Y0066070D02*
X0148207Y0066070D01*
X0147653Y0067269D02*
X0122795Y0067269D01*
X0123994Y0068467D02*
X0147653Y0068467D01*
X0147653Y0069666D02*
X0125192Y0069666D01*
X0126391Y0070864D02*
X0147653Y0070864D01*
X0147653Y0072063D02*
X0127589Y0072063D01*
X0128788Y0073261D02*
X0147682Y0073261D01*
X0150006Y0074460D02*
X0129986Y0074460D01*
X0131185Y0075658D02*
X0150006Y0075658D01*
X0150006Y0076857D02*
X0132383Y0076857D01*
X0133582Y0078055D02*
X0150006Y0078055D01*
X0150250Y0079254D02*
X0134780Y0079254D01*
X0135979Y0080452D02*
X0151276Y0080452D01*
X0152325Y0081651D02*
X0137177Y0081651D01*
X0138376Y0082849D02*
X0152511Y0082849D01*
X0155906Y0081688D02*
X0152406Y0078188D01*
X0152406Y0069928D01*
X0157159Y0069666D02*
X0157653Y0069666D01*
X0157653Y0070864D02*
X0157159Y0070864D01*
X0157159Y0072063D02*
X0157653Y0072063D01*
X0157682Y0073261D02*
X0157130Y0073261D01*
X0154806Y0074460D02*
X0160006Y0074460D01*
X0160006Y0075658D02*
X0154806Y0075658D01*
X0154806Y0076857D02*
X0160006Y0076857D01*
X0160006Y0078055D02*
X0155668Y0078055D01*
X0158536Y0079254D02*
X0159776Y0079254D01*
X0162406Y0081688D02*
X0162406Y0069928D01*
X0157653Y0068467D02*
X0157159Y0068467D01*
X0157159Y0067269D02*
X0157653Y0067269D01*
X0158207Y0066070D02*
X0156606Y0066070D01*
X0156959Y0064872D02*
X0157853Y0064872D01*
X0157853Y0063673D02*
X0156959Y0063673D01*
X0156959Y0061276D02*
X0157853Y0061276D01*
X0157853Y0060078D02*
X0156959Y0060078D01*
X0156612Y0058879D02*
X0158200Y0058879D01*
X0161806Y0058879D02*
X0163006Y0058879D01*
X0163006Y0060078D02*
X0161806Y0060078D01*
X0161806Y0061276D02*
X0163006Y0061276D01*
X0163006Y0062475D02*
X0171806Y0062475D01*
X0171806Y0061276D02*
X0173006Y0061276D01*
X0173006Y0060078D02*
X0171806Y0060078D01*
X0171806Y0058879D02*
X0173006Y0058879D01*
X0168200Y0058879D02*
X0166612Y0058879D01*
X0166959Y0060078D02*
X0167853Y0060078D01*
X0167853Y0061276D02*
X0166959Y0061276D01*
X0166959Y0063673D02*
X0167853Y0063673D01*
X0167853Y0064872D02*
X0166959Y0064872D01*
X0166606Y0066070D02*
X0168207Y0066070D01*
X0167653Y0067269D02*
X0167159Y0067269D01*
X0167159Y0068467D02*
X0167653Y0068467D01*
X0167653Y0069666D02*
X0167159Y0069666D01*
X0167159Y0070864D02*
X0167653Y0070864D01*
X0167653Y0072063D02*
X0167159Y0072063D01*
X0167130Y0073261D02*
X0167682Y0073261D01*
X0170006Y0074460D02*
X0164806Y0074460D01*
X0164806Y0075658D02*
X0170006Y0075658D01*
X0170006Y0076857D02*
X0164806Y0076857D01*
X0164806Y0078055D02*
X0170006Y0078055D01*
X0169776Y0079254D02*
X0165036Y0079254D01*
X0165770Y0080452D02*
X0169042Y0080452D01*
X0168825Y0081651D02*
X0165987Y0081651D01*
X0165801Y0082849D02*
X0169011Y0082849D01*
X0172406Y0081688D02*
X0172406Y0069928D01*
X0177159Y0069666D02*
X0179905Y0069666D01*
X0179905Y0068467D02*
X0177159Y0068467D01*
X0177159Y0067269D02*
X0179905Y0067269D01*
X0179905Y0066070D02*
X0176606Y0066070D01*
X0176959Y0064872D02*
X0179905Y0064872D01*
X0179905Y0063673D02*
X0176959Y0063673D01*
X0177159Y0070864D02*
X0180045Y0070864D01*
X0177159Y0072063D02*
X0198329Y0072063D01*
X0199682Y0073261D02*
X0177130Y0073261D01*
X0174806Y0074460D02*
X0209832Y0074460D01*
X0209825Y0075658D02*
X0174806Y0075658D01*
X0174806Y0076857D02*
X0210221Y0076857D01*
X0211209Y0078055D02*
X0174806Y0078055D01*
X0195768Y0070864D02*
X0196774Y0070864D01*
X0207130Y0073261D02*
X0209682Y0073261D01*
X0217130Y0073261D02*
X0219682Y0073261D01*
X0219105Y0064872D02*
X0217707Y0064872D01*
X0217959Y0063673D02*
X0218853Y0063673D01*
X0218853Y0062475D02*
X0217959Y0062475D01*
X0217959Y0060078D02*
X0218853Y0060078D01*
X0218853Y0058879D02*
X0217959Y0058879D01*
X0217413Y0057681D02*
X0219399Y0057681D01*
X0222806Y0057681D02*
X0224006Y0057681D01*
X0224006Y0058879D02*
X0222806Y0058879D01*
X0227413Y0057681D02*
X0357606Y0057681D01*
X0357606Y0058879D02*
X0327465Y0058879D01*
X0327433Y0058847D02*
X0328936Y0060350D01*
X0329749Y0062314D01*
X0329749Y0064440D01*
X0328936Y0066404D01*
X0327433Y0067907D01*
X0325469Y0068720D01*
X0323343Y0068720D01*
X0321379Y0067907D01*
X0319876Y0066404D01*
X0319063Y0064440D01*
X0319063Y0062314D01*
X0319876Y0060350D01*
X0321379Y0058847D01*
X0323343Y0058034D01*
X0325469Y0058034D01*
X0327433Y0058847D01*
X0328663Y0060078D02*
X0357606Y0060078D01*
X0357606Y0061276D02*
X0329319Y0061276D01*
X0329749Y0062475D02*
X0357606Y0062475D01*
X0357606Y0063673D02*
X0329749Y0063673D01*
X0329571Y0064872D02*
X0357606Y0064872D01*
X0357606Y0066070D02*
X0329074Y0066070D01*
X0328071Y0067269D02*
X0357606Y0067269D01*
X0357606Y0068467D02*
X0326080Y0068467D01*
X0325469Y0069845D02*
X0327433Y0070658D01*
X0328936Y0072161D01*
X0329749Y0074125D01*
X0329749Y0076251D01*
X0328936Y0078215D01*
X0327433Y0079718D01*
X0325469Y0080531D01*
X0323343Y0080531D01*
X0321379Y0079718D01*
X0319876Y0078215D01*
X0319063Y0076251D01*
X0319063Y0074125D01*
X0319876Y0072161D01*
X0321379Y0070658D01*
X0323343Y0069845D01*
X0325469Y0069845D01*
X0327639Y0070864D02*
X0357606Y0070864D01*
X0357606Y0069666D02*
X0294005Y0069666D01*
X0292983Y0068467D02*
X0322732Y0068467D01*
X0320741Y0067269D02*
X0293623Y0067269D01*
X0294005Y0066070D02*
X0319738Y0066070D01*
X0319242Y0064872D02*
X0294005Y0064872D01*
X0294005Y0063673D02*
X0319063Y0063673D01*
X0319063Y0062475D02*
X0294005Y0062475D01*
X0294005Y0061276D02*
X0319493Y0061276D01*
X0320149Y0060078D02*
X0294005Y0060078D01*
X0293395Y0058879D02*
X0321347Y0058879D01*
X0321173Y0070864D02*
X0295325Y0070864D01*
X0296523Y0072063D02*
X0319975Y0072063D01*
X0319421Y0073261D02*
X0297722Y0073261D01*
X0298921Y0074460D02*
X0319063Y0074460D01*
X0319063Y0075658D02*
X0300119Y0075658D01*
X0301102Y0076857D02*
X0319314Y0076857D01*
X0319810Y0078055D02*
X0301406Y0078055D01*
X0301688Y0079254D02*
X0320915Y0079254D01*
X0323153Y0080452D02*
X0301987Y0080452D01*
X0301884Y0081651D02*
X0357606Y0081651D01*
X0357606Y0080452D02*
X0325660Y0080452D01*
X0327897Y0079254D02*
X0357606Y0079254D01*
X0357606Y0078055D02*
X0329002Y0078055D01*
X0329498Y0076857D02*
X0357606Y0076857D01*
X0357606Y0075658D02*
X0329749Y0075658D01*
X0329749Y0074460D02*
X0357606Y0074460D01*
X0357606Y0073261D02*
X0329392Y0073261D01*
X0328837Y0072063D02*
X0357606Y0072063D01*
X0357606Y0056482D02*
X0047206Y0056482D01*
X0047206Y0055284D02*
X0357606Y0055284D01*
X0357606Y0054085D02*
X0047206Y0054085D01*
X0048406Y0054688D02*
X0070406Y0054688D01*
X0162406Y0054688D01*
X0178906Y0054688D01*
X0161806Y0062475D02*
X0153006Y0062475D01*
X0153006Y0061276D02*
X0151806Y0061276D01*
X0151806Y0060078D02*
X0153006Y0060078D01*
X0153006Y0058879D02*
X0151806Y0058879D01*
X0148200Y0058879D02*
X0083385Y0058879D01*
X0077427Y0058879D02*
X0072990Y0058879D01*
X0074195Y0060078D02*
X0076292Y0060078D01*
X0075796Y0061276D02*
X0074784Y0061276D01*
X0070806Y0061276D02*
X0070006Y0061276D01*
X0070006Y0060078D02*
X0070806Y0060078D01*
X0070806Y0058879D02*
X0070006Y0058879D01*
X0070006Y0063673D02*
X0070806Y0063673D01*
X0070806Y0064872D02*
X0070006Y0064872D01*
X0070006Y0066070D02*
X0070806Y0066070D01*
X0072759Y0068467D02*
X0078053Y0068467D01*
X0076640Y0069666D02*
X0074172Y0069666D01*
X0074846Y0070864D02*
X0075966Y0070864D01*
X0075606Y0072063D02*
X0075206Y0072063D01*
X0075222Y0073261D02*
X0075606Y0073261D01*
X0082759Y0068467D02*
X0086329Y0068467D01*
X0085653Y0069666D02*
X0084172Y0069666D01*
X0081890Y0067269D02*
X0113178Y0067269D01*
X0114377Y0068467D02*
X0094483Y0068467D01*
X0095159Y0075658D02*
X0100634Y0075658D01*
X0101832Y0076857D02*
X0098910Y0076857D01*
X0100516Y0078055D02*
X0103031Y0078055D01*
X0104229Y0079254D02*
X0101715Y0079254D01*
X0102752Y0080452D02*
X0105428Y0080452D01*
X0106626Y0081651D02*
X0103104Y0081651D01*
X0104313Y0082849D02*
X0107688Y0082849D01*
X0107009Y0084048D02*
X0104992Y0084048D01*
X0105438Y0085246D02*
X0106563Y0085246D01*
X0106563Y0086445D02*
X0105438Y0086445D01*
X0105276Y0087644D02*
X0106725Y0087644D01*
X0107222Y0088842D02*
X0104779Y0088842D01*
X0103799Y0090041D02*
X0108202Y0090041D01*
X0110137Y0091239D02*
X0101864Y0091239D01*
X0113675Y0091239D02*
X0121547Y0091239D01*
X0120013Y0090041D02*
X0115610Y0090041D01*
X0116590Y0088842D02*
X0119033Y0088842D01*
X0118536Y0087644D02*
X0117087Y0087644D01*
X0117249Y0086445D02*
X0118374Y0086445D01*
X0118374Y0085246D02*
X0117249Y0085246D01*
X0116803Y0084048D02*
X0118820Y0084048D01*
X0119499Y0082849D02*
X0116124Y0082849D01*
X0114915Y0081651D02*
X0120708Y0081651D01*
X0123965Y0078055D02*
X0111516Y0078055D01*
X0110318Y0076857D02*
X0122767Y0076857D01*
X0121568Y0075658D02*
X0109119Y0075658D01*
X0107921Y0074460D02*
X0120370Y0074460D01*
X0119171Y0073261D02*
X0106722Y0073261D01*
X0105523Y0072063D02*
X0117973Y0072063D01*
X0116774Y0070864D02*
X0104325Y0070864D01*
X0102789Y0069666D02*
X0115576Y0069666D01*
X0116803Y0061276D02*
X0147853Y0061276D01*
X0147853Y0060078D02*
X0115604Y0060078D01*
X0112715Y0079254D02*
X0125164Y0079254D01*
X0126362Y0080452D02*
X0113913Y0080452D01*
X0126726Y0081651D02*
X0127561Y0081651D01*
X0127935Y0082849D02*
X0128759Y0082849D01*
X0128614Y0084048D02*
X0129958Y0084048D01*
X0129060Y0085246D02*
X0131156Y0085246D01*
X0132355Y0086445D02*
X0129060Y0086445D01*
X0128898Y0087644D02*
X0133553Y0087644D01*
X0134752Y0088842D02*
X0128401Y0088842D01*
X0127421Y0090041D02*
X0136615Y0090041D01*
X0167978Y0114011D02*
X0177275Y0114011D01*
X0176077Y0115209D02*
X0166779Y0115209D01*
X0165581Y0116408D02*
X0174878Y0116408D01*
X0173680Y0117606D02*
X0164382Y0117606D01*
X0163184Y0118805D02*
X0172481Y0118805D01*
X0171283Y0120003D02*
X0161985Y0120003D01*
X0160787Y0121202D02*
X0170084Y0121202D01*
X0168886Y0122400D02*
X0159588Y0122400D01*
X0158390Y0123599D02*
X0167687Y0123599D01*
X0166489Y0124797D02*
X0157191Y0124797D01*
X0155993Y0125996D02*
X0165290Y0125996D01*
X0164092Y0127194D02*
X0154794Y0127194D01*
X0153596Y0128393D02*
X0162893Y0128393D01*
X0161695Y0129591D02*
X0152397Y0129591D01*
X0151199Y0130790D02*
X0160496Y0130790D01*
X0159298Y0131988D02*
X0150951Y0131988D01*
X0150454Y0133187D02*
X0158099Y0133187D01*
X0157266Y0134385D02*
X0149045Y0134385D01*
X0144753Y0123599D02*
X0144159Y0123599D01*
X0144159Y0122400D02*
X0145951Y0122400D01*
X0147150Y0121202D02*
X0144159Y0121202D01*
X0144159Y0120003D02*
X0148348Y0120003D01*
X0149547Y0118805D02*
X0143820Y0118805D01*
X0134992Y0118805D02*
X0134820Y0118805D01*
X0125992Y0118805D02*
X0125320Y0118805D01*
X0125416Y0125996D02*
X0125897Y0125996D01*
X0125653Y0127194D02*
X0125459Y0127194D01*
X0125459Y0128393D02*
X0125653Y0128393D01*
X0125653Y0129591D02*
X0121506Y0129591D01*
X0121506Y0130790D02*
X0120306Y0130790D01*
X0120306Y0130528D02*
X0120306Y0134087D01*
X0117743Y0134087D01*
X0117336Y0133978D01*
X0116971Y0133768D01*
X0116673Y0133470D01*
X0116462Y0133105D01*
X0116353Y0132698D01*
X0116353Y0130528D01*
X0120306Y0130528D01*
X0120306Y0129591D02*
X0100552Y0129591D01*
X0101281Y0130790D02*
X0116353Y0130790D01*
X0116353Y0131988D02*
X0101406Y0131988D01*
X0099354Y0128393D02*
X0116353Y0128393D01*
X0116353Y0127194D02*
X0098664Y0127194D01*
X0097778Y0125996D02*
X0116397Y0125996D01*
X0120306Y0131988D02*
X0121506Y0131988D01*
X0121506Y0133187D02*
X0120306Y0133187D01*
X0116510Y0133187D02*
X0111801Y0133187D01*
X0111959Y0134385D02*
X0128006Y0134385D01*
X0128006Y0135584D02*
X0111959Y0135584D01*
X0111959Y0137981D02*
X0112049Y0137981D01*
X0116263Y0137981D02*
X0128006Y0137981D01*
X0128006Y0139179D02*
X0117304Y0139179D01*
X0117737Y0140378D02*
X0128006Y0140378D01*
X0127124Y0141577D02*
X0117737Y0141577D01*
X0117271Y0142775D02*
X0125925Y0142775D01*
X0124727Y0143974D02*
X0116185Y0143974D01*
X0114165Y0145172D02*
X0123528Y0145172D01*
X0122330Y0146371D02*
X0112966Y0146371D01*
X0111823Y0147569D02*
X0121131Y0147569D01*
X0119933Y0148768D02*
X0101406Y0148768D01*
X0101124Y0149966D02*
X0118734Y0149966D01*
X0117536Y0151165D02*
X0100172Y0151165D01*
X0098987Y0152363D02*
X0116337Y0152363D01*
X0113596Y0153562D02*
X0098506Y0153562D01*
X0097348Y0154760D02*
X0112329Y0154760D01*
X0111832Y0155959D02*
X0089485Y0155959D01*
X0090683Y0157157D02*
X0111825Y0157157D01*
X0112221Y0158356D02*
X0091882Y0158356D01*
X0093080Y0159554D02*
X0113208Y0159554D01*
X0115406Y0156688D02*
X0130406Y0141688D01*
X0130406Y0129928D01*
X0125653Y0130790D02*
X0125459Y0130790D01*
X0125459Y0131988D02*
X0125653Y0131988D01*
X0125653Y0133187D02*
X0125303Y0133187D01*
X0128006Y0136782D02*
X0108006Y0136782D01*
X0108006Y0135584D02*
X0106806Y0135584D01*
X0106806Y0134385D02*
X0108006Y0134385D01*
X0108006Y0133187D02*
X0106806Y0133187D01*
X0098451Y0124797D02*
X0073992Y0124797D01*
X0074693Y0125996D02*
X0087034Y0125996D01*
X0086149Y0127194D02*
X0074985Y0127194D01*
X0074952Y0128393D02*
X0085825Y0128393D01*
X0085904Y0129591D02*
X0074599Y0129591D01*
X0073810Y0130790D02*
X0086406Y0130790D01*
X0086406Y0131988D02*
X0072057Y0131988D01*
X0069110Y0135584D02*
X0084653Y0135584D01*
X0084653Y0136782D02*
X0070309Y0136782D01*
X0071507Y0137981D02*
X0084653Y0137981D01*
X0084653Y0139179D02*
X0072706Y0139179D01*
X0073904Y0140378D02*
X0084899Y0140378D01*
X0084653Y0141577D02*
X0075103Y0141577D01*
X0076301Y0142775D02*
X0084653Y0142775D01*
X0084653Y0143974D02*
X0077500Y0143974D01*
X0078698Y0145172D02*
X0084653Y0145172D01*
X0084653Y0146371D02*
X0079897Y0146371D01*
X0081095Y0147569D02*
X0084990Y0147569D01*
X0086406Y0148768D02*
X0082294Y0148768D01*
X0083492Y0149966D02*
X0086243Y0149966D01*
X0085825Y0151165D02*
X0084691Y0151165D01*
X0078670Y0154760D02*
X0067167Y0154760D01*
X0067478Y0153562D02*
X0077471Y0153562D01*
X0076273Y0152363D02*
X0067385Y0152363D01*
X0066823Y0151165D02*
X0075074Y0151165D01*
X0091348Y0154760D02*
X0093465Y0154760D01*
X0102823Y0147569D02*
X0102990Y0147569D01*
X0084653Y0134385D02*
X0067912Y0134385D01*
X0066713Y0133187D02*
X0084653Y0133187D01*
X0091778Y0125996D02*
X0093034Y0125996D01*
X0097614Y0123599D02*
X0072513Y0123599D01*
X0092806Y0120003D02*
X0094006Y0120003D01*
X0094006Y0118805D02*
X0092806Y0118805D01*
X0096883Y0120003D02*
X0098027Y0120003D01*
X0077375Y0086445D02*
X0073438Y0086445D01*
X0074542Y0085246D02*
X0076270Y0085246D01*
X0075774Y0084048D02*
X0075038Y0084048D01*
X0075206Y0082849D02*
X0075606Y0082849D01*
X0075640Y0081651D02*
X0075172Y0081651D01*
X0085206Y0082849D02*
X0085653Y0082849D01*
X0085038Y0084048D02*
X0086468Y0084048D01*
X0067283Y0066070D02*
X0047206Y0066070D01*
X0047206Y0064872D02*
X0066356Y0064872D01*
X0048406Y0054688D02*
X0048406Y0244688D01*
X0070406Y0244688D01*
X0065853Y0235060D02*
X0064928Y0235060D01*
X0075159Y0231465D02*
X0075653Y0231465D01*
X0075653Y0230266D02*
X0075159Y0230266D01*
X0075159Y0229068D02*
X0075653Y0229068D01*
X0075653Y0227869D02*
X0075159Y0227869D01*
X0072338Y0224274D02*
X0061714Y0224274D01*
X0060742Y0223075D02*
X0071139Y0223075D01*
X0069941Y0221877D02*
X0061940Y0221877D01*
X0057071Y0223075D02*
X0047206Y0223075D01*
X0047206Y0221877D02*
X0055872Y0221877D01*
X0054674Y0220678D02*
X0047206Y0220678D01*
X0047206Y0219480D02*
X0054506Y0219480D01*
X0054506Y0218281D02*
X0047206Y0218281D01*
X0047206Y0217083D02*
X0054506Y0217083D01*
X0055488Y0215884D02*
X0047206Y0215884D01*
X0047206Y0214686D02*
X0056686Y0214686D01*
X0057084Y0213088D02*
X0054506Y0210511D01*
X0054506Y0206866D01*
X0057084Y0204288D01*
X0060729Y0204288D01*
X0063306Y0206866D01*
X0063306Y0210511D01*
X0060729Y0213088D01*
X0057084Y0213088D01*
X0056284Y0212289D02*
X0047206Y0212289D01*
X0047206Y0213487D02*
X0079311Y0213487D01*
X0078113Y0212289D02*
X0061528Y0212289D01*
X0062727Y0211090D02*
X0076914Y0211090D01*
X0075716Y0209892D02*
X0063306Y0209892D01*
X0063306Y0208693D02*
X0074517Y0208693D01*
X0073319Y0207495D02*
X0063306Y0207495D01*
X0062737Y0206296D02*
X0072120Y0206296D01*
X0070922Y0205098D02*
X0061538Y0205098D01*
X0060646Y0203888D02*
X0059106Y0203888D01*
X0059106Y0199888D01*
X0058706Y0199888D01*
X0058706Y0199488D01*
X0054706Y0199488D01*
X0054706Y0197948D01*
X0057166Y0195488D01*
X0058706Y0195488D01*
X0058706Y0199488D01*
X0059106Y0199488D01*
X0059106Y0195488D01*
X0060646Y0195488D01*
X0063106Y0197948D01*
X0063106Y0199488D01*
X0059106Y0199488D01*
X0059106Y0199888D01*
X0063106Y0199888D01*
X0063106Y0201428D01*
X0060646Y0203888D01*
X0061833Y0202701D02*
X0068524Y0202701D01*
X0067326Y0201502D02*
X0063032Y0201502D01*
X0063106Y0200304D02*
X0066127Y0200304D01*
X0064929Y0199105D02*
X0063106Y0199105D01*
X0063064Y0197907D02*
X0063730Y0197907D01*
X0062532Y0196708D02*
X0061866Y0196708D01*
X0061333Y0195510D02*
X0060667Y0195510D01*
X0060135Y0194311D02*
X0047206Y0194311D01*
X0047206Y0193112D02*
X0056108Y0193112D01*
X0054909Y0191914D02*
X0047206Y0191914D01*
X0047206Y0190715D02*
X0054506Y0190715D01*
X0054506Y0189517D02*
X0047206Y0189517D01*
X0047206Y0188318D02*
X0054506Y0188318D01*
X0055252Y0187120D02*
X0047206Y0187120D01*
X0047206Y0185921D02*
X0056450Y0185921D01*
X0047206Y0184723D02*
X0158006Y0184723D01*
X0158006Y0183524D02*
X0047206Y0183524D01*
X0047206Y0182326D02*
X0158006Y0182326D01*
X0158041Y0181127D02*
X0047206Y0181127D01*
X0047206Y0179929D02*
X0158771Y0179929D01*
X0159970Y0178730D02*
X0047206Y0178730D01*
X0047206Y0177532D02*
X0160825Y0177532D01*
X0161091Y0176333D02*
X0047206Y0176333D01*
X0047206Y0175135D02*
X0161895Y0175135D01*
X0163648Y0172738D02*
X0047206Y0172738D01*
X0047206Y0173936D02*
X0164846Y0173936D01*
X0162449Y0171539D02*
X0047206Y0171539D01*
X0047206Y0170341D02*
X0062450Y0170341D01*
X0060919Y0169142D02*
X0047206Y0169142D01*
X0047206Y0167944D02*
X0060399Y0167944D01*
X0060335Y0166745D02*
X0047206Y0166745D01*
X0047206Y0165547D02*
X0060674Y0165547D01*
X0061585Y0164348D02*
X0047206Y0164348D01*
X0047206Y0195510D02*
X0057145Y0195510D01*
X0058706Y0195510D02*
X0059106Y0195510D01*
X0059106Y0196708D02*
X0058706Y0196708D01*
X0058706Y0197907D02*
X0059106Y0197907D01*
X0059106Y0199105D02*
X0058706Y0199105D01*
X0058706Y0199888D02*
X0054706Y0199888D01*
X0054706Y0201428D01*
X0057166Y0203888D01*
X0058706Y0203888D01*
X0058706Y0199888D01*
X0058706Y0200304D02*
X0059106Y0200304D01*
X0059106Y0201502D02*
X0058706Y0201502D01*
X0058706Y0202701D02*
X0059106Y0202701D01*
X0055979Y0202701D02*
X0047206Y0202701D01*
X0047206Y0203899D02*
X0069723Y0203899D01*
X0056274Y0205098D02*
X0047206Y0205098D01*
X0047206Y0206296D02*
X0055076Y0206296D01*
X0054506Y0207495D02*
X0047206Y0207495D01*
X0047206Y0208693D02*
X0054506Y0208693D01*
X0054506Y0209892D02*
X0047206Y0209892D01*
X0047206Y0211090D02*
X0055086Y0211090D01*
X0061126Y0214686D02*
X0080510Y0214686D01*
X0081708Y0215884D02*
X0062325Y0215884D01*
X0058906Y0218688D02*
X0070146Y0218688D01*
X0080406Y0228948D01*
X0079126Y0224274D02*
X0083006Y0224274D01*
X0083006Y0223075D02*
X0077928Y0223075D01*
X0076729Y0221877D02*
X0083006Y0221877D01*
X0083006Y0220678D02*
X0075531Y0220678D01*
X0074332Y0219480D02*
X0083006Y0219480D01*
X0083006Y0218281D02*
X0073134Y0218281D01*
X0071935Y0217083D02*
X0082907Y0217083D01*
X0070406Y0228948D02*
X0067646Y0228948D01*
X0055262Y0230266D02*
X0047206Y0230266D01*
X0047206Y0229068D02*
X0054506Y0229068D01*
X0054506Y0227869D02*
X0047206Y0227869D01*
X0047206Y0226671D02*
X0054506Y0226671D01*
X0054899Y0225472D02*
X0047206Y0225472D01*
X0047206Y0224274D02*
X0056098Y0224274D01*
X0054780Y0201502D02*
X0047206Y0201502D01*
X0047206Y0200304D02*
X0054706Y0200304D01*
X0054706Y0199105D02*
X0047206Y0199105D01*
X0047206Y0197907D02*
X0054748Y0197907D01*
X0055947Y0196708D02*
X0047206Y0196708D01*
X0131989Y0221877D02*
X0163201Y0221877D01*
X0164399Y0223075D02*
X0133187Y0223075D01*
X0134386Y0224274D02*
X0165598Y0224274D01*
X0166796Y0225472D02*
X0135584Y0225472D01*
X0136783Y0226671D02*
X0167995Y0226671D01*
X0169193Y0227869D02*
X0137981Y0227869D01*
X0139180Y0229068D02*
X0170392Y0229068D01*
X0171590Y0230266D02*
X0140378Y0230266D01*
X0162798Y0214686D02*
X0193269Y0214686D01*
X0193000Y0213487D02*
X0161599Y0213487D01*
X0160401Y0212289D02*
X0192198Y0212289D01*
X0191000Y0211090D02*
X0159202Y0211090D01*
X0158004Y0209892D02*
X0189801Y0209892D01*
X0188603Y0208693D02*
X0156805Y0208693D01*
X0155607Y0207495D02*
X0187404Y0207495D01*
X0186206Y0206296D02*
X0154408Y0206296D01*
X0153210Y0205098D02*
X0185007Y0205098D01*
X0183809Y0203899D02*
X0152011Y0203899D01*
X0150813Y0202701D02*
X0182610Y0202701D01*
X0181412Y0201502D02*
X0149614Y0201502D01*
X0149806Y0200304D02*
X0151006Y0200304D01*
X0151006Y0199105D02*
X0149806Y0199105D01*
X0149806Y0197907D02*
X0151006Y0197907D01*
X0151006Y0196708D02*
X0155653Y0196708D01*
X0155653Y0195510D02*
X0154959Y0195510D01*
X0154959Y0194311D02*
X0155653Y0194311D01*
X0156013Y0193112D02*
X0154799Y0193112D01*
X0155159Y0191914D02*
X0155653Y0191914D01*
X0160406Y0189448D02*
X0150406Y0189448D01*
X0150166Y0189688D01*
X0145406Y0189688D01*
X0144406Y0190688D01*
X0144406Y0199688D01*
X0175406Y0230688D01*
X0206906Y0230688D01*
X0208906Y0232688D01*
X0213406Y0232688D01*
X0216906Y0229188D01*
X0225906Y0229188D01*
X0233406Y0236688D01*
X0236608Y0235060D02*
X0240970Y0235060D01*
X0239772Y0233862D02*
X0235644Y0233862D01*
X0236987Y0236259D02*
X0311189Y0236259D01*
X0312387Y0237457D02*
X0242964Y0237457D01*
X0244438Y0238656D02*
X0357606Y0238656D01*
X0357606Y0239854D02*
X0244937Y0239854D01*
X0244987Y0241053D02*
X0357606Y0241053D01*
X0357606Y0242251D02*
X0244635Y0242251D01*
X0243709Y0243450D02*
X0357606Y0243450D01*
X0357606Y0237457D02*
X0326425Y0237457D01*
X0327624Y0236259D02*
X0357606Y0236259D01*
X0357606Y0235060D02*
X0336342Y0235060D01*
X0336789Y0234614D02*
X0336789Y0234614D01*
X0337541Y0233862D02*
X0357606Y0233862D01*
X0357606Y0232663D02*
X0338739Y0232663D01*
X0339938Y0231465D02*
X0357606Y0231465D01*
X0357606Y0230266D02*
X0341136Y0230266D01*
X0342335Y0229068D02*
X0357606Y0229068D01*
X0357606Y0227869D02*
X0343533Y0227869D01*
X0344472Y0226671D02*
X0357606Y0226671D01*
X0357606Y0225472D02*
X0344806Y0225472D01*
X0344806Y0224274D02*
X0357606Y0224274D01*
X0357606Y0223075D02*
X0344806Y0223075D01*
X0344806Y0221877D02*
X0357606Y0221877D01*
X0357606Y0220678D02*
X0344806Y0220678D01*
X0344806Y0219480D02*
X0357606Y0219480D01*
X0357606Y0218281D02*
X0344806Y0218281D01*
X0344806Y0217083D02*
X0357606Y0217083D01*
X0357606Y0215884D02*
X0344806Y0215884D01*
X0344806Y0214686D02*
X0357606Y0214686D01*
X0357606Y0213487D02*
X0344806Y0213487D01*
X0344806Y0212289D02*
X0357606Y0212289D01*
X0357606Y0211090D02*
X0344806Y0211090D01*
X0344806Y0209892D02*
X0357606Y0209892D01*
X0357606Y0208693D02*
X0344806Y0208693D01*
X0344806Y0207495D02*
X0357606Y0207495D01*
X0357606Y0206296D02*
X0344806Y0206296D01*
X0344806Y0205098D02*
X0357606Y0205098D01*
X0357606Y0203899D02*
X0344806Y0203899D01*
X0344806Y0202701D02*
X0357606Y0202701D01*
X0357606Y0201502D02*
X0344806Y0201502D01*
X0344806Y0200304D02*
X0357606Y0200304D01*
X0357606Y0199105D02*
X0344806Y0199105D01*
X0344806Y0197907D02*
X0357606Y0197907D01*
X0357606Y0196708D02*
X0344806Y0196708D01*
X0344806Y0195510D02*
X0357606Y0195510D01*
X0357606Y0194311D02*
X0344806Y0194311D01*
X0344806Y0193112D02*
X0357606Y0193112D01*
X0357606Y0191914D02*
X0344806Y0191914D01*
X0344806Y0190715D02*
X0357606Y0190715D01*
X0357606Y0189517D02*
X0344806Y0189517D01*
X0344806Y0188318D02*
X0357606Y0188318D01*
X0357606Y0187120D02*
X0344806Y0187120D01*
X0344806Y0185921D02*
X0357606Y0185921D01*
X0357606Y0184723D02*
X0344806Y0184723D01*
X0344806Y0183524D02*
X0357606Y0183524D01*
X0357606Y0182326D02*
X0344806Y0182326D01*
X0344806Y0181127D02*
X0357606Y0181127D01*
X0357606Y0179929D02*
X0344806Y0179929D01*
X0344806Y0178730D02*
X0357606Y0178730D01*
X0357606Y0177532D02*
X0344806Y0177532D01*
X0344806Y0176333D02*
X0357606Y0176333D01*
X0357606Y0175135D02*
X0344806Y0175135D01*
X0344806Y0173936D02*
X0357606Y0173936D01*
X0357606Y0172738D02*
X0344806Y0172738D01*
X0344806Y0171539D02*
X0357606Y0171539D01*
X0357606Y0170341D02*
X0344806Y0170341D01*
X0344806Y0169142D02*
X0357606Y0169142D01*
X0357606Y0167944D02*
X0344806Y0167944D01*
X0344806Y0166745D02*
X0357606Y0166745D01*
X0357606Y0165547D02*
X0344806Y0165547D01*
X0344806Y0164348D02*
X0357606Y0164348D01*
X0357606Y0163150D02*
X0344806Y0163150D01*
X0344806Y0161951D02*
X0357606Y0161951D01*
X0357606Y0160753D02*
X0344806Y0160753D01*
X0344806Y0159554D02*
X0357606Y0159554D01*
X0357606Y0158356D02*
X0344806Y0158356D01*
X0344806Y0157157D02*
X0357606Y0157157D01*
X0357606Y0155959D02*
X0344806Y0155959D01*
X0344806Y0154760D02*
X0357606Y0154760D01*
X0357606Y0153562D02*
X0344806Y0153562D01*
X0344806Y0152363D02*
X0357606Y0152363D01*
X0357606Y0151165D02*
X0344806Y0151165D01*
X0344806Y0149966D02*
X0357606Y0149966D01*
X0357606Y0148768D02*
X0344806Y0148768D01*
X0344806Y0147569D02*
X0357606Y0147569D01*
X0357606Y0146371D02*
X0344806Y0146371D01*
X0344806Y0145172D02*
X0357606Y0145172D01*
X0357606Y0143974D02*
X0344806Y0143974D01*
X0344806Y0142775D02*
X0357606Y0142775D01*
X0357606Y0141577D02*
X0344806Y0141577D01*
X0344806Y0140378D02*
X0357606Y0140378D01*
X0357606Y0139179D02*
X0344806Y0139179D01*
X0344806Y0137981D02*
X0357606Y0137981D01*
X0357606Y0136782D02*
X0344806Y0136782D01*
X0344806Y0135584D02*
X0357606Y0135584D01*
X0357606Y0134385D02*
X0344806Y0134385D01*
X0344806Y0133187D02*
X0357606Y0133187D01*
X0357606Y0131988D02*
X0344806Y0131988D01*
X0344806Y0130790D02*
X0357606Y0130790D01*
X0357606Y0129591D02*
X0344806Y0129591D01*
X0344806Y0128393D02*
X0357606Y0128393D01*
X0357606Y0127194D02*
X0344806Y0127194D01*
X0344806Y0125996D02*
X0357606Y0125996D01*
X0357606Y0124797D02*
X0344806Y0124797D01*
X0344806Y0123599D02*
X0357606Y0123599D01*
X0357606Y0122400D02*
X0344806Y0122400D01*
X0344806Y0121202D02*
X0357606Y0121202D01*
X0357606Y0120003D02*
X0344806Y0120003D01*
X0344806Y0118805D02*
X0357606Y0118805D01*
X0357606Y0117606D02*
X0344806Y0117606D01*
X0344806Y0116408D02*
X0357606Y0116408D01*
X0357606Y0115209D02*
X0344806Y0115209D01*
X0344806Y0114011D02*
X0357606Y0114011D01*
X0357606Y0112812D02*
X0344516Y0112812D01*
X0343640Y0111614D02*
X0357606Y0111614D01*
X0357606Y0110415D02*
X0342442Y0110415D01*
X0341243Y0109217D02*
X0357606Y0109217D01*
X0357606Y0108018D02*
X0340045Y0108018D01*
X0339706Y0106820D02*
X0357606Y0106820D01*
X0357606Y0105621D02*
X0339245Y0105621D01*
X0338429Y0104423D02*
X0357606Y0104423D01*
X0335222Y0112812D02*
X0312959Y0112812D01*
X0312942Y0111614D02*
X0322044Y0111614D01*
X0320845Y0110415D02*
X0312006Y0110415D01*
X0313942Y0109217D02*
X0320344Y0109217D01*
X0320106Y0108018D02*
X0315024Y0108018D01*
X0315487Y0106820D02*
X0320106Y0106820D01*
X0320567Y0105621D02*
X0315487Y0105621D01*
X0315051Y0104423D02*
X0321383Y0104423D01*
X0328429Y0104423D02*
X0331383Y0104423D01*
X0330567Y0105621D02*
X0329245Y0105621D01*
X0329706Y0106820D02*
X0330106Y0106820D01*
X0330106Y0108018D02*
X0329706Y0108018D01*
X0329468Y0109217D02*
X0330344Y0109217D01*
X0330845Y0110415D02*
X0328967Y0110415D01*
X0327769Y0111614D02*
X0332044Y0111614D01*
X0331795Y0114011D02*
X0328017Y0114011D01*
X0327625Y0113619D02*
X0328975Y0114969D01*
X0329706Y0116733D01*
X0329706Y0118643D01*
X0328975Y0120407D01*
X0327625Y0121757D01*
X0325861Y0122488D01*
X0323951Y0122488D01*
X0322187Y0121757D01*
X0320837Y0120407D01*
X0320106Y0118643D01*
X0320106Y0116733D01*
X0320837Y0114969D01*
X0322187Y0113619D01*
X0323951Y0112888D01*
X0325861Y0112888D01*
X0327625Y0113619D01*
X0329075Y0115209D02*
X0330737Y0115209D01*
X0330241Y0116408D02*
X0329571Y0116408D01*
X0329706Y0117606D02*
X0330106Y0117606D01*
X0330173Y0118805D02*
X0329639Y0118805D01*
X0329143Y0120003D02*
X0330670Y0120003D01*
X0331632Y0121202D02*
X0328181Y0121202D01*
X0326073Y0122400D02*
X0333739Y0122400D01*
X0333829Y0123201D02*
X0334506Y0123094D01*
X0334506Y0127288D01*
X0330312Y0127288D01*
X0330419Y0126611D01*
X0330643Y0125922D01*
X0330972Y0125277D01*
X0331397Y0124691D01*
X0331909Y0124179D01*
X0332495Y0123754D01*
X0333140Y0123425D01*
X0333829Y0123201D01*
X0334506Y0123599D02*
X0335306Y0123599D01*
X0335306Y0124797D02*
X0334506Y0124797D01*
X0334506Y0125996D02*
X0335306Y0125996D01*
X0335306Y0127194D02*
X0334506Y0127194D01*
X0334506Y0128088D02*
X0330312Y0128088D01*
X0330419Y0128765D01*
X0330643Y0129454D01*
X0330972Y0130099D01*
X0331397Y0130685D01*
X0331909Y0131197D01*
X0332495Y0131622D01*
X0333140Y0131951D01*
X0333829Y0132175D01*
X0334506Y0132282D01*
X0334506Y0128088D01*
X0334506Y0128393D02*
X0335306Y0128393D01*
X0335306Y0129591D02*
X0334506Y0129591D01*
X0334506Y0130790D02*
X0335306Y0130790D01*
X0335306Y0131988D02*
X0334506Y0131988D01*
X0333255Y0131988D02*
X0327067Y0131988D01*
X0328593Y0130790D02*
X0331503Y0130790D01*
X0330713Y0129591D02*
X0329313Y0129591D01*
X0329706Y0128393D02*
X0330360Y0128393D01*
X0330327Y0127194D02*
X0329706Y0127194D01*
X0329401Y0125996D02*
X0330619Y0125996D01*
X0331321Y0124797D02*
X0328804Y0124797D01*
X0327577Y0123599D02*
X0332800Y0123599D01*
X0336073Y0122400D02*
X0338006Y0122400D01*
X0338006Y0123599D02*
X0337013Y0123599D01*
X0323739Y0122400D02*
X0313159Y0122400D01*
X0313159Y0121202D02*
X0321632Y0121202D01*
X0320670Y0120003D02*
X0313159Y0120003D01*
X0313159Y0118805D02*
X0320173Y0118805D01*
X0320106Y0117606D02*
X0312855Y0117606D01*
X0312959Y0116408D02*
X0320241Y0116408D01*
X0320737Y0115209D02*
X0312959Y0115209D01*
X0309006Y0114011D02*
X0321795Y0114011D01*
X0309006Y0112812D02*
X0307806Y0112812D01*
X0307806Y0111614D02*
X0309006Y0111614D01*
X0309006Y0110415D02*
X0307806Y0110415D01*
X0304806Y0110415D02*
X0278306Y0110415D01*
X0278306Y0111614D02*
X0303871Y0111614D01*
X0303853Y0112812D02*
X0279328Y0112812D01*
X0279659Y0114011D02*
X0307806Y0114011D01*
X0303853Y0115209D02*
X0279659Y0115209D01*
X0279659Y0116408D02*
X0303853Y0116408D01*
X0303958Y0117606D02*
X0279659Y0117606D01*
X0279659Y0118805D02*
X0303653Y0118805D01*
X0303653Y0120003D02*
X0279408Y0120003D01*
X0279459Y0121202D02*
X0303653Y0121202D01*
X0303653Y0122400D02*
X0279459Y0122400D01*
X0279459Y0124797D02*
X0303653Y0124797D01*
X0303653Y0123599D02*
X0275506Y0123599D01*
X0275506Y0124797D02*
X0274306Y0124797D01*
X0274306Y0124528D02*
X0274306Y0128087D01*
X0271743Y0128087D01*
X0271336Y0127978D01*
X0270971Y0127768D01*
X0270673Y0127470D01*
X0270462Y0127105D01*
X0270353Y0126698D01*
X0270353Y0124528D01*
X0274306Y0124528D01*
X0274306Y0123599D02*
X0266006Y0123599D01*
X0266006Y0124797D02*
X0264806Y0124797D01*
X0264806Y0124528D02*
X0264806Y0128087D01*
X0262243Y0128087D01*
X0261836Y0127978D01*
X0261471Y0127768D01*
X0261173Y0127470D01*
X0260962Y0127105D01*
X0260853Y0126698D01*
X0260853Y0124528D01*
X0264806Y0124528D01*
X0264806Y0123599D02*
X0209381Y0123599D01*
X0209913Y0124797D02*
X0260853Y0124797D01*
X0260853Y0125996D02*
X0209987Y0125996D01*
X0209658Y0127194D02*
X0261014Y0127194D01*
X0264806Y0127194D02*
X0266006Y0127194D01*
X0266006Y0125996D02*
X0264806Y0125996D01*
X0260853Y0122400D02*
X0258931Y0122400D01*
X0260457Y0121202D02*
X0260853Y0121202D01*
X0255991Y0122400D02*
X0207827Y0122400D01*
X0204986Y0122400D02*
X0178502Y0122400D01*
X0179701Y0121202D02*
X0254466Y0121202D01*
X0253946Y0120003D02*
X0180899Y0120003D01*
X0182098Y0118805D02*
X0253880Y0118805D01*
X0254218Y0117606D02*
X0183296Y0117606D01*
X0184495Y0116408D02*
X0255122Y0116408D01*
X0256577Y0115209D02*
X0185693Y0115209D01*
X0186892Y0114011D02*
X0257775Y0114011D01*
X0260985Y0112812D02*
X0188090Y0112812D01*
X0189289Y0111614D02*
X0271506Y0111614D01*
X0271506Y0110415D02*
X0190487Y0110415D01*
X0185665Y0105621D02*
X0176367Y0105621D01*
X0175169Y0106820D02*
X0184466Y0106820D01*
X0183268Y0108018D02*
X0173970Y0108018D01*
X0172772Y0109217D02*
X0182069Y0109217D01*
X0180871Y0110415D02*
X0171573Y0110415D01*
X0170375Y0111614D02*
X0179672Y0111614D01*
X0178474Y0112812D02*
X0169176Y0112812D01*
X0177304Y0123599D02*
X0203431Y0123599D01*
X0202899Y0124797D02*
X0176105Y0124797D01*
X0174907Y0125996D02*
X0202825Y0125996D01*
X0203154Y0127194D02*
X0173708Y0127194D01*
X0172510Y0128393D02*
X0203406Y0128393D01*
X0203406Y0129591D02*
X0171311Y0129591D01*
X0170113Y0130790D02*
X0203406Y0130790D01*
X0203406Y0131988D02*
X0168914Y0131988D01*
X0167716Y0133187D02*
X0203406Y0133187D01*
X0203406Y0134385D02*
X0166517Y0134385D01*
X0165319Y0135584D02*
X0203406Y0135584D01*
X0203406Y0136782D02*
X0164120Y0136782D01*
X0163806Y0137981D02*
X0203406Y0137981D01*
X0202672Y0139179D02*
X0201462Y0139179D01*
X0208760Y0141577D02*
X0217624Y0141577D01*
X0216425Y0142775D02*
X0207562Y0142775D01*
X0206363Y0143974D02*
X0215227Y0143974D01*
X0214028Y0145172D02*
X0205165Y0145172D01*
X0203966Y0146371D02*
X0212830Y0146371D01*
X0211631Y0147569D02*
X0202768Y0147569D01*
X0201569Y0148768D02*
X0210433Y0148768D01*
X0209234Y0149966D02*
X0204985Y0149966D01*
X0206444Y0151165D02*
X0208036Y0151165D01*
X0203406Y0153188D02*
X0194406Y0162188D01*
X0190906Y0162188D01*
X0187146Y0165948D01*
X0187146Y0169188D01*
X0191505Y0169142D02*
X0192425Y0169142D01*
X0192325Y0168900D02*
X0192325Y0167476D01*
X0192870Y0166160D01*
X0193388Y0165642D01*
X0192378Y0165224D01*
X0191821Y0164667D01*
X0191252Y0165236D01*
X0191505Y0165490D01*
X0191505Y0172887D01*
X0190451Y0173941D01*
X0183842Y0173941D01*
X0183406Y0173505D01*
X0182971Y0173941D01*
X0176361Y0173941D01*
X0175454Y0173034D01*
X0173806Y0174682D01*
X0173806Y0176539D01*
X0173987Y0176976D01*
X0173987Y0178400D01*
X0173806Y0178838D01*
X0173806Y0185089D01*
X0174105Y0185089D01*
X0175159Y0186143D01*
X0175159Y0186320D01*
X0176332Y0186806D01*
X0177289Y0187762D01*
X0197808Y0208282D01*
X0198754Y0208282D01*
X0200519Y0209012D01*
X0201188Y0209682D01*
X0225106Y0209682D01*
X0225106Y0197241D01*
X0223246Y0197241D01*
X0223246Y0193288D01*
X0222046Y0193288D01*
X0222046Y0197241D01*
X0219877Y0197241D01*
X0219470Y0197132D01*
X0219105Y0196921D01*
X0219048Y0196864D01*
X0218471Y0197441D01*
X0212987Y0197441D01*
X0212987Y0198400D01*
X0212442Y0199717D01*
X0211435Y0200724D01*
X0210118Y0201269D01*
X0208694Y0201269D01*
X0207378Y0200724D01*
X0206370Y0199717D01*
X0205825Y0198400D01*
X0205825Y0197501D01*
X0193912Y0185588D01*
X0188071Y0185588D01*
X0187435Y0186224D01*
X0186658Y0186546D01*
X0196400Y0196288D01*
X0197742Y0196288D01*
X0198378Y0195652D01*
X0199694Y0195107D01*
X0201118Y0195107D01*
X0202435Y0195652D01*
X0203442Y0196660D01*
X0203987Y0197976D01*
X0203987Y0199400D01*
X0203442Y0200717D01*
X0202435Y0201724D01*
X0201118Y0202269D01*
X0199694Y0202269D01*
X0198378Y0201724D01*
X0197742Y0201088D01*
X0194929Y0201088D01*
X0194047Y0200723D01*
X0193372Y0200048D01*
X0181593Y0188269D01*
X0180694Y0188269D01*
X0179378Y0187724D01*
X0178370Y0186717D01*
X0177825Y0185400D01*
X0177825Y0183976D01*
X0178370Y0182660D01*
X0179378Y0181652D01*
X0180694Y0181107D01*
X0182118Y0181107D01*
X0182352Y0181204D01*
X0182370Y0181160D01*
X0183378Y0180152D01*
X0184694Y0179607D01*
X0186118Y0179607D01*
X0187435Y0180152D01*
X0188071Y0180788D01*
X0195384Y0180788D01*
X0196266Y0181154D01*
X0209219Y0194107D01*
X0210118Y0194107D01*
X0210807Y0194392D01*
X0210807Y0193983D01*
X0208593Y0191769D01*
X0207694Y0191769D01*
X0206378Y0191224D01*
X0205370Y0190217D01*
X0204825Y0188900D01*
X0204825Y0188001D01*
X0193872Y0177048D01*
X0193506Y0176166D01*
X0193506Y0175353D01*
X0192870Y0174717D01*
X0192325Y0173400D01*
X0192325Y0171976D01*
X0192870Y0170660D01*
X0193092Y0170438D01*
X0192870Y0170217D01*
X0192325Y0168900D01*
X0192325Y0167944D02*
X0191505Y0167944D01*
X0191505Y0166745D02*
X0192628Y0166745D01*
X0193157Y0165547D02*
X0191505Y0165547D01*
X0195906Y0168188D02*
X0202406Y0174688D01*
X0202406Y0177688D01*
X0208406Y0183688D01*
X0215166Y0183688D01*
X0219048Y0179512D02*
X0219105Y0179455D01*
X0219470Y0179244D01*
X0219877Y0179135D01*
X0222046Y0179135D01*
X0222046Y0183088D01*
X0223246Y0183088D01*
X0223246Y0179135D01*
X0225106Y0179135D01*
X0225106Y0163631D01*
X0225532Y0162602D01*
X0226320Y0161814D01*
X0227349Y0161388D01*
X0230680Y0161388D01*
X0230471Y0161268D01*
X0230173Y0160970D01*
X0229962Y0160605D01*
X0229853Y0160198D01*
X0229853Y0158028D01*
X0233806Y0158028D01*
X0233806Y0156828D01*
X0229853Y0156828D01*
X0229853Y0154659D01*
X0229962Y0154252D01*
X0230173Y0153887D01*
X0230230Y0153830D01*
X0229653Y0153253D01*
X0229653Y0152348D01*
X0226140Y0152348D01*
X0217806Y0160682D01*
X0217806Y0171024D01*
X0218442Y0171660D01*
X0218987Y0172976D01*
X0218987Y0174400D01*
X0218442Y0175717D01*
X0217435Y0176724D01*
X0216118Y0177269D01*
X0214694Y0177269D01*
X0213556Y0176798D01*
X0213556Y0176916D01*
X0213191Y0177798D01*
X0212516Y0178473D01*
X0212053Y0178935D01*
X0218471Y0178935D01*
X0219048Y0179512D01*
X0222046Y0179929D02*
X0223246Y0179929D01*
X0223246Y0181127D02*
X0222046Y0181127D01*
X0222046Y0182326D02*
X0223246Y0182326D01*
X0222646Y0183688D02*
X0222646Y0192688D01*
X0222046Y0192088D02*
X0223246Y0192088D01*
X0223246Y0188135D01*
X0223246Y0184288D01*
X0222046Y0184288D01*
X0222046Y0192088D01*
X0222046Y0191914D02*
X0223246Y0191914D01*
X0223246Y0190715D02*
X0222046Y0190715D01*
X0222046Y0189517D02*
X0223246Y0189517D01*
X0223246Y0188318D02*
X0222046Y0188318D01*
X0222046Y0187120D02*
X0223246Y0187120D01*
X0223246Y0185921D02*
X0222046Y0185921D01*
X0222046Y0184723D02*
X0223246Y0184723D01*
X0222646Y0183688D02*
X0222646Y0160688D01*
X0228406Y0160688D01*
X0231666Y0157428D01*
X0234406Y0157428D01*
X0243406Y0157428D01*
X0242806Y0157157D02*
X0235006Y0157157D01*
X0235006Y0156828D02*
X0235006Y0158028D01*
X0242806Y0158028D01*
X0242806Y0156828D01*
X0238959Y0156828D01*
X0235006Y0156828D01*
X0233806Y0157157D02*
X0221331Y0157157D01*
X0220133Y0158356D02*
X0229853Y0158356D01*
X0229853Y0159554D02*
X0218934Y0159554D01*
X0217806Y0160753D02*
X0230048Y0160753D01*
X0226183Y0161951D02*
X0217806Y0161951D01*
X0217806Y0163150D02*
X0225306Y0163150D01*
X0225106Y0164348D02*
X0217806Y0164348D01*
X0217806Y0165547D02*
X0225106Y0165547D01*
X0225106Y0166745D02*
X0217806Y0166745D01*
X0217806Y0167944D02*
X0225106Y0167944D01*
X0225106Y0169142D02*
X0217806Y0169142D01*
X0217806Y0170341D02*
X0225106Y0170341D01*
X0225106Y0171539D02*
X0218322Y0171539D01*
X0218889Y0172738D02*
X0225106Y0172738D01*
X0225106Y0173936D02*
X0218987Y0173936D01*
X0218683Y0175135D02*
X0225106Y0175135D01*
X0225106Y0176333D02*
X0217825Y0176333D01*
X0215406Y0173688D02*
X0215406Y0159688D01*
X0225146Y0149948D01*
X0234406Y0149948D01*
X0229653Y0152363D02*
X0226125Y0152363D01*
X0224927Y0153562D02*
X0229962Y0153562D01*
X0229853Y0154760D02*
X0223728Y0154760D01*
X0222530Y0155959D02*
X0229853Y0155959D01*
X0222646Y0160688D02*
X0220406Y0160688D01*
X0227906Y0164188D02*
X0277606Y0164188D01*
X0277606Y0187745D01*
X0277906Y0188469D01*
X0277906Y0214188D01*
X0254406Y0214188D01*
X0254406Y0206988D01*
X0261872Y0206988D01*
X0262243Y0207087D01*
X0264806Y0207087D01*
X0264806Y0206988D01*
X0265963Y0206988D01*
X0266006Y0206970D01*
X0266006Y0207087D01*
X0268570Y0207087D01*
X0268976Y0206978D01*
X0269341Y0206768D01*
X0269639Y0206470D01*
X0269850Y0206105D01*
X0269959Y0205698D01*
X0269959Y0203528D01*
X0268906Y0203528D01*
X0268906Y0202328D01*
X0269959Y0202328D01*
X0269959Y0200159D01*
X0269850Y0199752D01*
X0269804Y0199673D01*
X0270559Y0198918D01*
X0270559Y0191978D01*
X0269270Y0190689D01*
X0269206Y0190689D01*
X0269206Y0185187D01*
X0269270Y0185187D01*
X0270559Y0183899D01*
X0270559Y0176958D01*
X0269804Y0176203D01*
X0269850Y0176125D01*
X0269959Y0175718D01*
X0269959Y0173548D01*
X0268906Y0173548D01*
X0268906Y0172348D01*
X0269959Y0172348D01*
X0269959Y0170178D01*
X0269850Y0169771D01*
X0269639Y0169407D01*
X0269341Y0169109D01*
X0268976Y0168898D01*
X0268570Y0168789D01*
X0266006Y0168789D01*
X0266006Y0170188D01*
X0264806Y0170188D01*
X0264806Y0168789D01*
X0262243Y0168789D01*
X0261836Y0168898D01*
X0261471Y0169109D01*
X0261173Y0169407D01*
X0260962Y0169771D01*
X0260853Y0170178D01*
X0260853Y0170188D01*
X0257459Y0170188D01*
X0257459Y0170178D01*
X0257350Y0169771D01*
X0257139Y0169407D01*
X0256841Y0169109D01*
X0256476Y0168898D01*
X0256070Y0168789D01*
X0253506Y0168789D01*
X0253506Y0170188D01*
X0252306Y0170188D01*
X0252306Y0168789D01*
X0249743Y0168789D01*
X0249336Y0168898D01*
X0248971Y0169109D01*
X0248673Y0169407D01*
X0248462Y0169771D01*
X0248353Y0170178D01*
X0248353Y0170188D01*
X0244959Y0170188D01*
X0244959Y0170178D01*
X0244850Y0169771D01*
X0244639Y0169407D01*
X0244341Y0169109D01*
X0243976Y0168898D01*
X0243570Y0168789D01*
X0241006Y0168789D01*
X0241006Y0170188D01*
X0239806Y0170188D01*
X0239806Y0168789D01*
X0237243Y0168789D01*
X0236836Y0168898D01*
X0236471Y0169109D01*
X0236173Y0169407D01*
X0235962Y0169771D01*
X0235853Y0170178D01*
X0235853Y0172348D01*
X0236906Y0172348D01*
X0236906Y0173548D01*
X0235853Y0173548D01*
X0235853Y0175718D01*
X0235962Y0176125D01*
X0236008Y0176203D01*
X0235253Y0176958D01*
X0235253Y0183899D01*
X0236542Y0185187D01*
X0236606Y0185187D01*
X0236606Y0190689D01*
X0236542Y0190689D01*
X0235253Y0191978D01*
X0235253Y0198918D01*
X0236008Y0199673D01*
X0235962Y0199752D01*
X0235853Y0200159D01*
X0235853Y0202328D01*
X0236906Y0202328D01*
X0236906Y0203528D01*
X0235853Y0203528D01*
X0235853Y0205698D01*
X0235962Y0206105D01*
X0236173Y0206470D01*
X0236471Y0206768D01*
X0236836Y0206978D01*
X0237243Y0207087D01*
X0239806Y0207087D01*
X0239806Y0206970D01*
X0239849Y0206988D01*
X0241006Y0206988D01*
X0241006Y0207087D01*
X0243570Y0207087D01*
X0243940Y0206988D01*
X0251406Y0206988D01*
X0251406Y0214188D01*
X0227906Y0214188D01*
X0227906Y0164188D01*
X0227906Y0164348D02*
X0277606Y0164348D01*
X0277606Y0165547D02*
X0227906Y0165547D01*
X0227906Y0166745D02*
X0277606Y0166745D01*
X0277606Y0167944D02*
X0227906Y0167944D01*
X0227906Y0169142D02*
X0236437Y0169142D01*
X0235853Y0170341D02*
X0227906Y0170341D01*
X0227906Y0171539D02*
X0235853Y0171539D01*
X0236906Y0172738D02*
X0227906Y0172738D01*
X0227906Y0173936D02*
X0235853Y0173936D01*
X0235853Y0175135D02*
X0227906Y0175135D01*
X0227906Y0176333D02*
X0235878Y0176333D01*
X0235253Y0177532D02*
X0227906Y0177532D01*
X0227906Y0178730D02*
X0235253Y0178730D01*
X0235253Y0179929D02*
X0227906Y0179929D01*
X0227906Y0181127D02*
X0235253Y0181127D01*
X0235253Y0182326D02*
X0227906Y0182326D01*
X0227906Y0183524D02*
X0235253Y0183524D01*
X0236078Y0184723D02*
X0227906Y0184723D01*
X0227906Y0185921D02*
X0236606Y0185921D01*
X0236606Y0187120D02*
X0227906Y0187120D01*
X0227906Y0188318D02*
X0236606Y0188318D01*
X0236606Y0189517D02*
X0227906Y0189517D01*
X0227906Y0190715D02*
X0236516Y0190715D01*
X0235317Y0191914D02*
X0227906Y0191914D01*
X0227906Y0193112D02*
X0235253Y0193112D01*
X0235253Y0194311D02*
X0227906Y0194311D01*
X0227906Y0195510D02*
X0235253Y0195510D01*
X0235253Y0196708D02*
X0227906Y0196708D01*
X0227906Y0197907D02*
X0235253Y0197907D01*
X0235440Y0199105D02*
X0227906Y0199105D01*
X0227906Y0200304D02*
X0235853Y0200304D01*
X0235853Y0201502D02*
X0227906Y0201502D01*
X0227906Y0202701D02*
X0236906Y0202701D01*
X0235853Y0203899D02*
X0227906Y0203899D01*
X0227906Y0205098D02*
X0235853Y0205098D01*
X0236073Y0206296D02*
X0227906Y0206296D01*
X0227906Y0207495D02*
X0251406Y0207495D01*
X0251406Y0208693D02*
X0227906Y0208693D01*
X0227906Y0209892D02*
X0251406Y0209892D01*
X0251406Y0211090D02*
X0227906Y0211090D01*
X0227906Y0212289D02*
X0251406Y0212289D01*
X0251406Y0213487D02*
X0227906Y0213487D01*
X0228906Y0213188D02*
X0230300Y0213188D01*
X0230300Y0213189D02*
X0230319Y0213187D01*
X0230337Y0213183D01*
X0230354Y0213175D01*
X0230369Y0213164D01*
X0230382Y0213151D01*
X0230393Y0213136D01*
X0230401Y0213119D01*
X0230405Y0213101D01*
X0230407Y0213082D01*
X0230406Y0211688D02*
X0230406Y0166688D01*
X0237906Y0166688D01*
X0240406Y0166688D01*
X0240406Y0172948D01*
X0244582Y0176830D02*
X0245064Y0176348D01*
X0248249Y0176348D01*
X0248730Y0176830D01*
X0248673Y0176887D01*
X0248462Y0177252D01*
X0248353Y0177659D01*
X0248353Y0179828D01*
X0252306Y0179828D01*
X0253506Y0179828D01*
X0253506Y0177307D01*
X0252306Y0177307D01*
X0252306Y0179828D01*
X0252306Y0181028D01*
X0248353Y0181028D01*
X0248353Y0183198D01*
X0248462Y0183605D01*
X0248673Y0183970D01*
X0248971Y0184268D01*
X0249336Y0184478D01*
X0249743Y0184587D01*
X0252306Y0184587D01*
X0252306Y0181028D01*
X0253506Y0181028D01*
X0257459Y0181028D01*
X0257459Y0183198D01*
X0257350Y0183605D01*
X0257139Y0183970D01*
X0256841Y0184268D01*
X0256476Y0184478D01*
X0256070Y0184587D01*
X0253506Y0184587D01*
X0253506Y0181028D01*
X0253506Y0179828D01*
X0257459Y0179828D01*
X0257459Y0177659D01*
X0257350Y0177252D01*
X0257139Y0176887D01*
X0257082Y0176830D01*
X0257564Y0176348D01*
X0260749Y0176348D01*
X0261230Y0176830D01*
X0261173Y0176887D01*
X0260962Y0177252D01*
X0260853Y0177659D01*
X0260853Y0179828D01*
X0264806Y0179828D01*
X0266006Y0179828D01*
X0266006Y0177307D01*
X0264806Y0177307D01*
X0264806Y0179828D01*
X0264806Y0181028D01*
X0260853Y0181028D01*
X0260853Y0183198D01*
X0260962Y0183605D01*
X0261173Y0183970D01*
X0261471Y0184268D01*
X0261836Y0184478D01*
X0262243Y0184587D01*
X0264806Y0184587D01*
X0264806Y0181028D01*
X0266006Y0181028D01*
X0266006Y0184587D01*
X0266106Y0184587D01*
X0266106Y0191289D01*
X0266006Y0191289D01*
X0266006Y0194848D01*
X0264806Y0194848D01*
X0260853Y0194848D01*
X0260853Y0192678D01*
X0260962Y0192271D01*
X0261173Y0191907D01*
X0261471Y0191609D01*
X0261836Y0191398D01*
X0262243Y0191289D01*
X0264806Y0191289D01*
X0264806Y0194848D01*
X0264806Y0196048D01*
X0260853Y0196048D01*
X0260853Y0198218D01*
X0260962Y0198625D01*
X0261173Y0198989D01*
X0261230Y0199047D01*
X0260653Y0199624D01*
X0260653Y0203388D01*
X0253849Y0203388D01*
X0252906Y0203779D01*
X0251963Y0203388D01*
X0245159Y0203388D01*
X0245159Y0199624D01*
X0244582Y0199047D01*
X0244639Y0198989D01*
X0244850Y0198625D01*
X0244959Y0198218D01*
X0244959Y0196048D01*
X0241006Y0196048D01*
X0241006Y0194848D01*
X0241006Y0191289D01*
X0243570Y0191289D01*
X0243976Y0191398D01*
X0244341Y0191609D01*
X0244639Y0191907D01*
X0244850Y0192271D01*
X0244959Y0192678D01*
X0244959Y0194848D01*
X0241006Y0194848D01*
X0239806Y0194848D01*
X0239806Y0191289D01*
X0239706Y0191289D01*
X0239706Y0184587D01*
X0239806Y0184587D01*
X0239806Y0181028D01*
X0241006Y0181028D01*
X0244959Y0181028D01*
X0244959Y0183198D01*
X0244850Y0183605D01*
X0244639Y0183970D01*
X0244341Y0184268D01*
X0243976Y0184478D01*
X0243570Y0184587D01*
X0241006Y0184587D01*
X0241006Y0181028D01*
X0241006Y0179828D01*
X0244959Y0179828D01*
X0244959Y0177659D01*
X0244850Y0177252D01*
X0244639Y0176887D01*
X0244582Y0176830D01*
X0244925Y0177532D02*
X0248387Y0177532D01*
X0248353Y0178730D02*
X0244959Y0178730D01*
X0244959Y0181127D02*
X0248353Y0181127D01*
X0248353Y0181688D02*
X0244959Y0181688D01*
X0244959Y0183198D01*
X0244850Y0183605D01*
X0244639Y0183970D01*
X0244341Y0184268D01*
X0243976Y0184478D01*
X0243570Y0184587D01*
X0241006Y0184587D01*
X0241006Y0181688D01*
X0240406Y0181688D01*
X0240406Y0194848D01*
X0241006Y0194848D01*
X0241006Y0191289D01*
X0243570Y0191289D01*
X0243976Y0191398D01*
X0244341Y0191609D01*
X0244639Y0191907D01*
X0244850Y0192271D01*
X0244959Y0192678D01*
X0244959Y0194848D01*
X0241006Y0194848D01*
X0241006Y0196048D01*
X0244959Y0196048D01*
X0244959Y0198218D01*
X0244850Y0198625D01*
X0244804Y0198703D01*
X0245559Y0199458D01*
X0245559Y0204188D01*
X0260253Y0204188D01*
X0260253Y0199458D01*
X0261008Y0198703D01*
X0260962Y0198625D01*
X0260853Y0198218D01*
X0260853Y0196048D01*
X0264806Y0196048D01*
X0264806Y0194848D01*
X0260853Y0194848D01*
X0260853Y0192678D01*
X0260962Y0192271D01*
X0261173Y0191907D01*
X0261471Y0191609D01*
X0261836Y0191398D01*
X0262243Y0191289D01*
X0264806Y0191289D01*
X0264806Y0194848D01*
X0265406Y0194848D01*
X0265406Y0181688D01*
X0264806Y0181688D01*
X0264806Y0184587D01*
X0262243Y0184587D01*
X0261836Y0184478D01*
X0261471Y0184268D01*
X0261173Y0183970D01*
X0260962Y0183605D01*
X0260853Y0183198D01*
X0260853Y0181688D01*
X0257459Y0181688D01*
X0257459Y0183198D01*
X0257350Y0183605D01*
X0257139Y0183970D01*
X0256841Y0184268D01*
X0256476Y0184478D01*
X0256070Y0184587D01*
X0253506Y0184587D01*
X0253506Y0181688D01*
X0252306Y0181688D01*
X0252306Y0184587D01*
X0249743Y0184587D01*
X0249336Y0184478D01*
X0248971Y0184268D01*
X0248673Y0183970D01*
X0248462Y0183605D01*
X0248353Y0183198D01*
X0248353Y0181688D01*
X0248353Y0182326D02*
X0244959Y0182326D01*
X0248353Y0182326D01*
X0248441Y0183524D02*
X0244871Y0183524D01*
X0248441Y0183524D01*
X0252306Y0183524D02*
X0253506Y0183524D01*
X0252306Y0183524D01*
X0252306Y0182326D02*
X0253506Y0182326D01*
X0252306Y0182326D01*
X0252306Y0181127D02*
X0253506Y0181127D01*
X0253506Y0179929D02*
X0264806Y0179929D01*
X0265406Y0180428D02*
X0265406Y0179188D01*
X0252906Y0179188D01*
X0252306Y0178730D02*
X0253506Y0178730D01*
X0253506Y0177532D02*
X0252306Y0177532D01*
X0252306Y0179929D02*
X0241006Y0179929D01*
X0241006Y0181127D02*
X0239806Y0181127D01*
X0239806Y0182326D02*
X0241006Y0182326D01*
X0240406Y0182326D01*
X0240406Y0183524D02*
X0241006Y0183524D01*
X0239806Y0183524D01*
X0239706Y0184723D02*
X0266106Y0184723D01*
X0265406Y0184723D02*
X0240406Y0184723D01*
X0240406Y0185921D02*
X0265406Y0185921D01*
X0266106Y0185921D02*
X0239706Y0185921D01*
X0239706Y0187120D02*
X0266106Y0187120D01*
X0265406Y0187120D02*
X0240406Y0187120D01*
X0240406Y0188318D02*
X0265406Y0188318D01*
X0266106Y0188318D02*
X0239706Y0188318D01*
X0239706Y0189517D02*
X0266106Y0189517D01*
X0265406Y0189517D02*
X0240406Y0189517D01*
X0240406Y0190715D02*
X0265406Y0190715D01*
X0266106Y0190715D02*
X0239706Y0190715D01*
X0239806Y0191914D02*
X0241006Y0191914D01*
X0240406Y0191914D01*
X0240406Y0193112D02*
X0241006Y0193112D01*
X0239806Y0193112D01*
X0239806Y0194311D02*
X0241006Y0194311D01*
X0240406Y0194311D01*
X0241006Y0195510D02*
X0264806Y0195510D01*
X0241006Y0195510D01*
X0244959Y0196708D02*
X0260853Y0196708D01*
X0244959Y0196708D01*
X0244959Y0197907D02*
X0260853Y0197907D01*
X0244959Y0197907D01*
X0245206Y0199105D02*
X0260606Y0199105D01*
X0261172Y0199105D02*
X0244640Y0199105D01*
X0245159Y0200304D02*
X0260653Y0200304D01*
X0260253Y0200304D02*
X0245559Y0200304D01*
X0245559Y0201502D02*
X0260253Y0201502D01*
X0260653Y0201502D02*
X0245159Y0201502D01*
X0245159Y0202701D02*
X0260653Y0202701D01*
X0260253Y0202701D02*
X0245559Y0202701D01*
X0245559Y0203899D02*
X0260253Y0203899D01*
X0254406Y0207495D02*
X0277906Y0207495D01*
X0277906Y0208693D02*
X0254406Y0208693D01*
X0254406Y0209892D02*
X0277906Y0209892D01*
X0277906Y0211090D02*
X0254406Y0211090D01*
X0254406Y0212289D02*
X0277906Y0212289D01*
X0277906Y0213487D02*
X0254406Y0213487D01*
X0256146Y0218948D02*
X0247906Y0227188D01*
X0238573Y0232663D02*
X0232775Y0232663D01*
X0231577Y0231465D02*
X0237375Y0231465D01*
X0236673Y0230266D02*
X0230378Y0230266D01*
X0229180Y0229068D02*
X0236506Y0229068D01*
X0236506Y0227869D02*
X0227981Y0227869D01*
X0227885Y0224274D02*
X0236506Y0224274D01*
X0236506Y0225472D02*
X0216209Y0225472D01*
X0216511Y0226671D02*
X0236506Y0226671D01*
X0236506Y0223075D02*
X0228708Y0223075D01*
X0228987Y0221877D02*
X0236506Y0221877D01*
X0236506Y0220678D02*
X0229810Y0220678D01*
X0230969Y0219480D02*
X0236506Y0219480D01*
X0236506Y0218281D02*
X0231306Y0218281D01*
X0231306Y0217083D02*
X0236506Y0217083D01*
X0238406Y0211688D02*
X0230406Y0211688D01*
X0228906Y0213188D02*
X0228906Y0218188D01*
X0225406Y0221688D01*
X0222105Y0223075D02*
X0213932Y0223075D01*
X0213707Y0222961D02*
X0214353Y0223289D01*
X0214907Y0223692D01*
X0211942Y0226658D01*
X0208976Y0223692D01*
X0209531Y0223289D01*
X0210176Y0222961D01*
X0210865Y0222737D01*
X0211580Y0222624D01*
X0212304Y0222624D01*
X0213019Y0222737D01*
X0213707Y0222961D01*
X0214326Y0224274D02*
X0215457Y0224274D01*
X0215484Y0224274D02*
X0222927Y0224274D01*
X0221825Y0221877D02*
X0209352Y0221877D01*
X0209671Y0220678D02*
X0221948Y0220678D01*
X0222550Y0219480D02*
X0209671Y0219480D01*
X0209291Y0218281D02*
X0224273Y0218281D01*
X0226506Y0217083D02*
X0208589Y0217083D01*
X0208736Y0223075D02*
X0209951Y0223075D01*
X0209558Y0224274D02*
X0208426Y0224274D01*
X0208399Y0224274D02*
X0207464Y0224274D01*
X0207674Y0225472D02*
X0173584Y0225472D01*
X0172386Y0224274D02*
X0202277Y0224274D01*
X0201005Y0223075D02*
X0171187Y0223075D01*
X0169989Y0221877D02*
X0200389Y0221877D01*
X0200071Y0220678D02*
X0168790Y0220678D01*
X0167592Y0219480D02*
X0200071Y0219480D01*
X0200450Y0218281D02*
X0166393Y0218281D01*
X0165195Y0217083D02*
X0195013Y0217083D01*
X0193814Y0215884D02*
X0163996Y0215884D01*
X0174783Y0226671D02*
X0207372Y0226671D01*
X0207387Y0227869D02*
X0175981Y0227869D01*
X0200587Y0217083D02*
X0201152Y0217083D01*
X0209625Y0225472D02*
X0210756Y0225472D01*
X0210823Y0226671D02*
X0211929Y0226671D01*
X0211955Y0226671D02*
X0213060Y0226671D01*
X0213127Y0225472D02*
X0214259Y0225472D01*
X0236964Y0237457D02*
X0239848Y0237457D01*
X0256146Y0218948D02*
X0291406Y0218948D01*
X0286653Y0216548D02*
X0286653Y0215643D01*
X0287708Y0214589D01*
X0295105Y0214589D01*
X0295906Y0215391D01*
X0296708Y0214589D01*
X0304105Y0214589D01*
X0305159Y0215643D01*
X0305159Y0216548D01*
X0305482Y0216548D01*
X0306378Y0215652D01*
X0307694Y0215107D01*
X0309118Y0215107D01*
X0310435Y0215652D01*
X0311442Y0216660D01*
X0311987Y0217976D01*
X0311987Y0218602D01*
X0312501Y0218088D01*
X0314006Y0218088D01*
X0314006Y0222288D01*
X0314806Y0222288D01*
X0314806Y0218088D01*
X0315825Y0218088D01*
X0315825Y0217488D01*
X0312418Y0217488D01*
X0310018Y0215088D01*
X0305429Y0215088D01*
X0304547Y0214723D01*
X0303872Y0214048D01*
X0280706Y0190882D01*
X0280706Y0214745D01*
X0280280Y0215774D01*
X0279506Y0216548D01*
X0286653Y0216548D01*
X0286653Y0215884D02*
X0280170Y0215884D01*
X0280706Y0214686D02*
X0287611Y0214686D01*
X0280706Y0213487D02*
X0303311Y0213487D01*
X0304201Y0214686D02*
X0304510Y0214686D01*
X0305159Y0215884D02*
X0306146Y0215884D01*
X0305906Y0212688D02*
X0314406Y0212688D01*
X0310814Y0215884D02*
X0310667Y0215884D01*
X0311617Y0217083D02*
X0312013Y0217083D01*
X0311987Y0218281D02*
X0312308Y0218281D01*
X0314006Y0218281D02*
X0314806Y0218281D01*
X0314806Y0219480D02*
X0314006Y0219480D01*
X0314006Y0220678D02*
X0314806Y0220678D01*
X0314806Y0221877D02*
X0314006Y0221877D01*
X0314006Y0222288D02*
X0309806Y0222288D01*
X0309806Y0221984D01*
X0309118Y0222269D01*
X0307694Y0222269D01*
X0306378Y0221724D01*
X0306002Y0221348D01*
X0305159Y0221348D01*
X0305159Y0222253D01*
X0304723Y0222688D01*
X0305159Y0223124D01*
X0305159Y0224028D01*
X0308384Y0224028D01*
X0309266Y0224394D01*
X0309941Y0225069D01*
X0310160Y0225288D01*
X0310501Y0225288D01*
X0309806Y0224594D01*
X0309806Y0223088D01*
X0314006Y0223088D01*
X0314006Y0222288D01*
X0314006Y0223075D02*
X0305111Y0223075D01*
X0305159Y0221877D02*
X0306746Y0221877D01*
X0308976Y0224274D02*
X0309806Y0224274D01*
X0307906Y0226428D02*
X0300406Y0226428D01*
X0291406Y0226428D01*
X0300406Y0218948D02*
X0307146Y0218948D01*
X0308406Y0218688D01*
X0305906Y0212688D02*
X0280406Y0187188D01*
X0280406Y0154188D01*
X0281906Y0150688D02*
X0276906Y0150688D01*
X0275906Y0151688D01*
X0281906Y0150688D02*
X0283906Y0152688D01*
X0283906Y0184188D01*
X0308406Y0208688D01*
X0312406Y0207688D02*
X0319406Y0207688D01*
X0324406Y0212688D01*
X0327998Y0215884D02*
X0338006Y0215884D01*
X0338006Y0214686D02*
X0329197Y0214686D01*
X0329206Y0213487D02*
X0338006Y0213487D01*
X0338006Y0212289D02*
X0329206Y0212289D01*
X0329206Y0211090D02*
X0338006Y0211090D01*
X0338006Y0209892D02*
X0328398Y0209892D01*
X0327199Y0208693D02*
X0338006Y0208693D01*
X0338006Y0207495D02*
X0322607Y0207495D01*
X0327586Y0206296D02*
X0338006Y0206296D01*
X0338006Y0205098D02*
X0328785Y0205098D01*
X0329206Y0203899D02*
X0338006Y0203899D01*
X0338006Y0202701D02*
X0329206Y0202701D01*
X0329206Y0201502D02*
X0338006Y0201502D01*
X0338006Y0200304D02*
X0328810Y0200304D01*
X0327611Y0199105D02*
X0338006Y0199105D01*
X0338006Y0197907D02*
X0326413Y0197907D01*
X0327174Y0196708D02*
X0338006Y0196708D01*
X0338006Y0195510D02*
X0328373Y0195510D01*
X0329206Y0194311D02*
X0338006Y0194311D01*
X0338006Y0193112D02*
X0329206Y0193112D01*
X0329206Y0191914D02*
X0338006Y0191914D01*
X0338006Y0190715D02*
X0329206Y0190715D01*
X0328023Y0189517D02*
X0338006Y0189517D01*
X0338006Y0188318D02*
X0326825Y0188318D01*
X0326763Y0187120D02*
X0338006Y0187120D01*
X0338006Y0185921D02*
X0327961Y0185921D01*
X0329160Y0184723D02*
X0338006Y0184723D01*
X0338006Y0183524D02*
X0329206Y0183524D01*
X0329206Y0182326D02*
X0338006Y0182326D01*
X0338006Y0181127D02*
X0329206Y0181127D01*
X0328435Y0179929D02*
X0338006Y0179929D01*
X0338006Y0178730D02*
X0327237Y0178730D01*
X0327549Y0176333D02*
X0338006Y0176333D01*
X0338006Y0175135D02*
X0328748Y0175135D01*
X0329206Y0173936D02*
X0338006Y0173936D01*
X0338006Y0172738D02*
X0329206Y0172738D01*
X0329206Y0171539D02*
X0338006Y0171539D01*
X0338006Y0170341D02*
X0328847Y0170341D01*
X0327648Y0169142D02*
X0338006Y0169142D01*
X0338006Y0167944D02*
X0326450Y0167944D01*
X0327137Y0166745D02*
X0338006Y0166745D01*
X0338006Y0165547D02*
X0328336Y0165547D01*
X0329206Y0164348D02*
X0338006Y0164348D01*
X0338006Y0163150D02*
X0329206Y0163150D01*
X0329206Y0161951D02*
X0338006Y0161951D01*
X0338006Y0160753D02*
X0329206Y0160753D01*
X0328934Y0159554D02*
X0338006Y0159554D01*
X0338006Y0158356D02*
X0330133Y0158356D01*
X0329441Y0159048D02*
X0329441Y0159048D01*
X0327406Y0157688D02*
X0322406Y0157688D01*
X0317406Y0152688D01*
X0314406Y0152688D01*
X0310815Y0155885D02*
X0309606Y0154676D01*
X0309606Y0150700D01*
X0310218Y0150088D01*
X0298929Y0150088D01*
X0298047Y0149723D01*
X0297372Y0149048D01*
X0295912Y0147588D01*
X0286200Y0147588D01*
X0287766Y0149154D01*
X0288441Y0149829D01*
X0288806Y0150711D01*
X0288806Y0180694D01*
X0293325Y0185213D01*
X0293325Y0184476D01*
X0293870Y0183160D01*
X0294878Y0182152D01*
X0296194Y0181607D01*
X0297093Y0181607D01*
X0298047Y0180654D01*
X0298929Y0180288D01*
X0310018Y0180288D01*
X0312418Y0177888D01*
X0316394Y0177888D01*
X0317006Y0178500D01*
X0317006Y0176876D01*
X0316394Y0177488D01*
X0312418Y0177488D01*
X0309606Y0174676D01*
X0309606Y0170700D01*
X0312418Y0167888D01*
X0316212Y0167888D01*
X0315812Y0167488D01*
X0312418Y0167488D01*
X0309606Y0164676D01*
X0309606Y0163882D01*
X0308306Y0165182D01*
X0308306Y0170524D01*
X0308942Y0171160D01*
X0309487Y0172476D01*
X0309487Y0173900D01*
X0308942Y0175217D01*
X0307935Y0176224D01*
X0306618Y0176769D01*
X0305194Y0176769D01*
X0303878Y0176224D01*
X0302870Y0175217D01*
X0302325Y0173900D01*
X0302325Y0172476D01*
X0302870Y0171160D01*
X0303506Y0170524D01*
X0303506Y0163711D01*
X0303872Y0162829D01*
X0304547Y0162154D01*
X0310372Y0156329D01*
X0310815Y0155885D01*
X0310742Y0155959D02*
X0288806Y0155959D01*
X0288806Y0157157D02*
X0309543Y0157157D01*
X0308345Y0158356D02*
X0288806Y0158356D01*
X0288806Y0159554D02*
X0307146Y0159554D01*
X0305948Y0160753D02*
X0288806Y0160753D01*
X0288806Y0161951D02*
X0304749Y0161951D01*
X0303739Y0163150D02*
X0288806Y0163150D01*
X0288806Y0164348D02*
X0303506Y0164348D01*
X0303506Y0165547D02*
X0288806Y0165547D01*
X0288806Y0166745D02*
X0303506Y0166745D01*
X0303506Y0167944D02*
X0288806Y0167944D01*
X0288806Y0169142D02*
X0303506Y0169142D01*
X0303506Y0170341D02*
X0288806Y0170341D01*
X0288806Y0171539D02*
X0302713Y0171539D01*
X0302325Y0172738D02*
X0288806Y0172738D01*
X0288806Y0173936D02*
X0302340Y0173936D01*
X0302836Y0175135D02*
X0288806Y0175135D01*
X0288806Y0176333D02*
X0304141Y0176333D01*
X0307671Y0176333D02*
X0311263Y0176333D01*
X0310065Y0175135D02*
X0308976Y0175135D01*
X0309472Y0173936D02*
X0309606Y0173936D01*
X0309606Y0172738D02*
X0309487Y0172738D01*
X0309606Y0171539D02*
X0309099Y0171539D01*
X0308306Y0170341D02*
X0309965Y0170341D01*
X0311164Y0169142D02*
X0308306Y0169142D01*
X0308306Y0167944D02*
X0312362Y0167944D01*
X0311675Y0166745D02*
X0308306Y0166745D01*
X0308306Y0165547D02*
X0310477Y0165547D01*
X0309606Y0164348D02*
X0309140Y0164348D01*
X0305906Y0164188D02*
X0305906Y0173188D01*
X0311576Y0178730D02*
X0288806Y0178730D01*
X0288806Y0177532D02*
X0317006Y0177532D01*
X0321806Y0177532D02*
X0338006Y0177532D01*
X0322362Y0167944D02*
X0321806Y0167944D01*
X0321675Y0166745D02*
X0321613Y0166745D01*
X0319406Y0167688D02*
X0314406Y0162688D01*
X0312406Y0157688D02*
X0316406Y0157688D01*
X0321406Y0162688D01*
X0324406Y0162688D01*
X0327406Y0157688D02*
X0333406Y0151688D01*
X0333406Y0140188D01*
X0327906Y0134688D01*
X0323906Y0134688D01*
X0321406Y0132188D01*
X0230406Y0132188D01*
X0204406Y0158188D01*
X0204406Y0170188D01*
X0206406Y0174188D02*
X0208656Y0171938D01*
X0208656Y0157938D01*
X0231906Y0134688D01*
X0319906Y0134688D01*
X0322906Y0137688D01*
X0327406Y0137688D01*
X0330406Y0140688D01*
X0330406Y0149688D01*
X0327406Y0152688D01*
X0324406Y0152688D01*
X0319406Y0147688D02*
X0299406Y0147688D01*
X0296906Y0145188D01*
X0275906Y0145188D01*
X0283906Y0148688D02*
X0258906Y0148688D01*
X0254623Y0144972D02*
X0266123Y0144972D01*
X0267406Y0151688D02*
X0261666Y0157428D01*
X0253406Y0157428D01*
X0248653Y0157157D02*
X0244006Y0157157D01*
X0244006Y0156828D02*
X0244006Y0158028D01*
X0247959Y0158028D01*
X0247959Y0160198D01*
X0247850Y0160605D01*
X0247639Y0160970D01*
X0247341Y0161268D01*
X0247133Y0161388D01*
X0249309Y0161388D01*
X0248653Y0160733D01*
X0248653Y0154124D01*
X0249089Y0153688D01*
X0248653Y0153253D01*
X0248653Y0147045D01*
X0248159Y0146841D01*
X0248159Y0153253D01*
X0247582Y0153830D01*
X0247639Y0153887D01*
X0247850Y0154252D01*
X0247959Y0154659D01*
X0247959Y0156828D01*
X0244006Y0156828D01*
X0247959Y0155959D02*
X0248653Y0155959D01*
X0248653Y0154760D02*
X0247959Y0154760D01*
X0247850Y0153562D02*
X0248962Y0153562D01*
X0248653Y0152363D02*
X0248159Y0152363D01*
X0248159Y0151165D02*
X0248653Y0151165D01*
X0248653Y0149966D02*
X0248159Y0149966D01*
X0248159Y0148768D02*
X0248653Y0148768D01*
X0248653Y0147569D02*
X0248159Y0147569D01*
X0245406Y0143688D02*
X0243406Y0145688D01*
X0243406Y0149948D01*
X0253406Y0149948D02*
X0253406Y0146188D01*
X0254623Y0144972D01*
X0249906Y0143688D02*
X0245406Y0143688D01*
X0233406Y0137188D02*
X0311906Y0137188D01*
X0314406Y0139688D01*
X0314406Y0142688D01*
X0319406Y0147688D02*
X0324406Y0142688D01*
X0332196Y0135584D02*
X0338006Y0135584D01*
X0338006Y0136782D02*
X0333395Y0136782D01*
X0334593Y0137981D02*
X0338006Y0137981D01*
X0338006Y0139179D02*
X0335586Y0139179D01*
X0335806Y0140378D02*
X0338006Y0140378D01*
X0338006Y0141577D02*
X0335806Y0141577D01*
X0335806Y0142775D02*
X0338006Y0142775D01*
X0338006Y0143974D02*
X0335806Y0143974D01*
X0335806Y0145172D02*
X0338006Y0145172D01*
X0338006Y0146371D02*
X0335806Y0146371D01*
X0335806Y0147569D02*
X0338006Y0147569D01*
X0338006Y0148768D02*
X0335806Y0148768D01*
X0335806Y0149966D02*
X0338006Y0149966D01*
X0338006Y0151165D02*
X0335806Y0151165D01*
X0335724Y0152363D02*
X0338006Y0152363D01*
X0338006Y0153562D02*
X0334927Y0153562D01*
X0333728Y0154760D02*
X0338006Y0154760D01*
X0338006Y0155959D02*
X0332530Y0155959D01*
X0331331Y0157157D02*
X0338006Y0157157D01*
X0319406Y0167688D02*
X0319406Y0185188D01*
X0316906Y0187688D01*
X0308406Y0187688D01*
X0314406Y0182688D02*
X0299406Y0182688D01*
X0296906Y0185188D01*
X0293719Y0183524D02*
X0291637Y0183524D01*
X0292835Y0184723D02*
X0293325Y0184723D01*
X0294704Y0182326D02*
X0290438Y0182326D01*
X0289239Y0181127D02*
X0297573Y0181127D01*
X0288806Y0179929D02*
X0310377Y0179929D01*
X0319670Y0188318D02*
X0321988Y0188318D01*
X0322050Y0187120D02*
X0320868Y0187120D01*
X0320789Y0189517D02*
X0318471Y0189517D01*
X0319206Y0190715D02*
X0319606Y0190715D01*
X0319606Y0191914D02*
X0319206Y0191914D01*
X0319206Y0193112D02*
X0319606Y0193112D01*
X0319606Y0194311D02*
X0319206Y0194311D01*
X0320418Y0195510D02*
X0320439Y0195510D01*
X0319406Y0197688D02*
X0310906Y0197688D01*
X0307406Y0194188D01*
X0293723Y0203899D02*
X0280706Y0203899D01*
X0280706Y0202701D02*
X0292524Y0202701D01*
X0291326Y0201502D02*
X0280706Y0201502D01*
X0280706Y0200304D02*
X0290127Y0200304D01*
X0288929Y0199105D02*
X0280706Y0199105D01*
X0280706Y0197907D02*
X0287730Y0197907D01*
X0286532Y0196708D02*
X0280706Y0196708D01*
X0280706Y0195510D02*
X0285333Y0195510D01*
X0284135Y0194311D02*
X0280706Y0194311D01*
X0280706Y0193112D02*
X0282936Y0193112D01*
X0281738Y0191914D02*
X0280706Y0191914D01*
X0277906Y0191914D02*
X0270495Y0191914D01*
X0270559Y0193112D02*
X0277906Y0193112D01*
X0277906Y0194311D02*
X0270559Y0194311D01*
X0270559Y0195510D02*
X0277906Y0195510D01*
X0277906Y0196708D02*
X0270559Y0196708D01*
X0270559Y0197907D02*
X0277906Y0197907D01*
X0277906Y0199105D02*
X0270372Y0199105D01*
X0269959Y0200304D02*
X0277906Y0200304D01*
X0277906Y0201502D02*
X0269959Y0201502D01*
X0268906Y0202701D02*
X0277906Y0202701D01*
X0277906Y0203899D02*
X0269959Y0203899D01*
X0269959Y0205098D02*
X0277906Y0205098D01*
X0277906Y0206296D02*
X0269740Y0206296D01*
X0280706Y0206296D02*
X0296120Y0206296D01*
X0294922Y0205098D02*
X0280706Y0205098D01*
X0280706Y0207495D02*
X0297319Y0207495D01*
X0298517Y0208693D02*
X0280706Y0208693D01*
X0280706Y0209892D02*
X0299716Y0209892D01*
X0300914Y0211090D02*
X0280706Y0211090D01*
X0280706Y0212289D02*
X0302113Y0212289D01*
X0296611Y0214686D02*
X0295201Y0214686D01*
X0307906Y0226428D02*
X0309166Y0227688D01*
X0316406Y0227688D01*
X0319406Y0224688D01*
X0319406Y0217688D01*
X0324006Y0218281D02*
X0324806Y0218281D01*
X0324806Y0219480D02*
X0324006Y0219480D01*
X0324006Y0220678D02*
X0324806Y0220678D01*
X0324806Y0221877D02*
X0324006Y0221877D01*
X0324806Y0223075D02*
X0338006Y0223075D01*
X0338006Y0221877D02*
X0329006Y0221877D01*
X0328902Y0220678D02*
X0338006Y0220678D01*
X0338006Y0219480D02*
X0327703Y0219480D01*
X0326505Y0218281D02*
X0338006Y0218281D01*
X0338006Y0217083D02*
X0326800Y0217083D01*
X0324806Y0223088D02*
X0329006Y0223088D01*
X0329006Y0224594D01*
X0326312Y0227288D01*
X0324806Y0227288D01*
X0324806Y0223088D01*
X0324806Y0224274D02*
X0324006Y0224274D01*
X0324006Y0225472D02*
X0324806Y0225472D01*
X0324806Y0226671D02*
X0324006Y0226671D01*
X0321883Y0226671D02*
X0320818Y0226671D01*
X0319619Y0227869D02*
X0333917Y0227869D01*
X0335115Y0226671D02*
X0326929Y0226671D01*
X0328127Y0225472D02*
X0336314Y0225472D01*
X0337512Y0224274D02*
X0329006Y0224274D01*
X0327574Y0229068D02*
X0332718Y0229068D01*
X0321238Y0229068D02*
X0318421Y0229068D01*
X0318773Y0230266D02*
X0320040Y0230266D01*
X0319606Y0231465D02*
X0319206Y0231465D01*
X0319206Y0232663D02*
X0319606Y0232663D01*
X0319606Y0233862D02*
X0319206Y0233862D01*
X0318822Y0235060D02*
X0319990Y0235060D01*
X0321189Y0236259D02*
X0317624Y0236259D01*
X0316425Y0237457D02*
X0322387Y0237457D01*
X0312406Y0207688D02*
X0286406Y0181688D01*
X0286406Y0151188D01*
X0283906Y0148688D01*
X0287380Y0148768D02*
X0297091Y0148768D01*
X0298634Y0149966D02*
X0288498Y0149966D01*
X0288806Y0151165D02*
X0309606Y0151165D01*
X0309606Y0152363D02*
X0288806Y0152363D01*
X0288806Y0153562D02*
X0309606Y0153562D01*
X0309690Y0154760D02*
X0288806Y0154760D01*
X0275406Y0166688D02*
X0275406Y0174188D01*
X0275406Y0211688D01*
X0267906Y0211688D01*
X0265406Y0211688D01*
X0240406Y0211688D02*
X0239906Y0211688D01*
X0238406Y0211688D01*
X0225106Y0208693D02*
X0199748Y0208693D01*
X0197021Y0207495D02*
X0225106Y0207495D01*
X0225106Y0206296D02*
X0195822Y0206296D01*
X0194624Y0205098D02*
X0225106Y0205098D01*
X0225106Y0203899D02*
X0193425Y0203899D01*
X0192227Y0202701D02*
X0225106Y0202701D01*
X0225106Y0201502D02*
X0202657Y0201502D01*
X0203613Y0200304D02*
X0206957Y0200304D01*
X0206117Y0199105D02*
X0203987Y0199105D01*
X0203959Y0197907D02*
X0205825Y0197907D01*
X0205032Y0196708D02*
X0203462Y0196708D01*
X0203833Y0195510D02*
X0202090Y0195510D01*
X0202635Y0194311D02*
X0194423Y0194311D01*
X0193225Y0193112D02*
X0201436Y0193112D01*
X0200238Y0191914D02*
X0192026Y0191914D01*
X0190828Y0190715D02*
X0199039Y0190715D01*
X0197841Y0189517D02*
X0189629Y0189517D01*
X0188431Y0188318D02*
X0196642Y0188318D01*
X0195444Y0187120D02*
X0187232Y0187120D01*
X0187737Y0185921D02*
X0194245Y0185921D01*
X0194906Y0183188D02*
X0209406Y0197688D01*
X0212695Y0199105D02*
X0225106Y0199105D01*
X0225106Y0197907D02*
X0212987Y0197907D01*
X0211855Y0200304D02*
X0225106Y0200304D01*
X0223246Y0196708D02*
X0222046Y0196708D01*
X0222046Y0195510D02*
X0223246Y0195510D01*
X0223246Y0194311D02*
X0222046Y0194311D01*
X0215166Y0192688D02*
X0212906Y0192688D01*
X0208406Y0188188D01*
X0195906Y0175688D01*
X0195906Y0172688D01*
X0192325Y0172738D02*
X0191505Y0172738D01*
X0191505Y0171539D02*
X0192506Y0171539D01*
X0192994Y0170341D02*
X0191505Y0170341D01*
X0192547Y0173936D02*
X0190456Y0173936D01*
X0193288Y0175135D02*
X0173806Y0175135D01*
X0173806Y0176333D02*
X0193576Y0176333D01*
X0194356Y0177532D02*
X0173987Y0177532D01*
X0173851Y0178730D02*
X0195554Y0178730D01*
X0196753Y0179929D02*
X0186895Y0179929D01*
X0183917Y0179929D02*
X0173806Y0179929D01*
X0173806Y0181127D02*
X0180645Y0181127D01*
X0182168Y0181127D02*
X0182402Y0181127D01*
X0185406Y0183188D02*
X0194906Y0183188D01*
X0196202Y0181127D02*
X0197951Y0181127D01*
X0197438Y0182326D02*
X0199150Y0182326D01*
X0198637Y0183524D02*
X0200348Y0183524D01*
X0199835Y0184723D02*
X0201547Y0184723D01*
X0201034Y0185921D02*
X0202745Y0185921D01*
X0202232Y0187120D02*
X0203944Y0187120D01*
X0203431Y0188318D02*
X0204825Y0188318D01*
X0204629Y0189517D02*
X0205080Y0189517D01*
X0205828Y0190715D02*
X0205869Y0190715D01*
X0207026Y0191914D02*
X0208738Y0191914D01*
X0208225Y0193112D02*
X0209936Y0193112D01*
X0210611Y0194311D02*
X0210807Y0194311D01*
X0200406Y0198688D02*
X0195406Y0198688D01*
X0181406Y0184688D01*
X0177825Y0184723D02*
X0173806Y0184723D01*
X0173806Y0183524D02*
X0178012Y0183524D01*
X0178704Y0182326D02*
X0173806Y0182326D01*
X0174937Y0185921D02*
X0178041Y0185921D01*
X0178774Y0187120D02*
X0176646Y0187120D01*
X0177289Y0187762D02*
X0177289Y0187762D01*
X0177845Y0188318D02*
X0181642Y0188318D01*
X0182841Y0189517D02*
X0179043Y0189517D01*
X0180242Y0190715D02*
X0184039Y0190715D01*
X0185238Y0191914D02*
X0181440Y0191914D01*
X0182639Y0193112D02*
X0186436Y0193112D01*
X0187635Y0194311D02*
X0183837Y0194311D01*
X0185036Y0195510D02*
X0188833Y0195510D01*
X0190032Y0196708D02*
X0186234Y0196708D01*
X0187433Y0197907D02*
X0191230Y0197907D01*
X0192429Y0199105D02*
X0188631Y0199105D01*
X0189830Y0200304D02*
X0193627Y0200304D01*
X0191028Y0201502D02*
X0198156Y0201502D01*
X0198722Y0195510D02*
X0195622Y0195510D01*
X0180213Y0200304D02*
X0174735Y0200304D01*
X0174959Y0199105D02*
X0179015Y0199105D01*
X0177816Y0197907D02*
X0174959Y0197907D01*
X0176618Y0196708D02*
X0171006Y0196708D01*
X0170406Y0196928D02*
X0170406Y0200688D01*
X0169806Y0200304D02*
X0171006Y0200304D01*
X0171006Y0199105D02*
X0169806Y0199105D01*
X0169806Y0197907D02*
X0171006Y0197907D01*
X0169806Y0197528D02*
X0169806Y0201087D01*
X0167243Y0201087D01*
X0166836Y0200978D01*
X0166471Y0200768D01*
X0166173Y0200470D01*
X0165962Y0200105D01*
X0165853Y0199698D01*
X0165853Y0197528D01*
X0169806Y0197528D01*
X0169806Y0196708D02*
X0165280Y0196708D01*
X0165159Y0197907D02*
X0165853Y0197907D01*
X0165853Y0199105D02*
X0165159Y0199105D01*
X0165088Y0200304D02*
X0166077Y0200304D01*
X0161666Y0196928D02*
X0160406Y0196928D01*
X0159146Y0196928D01*
X0161666Y0196928D02*
X0169146Y0189448D01*
X0170406Y0189448D01*
X0174959Y0195510D02*
X0175419Y0195510D01*
X0160406Y0189448D02*
X0160406Y0181688D01*
X0164406Y0177688D01*
X0170406Y0174688D02*
X0175906Y0169188D01*
X0179666Y0169188D01*
X0176357Y0173936D02*
X0174552Y0173936D01*
X0182975Y0173936D02*
X0183837Y0173936D01*
X0190783Y0159554D02*
X0191976Y0159554D01*
X0191981Y0158356D02*
X0194845Y0158356D01*
X0196043Y0157157D02*
X0193180Y0157157D01*
X0194378Y0155959D02*
X0197242Y0155959D01*
X0198440Y0154760D02*
X0195577Y0154760D01*
X0196775Y0153562D02*
X0199639Y0153562D01*
X0199872Y0152363D02*
X0197974Y0152363D01*
X0199172Y0151165D02*
X0200368Y0151165D01*
X0200371Y0149966D02*
X0201827Y0149966D01*
X0196406Y0144188D02*
X0181646Y0144188D01*
X0186005Y0141577D02*
X0194775Y0141577D01*
X0195573Y0140378D02*
X0185894Y0140378D01*
X0196350Y0139179D02*
X0163806Y0139179D01*
X0163806Y0140378D02*
X0169919Y0140378D01*
X0169807Y0141577D02*
X0168859Y0141577D01*
X0166406Y0144188D02*
X0174166Y0144188D01*
X0163953Y0141577D02*
X0163806Y0141577D01*
X0209368Y0140378D02*
X0218822Y0140378D01*
X0220021Y0139179D02*
X0209406Y0139179D01*
X0209406Y0137981D02*
X0221219Y0137981D01*
X0222418Y0136782D02*
X0209406Y0136782D01*
X0209406Y0135584D02*
X0223616Y0135584D01*
X0224815Y0134385D02*
X0209406Y0134385D01*
X0209406Y0133187D02*
X0226013Y0133187D01*
X0227212Y0131988D02*
X0209406Y0131988D01*
X0209406Y0130790D02*
X0228410Y0130790D01*
X0233406Y0137188D02*
X0211156Y0159438D01*
X0211156Y0176438D01*
X0208406Y0179188D01*
X0212258Y0178730D02*
X0225106Y0178730D01*
X0225106Y0177532D02*
X0213301Y0177532D01*
X0239806Y0169142D02*
X0241006Y0169142D01*
X0240406Y0166688D02*
X0251406Y0166688D01*
X0268123Y0166688D01*
X0275406Y0166688D01*
X0277606Y0169142D02*
X0269375Y0169142D01*
X0269959Y0170341D02*
X0277606Y0170341D01*
X0277606Y0171539D02*
X0269959Y0171539D01*
X0268906Y0172738D02*
X0277606Y0172738D01*
X0277606Y0173936D02*
X0269959Y0173936D01*
X0269959Y0175135D02*
X0277606Y0175135D01*
X0277606Y0176333D02*
X0269934Y0176333D01*
X0270559Y0177532D02*
X0277606Y0177532D01*
X0277606Y0178730D02*
X0270559Y0178730D01*
X0270559Y0179929D02*
X0277606Y0179929D01*
X0277606Y0181127D02*
X0270559Y0181127D01*
X0270559Y0182326D02*
X0277606Y0182326D01*
X0277606Y0183524D02*
X0270559Y0183524D01*
X0269735Y0184723D02*
X0277606Y0184723D01*
X0277606Y0185921D02*
X0269206Y0185921D01*
X0269206Y0187120D02*
X0277606Y0187120D01*
X0277844Y0188318D02*
X0269206Y0188318D01*
X0269206Y0189517D02*
X0277906Y0189517D01*
X0277906Y0190715D02*
X0269297Y0190715D01*
X0266006Y0191914D02*
X0264806Y0191914D01*
X0265406Y0191914D01*
X0265406Y0193112D02*
X0264806Y0193112D01*
X0266006Y0193112D01*
X0266006Y0194311D02*
X0264806Y0194311D01*
X0265406Y0194311D01*
X0260853Y0194311D02*
X0244959Y0194311D01*
X0260853Y0194311D01*
X0260853Y0193112D02*
X0244959Y0193112D01*
X0260853Y0193112D01*
X0261169Y0191914D02*
X0244644Y0191914D01*
X0261169Y0191914D01*
X0260941Y0183524D02*
X0257371Y0183524D01*
X0260941Y0183524D01*
X0260853Y0182326D02*
X0257459Y0182326D01*
X0260853Y0182326D01*
X0260853Y0181127D02*
X0257459Y0181127D01*
X0257459Y0178730D02*
X0260853Y0178730D01*
X0260887Y0177532D02*
X0257425Y0177532D01*
X0264806Y0177532D02*
X0266006Y0177532D01*
X0266006Y0178730D02*
X0264806Y0178730D01*
X0264806Y0181127D02*
X0266006Y0181127D01*
X0266006Y0182326D02*
X0264806Y0182326D01*
X0265406Y0182326D01*
X0265406Y0183524D02*
X0264806Y0183524D01*
X0266006Y0183524D01*
X0266006Y0169142D02*
X0264806Y0169142D01*
X0261437Y0169142D02*
X0256875Y0169142D01*
X0253506Y0169142D02*
X0252306Y0169142D01*
X0248937Y0169142D02*
X0244375Y0169142D01*
X0247765Y0160753D02*
X0248673Y0160753D01*
X0248653Y0159554D02*
X0247959Y0159554D01*
X0247959Y0158356D02*
X0248653Y0158356D01*
X0209406Y0129591D02*
X0304904Y0129591D01*
X0304825Y0128393D02*
X0209406Y0128393D01*
X0269798Y0127194D02*
X0270514Y0127194D01*
X0270353Y0125996D02*
X0269959Y0125996D01*
X0269959Y0124797D02*
X0270353Y0124797D01*
X0270353Y0122400D02*
X0269959Y0122400D01*
X0269959Y0121202D02*
X0270353Y0121202D01*
X0270404Y0120003D02*
X0269908Y0120003D01*
X0274306Y0125996D02*
X0275506Y0125996D01*
X0275506Y0127194D02*
X0274306Y0127194D01*
X0279298Y0127194D02*
X0305149Y0127194D01*
X0304416Y0125996D02*
X0279459Y0125996D01*
X0270485Y0112812D02*
X0269828Y0112812D01*
X0308406Y0121928D02*
X0308406Y0128688D01*
X0311664Y0127194D02*
X0320106Y0127194D01*
X0320106Y0128393D02*
X0311987Y0128393D01*
X0311908Y0129591D02*
X0320499Y0129591D01*
X0320412Y0125996D02*
X0312396Y0125996D01*
X0313159Y0124797D02*
X0321009Y0124797D01*
X0322236Y0123599D02*
X0313159Y0123599D01*
X0329799Y0133187D02*
X0338006Y0133187D01*
X0338006Y0134385D02*
X0330998Y0134385D01*
X0336557Y0131988D02*
X0338006Y0131988D01*
X0312406Y0157688D02*
X0305906Y0164188D01*
X0319406Y0197688D02*
X0324406Y0202688D01*
X0155875Y0185921D02*
X0154937Y0185921D01*
X0154959Y0197907D02*
X0155653Y0197907D01*
X0155653Y0199105D02*
X0154959Y0199105D01*
X0154735Y0200304D02*
X0155724Y0200304D01*
X0294005Y0085246D02*
X0319568Y0085246D01*
X0320193Y0084048D02*
X0299653Y0084048D01*
X0301309Y0082849D02*
X0321367Y0082849D01*
X0297160Y0084048D02*
X0294005Y0084048D01*
X0294005Y0082849D02*
X0295503Y0082849D01*
X0294929Y0081651D02*
X0294005Y0081651D01*
X0294005Y0080452D02*
X0294825Y0080452D01*
X0295124Y0079254D02*
X0293769Y0079254D01*
X0294031Y0078055D02*
X0292646Y0078055D01*
X0251182Y0073261D02*
X0249630Y0073261D01*
X0241182Y0073261D02*
X0239630Y0073261D01*
X0230895Y0064872D02*
X0227707Y0064872D01*
X0227959Y0063673D02*
X0230853Y0063673D01*
X0229628Y0066070D02*
X0228159Y0066070D01*
X0227959Y0062475D02*
X0234806Y0062475D01*
X0214006Y0058879D02*
X0212806Y0058879D01*
X0212806Y0057681D02*
X0214006Y0057681D01*
X0209399Y0057681D02*
X0207413Y0057681D01*
X0207959Y0058879D02*
X0208853Y0058879D01*
X0208853Y0060078D02*
X0207959Y0060078D01*
X0207959Y0062475D02*
X0208853Y0062475D01*
X0208853Y0063673D02*
X0207959Y0063673D01*
X0207707Y0064872D02*
X0209105Y0064872D01*
X0204006Y0058879D02*
X0202806Y0058879D01*
X0202806Y0057681D02*
X0204006Y0057681D01*
D19*
X0213406Y0068928D02*
X0213406Y0075188D01*
X0235166Y0061448D02*
X0245406Y0061948D01*
X0235406Y0061688D01*
X0235166Y0061448D01*
X0235406Y0061688D02*
X0235406Y0054688D01*
X0245406Y0069428D02*
X0255406Y0069428D01*
X0282166Y0073188D02*
X0282166Y0063188D01*
X0289646Y0063188D02*
X0289646Y0073188D01*
X0293406Y0073188D01*
X0298406Y0078188D01*
X0298406Y0080688D01*
X0289646Y0083188D02*
X0289646Y0073188D01*
X0282166Y0083188D02*
X0282166Y0085448D01*
X0255406Y0098188D02*
X0174406Y0098188D01*
X0142906Y0129688D01*
X0139646Y0129688D01*
X0139406Y0129928D01*
X0139406Y0122448D02*
X0139146Y0122188D01*
X0129906Y0122188D01*
X0130166Y0122448D01*
X0130406Y0122448D01*
X0129906Y0122188D02*
X0120906Y0122188D01*
X0120906Y0122448D01*
X0120906Y0122188D02*
X0100906Y0122188D01*
X0095406Y0128688D02*
X0098406Y0131688D01*
X0098406Y0136448D01*
X0089406Y0136448D02*
X0089406Y0128688D01*
X0086166Y0115928D02*
X0074406Y0127688D01*
X0070406Y0127688D01*
X0086166Y0115928D02*
X0093406Y0115928D01*
X0102406Y0115928D01*
X0102406Y0108448D02*
X0102666Y0108188D01*
X0109406Y0108188D01*
X0110406Y0129688D02*
X0107406Y0132688D01*
X0107406Y0136448D01*
X0110646Y0129928D02*
X0110406Y0129688D01*
X0110646Y0129928D02*
X0120906Y0129928D01*
X0114156Y0140938D02*
X0111166Y0143928D01*
X0107406Y0143928D01*
X0098406Y0143928D02*
X0098406Y0148688D01*
X0095406Y0151688D01*
X0089406Y0151688D02*
X0089406Y0143928D01*
X0160406Y0155688D02*
X0184906Y0155688D01*
X0196406Y0144188D01*
X0198906Y0141688D01*
X0206406Y0139688D02*
X0206406Y0125688D01*
X0206406Y0139688D02*
X0183406Y0162688D01*
X0167406Y0162688D01*
X0170406Y0196928D02*
X0170406Y0205688D01*
X0155406Y0205688D01*
X0150406Y0200688D01*
X0150406Y0196928D01*
X0170406Y0205688D02*
X0170406Y0207188D01*
X0190406Y0227188D01*
X0240406Y0195448D02*
X0244166Y0195448D01*
X0247406Y0198688D01*
X0258406Y0198688D02*
X0261646Y0195448D01*
X0265406Y0195448D01*
X0258406Y0188688D02*
X0252906Y0188688D01*
X0252906Y0180188D01*
X0252406Y0180688D01*
X0240406Y0180688D01*
X0240406Y0180188D01*
X0251906Y0180188D01*
X0252906Y0179188D01*
X0252906Y0188688D02*
X0247406Y0188688D01*
X0290406Y0151688D02*
X0307906Y0151688D01*
X0111906Y0086188D02*
X0111906Y0082688D01*
X0101666Y0072448D01*
X0090406Y0072448D01*
X0090406Y0072688D01*
X0080406Y0072688D01*
X0084906Y0077688D02*
X0075406Y0077688D01*
X0070406Y0072688D01*
X0067906Y0072688D01*
X0084906Y0077688D02*
X0086906Y0079688D01*
X0090166Y0079688D01*
X0097906Y0079688D01*
X0100095Y0081877D01*
X0100095Y0086188D01*
X0090406Y0079928D02*
X0090166Y0079688D01*
D20*
X0080406Y0062688D02*
X0113406Y0062688D01*
X0137406Y0086688D01*
X0185906Y0086688D01*
X0187906Y0085334D01*
X0199646Y0068928D02*
X0196406Y0065688D01*
X0188260Y0065688D01*
X0187906Y0066042D01*
X0186260Y0066042D01*
X0186615Y0065188D01*
X0186906Y0065688D02*
X0187260Y0065688D01*
X0187906Y0066042D01*
X0199646Y0068928D02*
X0203406Y0068928D01*
X0213406Y0068928D01*
X0223406Y0068928D01*
X0230406Y0069428D02*
X0230406Y0074188D01*
X0230406Y0069428D02*
X0235406Y0069428D01*
X0245406Y0069428D01*
X0245406Y0061948D02*
X0235406Y0061948D01*
X0245406Y0061948D02*
X0255406Y0061948D01*
X0274406Y0076688D02*
X0274406Y0089188D01*
X0244406Y0089188D01*
X0239906Y0093688D01*
X0123906Y0093688D01*
X0109406Y0108188D01*
X0109406Y0112188D01*
X0070406Y0097688D02*
X0063906Y0097688D01*
X0059906Y0101688D01*
X0059906Y0131188D01*
X0096406Y0167688D01*
X0160406Y0167688D01*
X0160406Y0155688D01*
X0160406Y0135688D01*
X0189906Y0106188D01*
X0213906Y0106188D01*
X0274406Y0106188D01*
X0274906Y0106688D01*
X0274906Y0116448D01*
X0274906Y0123928D02*
X0265406Y0123928D01*
X0260146Y0116448D02*
X0257461Y0119133D01*
X0260146Y0116448D02*
X0265406Y0116448D01*
X0274906Y0123928D02*
X0290166Y0123928D01*
X0299646Y0114448D01*
X0308406Y0114448D01*
X0313146Y0114448D01*
X0315906Y0111688D01*
X0315906Y0095874D01*
X0316812Y0095094D02*
X0318712Y0093068D01*
X0324406Y0086999D01*
X0356406Y0086999D01*
X0334906Y0107688D02*
X0341406Y0114188D01*
X0341406Y0225188D01*
X0333906Y0232688D01*
X0324406Y0232688D01*
X0314406Y0232688D02*
X0243406Y0232688D01*
X0239906Y0229188D01*
X0239906Y0211688D01*
X0240406Y0211688D02*
X0240406Y0202928D01*
X0240406Y0195448D02*
X0240406Y0180688D01*
X0240406Y0180428D01*
X0252906Y0180428D01*
X0265406Y0180428D01*
X0265406Y0195448D01*
X0265406Y0202928D02*
X0265406Y0211688D01*
X0238406Y0211688D02*
X0238404Y0211761D01*
X0238398Y0211834D01*
X0238389Y0211906D01*
X0238376Y0211978D01*
X0238359Y0212049D01*
X0238338Y0212118D01*
X0238313Y0212187D01*
X0238286Y0212255D01*
X0238254Y0212320D01*
X0238219Y0212385D01*
X0238181Y0212447D01*
X0238140Y0212507D01*
X0238096Y0212565D01*
X0238048Y0212620D01*
X0237998Y0212673D01*
X0237945Y0212723D01*
X0237890Y0212771D01*
X0237832Y0212815D01*
X0237772Y0212856D01*
X0237710Y0212894D01*
X0237645Y0212929D01*
X0237580Y0212961D01*
X0237512Y0212988D01*
X0237443Y0213013D01*
X0237374Y0213034D01*
X0237303Y0213051D01*
X0237231Y0213064D01*
X0237159Y0213073D01*
X0237086Y0213079D01*
X0237013Y0213081D01*
X0237013Y0213082D02*
X0230406Y0213082D01*
X0197800Y0213082D01*
X0174406Y0189688D01*
X0170406Y0189688D01*
X0170406Y0189448D02*
X0170406Y0177688D01*
X0170406Y0174688D01*
X0163406Y0167688D01*
X0160406Y0167688D01*
X0217906Y0220688D02*
X0211906Y0226688D01*
X0211942Y0227224D01*
X0192871Y0227224D01*
X0190406Y0227188D01*
X0240406Y0172948D02*
X0252906Y0172948D01*
X0265406Y0172948D01*
X0274406Y0106188D02*
X0311906Y0106188D01*
X0316812Y0095094D02*
X0282292Y0095094D01*
X0282146Y0094948D01*
X0282166Y0085448D01*
X0274406Y0089188D02*
X0274406Y0098188D01*
X0274406Y0076688D02*
X0277906Y0073188D01*
X0282166Y0073188D01*
X0223406Y0061448D02*
X0213406Y0061448D01*
X0213406Y0054688D01*
X0213406Y0061448D02*
X0203406Y0061448D01*
X0162406Y0062448D02*
X0162406Y0054688D01*
X0070406Y0054688D02*
X0070406Y0062688D01*
D21*
X0240406Y0211688D02*
X0267906Y0211688D01*
M02*
