G75*
%MOIN*%
%OFA0B0*%
%FSLAX25Y25*%
%IPPOS*%
%LPD*%
%AMOC8*
5,1,8,0,0,1.08239X$1,22.5*
%
%ADD10R,0.07600X0.21000*%
%ADD11R,0.08661X0.02362*%
%ADD12R,0.07874X0.05906*%
%ADD13R,0.07874X0.14961*%
%ADD14R,0.03937X0.02165*%
%ADD15R,0.05118X0.05906*%
%ADD16R,0.09449X0.09449*%
%ADD17R,0.05906X0.05512*%
%ADD18R,0.08661X0.09843*%
%ADD19R,0.07874X0.01969*%
%ADD20R,0.08661X0.07087*%
%ADD21R,0.21260X0.11417*%
%ADD22R,0.05512X0.05512*%
%ADD23R,0.01181X0.04724*%
%ADD24R,0.04724X0.01181*%
%ADD25R,0.03937X0.07874*%
%ADD26R,0.07087X0.03937*%
%ADD27OC8,0.06000*%
%ADD28OC8,0.05200*%
%ADD29C,0.07087*%
%ADD30R,0.11024X0.09449*%
%ADD31R,0.06299X0.05512*%
%ADD32R,0.11024X0.14961*%
%ADD33R,0.06299X0.11811*%
%ADD34C,0.06000*%
%ADD35R,0.05512X0.02362*%
%ADD36C,0.03562*%
%ADD37C,0.01200*%
%ADD38C,0.03200*%
%ADD39C,0.02400*%
%ADD40C,0.02000*%
D10*
X0162406Y0067688D03*
X0162406Y0105688D03*
D11*
X0123642Y0126688D03*
X0123642Y0131688D03*
X0123642Y0136688D03*
X0123642Y0141688D03*
X0123642Y0146688D03*
X0123642Y0151688D03*
X0123642Y0156688D03*
X0103170Y0156688D03*
X0103170Y0151688D03*
X0103170Y0146688D03*
X0103170Y0141688D03*
X0103170Y0136688D03*
X0103170Y0131688D03*
X0103170Y0126688D03*
D12*
X0247505Y0128188D03*
X0247505Y0119133D03*
X0247505Y0137243D03*
D13*
X0272308Y0128188D03*
D14*
X0280906Y0078168D03*
X0280906Y0074428D03*
X0280906Y0070688D03*
X0291536Y0070688D03*
X0291536Y0074428D03*
X0291536Y0078168D03*
D15*
X0290146Y0063188D03*
X0282666Y0063188D03*
D16*
X0308406Y0060027D03*
X0308406Y0077350D03*
X0244406Y0080031D03*
X0244406Y0060346D03*
X0233406Y0119846D03*
X0233406Y0139531D03*
D17*
G36*
X0277558Y0095862D02*
X0281733Y0100037D01*
X0285630Y0096140D01*
X0281455Y0091965D01*
X0277558Y0095862D01*
G37*
G36*
X0288183Y0085237D02*
X0292358Y0089412D01*
X0296255Y0085515D01*
X0292080Y0081340D01*
X0288183Y0085237D01*
G37*
D18*
X0071780Y0143653D03*
X0050914Y0143653D03*
X0050914Y0176724D03*
X0071780Y0176724D03*
D19*
X0072764Y0166487D03*
X0072764Y0163338D03*
X0072764Y0160188D03*
X0072764Y0157039D03*
X0072764Y0153889D03*
D20*
X0230406Y0079228D03*
X0230406Y0059149D03*
D21*
X0198906Y0065200D03*
X0198906Y0104176D03*
D22*
X0206426Y0119688D03*
X0221386Y0119688D03*
D23*
X0229284Y0158676D03*
X0231253Y0158676D03*
X0233221Y0158676D03*
X0235190Y0158676D03*
X0237158Y0158676D03*
X0239127Y0158676D03*
X0241095Y0158676D03*
X0243064Y0158676D03*
X0245032Y0158676D03*
X0247001Y0158676D03*
X0248969Y0158676D03*
X0250938Y0158676D03*
X0252906Y0158676D03*
X0254875Y0158676D03*
X0256843Y0158676D03*
X0258812Y0158676D03*
X0260780Y0158676D03*
X0262749Y0158676D03*
X0264717Y0158676D03*
X0266686Y0158676D03*
X0268654Y0158676D03*
X0270623Y0158676D03*
X0272591Y0158676D03*
X0274560Y0158676D03*
X0276528Y0158676D03*
X0276528Y0219700D03*
X0274560Y0219700D03*
X0272591Y0219700D03*
X0270623Y0219700D03*
X0268654Y0219700D03*
X0266686Y0219700D03*
X0264717Y0219700D03*
X0262749Y0219700D03*
X0260780Y0219700D03*
X0258812Y0219700D03*
X0256843Y0219700D03*
X0254875Y0219700D03*
X0252906Y0219700D03*
X0250938Y0219700D03*
X0248969Y0219700D03*
X0247001Y0219700D03*
X0245032Y0219700D03*
X0243064Y0219700D03*
X0241095Y0219700D03*
X0239127Y0219700D03*
X0237158Y0219700D03*
X0235190Y0219700D03*
X0233221Y0219700D03*
X0231253Y0219700D03*
X0229284Y0219700D03*
D24*
X0222394Y0212810D03*
X0222394Y0210842D03*
X0222394Y0208873D03*
X0222394Y0206905D03*
X0222394Y0204936D03*
X0222394Y0202968D03*
X0222394Y0200999D03*
X0222394Y0199031D03*
X0222394Y0197062D03*
X0222394Y0195094D03*
X0222394Y0193125D03*
X0222394Y0191157D03*
X0222394Y0189188D03*
X0222394Y0187220D03*
X0222394Y0185251D03*
X0222394Y0183283D03*
X0222394Y0181314D03*
X0222394Y0179346D03*
X0222394Y0177377D03*
X0222394Y0175409D03*
X0222394Y0173440D03*
X0222394Y0171472D03*
X0222394Y0169503D03*
X0222394Y0167535D03*
X0222394Y0165566D03*
X0283418Y0165566D03*
X0283418Y0167535D03*
X0283418Y0169503D03*
X0283418Y0171472D03*
X0283418Y0173440D03*
X0283418Y0175409D03*
X0283418Y0177377D03*
X0283418Y0179346D03*
X0283418Y0181314D03*
X0283418Y0183283D03*
X0283418Y0185251D03*
X0283418Y0187220D03*
X0283418Y0189188D03*
X0283418Y0191157D03*
X0283418Y0193125D03*
X0283418Y0195094D03*
X0283418Y0197062D03*
X0283418Y0199031D03*
X0283418Y0200999D03*
X0283418Y0202968D03*
X0283418Y0204936D03*
X0283418Y0206905D03*
X0283418Y0208873D03*
X0283418Y0210842D03*
X0283418Y0212810D03*
D25*
X0176272Y0236369D03*
X0170367Y0236369D03*
X0164461Y0236369D03*
X0158556Y0236369D03*
X0152650Y0236369D03*
X0146745Y0236369D03*
X0140839Y0236369D03*
X0134934Y0236369D03*
X0129028Y0236369D03*
X0123123Y0236369D03*
X0117217Y0236369D03*
X0111312Y0236369D03*
X0105406Y0236369D03*
X0105406Y0185188D03*
X0111312Y0185188D03*
X0117217Y0185188D03*
X0123123Y0185188D03*
X0129028Y0185188D03*
X0134934Y0185188D03*
X0140839Y0185188D03*
X0146745Y0185188D03*
X0152650Y0185188D03*
X0158556Y0185188D03*
X0164461Y0185188D03*
X0170367Y0185188D03*
X0176272Y0185188D03*
D26*
X0183162Y0190109D03*
X0183162Y0196015D03*
X0183162Y0201920D03*
X0183162Y0207826D03*
X0183162Y0213731D03*
X0183162Y0219637D03*
X0183162Y0225542D03*
X0183162Y0231448D03*
D27*
X0314406Y0232688D03*
X0324406Y0232688D03*
X0324406Y0222688D03*
X0314406Y0222688D03*
X0314406Y0212688D03*
X0324406Y0212688D03*
X0324406Y0202688D03*
X0314406Y0202688D03*
X0314406Y0192688D03*
X0324406Y0192688D03*
X0324406Y0182688D03*
X0314406Y0182688D03*
X0314406Y0172688D03*
X0324406Y0172688D03*
X0324406Y0162688D03*
X0314406Y0162688D03*
X0314406Y0152688D03*
X0324406Y0152688D03*
X0324406Y0142688D03*
X0314406Y0142688D03*
D28*
X0058906Y0189688D03*
X0058906Y0199688D03*
X0058906Y0208688D03*
X0058906Y0218688D03*
X0058906Y0227688D03*
X0058906Y0237688D03*
D29*
X0100095Y0086188D03*
X0111906Y0086188D03*
X0123717Y0086188D03*
X0324406Y0086999D03*
X0324406Y0075188D03*
X0324406Y0063377D03*
D30*
X0287406Y0113787D03*
X0287406Y0138590D03*
D31*
X0156312Y0175188D03*
X0144501Y0175188D03*
D32*
X0234839Y0101188D03*
X0263973Y0101188D03*
D33*
X0264906Y0078350D03*
X0264906Y0061027D03*
D34*
X0324906Y0107688D03*
X0334906Y0107688D03*
X0334906Y0117688D03*
X0324906Y0117688D03*
X0324906Y0127688D03*
X0334906Y0127688D03*
X0197800Y0213082D03*
X0204871Y0220153D03*
X0211942Y0227224D03*
X0219013Y0234295D03*
X0070406Y0127688D03*
X0070406Y0117688D03*
X0070406Y0107688D03*
X0070406Y0097688D03*
X0070406Y0082688D03*
X0080406Y0082688D03*
X0080406Y0072688D03*
X0070406Y0072688D03*
X0070406Y0062688D03*
X0080406Y0062688D03*
D35*
X0096276Y0102188D03*
X0096276Y0107188D03*
X0096276Y0112188D03*
X0096276Y0117188D03*
X0117536Y0117188D03*
X0117536Y0112188D03*
X0117536Y0107188D03*
X0117536Y0102188D03*
D36*
X0109406Y0112188D03*
X0100906Y0122188D03*
X0095406Y0128688D03*
X0089406Y0128688D03*
X0110406Y0129688D03*
X0114156Y0140938D03*
X0095406Y0151688D03*
X0089406Y0151688D03*
X0115406Y0156688D03*
X0147406Y0131188D03*
X0166406Y0144188D03*
X0167406Y0162688D03*
X0164406Y0177688D03*
X0170406Y0177688D03*
X0181406Y0184688D03*
X0185406Y0183188D03*
X0195906Y0172688D03*
X0195906Y0168188D03*
X0194406Y0162188D03*
X0204406Y0170188D03*
X0206406Y0174188D03*
X0208406Y0179188D03*
X0208406Y0183688D03*
X0208406Y0188188D03*
X0209406Y0197688D03*
X0200406Y0198688D03*
X0230406Y0204188D03*
X0247406Y0198688D03*
X0258406Y0198688D03*
X0258406Y0188688D03*
X0247406Y0188688D03*
X0275406Y0174188D03*
X0268123Y0166688D03*
X0251406Y0166688D03*
X0237906Y0166688D03*
X0220406Y0160688D03*
X0215406Y0173688D03*
X0203406Y0153188D03*
X0198906Y0141688D03*
X0206406Y0125688D03*
X0213906Y0106188D03*
X0244406Y0089188D03*
X0255406Y0098188D03*
X0274406Y0098188D03*
X0296406Y0099688D03*
X0311906Y0106188D03*
X0308406Y0128688D03*
X0307906Y0151688D03*
X0290406Y0151688D03*
X0280406Y0154188D03*
X0275906Y0151688D03*
X0275906Y0145188D03*
X0266123Y0144972D03*
X0267406Y0151688D03*
X0258906Y0148688D03*
X0249906Y0143688D03*
X0257461Y0119133D03*
X0298406Y0080688D03*
X0230406Y0074188D03*
X0213406Y0075188D03*
X0178906Y0058688D03*
X0172406Y0081688D03*
X0162406Y0081688D03*
X0155906Y0081688D03*
X0095906Y0097688D03*
X0267906Y0211688D03*
X0247906Y0227188D03*
X0233406Y0236688D03*
X0241406Y0240688D03*
X0225406Y0221688D03*
X0217906Y0220688D03*
X0202406Y0235688D03*
X0190406Y0227188D03*
X0100406Y0237688D03*
X0296906Y0185188D03*
X0308406Y0187688D03*
X0307406Y0194188D03*
X0308406Y0208688D03*
X0308406Y0218688D03*
X0319406Y0217688D03*
X0305906Y0173188D03*
D37*
X0047206Y0137131D02*
X0047206Y0053488D01*
X0088059Y0053488D01*
X0088059Y0075123D01*
X0089113Y0076177D01*
X0134699Y0076177D01*
X0135753Y0075123D01*
X0135753Y0053488D01*
X0334417Y0053488D01*
X0334417Y0097981D01*
X0335472Y0099035D01*
X0357606Y0099035D01*
X0357606Y0245888D01*
X0047206Y0245888D01*
X0047206Y0183245D01*
X0050314Y0183245D01*
X0050314Y0177324D01*
X0051514Y0177324D01*
X0051514Y0183245D01*
X0055455Y0183245D01*
X0055862Y0183136D01*
X0056227Y0182925D01*
X0056525Y0182627D01*
X0056736Y0182262D01*
X0056845Y0181855D01*
X0056845Y0177324D01*
X0051514Y0177324D01*
X0051514Y0176124D01*
X0053576Y0176124D01*
X0054598Y0177146D01*
X0062880Y0177146D01*
X0063934Y0176091D01*
X0063934Y0170650D01*
X0064617Y0170650D01*
X0065929Y0170106D01*
X0066764Y0169272D01*
X0072169Y0169272D01*
X0072207Y0169287D01*
X0081046Y0169287D01*
X0083820Y0172062D01*
X0084849Y0172488D01*
X0109946Y0172488D01*
X0109547Y0172654D01*
X0108872Y0173329D01*
X0103372Y0178829D01*
X0103114Y0179451D01*
X0102692Y0179451D01*
X0101638Y0180506D01*
X0101638Y0189871D01*
X0102692Y0190925D01*
X0108120Y0190925D01*
X0108359Y0190686D01*
X0108598Y0190925D01*
X0114026Y0190925D01*
X0114264Y0190686D01*
X0114503Y0190925D01*
X0119931Y0190925D01*
X0120170Y0190686D01*
X0120409Y0190925D01*
X0125837Y0190925D01*
X0126075Y0190686D01*
X0126314Y0190925D01*
X0131742Y0190925D01*
X0131981Y0190686D01*
X0132220Y0190925D01*
X0137648Y0190925D01*
X0137886Y0190686D01*
X0138125Y0190925D01*
X0143553Y0190925D01*
X0143792Y0190686D01*
X0144031Y0190925D01*
X0149459Y0190925D01*
X0149697Y0190686D01*
X0149936Y0190925D01*
X0155364Y0190925D01*
X0155603Y0190686D01*
X0155842Y0190925D01*
X0161270Y0190925D01*
X0161509Y0190686D01*
X0161747Y0190925D01*
X0167175Y0190925D01*
X0167414Y0190686D01*
X0167653Y0190925D01*
X0173081Y0190925D01*
X0173498Y0190508D01*
X0173686Y0190616D01*
X0174093Y0190725D01*
X0175888Y0190725D01*
X0175888Y0185572D01*
X0176657Y0185572D01*
X0176657Y0190725D01*
X0177819Y0190725D01*
X0177819Y0192824D01*
X0178057Y0193062D01*
X0177819Y0193301D01*
X0177819Y0198729D01*
X0178057Y0198968D01*
X0177819Y0199206D01*
X0177819Y0204635D01*
X0178057Y0204873D01*
X0177819Y0205112D01*
X0177819Y0210540D01*
X0178057Y0210779D01*
X0177819Y0211017D01*
X0177819Y0216446D01*
X0178057Y0216684D01*
X0177819Y0216923D01*
X0177819Y0222351D01*
X0178057Y0222590D01*
X0177819Y0222828D01*
X0177819Y0228257D01*
X0178236Y0228674D01*
X0178128Y0228862D01*
X0178019Y0229269D01*
X0178019Y0230832D01*
X0176657Y0230832D01*
X0176657Y0235985D01*
X0176657Y0236754D01*
X0175888Y0236754D01*
X0175888Y0241906D01*
X0174093Y0241906D01*
X0173686Y0241797D01*
X0173498Y0241689D01*
X0173081Y0242106D01*
X0167653Y0242106D01*
X0167414Y0241868D01*
X0167175Y0242106D01*
X0161747Y0242106D01*
X0161509Y0241868D01*
X0161270Y0242106D01*
X0155842Y0242106D01*
X0155603Y0241868D01*
X0155364Y0242106D01*
X0149936Y0242106D01*
X0149698Y0241868D01*
X0149459Y0242106D01*
X0144031Y0242106D01*
X0143792Y0241868D01*
X0143553Y0242106D01*
X0138125Y0242106D01*
X0137886Y0241868D01*
X0137648Y0242106D01*
X0132220Y0242106D01*
X0131981Y0241868D01*
X0131742Y0242106D01*
X0126314Y0242106D01*
X0126075Y0241868D01*
X0125837Y0242106D01*
X0120409Y0242106D01*
X0120170Y0241868D01*
X0119931Y0242106D01*
X0114503Y0242106D01*
X0114264Y0241868D01*
X0114026Y0242106D01*
X0108598Y0242106D01*
X0108359Y0241868D01*
X0108120Y0242106D01*
X0102692Y0242106D01*
X0101639Y0241054D01*
X0101118Y0241269D01*
X0099694Y0241269D01*
X0098378Y0240724D01*
X0097370Y0239717D01*
X0096825Y0238400D01*
X0096825Y0236976D01*
X0097370Y0235660D01*
X0098378Y0234652D01*
X0099694Y0234107D01*
X0101118Y0234107D01*
X0101638Y0234322D01*
X0101638Y0231687D01*
X0102692Y0230632D01*
X0108120Y0230632D01*
X0108359Y0230871D01*
X0108598Y0230632D01*
X0114026Y0230632D01*
X0114264Y0230871D01*
X0114503Y0230632D01*
X0114817Y0230632D01*
X0114817Y0216493D01*
X0109412Y0211088D01*
X0078900Y0211088D01*
X0063306Y0226682D01*
X0063306Y0229511D01*
X0060729Y0232088D01*
X0057084Y0232088D01*
X0054506Y0229511D01*
X0054506Y0225866D01*
X0057084Y0223288D01*
X0059912Y0223288D01*
X0060112Y0223088D01*
X0057084Y0223088D01*
X0054506Y0220511D01*
X0054506Y0216866D01*
X0057084Y0214288D01*
X0060729Y0214288D01*
X0063306Y0216866D01*
X0063306Y0219894D01*
X0076112Y0207088D01*
X0063900Y0207088D01*
X0063306Y0207682D01*
X0063306Y0210511D01*
X0060729Y0213088D01*
X0057084Y0213088D01*
X0054506Y0210511D01*
X0054506Y0206866D01*
X0057084Y0204288D01*
X0059912Y0204288D01*
X0060312Y0203888D01*
X0059106Y0203888D01*
X0059106Y0199888D01*
X0063106Y0199888D01*
X0063106Y0201428D01*
X0062116Y0202418D01*
X0062429Y0202288D01*
X0141884Y0202288D01*
X0142766Y0202654D01*
X0146799Y0206687D01*
X0146842Y0206706D01*
X0147135Y0207023D01*
X0147441Y0207329D01*
X0147459Y0207372D01*
X0166190Y0227578D01*
X0166496Y0227884D01*
X0166514Y0227927D01*
X0166546Y0227962D01*
X0166696Y0228367D01*
X0166861Y0228766D01*
X0166861Y0228813D01*
X0166878Y0228857D01*
X0166861Y0229289D01*
X0166861Y0230632D01*
X0167175Y0230632D01*
X0167414Y0230871D01*
X0167653Y0230632D01*
X0173081Y0230632D01*
X0173498Y0231050D01*
X0173686Y0230941D01*
X0174093Y0230832D01*
X0175888Y0230832D01*
X0175888Y0235985D01*
X0176657Y0235985D01*
X0179841Y0235985D01*
X0179841Y0235016D01*
X0182778Y0235016D01*
X0182778Y0231832D01*
X0182778Y0231064D01*
X0179070Y0231064D01*
X0179223Y0231152D01*
X0179521Y0231450D01*
X0179732Y0231815D01*
X0179736Y0231832D01*
X0182778Y0231832D01*
X0183546Y0231832D01*
X0183546Y0235016D01*
X0186916Y0235016D01*
X0187323Y0234907D01*
X0187688Y0234697D01*
X0187986Y0234399D01*
X0188196Y0234034D01*
X0188305Y0233627D01*
X0188305Y0231832D01*
X0183546Y0231832D01*
X0183546Y0231064D01*
X0188305Y0231064D01*
X0188305Y0229269D01*
X0188196Y0228862D01*
X0188088Y0228674D01*
X0188505Y0228257D01*
X0188505Y0224181D01*
X0192006Y0227682D01*
X0192006Y0239166D01*
X0192372Y0240048D01*
X0197047Y0244723D01*
X0197929Y0245088D01*
X0232884Y0245088D01*
X0233766Y0244723D01*
X0234441Y0244048D01*
X0237825Y0240663D01*
X0237825Y0241400D01*
X0238370Y0242717D01*
X0239378Y0243724D01*
X0240694Y0244269D01*
X0242118Y0244269D01*
X0243435Y0243724D01*
X0244442Y0242717D01*
X0244987Y0241400D01*
X0244987Y0240501D01*
X0254941Y0230548D01*
X0255306Y0229666D01*
X0255306Y0223862D01*
X0262317Y0223862D01*
X0262317Y0229477D01*
X0262683Y0230359D01*
X0268372Y0236048D01*
X0269047Y0236723D01*
X0269929Y0237088D01*
X0284884Y0237088D01*
X0285766Y0236723D01*
X0305046Y0217442D01*
X0304825Y0217976D01*
X0304825Y0219400D01*
X0305370Y0220717D01*
X0306378Y0221724D01*
X0307694Y0222269D01*
X0309118Y0222269D01*
X0309806Y0221984D01*
X0309806Y0222288D01*
X0314006Y0222288D01*
X0314006Y0223088D01*
X0309806Y0223088D01*
X0309806Y0224594D01*
X0312501Y0227288D01*
X0314006Y0227288D01*
X0314006Y0223088D01*
X0314806Y0223088D01*
X0314806Y0227288D01*
X0316312Y0227288D01*
X0319006Y0224594D01*
X0319006Y0223088D01*
X0314806Y0223088D01*
X0314806Y0222288D01*
X0314806Y0218088D01*
X0315825Y0218088D01*
X0315825Y0217488D01*
X0312418Y0217488D01*
X0310806Y0215876D01*
X0310806Y0216024D01*
X0311442Y0216660D01*
X0311987Y0217976D01*
X0311987Y0218602D01*
X0312501Y0218088D01*
X0314006Y0218088D01*
X0314006Y0222288D01*
X0314806Y0222288D01*
X0319006Y0222288D01*
X0319006Y0221269D01*
X0319806Y0221269D01*
X0319806Y0222288D01*
X0324006Y0222288D01*
X0324006Y0223088D01*
X0319806Y0223088D01*
X0319806Y0224594D01*
X0322501Y0227288D01*
X0324006Y0227288D01*
X0324006Y0223088D01*
X0324806Y0223088D01*
X0324806Y0227288D01*
X0326312Y0227288D01*
X0329006Y0224594D01*
X0329006Y0223088D01*
X0324806Y0223088D01*
X0324806Y0222288D01*
X0324806Y0218088D01*
X0326312Y0218088D01*
X0329006Y0220783D01*
X0329006Y0222288D01*
X0324806Y0222288D01*
X0324006Y0222288D01*
X0324006Y0218088D01*
X0322987Y0218088D01*
X0322987Y0217488D01*
X0326394Y0217488D01*
X0329206Y0214676D01*
X0329206Y0210700D01*
X0326394Y0207888D01*
X0322418Y0207888D01*
X0321806Y0208500D01*
X0321806Y0207211D01*
X0321570Y0206640D01*
X0322418Y0207488D01*
X0326394Y0207488D01*
X0329206Y0204676D01*
X0329206Y0200700D01*
X0326394Y0197888D01*
X0322600Y0197888D01*
X0323000Y0197488D01*
X0326394Y0197488D01*
X0329206Y0194676D01*
X0329206Y0190700D01*
X0326394Y0187888D01*
X0322418Y0187888D01*
X0319606Y0190700D01*
X0319606Y0194094D01*
X0319206Y0194494D01*
X0319206Y0190700D01*
X0316394Y0187888D01*
X0312418Y0187888D01*
X0311987Y0188319D01*
X0311987Y0187057D01*
X0312418Y0187488D01*
X0316394Y0187488D01*
X0319206Y0184676D01*
X0319206Y0180700D01*
X0318594Y0180088D01*
X0319884Y0180088D01*
X0320454Y0179852D01*
X0319606Y0180700D01*
X0319606Y0184676D01*
X0322418Y0187488D01*
X0326394Y0187488D01*
X0329206Y0184676D01*
X0329206Y0184312D01*
X0331662Y0182266D01*
X0331766Y0182223D01*
X0332026Y0181962D01*
X0332309Y0181726D01*
X0332361Y0181627D01*
X0332441Y0181548D01*
X0332582Y0181207D01*
X0332753Y0180881D01*
X0332763Y0180769D01*
X0332806Y0180666D01*
X0332806Y0180297D01*
X0332840Y0179930D01*
X0332806Y0179823D01*
X0332806Y0171280D01*
X0332836Y0170896D01*
X0332806Y0170806D01*
X0332806Y0170711D01*
X0332659Y0170355D01*
X0332539Y0169989D01*
X0332477Y0169917D01*
X0332441Y0169829D01*
X0332168Y0169556D01*
X0329477Y0166417D01*
X0329441Y0166329D01*
X0329168Y0166056D01*
X0328918Y0165764D01*
X0328833Y0165721D01*
X0328766Y0165654D01*
X0328410Y0165506D01*
X0328388Y0165495D01*
X0329206Y0164676D01*
X0329206Y0160700D01*
X0326394Y0157888D01*
X0322418Y0157888D01*
X0319606Y0160700D01*
X0319606Y0164676D01*
X0320218Y0165288D01*
X0318594Y0165288D01*
X0319206Y0164676D01*
X0319206Y0160700D01*
X0316394Y0157888D01*
X0312418Y0157888D01*
X0309606Y0160700D01*
X0309606Y0164676D01*
X0310815Y0165885D01*
X0308047Y0168654D01*
X0308047Y0168654D01*
X0307372Y0169329D01*
X0307163Y0169833D01*
X0306838Y0169698D01*
X0306838Y0133651D01*
X0308219Y0132269D01*
X0309118Y0132269D01*
X0310435Y0131724D01*
X0311442Y0130717D01*
X0311987Y0129400D01*
X0311987Y0127976D01*
X0311620Y0127088D01*
X0317412Y0127088D01*
X0319372Y0129048D01*
X0320047Y0129723D01*
X0320658Y0129976D01*
X0320837Y0130407D01*
X0322187Y0131757D01*
X0323951Y0132488D01*
X0325861Y0132488D01*
X0327625Y0131757D01*
X0328975Y0130407D01*
X0329706Y0128643D01*
X0329706Y0126733D01*
X0328975Y0124969D01*
X0327625Y0123619D01*
X0325861Y0122888D01*
X0323951Y0122888D01*
X0322187Y0123619D01*
X0321459Y0124347D01*
X0319766Y0122654D01*
X0318884Y0122288D01*
X0310200Y0122288D01*
X0312400Y0120088D01*
X0320705Y0120088D01*
X0320837Y0120407D01*
X0322187Y0121757D01*
X0323951Y0122488D01*
X0325861Y0122488D01*
X0327625Y0121757D01*
X0328975Y0120407D01*
X0329706Y0118643D01*
X0329706Y0116733D01*
X0329104Y0115280D01*
X0330238Y0116414D01*
X0330106Y0116733D01*
X0330106Y0118643D01*
X0330837Y0120407D01*
X0332187Y0121757D01*
X0333951Y0122488D01*
X0335861Y0122488D01*
X0337625Y0121757D01*
X0338975Y0120407D01*
X0339706Y0118643D01*
X0339706Y0116733D01*
X0338975Y0114969D01*
X0337625Y0113619D01*
X0335861Y0112888D01*
X0333951Y0112888D01*
X0333632Y0113020D01*
X0332498Y0111886D01*
X0333951Y0112488D01*
X0335861Y0112488D01*
X0337625Y0111757D01*
X0338975Y0110407D01*
X0339706Y0108643D01*
X0339706Y0106733D01*
X0338975Y0104969D01*
X0338306Y0104300D01*
X0338306Y0103012D01*
X0337789Y0101762D01*
X0336832Y0100806D01*
X0336832Y0100806D01*
X0335789Y0099762D01*
X0335789Y0099762D01*
X0334832Y0098806D01*
X0333582Y0098288D01*
X0315730Y0098288D01*
X0314480Y0098806D01*
X0310315Y0102971D01*
X0309878Y0103152D01*
X0308870Y0104160D01*
X0308689Y0104597D01*
X0294501Y0118785D01*
X0294518Y0118722D01*
X0294518Y0114387D01*
X0288006Y0114387D01*
X0286806Y0114387D01*
X0286806Y0120111D01*
X0281684Y0120111D01*
X0281277Y0120002D01*
X0280912Y0119791D01*
X0280614Y0119493D01*
X0280403Y0119129D01*
X0280294Y0118722D01*
X0280294Y0114387D01*
X0286806Y0114387D01*
X0286806Y0113187D01*
X0280294Y0113187D01*
X0280294Y0108852D01*
X0280403Y0108445D01*
X0280614Y0108080D01*
X0280912Y0107782D01*
X0281277Y0107571D01*
X0281684Y0107462D01*
X0286806Y0107462D01*
X0286806Y0113187D01*
X0288006Y0113187D01*
X0288006Y0114387D01*
X0288006Y0120111D01*
X0293129Y0120111D01*
X0293192Y0120094D01*
X0288498Y0124788D01*
X0278045Y0124788D01*
X0278045Y0119962D01*
X0276990Y0118908D01*
X0267625Y0118908D01*
X0266571Y0119962D01*
X0266571Y0124788D01*
X0253242Y0124788D01*
X0253242Y0124490D01*
X0252412Y0123661D01*
X0253242Y0122831D01*
X0253242Y0122533D01*
X0256312Y0122533D01*
X0256749Y0122714D01*
X0258174Y0122714D01*
X0259490Y0122169D01*
X0260497Y0121162D01*
X0260678Y0120724D01*
X0263314Y0118088D01*
X0271082Y0118088D01*
X0272332Y0117571D01*
X0276332Y0113571D01*
X0277289Y0112614D01*
X0277806Y0111364D01*
X0277806Y0101588D01*
X0280082Y0101588D01*
X0280546Y0101396D01*
X0280987Y0101837D01*
X0282478Y0101837D01*
X0287430Y0096885D01*
X0287430Y0095455D01*
X0288207Y0096231D01*
X0289309Y0096688D01*
X0294342Y0096688D01*
X0293370Y0097660D01*
X0292825Y0098976D01*
X0292825Y0100400D01*
X0293370Y0101717D01*
X0294378Y0102724D01*
X0295694Y0103269D01*
X0297118Y0103269D01*
X0298435Y0102724D01*
X0299071Y0102088D01*
X0304884Y0102088D01*
X0305766Y0101723D01*
X0319375Y0088113D01*
X0319390Y0088204D01*
X0319640Y0088974D01*
X0320007Y0089695D01*
X0320483Y0090350D01*
X0321056Y0090922D01*
X0321710Y0091398D01*
X0322432Y0091766D01*
X0323202Y0092016D01*
X0323825Y0092115D01*
X0323825Y0087580D01*
X0319908Y0087580D01*
X0321070Y0086418D01*
X0323825Y0086418D01*
X0323825Y0087580D01*
X0324987Y0087580D01*
X0329522Y0087580D01*
X0329423Y0088204D01*
X0329173Y0088974D01*
X0328805Y0089695D01*
X0328329Y0090350D01*
X0327757Y0090922D01*
X0327102Y0091398D01*
X0326380Y0091766D01*
X0325611Y0092016D01*
X0324987Y0092115D01*
X0324987Y0087580D01*
X0324987Y0086418D01*
X0329522Y0086418D01*
X0329423Y0085795D01*
X0329173Y0085025D01*
X0328805Y0084304D01*
X0328329Y0083649D01*
X0328156Y0083475D01*
X0328766Y0083223D01*
X0331766Y0080223D01*
X0332441Y0079548D01*
X0332806Y0078666D01*
X0332806Y0068900D01*
X0332441Y0068018D01*
X0329490Y0065067D01*
X0329749Y0064440D01*
X0329749Y0062314D01*
X0328936Y0060350D01*
X0327433Y0058847D01*
X0325469Y0058034D01*
X0323343Y0058034D01*
X0321379Y0058847D01*
X0319876Y0060350D01*
X0319063Y0062314D01*
X0319063Y0064440D01*
X0319876Y0066404D01*
X0321379Y0067907D01*
X0323343Y0068720D01*
X0325469Y0068720D01*
X0326096Y0068461D01*
X0328006Y0070371D01*
X0328006Y0071232D01*
X0327433Y0070658D01*
X0325469Y0069845D01*
X0323343Y0069845D01*
X0321379Y0070658D01*
X0319876Y0072161D01*
X0319063Y0074125D01*
X0319063Y0076251D01*
X0319074Y0076278D01*
X0314931Y0080421D01*
X0314931Y0071880D01*
X0313876Y0070825D01*
X0302936Y0070825D01*
X0301882Y0071880D01*
X0301882Y0079721D01*
X0301442Y0078660D01*
X0300435Y0077652D01*
X0299118Y0077107D01*
X0299068Y0077107D01*
X0297586Y0075625D01*
X0296483Y0075168D01*
X0295105Y0075168D01*
X0295105Y0074428D01*
X0291536Y0074428D01*
X0291536Y0074428D01*
X0295105Y0074428D01*
X0295105Y0073135D01*
X0295016Y0072805D01*
X0295305Y0072516D01*
X0295305Y0068860D01*
X0294536Y0068091D01*
X0294536Y0063981D01*
X0294505Y0063907D01*
X0294505Y0059490D01*
X0293451Y0058435D01*
X0286842Y0058435D01*
X0286406Y0058871D01*
X0285971Y0058435D01*
X0279361Y0058435D01*
X0278307Y0059490D01*
X0278307Y0063384D01*
X0277906Y0064351D01*
X0277906Y0068091D01*
X0277138Y0068860D01*
X0277138Y0071428D01*
X0276423Y0071428D01*
X0275844Y0071422D01*
X0275827Y0071428D01*
X0275809Y0071428D01*
X0275274Y0071650D01*
X0274736Y0071866D01*
X0274723Y0071878D01*
X0274707Y0071885D01*
X0274297Y0072295D01*
X0272093Y0074450D01*
X0269856Y0074450D01*
X0269856Y0071698D01*
X0268801Y0070644D01*
X0261011Y0070644D01*
X0259957Y0071698D01*
X0259957Y0085001D01*
X0261011Y0086055D01*
X0268801Y0086055D01*
X0269506Y0085350D01*
X0269506Y0090280D01*
X0267878Y0091908D01*
X0257716Y0091908D01*
X0256661Y0092962D01*
X0256661Y0094788D01*
X0256556Y0094788D01*
X0256118Y0094607D01*
X0254694Y0094607D01*
X0253378Y0095152D01*
X0252370Y0096160D01*
X0251825Y0097476D01*
X0251825Y0098900D01*
X0252370Y0100217D01*
X0253378Y0101224D01*
X0254694Y0101769D01*
X0256118Y0101769D01*
X0256556Y0101588D01*
X0256661Y0101588D01*
X0256661Y0109414D01*
X0257716Y0110468D01*
X0269818Y0110468D01*
X0268998Y0111288D01*
X0261230Y0111288D01*
X0259980Y0111806D01*
X0259024Y0112762D01*
X0256053Y0115733D01*
X0253242Y0115733D01*
X0253242Y0115435D01*
X0252187Y0114380D01*
X0242822Y0114380D01*
X0241768Y0115435D01*
X0241768Y0115733D01*
X0239931Y0115733D01*
X0239931Y0114376D01*
X0238876Y0113321D01*
X0227936Y0113321D01*
X0226882Y0114376D01*
X0226882Y0116446D01*
X0225942Y0116446D01*
X0225942Y0116187D01*
X0224888Y0115132D01*
X0217885Y0115132D01*
X0217306Y0115711D01*
X0217306Y0107338D01*
X0217487Y0106900D01*
X0217487Y0105476D01*
X0216942Y0104160D01*
X0215935Y0103152D01*
X0215831Y0103109D01*
X0227527Y0103109D01*
X0227527Y0109414D01*
X0228582Y0110468D01*
X0241097Y0110468D01*
X0242151Y0109414D01*
X0242151Y0092962D01*
X0241097Y0091908D01*
X0233806Y0091908D01*
X0233806Y0084571D01*
X0235482Y0084571D01*
X0236537Y0083516D01*
X0236537Y0074939D01*
X0235482Y0073884D01*
X0233987Y0073884D01*
X0233987Y0073476D01*
X0233442Y0072160D01*
X0232435Y0071152D01*
X0231118Y0070607D01*
X0229694Y0070607D01*
X0228378Y0071152D01*
X0227370Y0072160D01*
X0226825Y0073476D01*
X0226825Y0073884D01*
X0225330Y0073884D01*
X0224275Y0074939D01*
X0224275Y0083516D01*
X0225330Y0084571D01*
X0227006Y0084571D01*
X0227006Y0096309D01*
X0198230Y0096309D01*
X0197365Y0096668D01*
X0187531Y0096668D01*
X0186476Y0097722D01*
X0186476Y0110631D01*
X0187531Y0111685D01*
X0210282Y0111685D01*
X0210506Y0111460D01*
X0210506Y0115711D01*
X0209927Y0115132D01*
X0202924Y0115132D01*
X0201870Y0116187D01*
X0201870Y0123190D01*
X0202924Y0124244D01*
X0203006Y0124244D01*
X0203006Y0124539D01*
X0202825Y0124976D01*
X0202825Y0126400D01*
X0203370Y0127717D01*
X0204378Y0128724D01*
X0205694Y0129269D01*
X0207118Y0129269D01*
X0208435Y0128724D01*
X0209442Y0127717D01*
X0209987Y0126400D01*
X0209987Y0124976D01*
X0209806Y0124539D01*
X0209806Y0124244D01*
X0209927Y0124244D01*
X0210506Y0123665D01*
X0210506Y0126364D01*
X0211024Y0127614D01*
X0215024Y0131614D01*
X0215980Y0132571D01*
X0217230Y0133088D01*
X0240082Y0133088D01*
X0241332Y0132571D01*
X0241892Y0132011D01*
X0242779Y0132898D01*
X0242585Y0133010D01*
X0242287Y0133308D01*
X0242077Y0133673D01*
X0241968Y0134080D01*
X0241968Y0136643D01*
X0246905Y0136643D01*
X0246905Y0137843D01*
X0241968Y0137843D01*
X0241968Y0140407D01*
X0242077Y0140814D01*
X0242287Y0141178D01*
X0242585Y0141476D01*
X0242950Y0141687D01*
X0243357Y0141796D01*
X0246814Y0141796D01*
X0246325Y0142976D01*
X0246325Y0144400D01*
X0246486Y0144788D01*
X0239644Y0144788D01*
X0239731Y0144466D01*
X0239731Y0140131D01*
X0234006Y0140131D01*
X0234006Y0138931D01*
X0239731Y0138931D01*
X0239731Y0134596D01*
X0239622Y0134189D01*
X0239411Y0133824D01*
X0239113Y0133526D01*
X0238748Y0133315D01*
X0238341Y0133206D01*
X0234006Y0133206D01*
X0234006Y0138931D01*
X0232806Y0138931D01*
X0227082Y0138931D01*
X0227082Y0134596D01*
X0227191Y0134189D01*
X0227401Y0133824D01*
X0227699Y0133526D01*
X0228064Y0133315D01*
X0228471Y0133206D01*
X0232806Y0133206D01*
X0232806Y0138931D01*
X0232806Y0140131D01*
X0227082Y0140131D01*
X0227082Y0144466D01*
X0227168Y0144788D01*
X0221900Y0144788D01*
X0209941Y0132829D01*
X0209266Y0132154D01*
X0208384Y0131788D01*
X0203400Y0131788D01*
X0174806Y0103194D01*
X0174806Y0084353D01*
X0175442Y0083717D01*
X0175987Y0082400D01*
X0175987Y0080976D01*
X0175442Y0079660D01*
X0174435Y0078652D01*
X0173118Y0078107D01*
X0171694Y0078107D01*
X0170378Y0078652D01*
X0169370Y0079660D01*
X0168825Y0080976D01*
X0168825Y0082400D01*
X0169370Y0083717D01*
X0170006Y0084353D01*
X0170006Y0088394D01*
X0165385Y0083773D01*
X0165442Y0083717D01*
X0165987Y0082400D01*
X0165987Y0080976D01*
X0165578Y0079988D01*
X0166952Y0079988D01*
X0168006Y0078934D01*
X0168006Y0056443D01*
X0166952Y0055388D01*
X0157861Y0055388D01*
X0156806Y0056443D01*
X0156806Y0078185D01*
X0156618Y0078107D01*
X0155194Y0078107D01*
X0153878Y0078652D01*
X0152870Y0079660D01*
X0152325Y0080976D01*
X0152325Y0082400D01*
X0152870Y0083717D01*
X0153506Y0084353D01*
X0153506Y0099666D01*
X0153872Y0100548D01*
X0156806Y0103482D01*
X0156806Y0116934D01*
X0157861Y0117988D01*
X0166952Y0117988D01*
X0168006Y0116934D01*
X0168006Y0109182D01*
X0197301Y0138477D01*
X0196878Y0138652D01*
X0195870Y0139660D01*
X0195325Y0140976D01*
X0195325Y0142400D01*
X0195870Y0143717D01*
X0196878Y0144724D01*
X0198194Y0145269D01*
X0199618Y0145269D01*
X0200935Y0144724D01*
X0200971Y0144688D01*
X0203164Y0144688D01*
X0215207Y0156731D01*
X0216309Y0157188D01*
X0223006Y0157188D01*
X0223006Y0160694D01*
X0220525Y0163176D01*
X0219287Y0163176D01*
X0218232Y0164230D01*
X0218232Y0166902D01*
X0218432Y0167102D01*
X0218432Y0167535D01*
X0218864Y0167535D01*
X0218865Y0167535D01*
X0218864Y0167535D01*
X0218432Y0167535D01*
X0218432Y0167967D01*
X0218232Y0168167D01*
X0218232Y0168620D01*
X0217306Y0167694D01*
X0217306Y0164211D01*
X0216941Y0163329D01*
X0206987Y0153375D01*
X0206987Y0152476D01*
X0206442Y0151160D01*
X0205435Y0150152D01*
X0204118Y0149607D01*
X0202694Y0149607D01*
X0201378Y0150152D01*
X0200370Y0151160D01*
X0200341Y0151229D01*
X0180766Y0131654D01*
X0179884Y0131288D01*
X0161900Y0131288D01*
X0131441Y0100829D01*
X0131441Y0100829D01*
X0130766Y0100154D01*
X0129884Y0099788D01*
X0121619Y0099788D01*
X0121038Y0099207D01*
X0114035Y0099207D01*
X0112980Y0100261D01*
X0112980Y0104115D01*
X0113695Y0104830D01*
X0113500Y0105025D01*
X0113289Y0105389D01*
X0113180Y0105796D01*
X0113180Y0107188D01*
X0117536Y0107188D01*
X0117536Y0107188D01*
X0113180Y0107188D01*
X0113180Y0108580D01*
X0113289Y0108987D01*
X0113405Y0109188D01*
X0111471Y0109188D01*
X0111435Y0109152D01*
X0110118Y0108607D01*
X0108694Y0108607D01*
X0107378Y0109152D01*
X0106370Y0110160D01*
X0105825Y0111476D01*
X0105825Y0112900D01*
X0106370Y0114217D01*
X0106406Y0114253D01*
X0106406Y0117285D01*
X0106863Y0118388D01*
X0107707Y0119231D01*
X0112406Y0123931D01*
X0112406Y0137787D01*
X0112128Y0137902D01*
X0111120Y0138910D01*
X0110575Y0140226D01*
X0110575Y0140277D01*
X0109301Y0141551D01*
X0109301Y0139761D01*
X0108727Y0139188D01*
X0109301Y0138615D01*
X0109301Y0134761D01*
X0108586Y0134047D01*
X0108781Y0133852D01*
X0108992Y0133487D01*
X0109101Y0133080D01*
X0109101Y0131688D01*
X0103170Y0131688D01*
X0103170Y0131688D01*
X0109101Y0131688D01*
X0109101Y0130296D01*
X0108992Y0129889D01*
X0108781Y0129525D01*
X0108586Y0129330D01*
X0109301Y0128615D01*
X0109301Y0124761D01*
X0108246Y0123707D01*
X0106109Y0123707D01*
X0105713Y0122753D01*
X0104487Y0121527D01*
X0104487Y0121476D01*
X0103942Y0120160D01*
X0102935Y0119152D01*
X0101618Y0118607D01*
X0100832Y0118607D01*
X0100832Y0115261D01*
X0100259Y0114688D01*
X0100832Y0114115D01*
X0100832Y0110261D01*
X0100259Y0109688D01*
X0100832Y0109115D01*
X0100832Y0105261D01*
X0100259Y0104688D01*
X0100832Y0104115D01*
X0100832Y0100261D01*
X0099778Y0099207D01*
X0099153Y0099207D01*
X0099487Y0098400D01*
X0099487Y0096976D01*
X0098954Y0095688D01*
X0106003Y0095688D01*
X0107106Y0095231D01*
X0110817Y0091520D01*
X0110843Y0091531D01*
X0112969Y0091531D01*
X0114933Y0090718D01*
X0116436Y0089215D01*
X0117249Y0087251D01*
X0117249Y0085125D01*
X0116436Y0083161D01*
X0114933Y0081658D01*
X0112969Y0080845D01*
X0110843Y0080845D01*
X0108879Y0081658D01*
X0107376Y0083161D01*
X0106563Y0085125D01*
X0106563Y0087251D01*
X0106574Y0087278D01*
X0104164Y0089688D01*
X0104152Y0089688D01*
X0104625Y0089215D01*
X0105438Y0087251D01*
X0105438Y0085125D01*
X0104625Y0083161D01*
X0103122Y0081658D01*
X0101158Y0080845D01*
X0099032Y0080845D01*
X0097068Y0081658D01*
X0095565Y0083161D01*
X0095554Y0083188D01*
X0092998Y0083188D01*
X0091896Y0083645D01*
X0091052Y0084489D01*
X0091052Y0084489D01*
X0083626Y0091915D01*
X0083449Y0091489D01*
X0082606Y0090645D01*
X0079447Y0087486D01*
X0079451Y0087488D01*
X0081361Y0087488D01*
X0083125Y0086757D01*
X0084475Y0085407D01*
X0085206Y0083643D01*
X0085206Y0081733D01*
X0084475Y0079969D01*
X0083125Y0078619D01*
X0081361Y0077888D01*
X0079849Y0077888D01*
X0079447Y0077486D01*
X0079451Y0077488D01*
X0081361Y0077488D01*
X0083125Y0076757D01*
X0084475Y0075407D01*
X0085206Y0073643D01*
X0085206Y0071733D01*
X0084475Y0069969D01*
X0083125Y0068619D01*
X0081361Y0067888D01*
X0079451Y0067888D01*
X0077687Y0068619D01*
X0076337Y0069969D01*
X0075606Y0071733D01*
X0075606Y0073643D01*
X0076047Y0074706D01*
X0076003Y0074688D01*
X0074773Y0074688D01*
X0075206Y0073643D01*
X0075206Y0071733D01*
X0074475Y0069969D01*
X0073125Y0068619D01*
X0071361Y0067888D01*
X0069451Y0067888D01*
X0067687Y0068619D01*
X0066337Y0069969D01*
X0065606Y0071733D01*
X0065606Y0073643D01*
X0066079Y0074784D01*
X0065207Y0075145D01*
X0062707Y0077645D01*
X0061863Y0078489D01*
X0061406Y0079591D01*
X0061406Y0086285D01*
X0061863Y0087388D01*
X0066363Y0091888D01*
X0067207Y0092731D01*
X0068309Y0093188D01*
X0068727Y0093188D01*
X0067687Y0093619D01*
X0066337Y0094969D01*
X0065606Y0096733D01*
X0065606Y0098643D01*
X0066337Y0100407D01*
X0067687Y0101757D01*
X0069451Y0102488D01*
X0071361Y0102488D01*
X0073125Y0101757D01*
X0073906Y0100976D01*
X0073906Y0104400D01*
X0073125Y0103619D01*
X0071361Y0102888D01*
X0069451Y0102888D01*
X0067687Y0103619D01*
X0066337Y0104969D01*
X0065606Y0106733D01*
X0065606Y0108643D01*
X0066337Y0110407D01*
X0067687Y0111757D01*
X0069451Y0112488D01*
X0071361Y0112488D01*
X0071680Y0112356D01*
X0072814Y0113490D01*
X0071361Y0112888D01*
X0069451Y0112888D01*
X0067687Y0113619D01*
X0066337Y0114969D01*
X0065606Y0116733D01*
X0065606Y0118643D01*
X0066337Y0120407D01*
X0067687Y0121757D01*
X0069451Y0122488D01*
X0071361Y0122488D01*
X0073125Y0121757D01*
X0074103Y0120779D01*
X0080506Y0127182D01*
X0080506Y0156166D01*
X0080872Y0157048D01*
X0081612Y0157788D01*
X0078501Y0157788D01*
X0078501Y0155309D01*
X0078296Y0155103D01*
X0078301Y0155084D01*
X0078301Y0153889D01*
X0072765Y0153889D01*
X0072765Y0153889D01*
X0078301Y0153889D01*
X0078301Y0152694D01*
X0078192Y0152287D01*
X0077982Y0151922D01*
X0077684Y0151624D01*
X0077319Y0151414D01*
X0076912Y0151305D01*
X0072764Y0151305D01*
X0072764Y0153889D01*
X0072764Y0153889D01*
X0072764Y0151305D01*
X0069675Y0151305D01*
X0069475Y0151105D01*
X0066764Y0151105D01*
X0065929Y0150270D01*
X0064617Y0149727D01*
X0063934Y0149727D01*
X0063934Y0144285D01*
X0062880Y0143231D01*
X0054598Y0143231D01*
X0053576Y0144253D01*
X0051514Y0144253D01*
X0051514Y0143053D01*
X0056845Y0143053D01*
X0056845Y0138521D01*
X0056736Y0138114D01*
X0056525Y0137749D01*
X0056227Y0137451D01*
X0055862Y0137241D01*
X0055455Y0137131D01*
X0051514Y0137131D01*
X0051514Y0143053D01*
X0050314Y0143053D01*
X0050314Y0137131D01*
X0047206Y0137131D01*
X0047206Y0136782D02*
X0080506Y0136782D01*
X0080506Y0135584D02*
X0047206Y0135584D01*
X0047206Y0134385D02*
X0080506Y0134385D01*
X0080506Y0133187D02*
X0047206Y0133187D01*
X0047206Y0131988D02*
X0068755Y0131988D01*
X0068640Y0131951D02*
X0067995Y0131622D01*
X0067409Y0131197D01*
X0066897Y0130685D01*
X0066472Y0130099D01*
X0066143Y0129454D01*
X0065919Y0128765D01*
X0065812Y0128088D01*
X0070006Y0128088D01*
X0070006Y0127288D01*
X0070806Y0127288D01*
X0070806Y0123094D01*
X0071483Y0123201D01*
X0072172Y0123425D01*
X0072817Y0123754D01*
X0073403Y0124179D01*
X0073915Y0124691D01*
X0074340Y0125277D01*
X0074669Y0125922D01*
X0074893Y0126611D01*
X0075000Y0127288D01*
X0070806Y0127288D01*
X0070806Y0128088D01*
X0075000Y0128088D01*
X0074893Y0128765D01*
X0074669Y0129454D01*
X0074340Y0130099D01*
X0073915Y0130685D01*
X0073403Y0131197D01*
X0072817Y0131622D01*
X0072172Y0131951D01*
X0071483Y0132175D01*
X0070806Y0132282D01*
X0070806Y0128088D01*
X0070006Y0128088D01*
X0070006Y0132282D01*
X0069329Y0132175D01*
X0068640Y0131951D01*
X0070006Y0131988D02*
X0070806Y0131988D01*
X0070806Y0130790D02*
X0070006Y0130790D01*
X0070006Y0129591D02*
X0070806Y0129591D01*
X0070806Y0128393D02*
X0070006Y0128393D01*
X0070006Y0127288D02*
X0065812Y0127288D01*
X0065919Y0126611D01*
X0066143Y0125922D01*
X0066472Y0125277D01*
X0066897Y0124691D01*
X0067409Y0124179D01*
X0067995Y0123754D01*
X0068640Y0123425D01*
X0069329Y0123201D01*
X0070006Y0123094D01*
X0070006Y0127288D01*
X0070006Y0127194D02*
X0070806Y0127194D01*
X0070806Y0125996D02*
X0070006Y0125996D01*
X0070006Y0124797D02*
X0070806Y0124797D01*
X0070806Y0123599D02*
X0070006Y0123599D01*
X0069239Y0122400D02*
X0047206Y0122400D01*
X0047206Y0121202D02*
X0067132Y0121202D01*
X0066170Y0120003D02*
X0047206Y0120003D01*
X0047206Y0118805D02*
X0065673Y0118805D01*
X0065606Y0117606D02*
X0047206Y0117606D01*
X0047206Y0116408D02*
X0065741Y0116408D01*
X0066237Y0115209D02*
X0047206Y0115209D01*
X0047206Y0114011D02*
X0067295Y0114011D01*
X0067544Y0111614D02*
X0047206Y0111614D01*
X0047206Y0112812D02*
X0072136Y0112812D01*
X0066345Y0110415D02*
X0047206Y0110415D01*
X0047206Y0109217D02*
X0065844Y0109217D01*
X0065606Y0108018D02*
X0047206Y0108018D01*
X0047206Y0106820D02*
X0065606Y0106820D01*
X0066067Y0105621D02*
X0047206Y0105621D01*
X0047206Y0104423D02*
X0066883Y0104423D01*
X0068640Y0103224D02*
X0047206Y0103224D01*
X0047206Y0102026D02*
X0068335Y0102026D01*
X0066757Y0100827D02*
X0047206Y0100827D01*
X0047206Y0099629D02*
X0066014Y0099629D01*
X0065606Y0098430D02*
X0047206Y0098430D01*
X0047206Y0097232D02*
X0065606Y0097232D01*
X0065896Y0096033D02*
X0047206Y0096033D01*
X0047206Y0094835D02*
X0066472Y0094835D01*
X0067670Y0093636D02*
X0047206Y0093636D01*
X0047206Y0092438D02*
X0066913Y0092438D01*
X0065714Y0091239D02*
X0047206Y0091239D01*
X0047206Y0090041D02*
X0064516Y0090041D01*
X0063317Y0088842D02*
X0047206Y0088842D01*
X0047206Y0087644D02*
X0062119Y0087644D01*
X0061472Y0086445D02*
X0047206Y0086445D01*
X0047206Y0085246D02*
X0061406Y0085246D01*
X0061406Y0084048D02*
X0047206Y0084048D01*
X0047206Y0082849D02*
X0061406Y0082849D01*
X0061406Y0081651D02*
X0047206Y0081651D01*
X0047206Y0080452D02*
X0061406Y0080452D01*
X0061546Y0079254D02*
X0047206Y0079254D01*
X0047206Y0078055D02*
X0062296Y0078055D01*
X0063495Y0076857D02*
X0047206Y0076857D01*
X0047206Y0075658D02*
X0064693Y0075658D01*
X0065945Y0074460D02*
X0047206Y0074460D01*
X0047206Y0073261D02*
X0065606Y0073261D01*
X0065606Y0072063D02*
X0047206Y0072063D01*
X0047206Y0070864D02*
X0065966Y0070864D01*
X0066640Y0069666D02*
X0047206Y0069666D01*
X0047206Y0068467D02*
X0068053Y0068467D01*
X0068640Y0066951D02*
X0067995Y0066622D01*
X0067409Y0066197D01*
X0066897Y0065685D01*
X0066472Y0065099D01*
X0066143Y0064454D01*
X0065919Y0063765D01*
X0065812Y0063088D01*
X0070006Y0063088D01*
X0070006Y0062288D01*
X0065812Y0062288D01*
X0065919Y0061611D01*
X0066143Y0060922D01*
X0066472Y0060277D01*
X0066897Y0059691D01*
X0067409Y0059179D01*
X0067995Y0058754D01*
X0068640Y0058425D01*
X0069329Y0058201D01*
X0070006Y0058094D01*
X0070006Y0062288D01*
X0070806Y0062288D01*
X0070806Y0058094D01*
X0071483Y0058201D01*
X0072172Y0058425D01*
X0072817Y0058754D01*
X0073403Y0059179D01*
X0073915Y0059691D01*
X0074340Y0060277D01*
X0074669Y0060922D01*
X0074893Y0061611D01*
X0075000Y0062288D01*
X0070806Y0062288D01*
X0070806Y0063088D01*
X0070006Y0063088D01*
X0070006Y0067282D01*
X0069329Y0067175D01*
X0068640Y0066951D01*
X0069922Y0067269D02*
X0047206Y0067269D01*
X0047206Y0066070D02*
X0067283Y0066070D01*
X0066356Y0064872D02*
X0047206Y0064872D01*
X0047206Y0063673D02*
X0065905Y0063673D01*
X0066028Y0061276D02*
X0047206Y0061276D01*
X0047206Y0060078D02*
X0066617Y0060078D01*
X0067823Y0058879D02*
X0047206Y0058879D01*
X0047206Y0057681D02*
X0088059Y0057681D01*
X0088059Y0058879D02*
X0083385Y0058879D01*
X0083125Y0058619D02*
X0084475Y0059969D01*
X0085206Y0061733D01*
X0085206Y0063643D01*
X0084475Y0065407D01*
X0083125Y0066757D01*
X0081361Y0067488D01*
X0079451Y0067488D01*
X0077687Y0066757D01*
X0076337Y0065407D01*
X0075606Y0063643D01*
X0075606Y0061733D01*
X0076337Y0059969D01*
X0077687Y0058619D01*
X0079451Y0057888D01*
X0081361Y0057888D01*
X0083125Y0058619D01*
X0084520Y0060078D02*
X0088059Y0060078D01*
X0088059Y0061276D02*
X0085017Y0061276D01*
X0085206Y0062475D02*
X0088059Y0062475D01*
X0088059Y0063673D02*
X0085194Y0063673D01*
X0084697Y0064872D02*
X0088059Y0064872D01*
X0088059Y0066070D02*
X0083812Y0066070D01*
X0081890Y0067269D02*
X0088059Y0067269D01*
X0088059Y0068467D02*
X0082759Y0068467D01*
X0084172Y0069666D02*
X0088059Y0069666D01*
X0088059Y0070864D02*
X0084846Y0070864D01*
X0085206Y0072063D02*
X0088059Y0072063D01*
X0088059Y0073261D02*
X0085206Y0073261D01*
X0084868Y0074460D02*
X0088059Y0074460D01*
X0088595Y0075658D02*
X0084224Y0075658D01*
X0082885Y0076857D02*
X0156806Y0076857D01*
X0156806Y0078055D02*
X0081765Y0078055D01*
X0083760Y0079254D02*
X0153276Y0079254D01*
X0152542Y0080452D02*
X0084676Y0080452D01*
X0085172Y0081651D02*
X0097086Y0081651D01*
X0095877Y0082849D02*
X0085206Y0082849D01*
X0085038Y0084048D02*
X0091493Y0084048D01*
X0090294Y0085246D02*
X0084542Y0085246D01*
X0083438Y0086445D02*
X0089096Y0086445D01*
X0087897Y0087644D02*
X0079604Y0087644D01*
X0080803Y0088842D02*
X0086699Y0088842D01*
X0085500Y0090041D02*
X0082001Y0090041D01*
X0083200Y0091239D02*
X0084302Y0091239D01*
X0095906Y0097688D02*
X0095906Y0101818D01*
X0096276Y0102188D01*
X0100832Y0102026D02*
X0112980Y0102026D01*
X0112980Y0103224D02*
X0100832Y0103224D01*
X0100524Y0104423D02*
X0113288Y0104423D01*
X0113227Y0105621D02*
X0100832Y0105621D01*
X0100832Y0106820D02*
X0113180Y0106820D01*
X0113180Y0108018D02*
X0100832Y0108018D01*
X0100730Y0109217D02*
X0107313Y0109217D01*
X0106264Y0110415D02*
X0100832Y0110415D01*
X0100832Y0111614D02*
X0105825Y0111614D01*
X0105825Y0112812D02*
X0100832Y0112812D01*
X0100832Y0114011D02*
X0106285Y0114011D01*
X0106406Y0115209D02*
X0100780Y0115209D01*
X0100832Y0116408D02*
X0106406Y0116408D01*
X0106539Y0117606D02*
X0100832Y0117606D01*
X0102096Y0118805D02*
X0107280Y0118805D01*
X0108479Y0120003D02*
X0103786Y0120003D01*
X0104374Y0121202D02*
X0109677Y0121202D01*
X0110876Y0122400D02*
X0105361Y0122400D01*
X0106064Y0123599D02*
X0112074Y0123599D01*
X0112406Y0124797D02*
X0109301Y0124797D01*
X0109301Y0125996D02*
X0112406Y0125996D01*
X0112406Y0127194D02*
X0109301Y0127194D01*
X0109301Y0128393D02*
X0112406Y0128393D01*
X0112406Y0129591D02*
X0108820Y0129591D01*
X0109101Y0130790D02*
X0112406Y0130790D01*
X0112406Y0131988D02*
X0109101Y0131988D01*
X0109072Y0133187D02*
X0112406Y0133187D01*
X0112406Y0134385D02*
X0108925Y0134385D01*
X0109301Y0135584D02*
X0112406Y0135584D01*
X0112406Y0136782D02*
X0109301Y0136782D01*
X0109301Y0137981D02*
X0112049Y0137981D01*
X0111008Y0139179D02*
X0108736Y0139179D01*
X0109301Y0140378D02*
X0110474Y0140378D01*
X0123642Y0141688D02*
X0129406Y0141688D01*
X0135406Y0147688D01*
X0179906Y0147688D01*
X0194406Y0162188D01*
X0199406Y0162688D02*
X0199406Y0192688D01*
X0203906Y0197188D01*
X0203906Y0200188D01*
X0206686Y0202968D01*
X0222394Y0202968D01*
X0222394Y0204936D02*
X0205154Y0204936D01*
X0200406Y0200188D01*
X0200406Y0198688D01*
X0197406Y0200188D02*
X0204123Y0206905D01*
X0222394Y0206905D01*
X0222394Y0208873D02*
X0203091Y0208873D01*
X0195406Y0201188D01*
X0195406Y0179688D01*
X0171406Y0155688D01*
X0137406Y0155688D01*
X0130406Y0162688D01*
X0089906Y0162688D01*
X0082906Y0155688D01*
X0082906Y0126188D01*
X0074406Y0117688D01*
X0070406Y0117688D01*
X0073681Y0121202D02*
X0074526Y0121202D01*
X0075724Y0122400D02*
X0071573Y0122400D01*
X0072513Y0123599D02*
X0076923Y0123599D01*
X0078121Y0124797D02*
X0073992Y0124797D01*
X0074693Y0125996D02*
X0079320Y0125996D01*
X0080506Y0127194D02*
X0074985Y0127194D01*
X0074952Y0128393D02*
X0080506Y0128393D01*
X0080506Y0129591D02*
X0074599Y0129591D01*
X0073810Y0130790D02*
X0080506Y0130790D01*
X0080506Y0131988D02*
X0072057Y0131988D01*
X0067003Y0130790D02*
X0047206Y0130790D01*
X0047206Y0129591D02*
X0066213Y0129591D01*
X0065860Y0128393D02*
X0047206Y0128393D01*
X0047206Y0127194D02*
X0065827Y0127194D01*
X0066119Y0125996D02*
X0047206Y0125996D01*
X0047206Y0124797D02*
X0066821Y0124797D01*
X0068300Y0123599D02*
X0047206Y0123599D01*
X0048406Y0127688D02*
X0050914Y0130196D01*
X0050914Y0143653D01*
X0051514Y0143974D02*
X0053855Y0143974D01*
X0051514Y0142775D02*
X0050314Y0142775D01*
X0050314Y0141577D02*
X0051514Y0141577D01*
X0051514Y0140378D02*
X0050314Y0140378D01*
X0050314Y0139179D02*
X0051514Y0139179D01*
X0051514Y0137981D02*
X0050314Y0137981D01*
X0056659Y0137981D02*
X0065654Y0137981D01*
X0065649Y0137986D02*
X0066704Y0136931D01*
X0076856Y0136931D01*
X0077911Y0137986D01*
X0077911Y0149320D01*
X0076856Y0150374D01*
X0066704Y0150374D01*
X0065649Y0149320D01*
X0065649Y0137986D01*
X0065649Y0139179D02*
X0056845Y0139179D01*
X0056845Y0140378D02*
X0065649Y0140378D01*
X0065649Y0141577D02*
X0056845Y0141577D01*
X0056845Y0142775D02*
X0065649Y0142775D01*
X0065649Y0143974D02*
X0063623Y0143974D01*
X0063934Y0145172D02*
X0065649Y0145172D01*
X0065649Y0146371D02*
X0063934Y0146371D01*
X0063934Y0147569D02*
X0065649Y0147569D01*
X0065649Y0148768D02*
X0063934Y0148768D01*
X0065194Y0149966D02*
X0066296Y0149966D01*
X0069534Y0151165D02*
X0080506Y0151165D01*
X0080506Y0152363D02*
X0078213Y0152363D01*
X0078301Y0153562D02*
X0080506Y0153562D01*
X0080506Y0154760D02*
X0078301Y0154760D01*
X0078501Y0155959D02*
X0080506Y0155959D01*
X0080981Y0157157D02*
X0078501Y0157157D01*
X0072764Y0160188D02*
X0084406Y0160188D01*
X0088906Y0164688D01*
X0131406Y0164688D01*
X0138406Y0157688D01*
X0170406Y0157688D01*
X0193406Y0180688D01*
X0193406Y0219688D01*
X0198406Y0224688D01*
X0198406Y0236688D01*
X0200406Y0238688D01*
X0223406Y0238688D01*
X0237158Y0224936D01*
X0237158Y0219700D01*
X0235190Y0219700D02*
X0235190Y0223405D01*
X0224406Y0234188D01*
X0219119Y0234188D01*
X0219013Y0234295D01*
X0214631Y0236259D02*
X0205987Y0236259D01*
X0205987Y0236288D02*
X0214643Y0236288D01*
X0214213Y0235250D01*
X0214213Y0233340D01*
X0214944Y0231576D01*
X0216294Y0230226D01*
X0218058Y0229495D01*
X0219968Y0229495D01*
X0221732Y0230226D01*
X0223082Y0231576D01*
X0223170Y0231788D01*
X0223412Y0231788D01*
X0231538Y0223662D01*
X0231253Y0223662D01*
X0231253Y0223230D01*
X0231253Y0223230D01*
X0231253Y0223230D01*
X0231253Y0223662D01*
X0230820Y0223662D01*
X0230620Y0223862D01*
X0228297Y0223862D01*
X0227435Y0224724D01*
X0226118Y0225269D01*
X0224694Y0225269D01*
X0223378Y0224724D01*
X0222370Y0223717D01*
X0221825Y0222400D01*
X0221825Y0220976D01*
X0222370Y0219660D01*
X0223378Y0218652D01*
X0224694Y0218107D01*
X0225593Y0218107D01*
X0226035Y0217665D01*
X0226884Y0217314D01*
X0226884Y0205043D01*
X0226825Y0204900D01*
X0226825Y0203476D01*
X0227370Y0202160D01*
X0228378Y0201152D01*
X0229694Y0200607D01*
X0231118Y0200607D01*
X0232435Y0201152D01*
X0233442Y0202160D01*
X0233987Y0203476D01*
X0233987Y0204900D01*
X0233442Y0206217D01*
X0232435Y0207224D01*
X0231684Y0207535D01*
X0231684Y0215738D01*
X0231685Y0215738D01*
X0231885Y0215538D01*
X0277864Y0215538D01*
X0278919Y0216592D01*
X0278919Y0218781D01*
X0282490Y0215210D01*
X0268761Y0215210D01*
X0268618Y0215269D01*
X0267194Y0215269D01*
X0265878Y0214724D01*
X0264870Y0213717D01*
X0264325Y0212400D01*
X0264325Y0210976D01*
X0264870Y0209660D01*
X0265878Y0208652D01*
X0267194Y0208107D01*
X0268618Y0208107D01*
X0269935Y0208652D01*
X0270942Y0209660D01*
X0271253Y0210410D01*
X0279456Y0210410D01*
X0279456Y0210409D01*
X0279256Y0210209D01*
X0279256Y0171903D01*
X0278585Y0171903D01*
X0278385Y0172103D01*
X0278442Y0172160D01*
X0278987Y0173476D01*
X0278987Y0174900D01*
X0278442Y0176217D01*
X0277435Y0177224D01*
X0276118Y0177769D01*
X0274694Y0177769D01*
X0273378Y0177224D01*
X0272370Y0176217D01*
X0271825Y0174900D01*
X0271825Y0173476D01*
X0272370Y0172160D01*
X0273006Y0171524D01*
X0273006Y0171211D01*
X0273372Y0170329D01*
X0274047Y0169654D01*
X0276232Y0167469D01*
X0277114Y0167103D01*
X0279456Y0167103D01*
X0279456Y0167102D01*
X0279256Y0166902D01*
X0279256Y0164230D01*
X0280310Y0163176D01*
X0286526Y0163176D01*
X0287580Y0164230D01*
X0287580Y0166902D01*
X0287380Y0167102D01*
X0287380Y0167103D01*
X0288597Y0167103D01*
X0292006Y0163694D01*
X0292006Y0145114D01*
X0281149Y0145114D01*
X0280094Y0144060D01*
X0280094Y0133120D01*
X0281149Y0132065D01*
X0284006Y0132065D01*
X0284006Y0131588D01*
X0278045Y0131588D01*
X0278045Y0136414D01*
X0276990Y0137468D01*
X0267625Y0137468D01*
X0266571Y0136414D01*
X0266571Y0131588D01*
X0262906Y0131588D01*
X0262906Y0137512D01*
X0266784Y0141391D01*
X0266835Y0141391D01*
X0268151Y0141936D01*
X0269159Y0142943D01*
X0269704Y0144259D01*
X0269704Y0145159D01*
X0271123Y0146578D01*
X0271232Y0146469D01*
X0272325Y0145375D01*
X0272325Y0144476D01*
X0272870Y0143160D01*
X0273878Y0142152D01*
X0275194Y0141607D01*
X0276618Y0141607D01*
X0277935Y0142152D01*
X0278942Y0143160D01*
X0279487Y0144476D01*
X0279487Y0145900D01*
X0278942Y0147217D01*
X0277935Y0148224D01*
X0277418Y0148438D01*
X0277935Y0148652D01*
X0278942Y0149660D01*
X0279387Y0150734D01*
X0279694Y0150607D01*
X0281118Y0150607D01*
X0282435Y0151152D01*
X0283442Y0152160D01*
X0283987Y0153476D01*
X0283987Y0154900D01*
X0283442Y0156217D01*
X0282435Y0157224D01*
X0281118Y0157769D01*
X0279694Y0157769D01*
X0279005Y0157484D01*
X0278928Y0157560D01*
X0278928Y0159154D01*
X0278919Y0159177D01*
X0278919Y0161784D01*
X0277864Y0162839D01*
X0273023Y0162839D01*
X0273023Y0164666D01*
X0272657Y0165548D01*
X0271704Y0166501D01*
X0271704Y0167400D01*
X0271159Y0168717D01*
X0270151Y0169724D01*
X0268835Y0170269D01*
X0267410Y0170269D01*
X0266094Y0169724D01*
X0265087Y0168717D01*
X0264542Y0167400D01*
X0264542Y0165976D01*
X0265087Y0164660D01*
X0266094Y0163652D01*
X0267410Y0163107D01*
X0268223Y0163107D01*
X0268223Y0162839D01*
X0265350Y0162839D01*
X0265150Y0162639D01*
X0264717Y0162639D01*
X0264285Y0162639D01*
X0264085Y0162839D01*
X0251369Y0162839D01*
X0251369Y0163107D01*
X0252118Y0163107D01*
X0253435Y0163652D01*
X0254442Y0164660D01*
X0254987Y0165976D01*
X0254987Y0167400D01*
X0254442Y0168717D01*
X0253435Y0169724D01*
X0252118Y0170269D01*
X0250694Y0170269D01*
X0249378Y0169724D01*
X0248370Y0168717D01*
X0247825Y0167400D01*
X0247825Y0166501D01*
X0246935Y0165611D01*
X0246569Y0164729D01*
X0246569Y0162639D01*
X0246568Y0162639D01*
X0246368Y0162839D01*
X0241527Y0162839D01*
X0241527Y0165945D01*
X0241487Y0166040D01*
X0241487Y0167400D01*
X0240942Y0168717D01*
X0239935Y0169724D01*
X0238618Y0170269D01*
X0237194Y0170269D01*
X0235878Y0169724D01*
X0234870Y0168717D01*
X0234559Y0167966D01*
X0226357Y0167966D01*
X0226357Y0167967D01*
X0226557Y0168167D01*
X0226557Y0214146D01*
X0225502Y0215201D01*
X0222895Y0215201D01*
X0222872Y0215210D01*
X0213271Y0215210D01*
X0209547Y0218899D01*
X0209671Y0219198D01*
X0209671Y0221107D01*
X0208940Y0222872D01*
X0207590Y0224222D01*
X0205825Y0224953D01*
X0203916Y0224953D01*
X0202806Y0224493D01*
X0202806Y0232107D01*
X0203118Y0232107D01*
X0204435Y0232652D01*
X0205442Y0233660D01*
X0205987Y0234976D01*
X0205987Y0236288D01*
X0205987Y0235060D02*
X0214213Y0235060D01*
X0214213Y0233862D02*
X0205526Y0233862D01*
X0204446Y0232663D02*
X0214493Y0232663D01*
X0215054Y0231465D02*
X0213750Y0231465D01*
X0213707Y0231487D02*
X0213019Y0231710D01*
X0212304Y0231824D01*
X0211580Y0231824D01*
X0210865Y0231710D01*
X0210176Y0231487D01*
X0209531Y0231158D01*
X0208976Y0230755D01*
X0211942Y0227789D01*
X0214907Y0230755D01*
X0214353Y0231158D01*
X0213707Y0231487D01*
X0214419Y0230266D02*
X0216253Y0230266D01*
X0215876Y0229635D02*
X0215473Y0230189D01*
X0212507Y0227224D01*
X0211942Y0227789D01*
X0211376Y0227224D01*
X0208410Y0230189D01*
X0208007Y0229635D01*
X0207679Y0228989D01*
X0207455Y0228301D01*
X0207342Y0227586D01*
X0207342Y0226862D01*
X0207455Y0226147D01*
X0207679Y0225458D01*
X0208007Y0224813D01*
X0208410Y0224258D01*
X0211376Y0227224D01*
X0211942Y0226658D01*
X0212507Y0227224D01*
X0215473Y0224258D01*
X0215876Y0224813D01*
X0216205Y0225458D01*
X0216428Y0226147D01*
X0216542Y0226862D01*
X0216542Y0227586D01*
X0216428Y0228301D01*
X0216205Y0228989D01*
X0215876Y0229635D01*
X0216165Y0229068D02*
X0226132Y0229068D01*
X0224934Y0230266D02*
X0221773Y0230266D01*
X0222971Y0231465D02*
X0223735Y0231465D01*
X0227331Y0227869D02*
X0216497Y0227869D01*
X0216511Y0226671D02*
X0228529Y0226671D01*
X0229728Y0225472D02*
X0216209Y0225472D01*
X0215484Y0224274D02*
X0222927Y0224274D01*
X0222406Y0225188D02*
X0217906Y0220688D01*
X0221406Y0220688D01*
X0227406Y0214688D01*
X0227406Y0201688D01*
X0229406Y0199688D01*
X0235406Y0199688D01*
X0232785Y0201502D02*
X0279256Y0201502D01*
X0278406Y0201502D02*
X0231711Y0201502D01*
X0232095Y0201661D02*
X0230999Y0201207D01*
X0229813Y0201207D01*
X0228717Y0201661D01*
X0227879Y0202499D01*
X0227425Y0203595D01*
X0227425Y0204781D01*
X0227484Y0204924D01*
X0227484Y0214688D01*
X0227406Y0214688D01*
X0227406Y0167366D01*
X0234960Y0167366D01*
X0235379Y0168377D01*
X0236217Y0169215D01*
X0237313Y0169669D01*
X0238499Y0169669D01*
X0239595Y0169215D01*
X0240433Y0168377D01*
X0240887Y0167281D01*
X0240887Y0166253D01*
X0240927Y0166213D01*
X0240927Y0163688D01*
X0247169Y0163688D01*
X0247169Y0164997D01*
X0248425Y0166253D01*
X0248425Y0167281D01*
X0248879Y0168377D01*
X0249717Y0169215D01*
X0250813Y0169669D01*
X0251999Y0169669D01*
X0253095Y0169215D01*
X0253933Y0168377D01*
X0254387Y0167281D01*
X0254387Y0166095D01*
X0253933Y0164999D01*
X0253095Y0164161D01*
X0251999Y0163707D01*
X0250971Y0163707D01*
X0250952Y0163688D01*
X0268577Y0163688D01*
X0268558Y0163707D01*
X0267530Y0163707D01*
X0266434Y0164161D01*
X0265595Y0164999D01*
X0265142Y0166095D01*
X0265142Y0167281D01*
X0265595Y0168377D01*
X0266434Y0169215D01*
X0267530Y0169669D01*
X0268716Y0169669D01*
X0269811Y0169215D01*
X0270650Y0168377D01*
X0271104Y0167281D01*
X0271104Y0166253D01*
X0271368Y0165988D01*
X0272423Y0164934D01*
X0272423Y0163688D01*
X0278406Y0163688D01*
X0278406Y0167703D01*
X0276846Y0167703D01*
X0274661Y0169888D01*
X0273606Y0170943D01*
X0273606Y0171772D01*
X0272879Y0172499D01*
X0272425Y0173595D01*
X0272425Y0174781D01*
X0272879Y0175877D01*
X0273717Y0176715D01*
X0274813Y0177169D01*
X0275999Y0177169D01*
X0277095Y0176715D01*
X0277933Y0175877D01*
X0278387Y0174781D01*
X0278387Y0173595D01*
X0277933Y0172499D01*
X0277537Y0172103D01*
X0278337Y0171303D01*
X0278406Y0171303D01*
X0278406Y0211010D01*
X0270852Y0211010D01*
X0270433Y0209999D01*
X0269595Y0209161D01*
X0268499Y0208707D01*
X0267313Y0208707D01*
X0266217Y0209161D01*
X0265379Y0209999D01*
X0264925Y0211095D01*
X0264925Y0212281D01*
X0265379Y0213377D01*
X0266217Y0214215D01*
X0267313Y0214669D01*
X0268499Y0214669D01*
X0268642Y0214610D01*
X0278406Y0214610D01*
X0278406Y0214688D01*
X0231084Y0214688D01*
X0231084Y0207134D01*
X0232095Y0206715D01*
X0232933Y0205877D01*
X0233387Y0204781D01*
X0233387Y0203595D01*
X0232933Y0202499D01*
X0232095Y0201661D01*
X0233017Y0202701D02*
X0278406Y0202701D01*
X0279256Y0202701D02*
X0233666Y0202701D01*
X0233387Y0203899D02*
X0278406Y0203899D01*
X0279256Y0203899D02*
X0233987Y0203899D01*
X0233906Y0205098D02*
X0279256Y0205098D01*
X0278406Y0205098D02*
X0233256Y0205098D01*
X0233363Y0206296D02*
X0279256Y0206296D01*
X0278406Y0206296D02*
X0232514Y0206296D01*
X0231781Y0207495D02*
X0279256Y0207495D01*
X0278406Y0207495D02*
X0231084Y0207495D01*
X0231084Y0208693D02*
X0278406Y0208693D01*
X0279256Y0208693D02*
X0269976Y0208693D01*
X0270326Y0209892D02*
X0278406Y0209892D01*
X0279256Y0209892D02*
X0271038Y0209892D01*
X0270406Y0206688D02*
X0274560Y0210842D01*
X0283418Y0210842D01*
X0283418Y0212810D02*
X0269028Y0212810D01*
X0267906Y0211688D01*
X0265489Y0213487D02*
X0231084Y0213487D01*
X0231684Y0213487D02*
X0264775Y0213487D01*
X0264928Y0212289D02*
X0231084Y0212289D01*
X0231684Y0212289D02*
X0264325Y0212289D01*
X0264325Y0211090D02*
X0231684Y0211090D01*
X0231253Y0210842D02*
X0231253Y0219700D01*
X0231253Y0223842D01*
X0229906Y0225188D01*
X0222406Y0225188D01*
X0222105Y0223075D02*
X0213932Y0223075D01*
X0213707Y0222961D02*
X0214353Y0223289D01*
X0214907Y0223692D01*
X0211942Y0226658D01*
X0208976Y0223692D01*
X0209531Y0223289D01*
X0210176Y0222961D01*
X0210865Y0222737D01*
X0211580Y0222624D01*
X0212304Y0222624D01*
X0213019Y0222737D01*
X0213707Y0222961D01*
X0214326Y0224274D02*
X0215457Y0224274D01*
X0214259Y0225472D02*
X0213127Y0225472D01*
X0213060Y0226671D02*
X0211955Y0226671D01*
X0211929Y0226671D02*
X0210823Y0226671D01*
X0210756Y0225472D02*
X0209625Y0225472D01*
X0209558Y0224274D02*
X0208426Y0224274D01*
X0208399Y0224274D02*
X0207464Y0224274D01*
X0207674Y0225472D02*
X0202806Y0225472D01*
X0202806Y0226671D02*
X0207372Y0226671D01*
X0207387Y0227869D02*
X0202806Y0227869D01*
X0202806Y0229068D02*
X0207719Y0229068D01*
X0209532Y0229068D02*
X0210663Y0229068D01*
X0210730Y0227869D02*
X0211862Y0227869D01*
X0212022Y0227869D02*
X0213153Y0227869D01*
X0213220Y0229068D02*
X0214352Y0229068D01*
X0210133Y0231465D02*
X0202806Y0231465D01*
X0202806Y0230266D02*
X0209465Y0230266D01*
X0202406Y0235688D02*
X0200406Y0233688D01*
X0200406Y0223688D01*
X0199406Y0222688D01*
X0199406Y0218688D01*
X0207253Y0210842D01*
X0222394Y0210842D01*
X0222394Y0212810D02*
X0212284Y0212810D01*
X0204871Y0220153D01*
X0208736Y0223075D02*
X0209951Y0223075D01*
X0209352Y0221877D02*
X0221825Y0221877D01*
X0221948Y0220678D02*
X0209671Y0220678D01*
X0209671Y0219480D02*
X0222550Y0219480D01*
X0224273Y0218281D02*
X0210171Y0218281D01*
X0211381Y0217083D02*
X0226884Y0217083D01*
X0226884Y0215884D02*
X0212591Y0215884D01*
X0226017Y0214686D02*
X0226884Y0214686D01*
X0227406Y0214686D02*
X0227484Y0214686D01*
X0227484Y0213487D02*
X0227406Y0213487D01*
X0226884Y0213487D02*
X0226557Y0213487D01*
X0226557Y0212289D02*
X0226884Y0212289D01*
X0227406Y0212289D02*
X0227484Y0212289D01*
X0227484Y0211090D02*
X0227406Y0211090D01*
X0226884Y0211090D02*
X0226557Y0211090D01*
X0226557Y0209892D02*
X0226884Y0209892D01*
X0227406Y0209892D02*
X0227484Y0209892D01*
X0227484Y0208693D02*
X0227406Y0208693D01*
X0226884Y0208693D02*
X0226557Y0208693D01*
X0226557Y0207495D02*
X0226884Y0207495D01*
X0227406Y0207495D02*
X0227484Y0207495D01*
X0227484Y0206296D02*
X0227406Y0206296D01*
X0226884Y0206296D02*
X0226557Y0206296D01*
X0226557Y0205098D02*
X0226884Y0205098D01*
X0227406Y0205098D02*
X0227484Y0205098D01*
X0227425Y0203899D02*
X0227406Y0203899D01*
X0226825Y0203899D02*
X0226557Y0203899D01*
X0226557Y0202701D02*
X0227146Y0202701D01*
X0227406Y0202701D02*
X0227796Y0202701D01*
X0228028Y0201502D02*
X0226557Y0201502D01*
X0227406Y0201502D02*
X0229101Y0201502D01*
X0227406Y0200304D02*
X0278406Y0200304D01*
X0279256Y0200304D02*
X0226557Y0200304D01*
X0226557Y0199105D02*
X0279256Y0199105D01*
X0278406Y0199105D02*
X0227406Y0199105D01*
X0227406Y0197907D02*
X0278406Y0197907D01*
X0279256Y0197907D02*
X0226557Y0197907D01*
X0226557Y0196708D02*
X0279256Y0196708D01*
X0278406Y0196708D02*
X0227406Y0196708D01*
X0227406Y0195510D02*
X0278406Y0195510D01*
X0279256Y0195510D02*
X0226557Y0195510D01*
X0226557Y0194311D02*
X0279256Y0194311D01*
X0278406Y0194311D02*
X0227406Y0194311D01*
X0227406Y0193112D02*
X0278406Y0193112D01*
X0279256Y0193112D02*
X0226557Y0193112D01*
X0226557Y0191914D02*
X0279256Y0191914D01*
X0278406Y0191914D02*
X0227406Y0191914D01*
X0227406Y0190715D02*
X0278406Y0190715D01*
X0279256Y0190715D02*
X0226557Y0190715D01*
X0226557Y0189517D02*
X0279256Y0189517D01*
X0278406Y0189517D02*
X0227406Y0189517D01*
X0227406Y0188318D02*
X0278406Y0188318D01*
X0279256Y0188318D02*
X0226557Y0188318D01*
X0226557Y0187120D02*
X0279256Y0187120D01*
X0278406Y0187120D02*
X0227406Y0187120D01*
X0227406Y0185921D02*
X0278406Y0185921D01*
X0279256Y0185921D02*
X0226557Y0185921D01*
X0226557Y0184723D02*
X0279256Y0184723D01*
X0278406Y0184723D02*
X0227406Y0184723D01*
X0227406Y0183524D02*
X0278406Y0183524D01*
X0279256Y0183524D02*
X0226557Y0183524D01*
X0226557Y0182326D02*
X0279256Y0182326D01*
X0278406Y0182326D02*
X0227406Y0182326D01*
X0227406Y0181127D02*
X0278406Y0181127D01*
X0279256Y0181127D02*
X0226557Y0181127D01*
X0226557Y0179929D02*
X0279256Y0179929D01*
X0278406Y0179929D02*
X0227406Y0179929D01*
X0227406Y0178730D02*
X0278406Y0178730D01*
X0279256Y0178730D02*
X0226557Y0178730D01*
X0226557Y0177532D02*
X0274121Y0177532D01*
X0273335Y0176333D02*
X0227406Y0176333D01*
X0226557Y0176333D02*
X0272487Y0176333D01*
X0272572Y0175135D02*
X0227406Y0175135D01*
X0226557Y0175135D02*
X0271922Y0175135D01*
X0271825Y0173936D02*
X0226557Y0173936D01*
X0227406Y0173936D02*
X0272425Y0173936D01*
X0272131Y0172738D02*
X0226557Y0172738D01*
X0227406Y0172738D02*
X0272780Y0172738D01*
X0272991Y0171539D02*
X0226557Y0171539D01*
X0227406Y0171539D02*
X0273606Y0171539D01*
X0273367Y0170341D02*
X0226557Y0170341D01*
X0227406Y0170341D02*
X0274208Y0170341D01*
X0274558Y0169142D02*
X0270733Y0169142D01*
X0269884Y0169142D02*
X0275406Y0169142D01*
X0275756Y0167944D02*
X0271479Y0167944D01*
X0270829Y0167944D02*
X0276605Y0167944D01*
X0277591Y0169503D02*
X0275406Y0171688D01*
X0275406Y0174188D01*
X0277477Y0176333D02*
X0278406Y0176333D01*
X0278325Y0176333D02*
X0279256Y0176333D01*
X0279256Y0175135D02*
X0278890Y0175135D01*
X0278406Y0175135D02*
X0278241Y0175135D01*
X0278387Y0173936D02*
X0278406Y0173936D01*
X0278987Y0173936D02*
X0279256Y0173936D01*
X0279256Y0172738D02*
X0278682Y0172738D01*
X0278406Y0172738D02*
X0278032Y0172738D01*
X0278101Y0171539D02*
X0278406Y0171539D01*
X0277591Y0169503D02*
X0283418Y0169503D01*
X0289591Y0169503D01*
X0294406Y0164688D01*
X0294406Y0139688D01*
X0293406Y0138688D01*
X0287406Y0138688D01*
X0280094Y0139179D02*
X0264573Y0139179D01*
X0263375Y0137981D02*
X0280094Y0137981D01*
X0280094Y0136782D02*
X0277676Y0136782D01*
X0278045Y0135584D02*
X0280094Y0135584D01*
X0280094Y0134385D02*
X0278045Y0134385D01*
X0278045Y0133187D02*
X0280094Y0133187D01*
X0278045Y0131988D02*
X0284006Y0131988D01*
X0280094Y0140378D02*
X0265772Y0140378D01*
X0267284Y0141577D02*
X0280094Y0141577D01*
X0280094Y0142775D02*
X0278557Y0142775D01*
X0279279Y0143974D02*
X0280094Y0143974D01*
X0279487Y0145172D02*
X0292006Y0145172D01*
X0292006Y0146371D02*
X0279293Y0146371D01*
X0278590Y0147569D02*
X0292006Y0147569D01*
X0292006Y0148768D02*
X0278050Y0148768D01*
X0279069Y0149966D02*
X0292006Y0149966D01*
X0292006Y0151165D02*
X0282447Y0151165D01*
X0283526Y0152363D02*
X0292006Y0152363D01*
X0292006Y0153562D02*
X0283987Y0153562D01*
X0283987Y0154760D02*
X0292006Y0154760D01*
X0292006Y0155959D02*
X0283549Y0155959D01*
X0282502Y0157157D02*
X0292006Y0157157D01*
X0292006Y0158356D02*
X0278928Y0158356D01*
X0278919Y0159554D02*
X0292006Y0159554D01*
X0292006Y0160753D02*
X0278919Y0160753D01*
X0278752Y0161951D02*
X0292006Y0161951D01*
X0292006Y0163150D02*
X0273023Y0163150D01*
X0273023Y0164348D02*
X0279256Y0164348D01*
X0278406Y0164348D02*
X0272423Y0164348D01*
X0272658Y0165547D02*
X0279256Y0165547D01*
X0278406Y0165547D02*
X0271810Y0165547D01*
X0271704Y0166745D02*
X0279256Y0166745D01*
X0278406Y0166745D02*
X0271104Y0166745D01*
X0270623Y0164188D02*
X0270623Y0158676D01*
X0270623Y0149472D01*
X0266123Y0144972D01*
X0269717Y0145172D02*
X0272325Y0145172D01*
X0272533Y0143974D02*
X0269585Y0143974D01*
X0268991Y0142775D02*
X0273255Y0142775D01*
X0275906Y0145188D02*
X0272591Y0148503D01*
X0272591Y0158676D01*
X0274560Y0158676D02*
X0274560Y0153035D01*
X0275906Y0151688D01*
X0278906Y0154188D02*
X0280406Y0154188D01*
X0278906Y0154188D02*
X0276528Y0156566D01*
X0276528Y0158676D01*
X0268654Y0158676D02*
X0268654Y0152936D01*
X0267406Y0151688D01*
X0266686Y0155968D02*
X0262406Y0151688D01*
X0262406Y0146688D01*
X0259406Y0143688D01*
X0249906Y0143688D01*
X0246325Y0143974D02*
X0239731Y0143974D01*
X0239731Y0142775D02*
X0246408Y0142775D01*
X0242759Y0141577D02*
X0239731Y0141577D01*
X0239731Y0140378D02*
X0241968Y0140378D01*
X0241968Y0139179D02*
X0234006Y0139179D01*
X0234006Y0137981D02*
X0232806Y0137981D01*
X0232806Y0139179D02*
X0216292Y0139179D01*
X0215093Y0137981D02*
X0227082Y0137981D01*
X0227082Y0136782D02*
X0213895Y0136782D01*
X0212696Y0135584D02*
X0227082Y0135584D01*
X0227138Y0134385D02*
X0211498Y0134385D01*
X0210299Y0133187D02*
X0242408Y0133187D01*
X0241968Y0134385D02*
X0239674Y0134385D01*
X0239731Y0135584D02*
X0241968Y0135584D01*
X0241968Y0137981D02*
X0239731Y0137981D01*
X0239731Y0136782D02*
X0246905Y0136782D01*
X0248105Y0136782D02*
X0256906Y0136782D01*
X0256906Y0135584D02*
X0253042Y0135584D01*
X0253042Y0136643D02*
X0248105Y0136643D01*
X0248105Y0137843D01*
X0253042Y0137843D01*
X0253042Y0140407D01*
X0252933Y0140814D01*
X0252722Y0141178D01*
X0252612Y0141288D01*
X0258197Y0141288D01*
X0257363Y0140454D01*
X0256906Y0139352D01*
X0256906Y0131588D01*
X0253242Y0131588D01*
X0253242Y0131887D01*
X0252230Y0132898D01*
X0252424Y0133010D01*
X0252722Y0133308D01*
X0252933Y0133673D01*
X0253042Y0134080D01*
X0253042Y0136643D01*
X0253042Y0137981D02*
X0256906Y0137981D01*
X0256906Y0139179D02*
X0253042Y0139179D01*
X0253042Y0140378D02*
X0257331Y0140378D01*
X0262906Y0136782D02*
X0266939Y0136782D01*
X0266571Y0135584D02*
X0262906Y0135584D01*
X0262906Y0134385D02*
X0266571Y0134385D01*
X0266571Y0133187D02*
X0262906Y0133187D01*
X0262906Y0131988D02*
X0266571Y0131988D01*
X0256906Y0131988D02*
X0253140Y0131988D01*
X0252601Y0133187D02*
X0256906Y0133187D01*
X0256906Y0134385D02*
X0253042Y0134385D01*
X0252474Y0123599D02*
X0266571Y0123599D01*
X0266571Y0122400D02*
X0258931Y0122400D01*
X0260457Y0121202D02*
X0266571Y0121202D01*
X0266571Y0120003D02*
X0261399Y0120003D01*
X0262598Y0118805D02*
X0280317Y0118805D01*
X0280294Y0117606D02*
X0272246Y0117606D01*
X0273495Y0116408D02*
X0280294Y0116408D01*
X0280294Y0115209D02*
X0274693Y0115209D01*
X0275892Y0114011D02*
X0286806Y0114011D01*
X0286806Y0115209D02*
X0288006Y0115209D01*
X0288006Y0114011D02*
X0299275Y0114011D01*
X0298077Y0115209D02*
X0294518Y0115209D01*
X0294518Y0116408D02*
X0296878Y0116408D01*
X0295680Y0117606D02*
X0294518Y0117606D01*
X0292084Y0121202D02*
X0278045Y0121202D01*
X0278045Y0122400D02*
X0290886Y0122400D01*
X0289687Y0123599D02*
X0278045Y0123599D01*
X0278045Y0120003D02*
X0281282Y0120003D01*
X0286806Y0120003D02*
X0288006Y0120003D01*
X0288006Y0118805D02*
X0286806Y0118805D01*
X0286806Y0117606D02*
X0288006Y0117606D01*
X0288006Y0116408D02*
X0286806Y0116408D01*
X0288006Y0113187D02*
X0294518Y0113187D01*
X0294518Y0108852D01*
X0294409Y0108445D01*
X0294198Y0108080D01*
X0293900Y0107782D01*
X0293536Y0107571D01*
X0293129Y0107462D01*
X0288006Y0107462D01*
X0288006Y0113187D01*
X0288006Y0112812D02*
X0286806Y0112812D01*
X0286806Y0111614D02*
X0288006Y0111614D01*
X0288006Y0110415D02*
X0286806Y0110415D01*
X0286806Y0109217D02*
X0288006Y0109217D01*
X0288006Y0108018D02*
X0286806Y0108018D01*
X0280676Y0108018D02*
X0277806Y0108018D01*
X0277806Y0106820D02*
X0306466Y0106820D01*
X0305268Y0108018D02*
X0294137Y0108018D01*
X0294518Y0109217D02*
X0304069Y0109217D01*
X0302871Y0110415D02*
X0294518Y0110415D01*
X0294518Y0111614D02*
X0301672Y0111614D01*
X0300474Y0112812D02*
X0294518Y0112812D01*
X0307665Y0105621D02*
X0277806Y0105621D01*
X0277806Y0104423D02*
X0308761Y0104423D01*
X0309806Y0103224D02*
X0297227Y0103224D01*
X0295585Y0103224D02*
X0277806Y0103224D01*
X0277806Y0102026D02*
X0293679Y0102026D01*
X0293002Y0100827D02*
X0283489Y0100827D01*
X0284687Y0099629D02*
X0292825Y0099629D01*
X0293051Y0098430D02*
X0285886Y0098430D01*
X0287084Y0097232D02*
X0293798Y0097232D01*
X0296406Y0099688D02*
X0304406Y0099688D01*
X0322906Y0081188D01*
X0327406Y0081188D01*
X0330406Y0078188D01*
X0330406Y0069377D01*
X0324406Y0063377D01*
X0319493Y0061276D02*
X0314731Y0061276D01*
X0314731Y0060627D02*
X0314731Y0064962D01*
X0314622Y0065369D01*
X0314411Y0065734D01*
X0314113Y0066031D01*
X0313748Y0066242D01*
X0313341Y0066351D01*
X0309006Y0066351D01*
X0309006Y0060627D01*
X0307806Y0060627D01*
X0307806Y0066351D01*
X0303471Y0066351D01*
X0303064Y0066242D01*
X0302699Y0066031D01*
X0302401Y0065734D01*
X0302191Y0065369D01*
X0302082Y0064962D01*
X0302082Y0060627D01*
X0307806Y0060627D01*
X0307806Y0059427D01*
X0302082Y0059427D01*
X0302082Y0055092D01*
X0302191Y0054685D01*
X0302401Y0054320D01*
X0302699Y0054022D01*
X0303064Y0053811D01*
X0303471Y0053702D01*
X0307806Y0053702D01*
X0307806Y0059427D01*
X0309006Y0059427D01*
X0309006Y0060627D01*
X0314731Y0060627D01*
X0314731Y0059427D02*
X0309006Y0059427D01*
X0309006Y0053702D01*
X0313341Y0053702D01*
X0313748Y0053811D01*
X0314113Y0054022D01*
X0314411Y0054320D01*
X0314622Y0054685D01*
X0314731Y0055092D01*
X0314731Y0059427D01*
X0314731Y0058879D02*
X0321347Y0058879D01*
X0320149Y0060078D02*
X0309006Y0060078D01*
X0309006Y0061276D02*
X0307806Y0061276D01*
X0307806Y0060078D02*
X0294505Y0060078D01*
X0294505Y0061276D02*
X0302082Y0061276D01*
X0302082Y0062475D02*
X0294505Y0062475D01*
X0294505Y0063673D02*
X0302082Y0063673D01*
X0302082Y0064872D02*
X0294536Y0064872D01*
X0294536Y0066070D02*
X0302767Y0066070D01*
X0302897Y0070864D02*
X0295305Y0070864D01*
X0295305Y0069666D02*
X0327301Y0069666D01*
X0327639Y0070864D02*
X0328006Y0070864D01*
X0326102Y0068467D02*
X0326080Y0068467D01*
X0322732Y0068467D02*
X0294912Y0068467D01*
X0294536Y0067269D02*
X0320741Y0067269D01*
X0319738Y0066070D02*
X0314046Y0066070D01*
X0314731Y0064872D02*
X0319242Y0064872D01*
X0319063Y0063673D02*
X0314731Y0063673D01*
X0314731Y0062475D02*
X0319063Y0062475D01*
X0314731Y0057681D02*
X0334417Y0057681D01*
X0334417Y0058879D02*
X0327465Y0058879D01*
X0328663Y0060078D02*
X0334417Y0060078D01*
X0334417Y0061276D02*
X0329319Y0061276D01*
X0329749Y0062475D02*
X0334417Y0062475D01*
X0334417Y0063673D02*
X0329749Y0063673D01*
X0329571Y0064872D02*
X0334417Y0064872D01*
X0334417Y0066070D02*
X0330493Y0066070D01*
X0331692Y0067269D02*
X0334417Y0067269D01*
X0334417Y0068467D02*
X0332627Y0068467D01*
X0332806Y0069666D02*
X0334417Y0069666D01*
X0334417Y0070864D02*
X0332806Y0070864D01*
X0332806Y0072063D02*
X0334417Y0072063D01*
X0334417Y0073261D02*
X0332806Y0073261D01*
X0332806Y0074460D02*
X0334417Y0074460D01*
X0334417Y0075658D02*
X0332806Y0075658D01*
X0332806Y0076857D02*
X0334417Y0076857D01*
X0334417Y0078055D02*
X0332806Y0078055D01*
X0332562Y0079254D02*
X0334417Y0079254D01*
X0334417Y0080452D02*
X0331536Y0080452D01*
X0330337Y0081651D02*
X0334417Y0081651D01*
X0334417Y0082849D02*
X0329139Y0082849D01*
X0328619Y0084048D02*
X0334417Y0084048D01*
X0334417Y0085246D02*
X0329245Y0085246D01*
X0329512Y0087644D02*
X0334417Y0087644D01*
X0334417Y0088842D02*
X0329215Y0088842D01*
X0328554Y0090041D02*
X0334417Y0090041D01*
X0334417Y0091239D02*
X0327321Y0091239D01*
X0324987Y0091239D02*
X0323825Y0091239D01*
X0323825Y0090041D02*
X0324987Y0090041D01*
X0324987Y0088842D02*
X0323825Y0088842D01*
X0323825Y0087644D02*
X0324987Y0087644D01*
X0324987Y0086445D02*
X0334417Y0086445D01*
X0334417Y0092438D02*
X0315051Y0092438D01*
X0313852Y0093636D02*
X0334417Y0093636D01*
X0334417Y0094835D02*
X0312654Y0094835D01*
X0311455Y0096033D02*
X0334417Y0096033D01*
X0334417Y0097232D02*
X0310257Y0097232D01*
X0309058Y0098430D02*
X0315387Y0098430D01*
X0313657Y0099629D02*
X0307860Y0099629D01*
X0306661Y0100827D02*
X0312459Y0100827D01*
X0311260Y0102026D02*
X0305034Y0102026D01*
X0315406Y0107688D02*
X0324906Y0107688D01*
X0329906Y0112688D02*
X0313406Y0112688D01*
X0298406Y0127688D01*
X0298406Y0166688D01*
X0291654Y0173440D01*
X0283418Y0173440D01*
X0283418Y0171472D02*
X0290623Y0171472D01*
X0296406Y0165688D01*
X0296406Y0126688D01*
X0315406Y0107688D01*
X0329906Y0112688D02*
X0334906Y0117688D01*
X0339706Y0117606D02*
X0357606Y0117606D01*
X0357606Y0116408D02*
X0339571Y0116408D01*
X0339075Y0115209D02*
X0357606Y0115209D01*
X0357606Y0114011D02*
X0338017Y0114011D01*
X0337769Y0111614D02*
X0357606Y0111614D01*
X0357606Y0112812D02*
X0333424Y0112812D01*
X0330232Y0116408D02*
X0329571Y0116408D01*
X0329706Y0117606D02*
X0330106Y0117606D01*
X0330173Y0118805D02*
X0329639Y0118805D01*
X0329143Y0120003D02*
X0330670Y0120003D01*
X0331632Y0121202D02*
X0328181Y0121202D01*
X0326073Y0122400D02*
X0333739Y0122400D01*
X0333829Y0123201D02*
X0333140Y0123425D01*
X0332495Y0123754D01*
X0331909Y0124179D01*
X0331397Y0124691D01*
X0330972Y0125277D01*
X0330643Y0125922D01*
X0330419Y0126611D01*
X0330312Y0127288D01*
X0334506Y0127288D01*
X0334506Y0128088D01*
X0330312Y0128088D01*
X0330419Y0128765D01*
X0330643Y0129454D01*
X0330972Y0130099D01*
X0331397Y0130685D01*
X0331909Y0131197D01*
X0332495Y0131622D01*
X0333140Y0131951D01*
X0333829Y0132175D01*
X0334506Y0132282D01*
X0334506Y0128088D01*
X0335306Y0128088D01*
X0335306Y0132282D01*
X0335983Y0132175D01*
X0336672Y0131951D01*
X0337317Y0131622D01*
X0337903Y0131197D01*
X0338415Y0130685D01*
X0338840Y0130099D01*
X0339169Y0129454D01*
X0339393Y0128765D01*
X0339500Y0128088D01*
X0335306Y0128088D01*
X0335306Y0127288D01*
X0335306Y0123094D01*
X0335983Y0123201D01*
X0336672Y0123425D01*
X0337317Y0123754D01*
X0337903Y0124179D01*
X0338415Y0124691D01*
X0338840Y0125277D01*
X0339169Y0125922D01*
X0339393Y0126611D01*
X0339500Y0127288D01*
X0335306Y0127288D01*
X0334506Y0127288D01*
X0334506Y0123094D01*
X0333829Y0123201D01*
X0334506Y0123599D02*
X0335306Y0123599D01*
X0335306Y0124797D02*
X0334506Y0124797D01*
X0334506Y0125996D02*
X0335306Y0125996D01*
X0335306Y0127194D02*
X0334506Y0127194D01*
X0334506Y0128393D02*
X0335306Y0128393D01*
X0335306Y0129591D02*
X0334506Y0129591D01*
X0334506Y0130790D02*
X0335306Y0130790D01*
X0335306Y0131988D02*
X0334506Y0131988D01*
X0333255Y0131988D02*
X0327067Y0131988D01*
X0328593Y0130790D02*
X0331503Y0130790D01*
X0330713Y0129591D02*
X0329313Y0129591D01*
X0329706Y0128393D02*
X0330360Y0128393D01*
X0330327Y0127194D02*
X0329706Y0127194D01*
X0329401Y0125996D02*
X0330619Y0125996D01*
X0331321Y0124797D02*
X0328804Y0124797D01*
X0327577Y0123599D02*
X0332800Y0123599D01*
X0336073Y0122400D02*
X0357606Y0122400D01*
X0357606Y0121202D02*
X0338181Y0121202D01*
X0339143Y0120003D02*
X0357606Y0120003D01*
X0357606Y0118805D02*
X0339639Y0118805D01*
X0337013Y0123599D02*
X0357606Y0123599D01*
X0357606Y0124797D02*
X0338492Y0124797D01*
X0339193Y0125996D02*
X0357606Y0125996D01*
X0357606Y0127194D02*
X0339485Y0127194D01*
X0339452Y0128393D02*
X0357606Y0128393D01*
X0357606Y0129591D02*
X0339099Y0129591D01*
X0338310Y0130790D02*
X0357606Y0130790D01*
X0357606Y0131988D02*
X0336557Y0131988D01*
X0327686Y0139179D02*
X0357606Y0139179D01*
X0357606Y0137981D02*
X0326487Y0137981D01*
X0326394Y0137888D02*
X0329206Y0140700D01*
X0329206Y0144676D01*
X0326394Y0147488D01*
X0322418Y0147488D01*
X0319606Y0144676D01*
X0319606Y0140700D01*
X0322418Y0137888D01*
X0326394Y0137888D01*
X0328884Y0140378D02*
X0357606Y0140378D01*
X0357606Y0141577D02*
X0329206Y0141577D01*
X0329206Y0142775D02*
X0357606Y0142775D01*
X0357606Y0143974D02*
X0329206Y0143974D01*
X0328710Y0145172D02*
X0357606Y0145172D01*
X0357606Y0146371D02*
X0327512Y0146371D01*
X0326394Y0147888D02*
X0329206Y0150700D01*
X0329206Y0154676D01*
X0326394Y0157488D01*
X0322418Y0157488D01*
X0319606Y0154676D01*
X0319606Y0150700D01*
X0322418Y0147888D01*
X0326394Y0147888D01*
X0327274Y0148768D02*
X0357606Y0148768D01*
X0357606Y0149966D02*
X0328472Y0149966D01*
X0329206Y0151165D02*
X0357606Y0151165D01*
X0357606Y0152363D02*
X0329206Y0152363D01*
X0329206Y0153562D02*
X0357606Y0153562D01*
X0357606Y0154760D02*
X0329122Y0154760D01*
X0327924Y0155959D02*
X0357606Y0155959D01*
X0357606Y0157157D02*
X0326725Y0157157D01*
X0326862Y0158356D02*
X0357606Y0158356D01*
X0357606Y0159554D02*
X0328060Y0159554D01*
X0329206Y0160753D02*
X0357606Y0160753D01*
X0357606Y0161951D02*
X0329206Y0161951D01*
X0329206Y0163150D02*
X0357606Y0163150D01*
X0357606Y0164348D02*
X0329206Y0164348D01*
X0328508Y0165547D02*
X0357606Y0165547D01*
X0357606Y0166745D02*
X0329759Y0166745D01*
X0330786Y0167944D02*
X0357606Y0167944D01*
X0357606Y0169142D02*
X0331814Y0169142D01*
X0332654Y0170341D02*
X0357606Y0170341D01*
X0357606Y0171539D02*
X0332806Y0171539D01*
X0332806Y0172738D02*
X0357606Y0172738D01*
X0357606Y0173936D02*
X0332806Y0173936D01*
X0332806Y0175135D02*
X0357606Y0175135D01*
X0357606Y0176333D02*
X0332806Y0176333D01*
X0332806Y0177532D02*
X0357606Y0177532D01*
X0357606Y0178730D02*
X0332806Y0178730D01*
X0332839Y0179929D02*
X0357606Y0179929D01*
X0357606Y0181127D02*
X0332624Y0181127D01*
X0331590Y0182326D02*
X0357606Y0182326D01*
X0357606Y0183524D02*
X0330152Y0183524D01*
X0329160Y0184723D02*
X0357606Y0184723D01*
X0357606Y0185921D02*
X0327961Y0185921D01*
X0326763Y0187120D02*
X0357606Y0187120D01*
X0357606Y0188318D02*
X0326825Y0188318D01*
X0328023Y0189517D02*
X0357606Y0189517D01*
X0357606Y0190715D02*
X0329206Y0190715D01*
X0329206Y0191914D02*
X0357606Y0191914D01*
X0357606Y0193112D02*
X0329206Y0193112D01*
X0329206Y0194311D02*
X0357606Y0194311D01*
X0357606Y0195510D02*
X0328373Y0195510D01*
X0327174Y0196708D02*
X0357606Y0196708D01*
X0357606Y0197907D02*
X0326413Y0197907D01*
X0327611Y0199105D02*
X0357606Y0199105D01*
X0357606Y0200304D02*
X0328810Y0200304D01*
X0329206Y0201502D02*
X0357606Y0201502D01*
X0357606Y0202701D02*
X0329206Y0202701D01*
X0329206Y0203899D02*
X0357606Y0203899D01*
X0357606Y0205098D02*
X0328785Y0205098D01*
X0327586Y0206296D02*
X0357606Y0206296D01*
X0357606Y0207495D02*
X0321806Y0207495D01*
X0319406Y0207688D02*
X0319406Y0217688D01*
X0324006Y0218281D02*
X0324806Y0218281D01*
X0324806Y0219480D02*
X0324006Y0219480D01*
X0324006Y0220678D02*
X0324806Y0220678D01*
X0324806Y0221877D02*
X0324006Y0221877D01*
X0324006Y0223075D02*
X0314806Y0223075D01*
X0314006Y0223075D02*
X0299413Y0223075D01*
X0300612Y0221877D02*
X0306746Y0221877D01*
X0305354Y0220678D02*
X0301810Y0220678D01*
X0303009Y0219480D02*
X0304858Y0219480D01*
X0304825Y0218281D02*
X0304207Y0218281D01*
X0304406Y0214688D02*
X0304406Y0205688D01*
X0312406Y0197688D01*
X0319406Y0197688D01*
X0324406Y0192688D01*
X0320789Y0189517D02*
X0318023Y0189517D01*
X0319206Y0190715D02*
X0319606Y0190715D01*
X0319606Y0191914D02*
X0319206Y0191914D01*
X0319206Y0193112D02*
X0319606Y0193112D01*
X0319389Y0194311D02*
X0319206Y0194311D01*
X0314406Y0192688D02*
X0302406Y0204688D01*
X0302406Y0213688D01*
X0283406Y0232688D01*
X0271406Y0232688D01*
X0266686Y0227968D01*
X0266686Y0219700D01*
X0268654Y0219700D02*
X0268654Y0226936D01*
X0272406Y0230688D01*
X0282406Y0230688D01*
X0300406Y0212688D01*
X0300406Y0201188D01*
X0307406Y0194188D01*
X0304406Y0188688D02*
X0296406Y0196688D01*
X0296406Y0210688D01*
X0280406Y0226688D01*
X0274406Y0226688D01*
X0272591Y0224873D01*
X0272591Y0219700D01*
X0270623Y0219700D02*
X0270623Y0225905D01*
X0273406Y0228688D01*
X0281406Y0228688D01*
X0298406Y0211688D01*
X0298406Y0197688D01*
X0308406Y0187688D01*
X0311987Y0187120D02*
X0312050Y0187120D01*
X0311987Y0188318D02*
X0311988Y0188318D01*
X0316825Y0188318D02*
X0321988Y0188318D01*
X0322050Y0187120D02*
X0316763Y0187120D01*
X0317961Y0185921D02*
X0320851Y0185921D01*
X0319653Y0184723D02*
X0319160Y0184723D01*
X0319206Y0183524D02*
X0319606Y0183524D01*
X0319606Y0182326D02*
X0319206Y0182326D01*
X0319206Y0181127D02*
X0319606Y0181127D01*
X0320268Y0179929D02*
X0320377Y0179929D01*
X0319406Y0177688D02*
X0312406Y0177688D01*
X0304406Y0185688D01*
X0304406Y0188688D01*
X0302406Y0187688D02*
X0302406Y0184688D01*
X0314406Y0172688D01*
X0309406Y0170688D02*
X0309406Y0174688D01*
X0300406Y0183688D01*
X0300406Y0186688D01*
X0292406Y0194688D01*
X0292406Y0208688D01*
X0278406Y0222688D01*
X0277406Y0222688D01*
X0276528Y0221810D01*
X0276528Y0219700D01*
X0274560Y0219700D02*
X0274560Y0223842D01*
X0275406Y0224688D01*
X0279406Y0224688D01*
X0294406Y0209688D01*
X0294406Y0195688D01*
X0302406Y0187688D01*
X0296906Y0185188D02*
X0290406Y0191688D01*
X0290406Y0207188D01*
X0288721Y0208873D01*
X0283418Y0208873D01*
X0283418Y0206905D02*
X0287190Y0206905D01*
X0288406Y0205688D01*
X0288406Y0188688D01*
X0303906Y0173188D01*
X0305906Y0173188D01*
X0304438Y0169688D02*
X0304438Y0132657D01*
X0308406Y0128688D01*
X0311664Y0127194D02*
X0317518Y0127194D01*
X0318717Y0128393D02*
X0311987Y0128393D01*
X0311908Y0129591D02*
X0319915Y0129591D01*
X0321220Y0130790D02*
X0311369Y0130790D01*
X0309796Y0131988D02*
X0322745Y0131988D01*
X0321406Y0127688D02*
X0324906Y0127688D01*
X0321406Y0127688D02*
X0318406Y0124688D01*
X0307406Y0124688D01*
X0302406Y0129688D01*
X0302406Y0168688D01*
X0293717Y0177377D01*
X0283418Y0177377D01*
X0283418Y0175409D02*
X0292686Y0175409D01*
X0300406Y0167688D01*
X0300406Y0128688D01*
X0311406Y0117688D01*
X0324906Y0117688D01*
X0322186Y0117688D01*
X0321632Y0121202D02*
X0311287Y0121202D01*
X0319154Y0122400D02*
X0323739Y0122400D01*
X0322236Y0123599D02*
X0320711Y0123599D01*
X0307301Y0133187D02*
X0357606Y0133187D01*
X0357606Y0134385D02*
X0306838Y0134385D01*
X0306838Y0135584D02*
X0357606Y0135584D01*
X0357606Y0136782D02*
X0306838Y0136782D01*
X0306838Y0137981D02*
X0312325Y0137981D01*
X0312418Y0137888D02*
X0316394Y0137888D01*
X0319206Y0140700D01*
X0319206Y0144676D01*
X0316394Y0147488D01*
X0312418Y0147488D01*
X0309606Y0144676D01*
X0309606Y0140700D01*
X0312418Y0137888D01*
X0311127Y0139179D02*
X0306838Y0139179D01*
X0306838Y0140378D02*
X0309928Y0140378D01*
X0309606Y0141577D02*
X0306838Y0141577D01*
X0306838Y0142775D02*
X0309606Y0142775D01*
X0309606Y0143974D02*
X0306838Y0143974D01*
X0306838Y0145172D02*
X0310102Y0145172D01*
X0311300Y0146371D02*
X0306838Y0146371D01*
X0306838Y0147569D02*
X0357606Y0147569D01*
X0356406Y0134688D02*
X0356406Y0222688D01*
X0356406Y0244688D01*
X0190406Y0244688D01*
X0176406Y0244688D01*
X0048406Y0244688D01*
X0048406Y0199688D01*
X0058906Y0199688D01*
X0058706Y0199488D02*
X0059106Y0199488D01*
X0059106Y0195488D01*
X0060646Y0195488D01*
X0063106Y0197948D01*
X0063106Y0199488D01*
X0059106Y0199488D01*
X0059106Y0199888D01*
X0058706Y0199888D01*
X0058706Y0199488D01*
X0058706Y0195488D01*
X0057166Y0195488D01*
X0054706Y0197948D01*
X0054706Y0199488D01*
X0058706Y0199488D01*
X0058706Y0199105D02*
X0059106Y0199105D01*
X0058706Y0199888D02*
X0054706Y0199888D01*
X0054706Y0201428D01*
X0057166Y0203888D01*
X0058706Y0203888D01*
X0058706Y0199888D01*
X0058706Y0200304D02*
X0059106Y0200304D01*
X0059106Y0201502D02*
X0058706Y0201502D01*
X0058706Y0202701D02*
X0059106Y0202701D01*
X0060301Y0203899D02*
X0047206Y0203899D01*
X0047206Y0202701D02*
X0055979Y0202701D01*
X0054780Y0201502D02*
X0047206Y0201502D01*
X0047206Y0200304D02*
X0054706Y0200304D01*
X0054706Y0199105D02*
X0047206Y0199105D01*
X0047206Y0197907D02*
X0054748Y0197907D01*
X0055947Y0196708D02*
X0047206Y0196708D01*
X0047206Y0195510D02*
X0057145Y0195510D01*
X0057084Y0194088D02*
X0054506Y0191511D01*
X0054506Y0187866D01*
X0057084Y0185288D01*
X0060729Y0185288D01*
X0063306Y0187866D01*
X0063306Y0191511D01*
X0060729Y0194088D01*
X0057084Y0194088D01*
X0056108Y0193112D02*
X0047206Y0193112D01*
X0047206Y0191914D02*
X0054909Y0191914D01*
X0054506Y0190715D02*
X0047206Y0190715D01*
X0047206Y0189517D02*
X0054506Y0189517D01*
X0054506Y0188318D02*
X0047206Y0188318D01*
X0047206Y0187120D02*
X0055252Y0187120D01*
X0056450Y0185921D02*
X0047206Y0185921D01*
X0047206Y0184723D02*
X0101638Y0184723D01*
X0101638Y0185921D02*
X0061362Y0185921D01*
X0062560Y0187120D02*
X0101638Y0187120D01*
X0101638Y0188318D02*
X0063306Y0188318D01*
X0063306Y0189517D02*
X0101638Y0189517D01*
X0102482Y0190715D02*
X0063306Y0190715D01*
X0062903Y0191914D02*
X0177819Y0191914D01*
X0178007Y0193112D02*
X0061704Y0193112D01*
X0060667Y0195510D02*
X0177819Y0195510D01*
X0177819Y0196708D02*
X0061866Y0196708D01*
X0063064Y0197907D02*
X0177819Y0197907D01*
X0177920Y0199105D02*
X0063106Y0199105D01*
X0063106Y0200304D02*
X0177819Y0200304D01*
X0177819Y0201502D02*
X0063032Y0201502D01*
X0059106Y0197907D02*
X0058706Y0197907D01*
X0058706Y0196708D02*
X0059106Y0196708D01*
X0059106Y0195510D02*
X0058706Y0195510D01*
X0048406Y0199688D02*
X0048406Y0186688D01*
X0050914Y0184180D01*
X0050914Y0176724D01*
X0051514Y0176333D02*
X0053785Y0176333D01*
X0051514Y0177532D02*
X0050314Y0177532D01*
X0050314Y0178730D02*
X0051514Y0178730D01*
X0051514Y0179929D02*
X0050314Y0179929D01*
X0050314Y0181127D02*
X0051514Y0181127D01*
X0051514Y0182326D02*
X0050314Y0182326D01*
X0047206Y0183524D02*
X0101638Y0183524D01*
X0101638Y0182326D02*
X0077911Y0182326D01*
X0077911Y0182390D02*
X0076856Y0183445D01*
X0066704Y0183445D01*
X0065649Y0182390D01*
X0065649Y0171057D01*
X0066704Y0170002D01*
X0076856Y0170002D01*
X0077911Y0171057D01*
X0077911Y0182390D01*
X0077911Y0181127D02*
X0101638Y0181127D01*
X0102214Y0179929D02*
X0077911Y0179929D01*
X0077911Y0178730D02*
X0103470Y0178730D01*
X0104668Y0177532D02*
X0077911Y0177532D01*
X0077911Y0176333D02*
X0105867Y0176333D01*
X0107065Y0175135D02*
X0077911Y0175135D01*
X0077911Y0173936D02*
X0108264Y0173936D01*
X0109462Y0172738D02*
X0077911Y0172738D01*
X0077911Y0171539D02*
X0083298Y0171539D01*
X0082099Y0170341D02*
X0077195Y0170341D01*
X0083556Y0163338D02*
X0086906Y0166688D01*
X0132406Y0166688D01*
X0139406Y0159688D01*
X0169406Y0159688D01*
X0191406Y0181688D01*
X0191406Y0220688D01*
X0196406Y0225688D01*
X0196406Y0237688D01*
X0199406Y0240688D01*
X0224906Y0240688D01*
X0239127Y0226468D01*
X0239127Y0219700D01*
X0241095Y0219700D02*
X0241095Y0228999D01*
X0233406Y0236688D01*
X0237435Y0241053D02*
X0237825Y0241053D01*
X0238178Y0242251D02*
X0236237Y0242251D01*
X0235038Y0243450D02*
X0239104Y0243450D01*
X0241406Y0240688D02*
X0252906Y0229188D01*
X0252906Y0219700D01*
X0255306Y0224274D02*
X0262317Y0224274D01*
X0262317Y0225472D02*
X0255306Y0225472D01*
X0255306Y0226671D02*
X0262317Y0226671D01*
X0262317Y0227869D02*
X0255306Y0227869D01*
X0255306Y0229068D02*
X0262317Y0229068D01*
X0262644Y0230266D02*
X0255057Y0230266D01*
X0254024Y0231465D02*
X0263789Y0231465D01*
X0264987Y0232663D02*
X0252825Y0232663D01*
X0251627Y0233862D02*
X0266186Y0233862D01*
X0267384Y0235060D02*
X0250428Y0235060D01*
X0249230Y0236259D02*
X0268583Y0236259D01*
X0270406Y0234688D02*
X0284406Y0234688D01*
X0304406Y0214688D01*
X0308406Y0218688D02*
X0308406Y0208688D01*
X0314406Y0202688D02*
X0319406Y0207688D01*
X0327199Y0208693D02*
X0357606Y0208693D01*
X0357606Y0209892D02*
X0328398Y0209892D01*
X0329206Y0211090D02*
X0357606Y0211090D01*
X0357606Y0212289D02*
X0329206Y0212289D01*
X0329206Y0213487D02*
X0357606Y0213487D01*
X0357606Y0214686D02*
X0329197Y0214686D01*
X0327998Y0215884D02*
X0357606Y0215884D01*
X0357606Y0217083D02*
X0326800Y0217083D01*
X0326505Y0218281D02*
X0357606Y0218281D01*
X0357606Y0219480D02*
X0327703Y0219480D01*
X0328902Y0220678D02*
X0357606Y0220678D01*
X0357606Y0221877D02*
X0329006Y0221877D01*
X0329006Y0224274D02*
X0357606Y0224274D01*
X0357606Y0225472D02*
X0328127Y0225472D01*
X0326929Y0226671D02*
X0357606Y0226671D01*
X0357606Y0227869D02*
X0294619Y0227869D01*
X0295818Y0226671D02*
X0311883Y0226671D01*
X0312418Y0227888D02*
X0316394Y0227888D01*
X0317794Y0229288D01*
X0321018Y0229288D01*
X0322418Y0227888D01*
X0326394Y0227888D01*
X0329206Y0230700D01*
X0329206Y0234676D01*
X0326394Y0237488D01*
X0322418Y0237488D01*
X0321018Y0236088D01*
X0317794Y0236088D01*
X0316394Y0237488D01*
X0312418Y0237488D01*
X0309606Y0234676D01*
X0309606Y0230700D01*
X0312418Y0227888D01*
X0311238Y0229068D02*
X0293421Y0229068D01*
X0292222Y0230266D02*
X0310040Y0230266D01*
X0309606Y0231465D02*
X0291024Y0231465D01*
X0289825Y0232663D02*
X0309606Y0232663D01*
X0309606Y0233862D02*
X0288627Y0233862D01*
X0287428Y0235060D02*
X0309990Y0235060D01*
X0311189Y0236259D02*
X0286230Y0236259D01*
X0297016Y0225472D02*
X0310685Y0225472D01*
X0309806Y0224274D02*
X0298215Y0224274D01*
X0311987Y0218281D02*
X0312308Y0218281D01*
X0312013Y0217083D02*
X0311617Y0217083D01*
X0310814Y0215884D02*
X0310806Y0215884D01*
X0314006Y0218281D02*
X0314806Y0218281D01*
X0314806Y0219480D02*
X0314006Y0219480D01*
X0314006Y0220678D02*
X0314806Y0220678D01*
X0314806Y0221877D02*
X0314006Y0221877D01*
X0314006Y0224274D02*
X0314806Y0224274D01*
X0314806Y0225472D02*
X0314006Y0225472D01*
X0314006Y0226671D02*
X0314806Y0226671D01*
X0316929Y0226671D02*
X0321883Y0226671D01*
X0320685Y0225472D02*
X0318127Y0225472D01*
X0319006Y0224274D02*
X0319806Y0224274D01*
X0319806Y0221877D02*
X0319006Y0221877D01*
X0324006Y0224274D02*
X0324806Y0224274D01*
X0324806Y0225472D02*
X0324006Y0225472D01*
X0324006Y0226671D02*
X0324806Y0226671D01*
X0327574Y0229068D02*
X0357606Y0229068D01*
X0357606Y0230266D02*
X0328773Y0230266D01*
X0329206Y0231465D02*
X0357606Y0231465D01*
X0357606Y0232663D02*
X0329206Y0232663D01*
X0329206Y0233862D02*
X0357606Y0233862D01*
X0357606Y0235060D02*
X0328822Y0235060D01*
X0327624Y0236259D02*
X0357606Y0236259D01*
X0357606Y0237457D02*
X0326425Y0237457D01*
X0322387Y0237457D02*
X0316425Y0237457D01*
X0317624Y0236259D02*
X0321189Y0236259D01*
X0321238Y0229068D02*
X0317574Y0229068D01*
X0324806Y0223075D02*
X0357606Y0223075D01*
X0357606Y0238656D02*
X0246832Y0238656D01*
X0245634Y0239854D02*
X0357606Y0239854D01*
X0357606Y0241053D02*
X0244987Y0241053D01*
X0244635Y0242251D02*
X0357606Y0242251D01*
X0357606Y0243450D02*
X0243709Y0243450D01*
X0248031Y0237457D02*
X0312387Y0237457D01*
X0281816Y0215884D02*
X0278211Y0215884D01*
X0278406Y0214686D02*
X0231084Y0214686D01*
X0231684Y0214686D02*
X0265839Y0214686D01*
X0264927Y0211090D02*
X0231084Y0211090D01*
X0231253Y0210842D02*
X0235406Y0206688D01*
X0231684Y0208693D02*
X0265837Y0208693D01*
X0265487Y0209892D02*
X0231084Y0209892D01*
X0231684Y0209892D02*
X0264774Y0209892D01*
X0264717Y0219700D02*
X0264717Y0228999D01*
X0270406Y0234688D01*
X0247906Y0227188D02*
X0245032Y0224314D01*
X0245032Y0219700D01*
X0243064Y0219700D02*
X0243064Y0232031D01*
X0232406Y0242688D01*
X0198406Y0242688D01*
X0194406Y0238688D01*
X0194406Y0226688D01*
X0189406Y0221688D01*
X0189406Y0182688D01*
X0169406Y0162688D01*
X0167406Y0162688D01*
X0169406Y0165688D02*
X0185406Y0181688D01*
X0185406Y0183188D01*
X0181406Y0184688D02*
X0181406Y0180688D01*
X0168406Y0167688D01*
X0142406Y0167688D01*
X0132406Y0177688D01*
X0113906Y0177688D01*
X0111406Y0180188D01*
X0111406Y0185188D01*
X0111312Y0185188D01*
X0105406Y0185188D02*
X0105406Y0180188D01*
X0110906Y0174688D01*
X0132406Y0174688D01*
X0141406Y0165688D01*
X0169406Y0165688D01*
X0167406Y0169688D02*
X0146406Y0169688D01*
X0144406Y0171688D01*
X0144406Y0174688D01*
X0143901Y0174588D02*
X0145101Y0174588D01*
X0145101Y0175788D01*
X0149250Y0175788D01*
X0149250Y0178155D01*
X0149141Y0178562D01*
X0148931Y0178926D01*
X0148633Y0179224D01*
X0148268Y0179435D01*
X0148208Y0179451D01*
X0149459Y0179451D01*
X0149697Y0179690D01*
X0149936Y0179451D01*
X0152124Y0179451D01*
X0151362Y0178690D01*
X0151362Y0171687D01*
X0152416Y0170632D01*
X0160207Y0170632D01*
X0160363Y0170788D01*
X0167384Y0170788D01*
X0168266Y0171154D01*
X0168941Y0171829D01*
X0171290Y0174178D01*
X0171652Y0174328D01*
X0167412Y0170088D01*
X0143400Y0170088D01*
X0142656Y0170832D01*
X0143901Y0170832D01*
X0143901Y0174588D01*
X0139751Y0174588D01*
X0139751Y0173737D01*
X0134037Y0179451D01*
X0137648Y0179451D01*
X0137886Y0179690D01*
X0138125Y0179451D01*
X0140794Y0179451D01*
X0140733Y0179435D01*
X0140369Y0179224D01*
X0140071Y0178926D01*
X0139860Y0178562D01*
X0139751Y0178155D01*
X0139751Y0175788D01*
X0143901Y0175788D01*
X0143901Y0174588D01*
X0143901Y0175135D02*
X0138354Y0175135D01*
X0139552Y0173936D02*
X0139751Y0173936D01*
X0139751Y0176333D02*
X0137155Y0176333D01*
X0135957Y0177532D02*
X0139751Y0177532D01*
X0139958Y0178730D02*
X0134758Y0178730D01*
X0143901Y0173936D02*
X0145101Y0173936D01*
X0145101Y0174588D02*
X0145101Y0170832D01*
X0147861Y0170832D01*
X0148268Y0170941D01*
X0148633Y0171152D01*
X0148931Y0171450D01*
X0149141Y0171815D01*
X0149250Y0172222D01*
X0149250Y0174588D01*
X0145101Y0174588D01*
X0145101Y0175135D02*
X0151362Y0175135D01*
X0151362Y0176333D02*
X0149250Y0176333D01*
X0149250Y0177532D02*
X0151362Y0177532D01*
X0151403Y0178730D02*
X0149044Y0178730D01*
X0149250Y0173936D02*
X0151362Y0173936D01*
X0151362Y0172738D02*
X0149250Y0172738D01*
X0148982Y0171539D02*
X0151509Y0171539D01*
X0145101Y0171539D02*
X0143901Y0171539D01*
X0143901Y0172738D02*
X0145101Y0172738D01*
X0143148Y0170341D02*
X0167665Y0170341D01*
X0167406Y0169688D02*
X0176272Y0178554D01*
X0176272Y0185188D01*
X0175888Y0184804D02*
X0176657Y0184804D01*
X0176657Y0179651D01*
X0176975Y0179651D01*
X0173766Y0176442D01*
X0173987Y0176976D01*
X0173987Y0178400D01*
X0173806Y0178838D01*
X0173806Y0179728D01*
X0174093Y0179651D01*
X0175888Y0179651D01*
X0175888Y0184804D01*
X0175888Y0184723D02*
X0176657Y0184723D01*
X0176657Y0185921D02*
X0175888Y0185921D01*
X0175888Y0187120D02*
X0176657Y0187120D01*
X0176657Y0188318D02*
X0175888Y0188318D01*
X0175888Y0189517D02*
X0176657Y0189517D01*
X0176657Y0190715D02*
X0175888Y0190715D01*
X0174057Y0190715D02*
X0173291Y0190715D01*
X0167443Y0190715D02*
X0167385Y0190715D01*
X0161538Y0190715D02*
X0161480Y0190715D01*
X0155632Y0190715D02*
X0155574Y0190715D01*
X0149726Y0190715D02*
X0149669Y0190715D01*
X0143821Y0190715D02*
X0143763Y0190715D01*
X0137915Y0190715D02*
X0137857Y0190715D01*
X0132010Y0190715D02*
X0131952Y0190715D01*
X0126104Y0190715D02*
X0126046Y0190715D01*
X0120199Y0190715D02*
X0120141Y0190715D01*
X0114293Y0190715D02*
X0114235Y0190715D01*
X0108388Y0190715D02*
X0108330Y0190715D01*
X0110406Y0208688D02*
X0077906Y0208688D01*
X0058906Y0227688D01*
X0054506Y0227869D02*
X0047206Y0227869D01*
X0047206Y0226671D02*
X0054506Y0226671D01*
X0054899Y0225472D02*
X0047206Y0225472D01*
X0047206Y0224274D02*
X0056098Y0224274D01*
X0057071Y0223075D02*
X0047206Y0223075D01*
X0047206Y0221877D02*
X0055872Y0221877D01*
X0054674Y0220678D02*
X0047206Y0220678D01*
X0047206Y0219480D02*
X0054506Y0219480D01*
X0054506Y0218281D02*
X0047206Y0218281D01*
X0047206Y0217083D02*
X0054506Y0217083D01*
X0055488Y0215884D02*
X0047206Y0215884D01*
X0047206Y0214686D02*
X0056686Y0214686D01*
X0056284Y0212289D02*
X0047206Y0212289D01*
X0047206Y0213487D02*
X0069713Y0213487D01*
X0070912Y0212289D02*
X0061528Y0212289D01*
X0062727Y0211090D02*
X0072110Y0211090D01*
X0073309Y0209892D02*
X0063306Y0209892D01*
X0063306Y0208693D02*
X0074507Y0208693D01*
X0075706Y0207495D02*
X0063494Y0207495D01*
X0062906Y0204688D02*
X0058906Y0208688D01*
X0054506Y0208693D02*
X0047206Y0208693D01*
X0047206Y0207495D02*
X0054506Y0207495D01*
X0055076Y0206296D02*
X0047206Y0206296D01*
X0047206Y0205098D02*
X0056274Y0205098D01*
X0054506Y0209892D02*
X0047206Y0209892D01*
X0047206Y0211090D02*
X0055086Y0211090D01*
X0061126Y0214686D02*
X0068515Y0214686D01*
X0067316Y0215884D02*
X0062325Y0215884D01*
X0063306Y0217083D02*
X0066117Y0217083D01*
X0064919Y0218281D02*
X0063306Y0218281D01*
X0063306Y0219480D02*
X0063720Y0219480D01*
X0066913Y0223075D02*
X0114817Y0223075D01*
X0114817Y0221877D02*
X0068112Y0221877D01*
X0069310Y0220678D02*
X0114817Y0220678D01*
X0114817Y0219480D02*
X0070509Y0219480D01*
X0071707Y0218281D02*
X0114817Y0218281D01*
X0114817Y0217083D02*
X0072906Y0217083D01*
X0074104Y0215884D02*
X0114208Y0215884D01*
X0113010Y0214686D02*
X0075303Y0214686D01*
X0076501Y0213487D02*
X0111811Y0213487D01*
X0110613Y0212289D02*
X0077700Y0212289D01*
X0078898Y0211090D02*
X0109414Y0211090D01*
X0110406Y0208688D02*
X0117217Y0215499D01*
X0117217Y0236369D01*
X0114817Y0230266D02*
X0062550Y0230266D01*
X0063306Y0229068D02*
X0114817Y0229068D01*
X0114817Y0227869D02*
X0063306Y0227869D01*
X0063318Y0226671D02*
X0114817Y0226671D01*
X0114817Y0225472D02*
X0064516Y0225472D01*
X0065715Y0224274D02*
X0114817Y0224274D01*
X0101859Y0231465D02*
X0061352Y0231465D01*
X0060729Y0233288D02*
X0063306Y0235866D01*
X0063306Y0239511D01*
X0060729Y0242088D01*
X0057084Y0242088D01*
X0054506Y0239511D01*
X0054506Y0235866D01*
X0057084Y0233288D01*
X0060729Y0233288D01*
X0061302Y0233862D02*
X0101638Y0233862D01*
X0101638Y0232663D02*
X0047206Y0232663D01*
X0047206Y0231465D02*
X0056460Y0231465D01*
X0055262Y0230266D02*
X0047206Y0230266D01*
X0047206Y0229068D02*
X0054506Y0229068D01*
X0056510Y0233862D02*
X0047206Y0233862D01*
X0047206Y0235060D02*
X0055311Y0235060D01*
X0054506Y0236259D02*
X0047206Y0236259D01*
X0047206Y0237457D02*
X0054506Y0237457D01*
X0054506Y0238656D02*
X0047206Y0238656D01*
X0047206Y0239854D02*
X0054850Y0239854D01*
X0056048Y0241053D02*
X0047206Y0241053D01*
X0047206Y0242251D02*
X0194575Y0242251D01*
X0193377Y0241053D02*
X0179657Y0241053D01*
X0179732Y0240924D02*
X0179521Y0241289D01*
X0179223Y0241587D01*
X0178858Y0241797D01*
X0178451Y0241906D01*
X0176657Y0241906D01*
X0176657Y0236754D01*
X0179841Y0236754D01*
X0179841Y0240517D01*
X0179732Y0240924D01*
X0179841Y0239854D02*
X0192292Y0239854D01*
X0192006Y0238656D02*
X0179841Y0238656D01*
X0179841Y0237457D02*
X0192006Y0237457D01*
X0192006Y0236259D02*
X0176657Y0236259D01*
X0176657Y0237457D02*
X0175888Y0237457D01*
X0175888Y0238656D02*
X0176657Y0238656D01*
X0176657Y0239854D02*
X0175888Y0239854D01*
X0175888Y0241053D02*
X0176657Y0241053D01*
X0176657Y0235060D02*
X0175888Y0235060D01*
X0175888Y0233862D02*
X0176657Y0233862D01*
X0176657Y0232663D02*
X0175888Y0232663D01*
X0175888Y0231465D02*
X0176657Y0231465D01*
X0178019Y0230266D02*
X0166861Y0230266D01*
X0166870Y0229068D02*
X0178073Y0229068D01*
X0177819Y0227869D02*
X0166481Y0227869D01*
X0165349Y0226671D02*
X0177819Y0226671D01*
X0177819Y0225472D02*
X0164238Y0225472D01*
X0163127Y0224274D02*
X0177819Y0224274D01*
X0177819Y0223075D02*
X0162016Y0223075D01*
X0160905Y0221877D02*
X0177819Y0221877D01*
X0177819Y0220678D02*
X0159794Y0220678D01*
X0158683Y0219480D02*
X0177819Y0219480D01*
X0177819Y0218281D02*
X0157572Y0218281D01*
X0156461Y0217083D02*
X0177819Y0217083D01*
X0177819Y0215884D02*
X0155350Y0215884D01*
X0154239Y0214686D02*
X0177819Y0214686D01*
X0177819Y0213487D02*
X0153128Y0213487D01*
X0152017Y0212289D02*
X0177819Y0212289D01*
X0177819Y0211090D02*
X0150905Y0211090D01*
X0149794Y0209892D02*
X0177819Y0209892D01*
X0177819Y0208693D02*
X0148683Y0208693D01*
X0147572Y0207495D02*
X0177819Y0207495D01*
X0177819Y0206296D02*
X0146408Y0206296D01*
X0145210Y0205098D02*
X0177833Y0205098D01*
X0177819Y0203899D02*
X0144011Y0203899D01*
X0142813Y0202701D02*
X0177819Y0202701D01*
X0177819Y0194311D02*
X0047206Y0194311D01*
X0048406Y0186688D02*
X0048406Y0186224D01*
X0056699Y0182326D02*
X0065649Y0182326D01*
X0065649Y0181127D02*
X0056845Y0181127D01*
X0056845Y0179929D02*
X0065649Y0179929D01*
X0065649Y0178730D02*
X0056845Y0178730D01*
X0056845Y0177532D02*
X0065649Y0177532D01*
X0065649Y0176333D02*
X0063692Y0176333D01*
X0063934Y0175135D02*
X0065649Y0175135D01*
X0065649Y0173936D02*
X0063934Y0173936D01*
X0063934Y0172738D02*
X0065649Y0172738D01*
X0065649Y0171539D02*
X0063934Y0171539D01*
X0065362Y0170341D02*
X0066365Y0170341D01*
X0072764Y0163338D02*
X0083556Y0163338D01*
X0091406Y0160688D02*
X0085406Y0154688D01*
X0085406Y0122688D01*
X0070406Y0107688D01*
X0072172Y0103224D02*
X0073906Y0103224D01*
X0073906Y0102026D02*
X0072478Y0102026D01*
X0099475Y0098430D02*
X0153506Y0098430D01*
X0153506Y0097232D02*
X0099487Y0097232D01*
X0099097Y0096033D02*
X0153506Y0096033D01*
X0153506Y0094835D02*
X0107502Y0094835D01*
X0108701Y0093636D02*
X0153506Y0093636D01*
X0153506Y0092438D02*
X0109899Y0092438D01*
X0113675Y0091239D02*
X0121948Y0091239D01*
X0122654Y0091531D02*
X0120690Y0090718D01*
X0119187Y0089215D01*
X0118374Y0087251D01*
X0118374Y0085125D01*
X0119187Y0083161D01*
X0120690Y0081658D01*
X0122654Y0080845D01*
X0124780Y0080845D01*
X0126744Y0081658D01*
X0128247Y0083161D01*
X0129060Y0085125D01*
X0129060Y0087251D01*
X0128247Y0089215D01*
X0126744Y0090718D01*
X0124780Y0091531D01*
X0122654Y0091531D01*
X0125486Y0091239D02*
X0153506Y0091239D01*
X0153506Y0090041D02*
X0127421Y0090041D01*
X0128401Y0088842D02*
X0153506Y0088842D01*
X0153506Y0087644D02*
X0128898Y0087644D01*
X0129060Y0086445D02*
X0153506Y0086445D01*
X0153506Y0085246D02*
X0129060Y0085246D01*
X0128614Y0084048D02*
X0153202Y0084048D01*
X0152511Y0082849D02*
X0127935Y0082849D01*
X0126726Y0081651D02*
X0152325Y0081651D01*
X0155906Y0081688D02*
X0155906Y0099188D01*
X0162406Y0105688D01*
X0167906Y0105688D01*
X0200406Y0138188D01*
X0205906Y0138188D01*
X0218938Y0151220D01*
X0247906Y0151220D01*
X0250938Y0154251D01*
X0250938Y0158676D01*
X0252906Y0158676D02*
X0252906Y0153188D01*
X0248906Y0149188D01*
X0219906Y0149188D01*
X0206906Y0136188D01*
X0201406Y0136188D01*
X0169906Y0104688D01*
X0169906Y0091688D01*
X0162406Y0084188D01*
X0162406Y0081688D01*
X0162406Y0067688D01*
X0156806Y0067269D02*
X0135753Y0067269D01*
X0135753Y0068467D02*
X0156806Y0068467D01*
X0156806Y0069666D02*
X0135753Y0069666D01*
X0135753Y0070864D02*
X0156806Y0070864D01*
X0156806Y0072063D02*
X0135753Y0072063D01*
X0135753Y0073261D02*
X0156806Y0073261D01*
X0156806Y0074460D02*
X0135753Y0074460D01*
X0135218Y0075658D02*
X0156806Y0075658D01*
X0165770Y0080452D02*
X0169042Y0080452D01*
X0168825Y0081651D02*
X0165987Y0081651D01*
X0165801Y0082849D02*
X0169011Y0082849D01*
X0169702Y0084048D02*
X0165660Y0084048D01*
X0166859Y0085246D02*
X0170006Y0085246D01*
X0170006Y0086445D02*
X0168057Y0086445D01*
X0169256Y0087644D02*
X0170006Y0087644D01*
X0174806Y0087644D02*
X0227006Y0087644D01*
X0227006Y0088842D02*
X0174806Y0088842D01*
X0174806Y0090041D02*
X0227006Y0090041D01*
X0227006Y0091239D02*
X0174806Y0091239D01*
X0174806Y0092438D02*
X0227006Y0092438D01*
X0227006Y0093636D02*
X0174806Y0093636D01*
X0174806Y0094835D02*
X0227006Y0094835D01*
X0227006Y0096033D02*
X0174806Y0096033D01*
X0174806Y0097232D02*
X0186967Y0097232D01*
X0186476Y0098430D02*
X0174806Y0098430D01*
X0174806Y0099629D02*
X0186476Y0099629D01*
X0186476Y0100827D02*
X0174806Y0100827D01*
X0174806Y0102026D02*
X0186476Y0102026D01*
X0186476Y0103224D02*
X0174836Y0103224D01*
X0176035Y0104423D02*
X0186476Y0104423D01*
X0186476Y0105621D02*
X0177233Y0105621D01*
X0178432Y0106820D02*
X0186476Y0106820D01*
X0186476Y0108018D02*
X0179630Y0108018D01*
X0180829Y0109217D02*
X0186476Y0109217D01*
X0186476Y0110415D02*
X0182027Y0110415D01*
X0183226Y0111614D02*
X0187459Y0111614D01*
X0185623Y0114011D02*
X0210506Y0114011D01*
X0210506Y0115209D02*
X0210004Y0115209D01*
X0210506Y0112812D02*
X0184424Y0112812D01*
X0186821Y0115209D02*
X0202847Y0115209D01*
X0201870Y0116408D02*
X0188020Y0116408D01*
X0189218Y0117606D02*
X0201870Y0117606D01*
X0201870Y0118805D02*
X0190417Y0118805D01*
X0191615Y0120003D02*
X0201870Y0120003D01*
X0201870Y0121202D02*
X0192814Y0121202D01*
X0194012Y0122400D02*
X0201870Y0122400D01*
X0202279Y0123599D02*
X0195211Y0123599D01*
X0196409Y0124797D02*
X0202899Y0124797D01*
X0202825Y0125996D02*
X0197608Y0125996D01*
X0198806Y0127194D02*
X0203154Y0127194D01*
X0204046Y0128393D02*
X0200005Y0128393D01*
X0201204Y0129591D02*
X0213001Y0129591D01*
X0211803Y0128393D02*
X0208766Y0128393D01*
X0209658Y0127194D02*
X0210850Y0127194D01*
X0210506Y0125996D02*
X0209987Y0125996D01*
X0209913Y0124797D02*
X0210506Y0124797D01*
X0214200Y0130790D02*
X0202402Y0130790D01*
X0202406Y0134188D02*
X0207906Y0134188D01*
X0220906Y0147188D01*
X0249906Y0147188D01*
X0254875Y0152157D01*
X0254875Y0158676D01*
X0258812Y0158676D02*
X0258812Y0150283D01*
X0258906Y0148688D01*
X0266686Y0155968D02*
X0266686Y0158676D01*
X0264717Y0158676D02*
X0264717Y0171688D01*
X0265512Y0169142D02*
X0254016Y0169142D01*
X0253168Y0169142D02*
X0266361Y0169142D01*
X0265416Y0167944D02*
X0254113Y0167944D01*
X0254762Y0167944D02*
X0264767Y0167944D01*
X0264542Y0166745D02*
X0254987Y0166745D01*
X0254387Y0166745D02*
X0265142Y0166745D01*
X0265369Y0165547D02*
X0254160Y0165547D01*
X0254810Y0165547D02*
X0264719Y0165547D01*
X0265398Y0164348D02*
X0254131Y0164348D01*
X0253282Y0164348D02*
X0266247Y0164348D01*
X0267307Y0163150D02*
X0252221Y0163150D01*
X0248969Y0164251D02*
X0251406Y0166688D01*
X0248425Y0166745D02*
X0240887Y0166745D01*
X0241487Y0166745D02*
X0247825Y0166745D01*
X0247719Y0165547D02*
X0240927Y0165547D01*
X0241527Y0165547D02*
X0246908Y0165547D01*
X0247169Y0164348D02*
X0240927Y0164348D01*
X0241527Y0164348D02*
X0246569Y0164348D01*
X0246569Y0163150D02*
X0241527Y0163150D01*
X0239127Y0165468D02*
X0237906Y0166688D01*
X0236784Y0165566D01*
X0222394Y0165566D01*
X0222394Y0164700D01*
X0225406Y0161688D01*
X0225406Y0154688D01*
X0223006Y0158356D02*
X0211968Y0158356D01*
X0213166Y0159554D02*
X0223006Y0159554D01*
X0222948Y0160753D02*
X0214365Y0160753D01*
X0215563Y0161951D02*
X0221749Y0161951D01*
X0220550Y0163150D02*
X0216762Y0163150D01*
X0217306Y0164348D02*
X0218232Y0164348D01*
X0218232Y0165547D02*
X0217306Y0165547D01*
X0217406Y0165688D02*
X0217406Y0160688D01*
X0216235Y0157157D02*
X0210769Y0157157D01*
X0209571Y0155959D02*
X0214434Y0155959D01*
X0213235Y0154760D02*
X0208372Y0154760D01*
X0207174Y0153562D02*
X0212037Y0153562D01*
X0210838Y0152363D02*
X0206941Y0152363D01*
X0206444Y0151165D02*
X0209640Y0151165D01*
X0208441Y0149966D02*
X0204985Y0149966D01*
X0207243Y0148768D02*
X0197880Y0148768D01*
X0199078Y0149966D02*
X0201827Y0149966D01*
X0200368Y0151165D02*
X0200277Y0151165D01*
X0203406Y0153188D02*
X0214906Y0164688D01*
X0214906Y0168688D01*
X0219658Y0173440D01*
X0222394Y0173440D01*
X0222394Y0177377D02*
X0217095Y0177377D01*
X0215406Y0175688D01*
X0215406Y0173688D01*
X0211906Y0175188D02*
X0211906Y0166188D01*
X0179406Y0133688D01*
X0160906Y0133688D01*
X0129406Y0102188D01*
X0117536Y0102188D01*
X0121377Y0104830D02*
X0121572Y0105025D01*
X0121783Y0105389D01*
X0121892Y0105796D01*
X0121892Y0107188D01*
X0117536Y0107188D01*
X0117536Y0107188D01*
X0121892Y0107188D01*
X0121892Y0108580D01*
X0121783Y0108987D01*
X0121572Y0109352D01*
X0121377Y0109547D01*
X0122092Y0110261D01*
X0122092Y0114115D01*
X0121519Y0114688D01*
X0121619Y0114788D01*
X0138612Y0114788D01*
X0128412Y0104588D01*
X0121619Y0104588D01*
X0121377Y0104830D01*
X0121845Y0105621D02*
X0129445Y0105621D01*
X0130644Y0106820D02*
X0121892Y0106820D01*
X0121892Y0108018D02*
X0131842Y0108018D01*
X0133041Y0109217D02*
X0121650Y0109217D01*
X0122092Y0110415D02*
X0134239Y0110415D01*
X0135438Y0111614D02*
X0122092Y0111614D01*
X0122092Y0112812D02*
X0136636Y0112812D01*
X0137835Y0114011D02*
X0122092Y0114011D01*
X0117536Y0117188D02*
X0139906Y0117188D01*
X0159406Y0136688D01*
X0179406Y0136688D01*
X0209906Y0167188D01*
X0209906Y0176188D01*
X0217001Y0183283D01*
X0222394Y0183283D01*
X0222394Y0181314D02*
X0218032Y0181314D01*
X0211906Y0175188D01*
X0208406Y0179188D02*
X0218406Y0189188D01*
X0222394Y0189188D01*
X0222394Y0191157D02*
X0217375Y0191157D01*
X0214406Y0188188D01*
X0212906Y0188188D01*
X0208406Y0183688D01*
X0208406Y0188188D02*
X0210406Y0190188D01*
X0212906Y0190188D01*
X0215843Y0193125D01*
X0222394Y0193125D01*
X0222394Y0195094D02*
X0214812Y0195094D01*
X0211906Y0192188D01*
X0207906Y0192188D01*
X0205406Y0189688D01*
X0205406Y0175188D01*
X0206406Y0174188D01*
X0203406Y0171188D02*
X0204406Y0170188D01*
X0203406Y0171188D02*
X0203406Y0190688D01*
X0206906Y0194188D01*
X0210906Y0194188D01*
X0213780Y0197062D01*
X0222394Y0197062D01*
X0222394Y0199031D02*
X0210749Y0199031D01*
X0209406Y0197688D01*
X0207717Y0200999D02*
X0222394Y0200999D01*
X0229284Y0205310D02*
X0230406Y0204188D01*
X0229284Y0205310D02*
X0229284Y0219700D01*
X0227394Y0219700D01*
X0225406Y0221688D01*
X0227885Y0224274D02*
X0230926Y0224274D01*
X0233840Y0244648D02*
X0357606Y0244648D01*
X0357606Y0245847D02*
X0047206Y0245847D01*
X0047206Y0244648D02*
X0196972Y0244648D01*
X0195774Y0243450D02*
X0047206Y0243450D01*
X0061764Y0241053D02*
X0099172Y0241053D01*
X0097508Y0239854D02*
X0062962Y0239854D01*
X0063306Y0238656D02*
X0096931Y0238656D01*
X0096825Y0237457D02*
X0063306Y0237457D01*
X0063306Y0236259D02*
X0097122Y0236259D01*
X0097969Y0235060D02*
X0062501Y0235060D01*
X0100406Y0237688D02*
X0104087Y0237688D01*
X0105406Y0236369D01*
X0141406Y0204688D02*
X0145406Y0208688D01*
X0164461Y0229243D01*
X0164461Y0236369D01*
X0179841Y0235060D02*
X0192006Y0235060D01*
X0192006Y0233862D02*
X0188242Y0233862D01*
X0188305Y0232663D02*
X0192006Y0232663D01*
X0192006Y0231465D02*
X0183546Y0231465D01*
X0182778Y0231465D02*
X0179530Y0231465D01*
X0182778Y0232663D02*
X0183546Y0232663D01*
X0183546Y0233862D02*
X0182778Y0233862D01*
X0188305Y0230266D02*
X0192006Y0230266D01*
X0192006Y0229068D02*
X0188252Y0229068D01*
X0188505Y0227869D02*
X0192006Y0227869D01*
X0190995Y0226671D02*
X0188505Y0226671D01*
X0188505Y0225472D02*
X0189796Y0225472D01*
X0188598Y0224274D02*
X0188505Y0224274D01*
X0197406Y0200188D02*
X0197406Y0178688D01*
X0172406Y0153688D01*
X0136406Y0153688D01*
X0129406Y0160688D01*
X0091406Y0160688D01*
X0080506Y0149966D02*
X0077264Y0149966D01*
X0077911Y0148768D02*
X0080506Y0148768D01*
X0080506Y0147569D02*
X0077911Y0147569D01*
X0077911Y0146371D02*
X0080506Y0146371D01*
X0080506Y0145172D02*
X0077911Y0145172D01*
X0077911Y0143974D02*
X0080506Y0143974D01*
X0080506Y0142775D02*
X0077911Y0142775D01*
X0077911Y0141577D02*
X0080506Y0141577D01*
X0080506Y0140378D02*
X0077911Y0140378D01*
X0077911Y0139179D02*
X0080506Y0139179D01*
X0080506Y0137981D02*
X0077906Y0137981D01*
X0072764Y0152363D02*
X0072764Y0152363D01*
X0072764Y0153562D02*
X0072764Y0153562D01*
X0048406Y0127688D02*
X0048406Y0054688D01*
X0070406Y0054688D01*
X0070006Y0058879D02*
X0070806Y0058879D01*
X0070806Y0060078D02*
X0070006Y0060078D01*
X0070006Y0061276D02*
X0070806Y0061276D01*
X0070806Y0062475D02*
X0075606Y0062475D01*
X0075000Y0063088D02*
X0074893Y0063765D01*
X0074669Y0064454D01*
X0074340Y0065099D01*
X0073915Y0065685D01*
X0073403Y0066197D01*
X0072817Y0066622D01*
X0072172Y0066951D01*
X0071483Y0067175D01*
X0070806Y0067282D01*
X0070806Y0063088D01*
X0075000Y0063088D01*
X0074907Y0063673D02*
X0075619Y0063673D01*
X0076115Y0064872D02*
X0074456Y0064872D01*
X0073529Y0066070D02*
X0077000Y0066070D01*
X0078922Y0067269D02*
X0070890Y0067269D01*
X0070806Y0067269D02*
X0070006Y0067269D01*
X0070006Y0066070D02*
X0070806Y0066070D01*
X0070806Y0064872D02*
X0070006Y0064872D01*
X0070006Y0063673D02*
X0070806Y0063673D01*
X0070006Y0062475D02*
X0047206Y0062475D01*
X0047206Y0056482D02*
X0088059Y0056482D01*
X0088059Y0055284D02*
X0047206Y0055284D01*
X0047206Y0054085D02*
X0088059Y0054085D01*
X0077427Y0058879D02*
X0072990Y0058879D01*
X0074195Y0060078D02*
X0076292Y0060078D01*
X0075796Y0061276D02*
X0074784Y0061276D01*
X0072759Y0068467D02*
X0078053Y0068467D01*
X0076640Y0069666D02*
X0074172Y0069666D01*
X0074846Y0070864D02*
X0075966Y0070864D01*
X0075606Y0072063D02*
X0075206Y0072063D01*
X0075206Y0073261D02*
X0075606Y0073261D01*
X0075945Y0074460D02*
X0074868Y0074460D01*
X0103104Y0081651D02*
X0108897Y0081651D01*
X0107688Y0082849D02*
X0104313Y0082849D01*
X0104992Y0084048D02*
X0107009Y0084048D01*
X0106563Y0085246D02*
X0105438Y0085246D01*
X0105438Y0086445D02*
X0106563Y0086445D01*
X0106208Y0087644D02*
X0105276Y0087644D01*
X0105010Y0088842D02*
X0104779Y0088842D01*
X0115610Y0090041D02*
X0120013Y0090041D01*
X0119033Y0088842D02*
X0116590Y0088842D01*
X0117087Y0087644D02*
X0118536Y0087644D01*
X0118374Y0086445D02*
X0117249Y0086445D01*
X0117249Y0085246D02*
X0118374Y0085246D01*
X0118820Y0084048D02*
X0116803Y0084048D01*
X0116124Y0082849D02*
X0119499Y0082849D01*
X0120708Y0081651D02*
X0114915Y0081651D01*
X0135753Y0066070D02*
X0156806Y0066070D01*
X0156806Y0064872D02*
X0135753Y0064872D01*
X0135753Y0063673D02*
X0156806Y0063673D01*
X0156806Y0062475D02*
X0135753Y0062475D01*
X0135753Y0061276D02*
X0156806Y0061276D01*
X0156806Y0060078D02*
X0135753Y0060078D01*
X0135753Y0058879D02*
X0156806Y0058879D01*
X0156806Y0057681D02*
X0135753Y0057681D01*
X0135753Y0056482D02*
X0156806Y0056482D01*
X0168006Y0056482D02*
X0224475Y0056482D01*
X0224475Y0055395D02*
X0224584Y0054988D01*
X0224795Y0054623D01*
X0225093Y0054325D01*
X0225458Y0054115D01*
X0225865Y0054005D01*
X0229806Y0054005D01*
X0229806Y0058549D01*
X0224475Y0058549D01*
X0224475Y0055395D01*
X0224505Y0055284D02*
X0135753Y0055284D01*
X0135753Y0054085D02*
X0225567Y0054085D01*
X0229806Y0054085D02*
X0231006Y0054085D01*
X0231006Y0054005D02*
X0234948Y0054005D01*
X0235354Y0054115D01*
X0235719Y0054325D01*
X0236017Y0054623D01*
X0236228Y0054988D01*
X0236337Y0055395D01*
X0236337Y0058549D01*
X0231006Y0058549D01*
X0231006Y0059749D01*
X0229806Y0059749D01*
X0229806Y0064292D01*
X0225865Y0064292D01*
X0225458Y0064183D01*
X0225093Y0063972D01*
X0224795Y0063675D01*
X0224584Y0063310D01*
X0224475Y0062903D01*
X0224475Y0059749D01*
X0229806Y0059749D01*
X0229806Y0058549D01*
X0231006Y0058549D01*
X0231006Y0054005D01*
X0230406Y0054688D02*
X0178906Y0054688D01*
X0178906Y0058688D01*
X0178906Y0054688D02*
X0145406Y0054688D01*
X0138906Y0054688D01*
X0168006Y0057681D02*
X0224475Y0057681D01*
X0224475Y0060078D02*
X0211336Y0060078D01*
X0211336Y0061276D02*
X0224475Y0061276D01*
X0224475Y0062475D02*
X0211336Y0062475D01*
X0211336Y0063673D02*
X0224794Y0063673D01*
X0229806Y0063673D02*
X0231006Y0063673D01*
X0231006Y0064292D02*
X0231006Y0059749D01*
X0236337Y0059749D01*
X0236337Y0062903D01*
X0236228Y0063310D01*
X0236017Y0063675D01*
X0235719Y0063972D01*
X0235354Y0064183D01*
X0234948Y0064292D01*
X0231006Y0064292D01*
X0231006Y0062475D02*
X0229806Y0062475D01*
X0229806Y0061276D02*
X0231006Y0061276D01*
X0231006Y0060078D02*
X0229806Y0060078D01*
X0229806Y0058879D02*
X0211336Y0058879D01*
X0211336Y0058746D02*
X0211336Y0071654D01*
X0210802Y0072188D01*
X0211342Y0072188D01*
X0211378Y0072152D01*
X0212694Y0071607D01*
X0214118Y0071607D01*
X0215435Y0072152D01*
X0216442Y0073160D01*
X0216987Y0074476D01*
X0216987Y0075900D01*
X0216442Y0077217D01*
X0215435Y0078224D01*
X0214118Y0078769D01*
X0212694Y0078769D01*
X0211378Y0078224D01*
X0211342Y0078188D01*
X0208298Y0078188D01*
X0207195Y0077731D01*
X0206351Y0076888D01*
X0202172Y0072709D01*
X0187531Y0072709D01*
X0186476Y0071654D01*
X0186476Y0058746D01*
X0187531Y0057691D01*
X0210282Y0057691D01*
X0211336Y0058746D01*
X0211336Y0064872D02*
X0238082Y0064872D01*
X0238082Y0065281D02*
X0238082Y0060946D01*
X0243806Y0060946D01*
X0243806Y0066670D01*
X0239471Y0066670D01*
X0239064Y0066561D01*
X0238699Y0066350D01*
X0238401Y0066052D01*
X0238191Y0065688D01*
X0238082Y0065281D01*
X0238419Y0066070D02*
X0211336Y0066070D01*
X0211336Y0067269D02*
X0260190Y0067269D01*
X0260157Y0067143D02*
X0260266Y0067550D01*
X0260476Y0067915D01*
X0260774Y0068213D01*
X0261139Y0068423D01*
X0261546Y0068532D01*
X0264306Y0068532D01*
X0264306Y0061627D01*
X0265506Y0061627D01*
X0265506Y0068532D01*
X0268266Y0068532D01*
X0268673Y0068423D01*
X0269038Y0068213D01*
X0269336Y0067915D01*
X0269547Y0067550D01*
X0269656Y0067143D01*
X0269656Y0061627D01*
X0265506Y0061627D01*
X0265506Y0060427D01*
X0269656Y0060427D01*
X0269656Y0054911D01*
X0269547Y0054504D01*
X0269336Y0054139D01*
X0269038Y0053841D01*
X0268673Y0053630D01*
X0268266Y0053521D01*
X0265506Y0053521D01*
X0265506Y0060427D01*
X0264306Y0060427D01*
X0260157Y0060427D01*
X0260157Y0054911D01*
X0260266Y0054504D01*
X0260476Y0054139D01*
X0260774Y0053841D01*
X0261139Y0053630D01*
X0261546Y0053521D01*
X0264306Y0053521D01*
X0264306Y0060427D01*
X0264306Y0061627D01*
X0260157Y0061627D01*
X0260157Y0067143D01*
X0260157Y0066070D02*
X0250393Y0066070D01*
X0250411Y0066052D02*
X0250113Y0066350D01*
X0249748Y0066561D01*
X0249341Y0066670D01*
X0245006Y0066670D01*
X0245006Y0060946D01*
X0243806Y0060946D01*
X0243806Y0059746D01*
X0238082Y0059746D01*
X0238082Y0055411D01*
X0238191Y0055004D01*
X0238401Y0054639D01*
X0238699Y0054341D01*
X0239064Y0054130D01*
X0239471Y0054021D01*
X0243806Y0054021D01*
X0243806Y0059746D01*
X0245006Y0059746D01*
X0245006Y0060946D01*
X0250731Y0060946D01*
X0250731Y0065281D01*
X0250622Y0065688D01*
X0250411Y0066052D01*
X0250731Y0064872D02*
X0260157Y0064872D01*
X0260157Y0063673D02*
X0250731Y0063673D01*
X0250731Y0062475D02*
X0260157Y0062475D01*
X0260157Y0060078D02*
X0245006Y0060078D01*
X0245006Y0059746D02*
X0250731Y0059746D01*
X0250731Y0055411D01*
X0250622Y0055004D01*
X0250411Y0054639D01*
X0250113Y0054341D01*
X0249748Y0054130D01*
X0249341Y0054021D01*
X0245006Y0054021D01*
X0245006Y0059746D01*
X0245006Y0058879D02*
X0243806Y0058879D01*
X0243806Y0057681D02*
X0245006Y0057681D01*
X0245006Y0056482D02*
X0243806Y0056482D01*
X0243806Y0055284D02*
X0245006Y0055284D01*
X0244406Y0054688D02*
X0264906Y0054688D01*
X0296406Y0054688D01*
X0308406Y0054688D01*
X0334367Y0054688D01*
X0334417Y0055284D02*
X0314731Y0055284D01*
X0314731Y0056482D02*
X0334417Y0056482D01*
X0334417Y0054085D02*
X0314176Y0054085D01*
X0309006Y0054085D02*
X0307806Y0054085D01*
X0307806Y0055284D02*
X0309006Y0055284D01*
X0309006Y0056482D02*
X0307806Y0056482D01*
X0307806Y0057681D02*
X0309006Y0057681D01*
X0309006Y0058879D02*
X0307806Y0058879D01*
X0307806Y0062475D02*
X0309006Y0062475D01*
X0309006Y0063673D02*
X0307806Y0063673D01*
X0307806Y0064872D02*
X0309006Y0064872D01*
X0309006Y0066070D02*
X0307806Y0066070D01*
X0313915Y0070864D02*
X0321173Y0070864D01*
X0319975Y0072063D02*
X0314931Y0072063D01*
X0314931Y0073261D02*
X0319421Y0073261D01*
X0319063Y0074460D02*
X0314931Y0074460D01*
X0314931Y0075658D02*
X0319063Y0075658D01*
X0318495Y0076857D02*
X0314931Y0076857D01*
X0314931Y0078055D02*
X0317296Y0078055D01*
X0316098Y0079254D02*
X0314931Y0079254D01*
X0321043Y0086445D02*
X0323825Y0086445D01*
X0319597Y0088842D02*
X0318646Y0088842D01*
X0317448Y0090041D02*
X0320258Y0090041D01*
X0321492Y0091239D02*
X0316249Y0091239D01*
X0333925Y0098430D02*
X0334866Y0098430D01*
X0335655Y0099629D02*
X0357606Y0099629D01*
X0357606Y0100827D02*
X0336853Y0100827D01*
X0337898Y0102026D02*
X0357606Y0102026D01*
X0357606Y0103224D02*
X0338306Y0103224D01*
X0338429Y0104423D02*
X0357606Y0104423D01*
X0357606Y0105621D02*
X0339245Y0105621D01*
X0339706Y0106820D02*
X0357606Y0106820D01*
X0357606Y0108018D02*
X0339706Y0108018D01*
X0339468Y0109217D02*
X0357606Y0109217D01*
X0357606Y0110415D02*
X0338967Y0110415D01*
X0356406Y0127688D02*
X0356406Y0134688D01*
X0322325Y0137981D02*
X0316487Y0137981D01*
X0317686Y0139179D02*
X0321127Y0139179D01*
X0319928Y0140378D02*
X0318884Y0140378D01*
X0319206Y0141577D02*
X0319606Y0141577D01*
X0319606Y0142775D02*
X0319206Y0142775D01*
X0319206Y0143974D02*
X0319606Y0143974D01*
X0320102Y0145172D02*
X0318710Y0145172D01*
X0317512Y0146371D02*
X0321300Y0146371D01*
X0321539Y0148768D02*
X0317274Y0148768D01*
X0316394Y0147888D02*
X0319206Y0150700D01*
X0319206Y0154676D01*
X0316394Y0157488D01*
X0312418Y0157488D01*
X0309606Y0154676D01*
X0309606Y0150700D01*
X0312418Y0147888D01*
X0316394Y0147888D01*
X0318472Y0149966D02*
X0320340Y0149966D01*
X0319606Y0151165D02*
X0319206Y0151165D01*
X0319206Y0152363D02*
X0319606Y0152363D01*
X0319606Y0153562D02*
X0319206Y0153562D01*
X0319122Y0154760D02*
X0319690Y0154760D01*
X0320888Y0155959D02*
X0317924Y0155959D01*
X0316725Y0157157D02*
X0322087Y0157157D01*
X0321950Y0158356D02*
X0316862Y0158356D01*
X0318060Y0159554D02*
X0320752Y0159554D01*
X0319606Y0160753D02*
X0319206Y0160753D01*
X0319206Y0161951D02*
X0319606Y0161951D01*
X0319606Y0163150D02*
X0319206Y0163150D01*
X0319206Y0164348D02*
X0319606Y0164348D01*
X0312406Y0167688D02*
X0309406Y0170688D01*
X0307558Y0169142D02*
X0306838Y0169142D01*
X0306838Y0167944D02*
X0308756Y0167944D01*
X0309955Y0166745D02*
X0306838Y0166745D01*
X0306838Y0165547D02*
X0310477Y0165547D01*
X0309606Y0164348D02*
X0306838Y0164348D01*
X0306838Y0163150D02*
X0309606Y0163150D01*
X0309606Y0161951D02*
X0306838Y0161951D01*
X0306838Y0160753D02*
X0309606Y0160753D01*
X0310752Y0159554D02*
X0306838Y0159554D01*
X0306838Y0158356D02*
X0311950Y0158356D01*
X0312087Y0157157D02*
X0306838Y0157157D01*
X0306838Y0155959D02*
X0310888Y0155959D01*
X0309690Y0154760D02*
X0306838Y0154760D01*
X0306838Y0153562D02*
X0309606Y0153562D01*
X0309606Y0152363D02*
X0306838Y0152363D01*
X0306838Y0151165D02*
X0309606Y0151165D01*
X0310340Y0149966D02*
X0306838Y0149966D01*
X0306838Y0148768D02*
X0311539Y0148768D01*
X0287906Y0154188D02*
X0287906Y0166688D01*
X0287060Y0167535D01*
X0283418Y0167535D01*
X0274560Y0167535D01*
X0270623Y0164188D02*
X0268123Y0166688D01*
X0264717Y0162639D02*
X0264717Y0162206D01*
X0264717Y0162206D01*
X0264717Y0162206D01*
X0264717Y0162639D01*
X0248969Y0164251D02*
X0248969Y0158676D01*
X0248969Y0155251D01*
X0247906Y0154188D01*
X0239127Y0154188D01*
X0239127Y0158676D01*
X0239127Y0165468D01*
X0240613Y0167944D02*
X0248700Y0167944D01*
X0248050Y0167944D02*
X0241262Y0167944D01*
X0240516Y0169142D02*
X0248796Y0169142D01*
X0249644Y0169142D02*
X0239668Y0169142D01*
X0236144Y0169142D02*
X0227406Y0169142D01*
X0226557Y0169142D02*
X0235296Y0169142D01*
X0235200Y0167944D02*
X0227406Y0167944D01*
X0231253Y0167535D02*
X0222394Y0167535D01*
X0219253Y0167535D01*
X0217406Y0165688D01*
X0217306Y0166745D02*
X0218232Y0166745D01*
X0218432Y0167944D02*
X0217556Y0167944D01*
X0231253Y0167535D02*
X0235406Y0171688D01*
X0227406Y0177532D02*
X0278406Y0177532D01*
X0279256Y0177532D02*
X0276692Y0177532D01*
X0283418Y0187220D02*
X0286906Y0187220D01*
X0304438Y0169688D01*
X0312406Y0167688D02*
X0327406Y0167688D01*
X0330406Y0171188D01*
X0330406Y0180188D01*
X0327406Y0182688D01*
X0324406Y0182688D01*
X0319406Y0177688D02*
X0324406Y0172688D01*
X0291352Y0164348D02*
X0287580Y0164348D01*
X0287580Y0165547D02*
X0290153Y0165547D01*
X0288955Y0166745D02*
X0287580Y0166745D01*
X0271330Y0146371D02*
X0270916Y0146371D01*
X0247001Y0158676D02*
X0247001Y0171688D01*
X0227082Y0143974D02*
X0221086Y0143974D01*
X0219887Y0142775D02*
X0227082Y0142775D01*
X0227082Y0141577D02*
X0218689Y0141577D01*
X0217490Y0140378D02*
X0227082Y0140378D01*
X0232806Y0136782D02*
X0234006Y0136782D01*
X0234006Y0135584D02*
X0232806Y0135584D01*
X0232806Y0134385D02*
X0234006Y0134385D01*
X0215398Y0131988D02*
X0208867Y0131988D01*
X0202406Y0134188D02*
X0172406Y0104188D01*
X0172406Y0081688D01*
X0175987Y0081651D02*
X0224275Y0081651D01*
X0224275Y0082849D02*
X0175801Y0082849D01*
X0175111Y0084048D02*
X0224807Y0084048D01*
X0227006Y0085246D02*
X0174806Y0085246D01*
X0174806Y0086445D02*
X0227006Y0086445D01*
X0224275Y0080452D02*
X0175770Y0080452D01*
X0175036Y0079254D02*
X0224275Y0079254D01*
X0224275Y0078055D02*
X0215603Y0078055D01*
X0216591Y0076857D02*
X0224275Y0076857D01*
X0224275Y0075658D02*
X0216987Y0075658D01*
X0216981Y0074460D02*
X0224754Y0074460D01*
X0226914Y0073261D02*
X0216484Y0073261D01*
X0215219Y0072063D02*
X0227467Y0072063D01*
X0229073Y0070864D02*
X0211336Y0070864D01*
X0211336Y0069666D02*
X0277138Y0069666D01*
X0277138Y0070864D02*
X0269022Y0070864D01*
X0269856Y0072063D02*
X0274529Y0072063D01*
X0273308Y0073261D02*
X0269856Y0073261D01*
X0268509Y0068467D02*
X0277530Y0068467D01*
X0277906Y0067269D02*
X0269622Y0067269D01*
X0269656Y0066070D02*
X0277906Y0066070D01*
X0277906Y0064872D02*
X0269656Y0064872D01*
X0269656Y0063673D02*
X0278187Y0063673D01*
X0278307Y0062475D02*
X0269656Y0062475D01*
X0269656Y0060078D02*
X0278307Y0060078D01*
X0278307Y0061276D02*
X0265506Y0061276D01*
X0265506Y0060078D02*
X0264306Y0060078D01*
X0264306Y0061276D02*
X0250731Y0061276D01*
X0250731Y0058879D02*
X0260157Y0058879D01*
X0260157Y0057681D02*
X0250731Y0057681D01*
X0250731Y0056482D02*
X0260157Y0056482D01*
X0260157Y0055284D02*
X0250697Y0055284D01*
X0249580Y0054085D02*
X0260530Y0054085D01*
X0264306Y0054085D02*
X0265506Y0054085D01*
X0265506Y0055284D02*
X0264306Y0055284D01*
X0264306Y0056482D02*
X0265506Y0056482D01*
X0265506Y0057681D02*
X0264306Y0057681D01*
X0264306Y0058879D02*
X0265506Y0058879D01*
X0269656Y0058879D02*
X0278918Y0058879D01*
X0269656Y0057681D02*
X0302082Y0057681D01*
X0302082Y0058879D02*
X0293895Y0058879D01*
X0302082Y0056482D02*
X0269656Y0056482D01*
X0269656Y0055284D02*
X0302082Y0055284D01*
X0302636Y0054085D02*
X0269282Y0054085D01*
X0265506Y0062475D02*
X0264306Y0062475D01*
X0264306Y0063673D02*
X0265506Y0063673D01*
X0265506Y0064872D02*
X0264306Y0064872D01*
X0264306Y0066070D02*
X0265506Y0066070D01*
X0265506Y0067269D02*
X0264306Y0067269D01*
X0264306Y0068467D02*
X0265506Y0068467D01*
X0261304Y0068467D02*
X0211336Y0068467D01*
X0211593Y0072063D02*
X0210927Y0072063D01*
X0206320Y0076857D02*
X0168006Y0076857D01*
X0168006Y0078055D02*
X0207977Y0078055D01*
X0205122Y0075658D02*
X0168006Y0075658D01*
X0168006Y0074460D02*
X0203923Y0074460D01*
X0202725Y0073261D02*
X0168006Y0073261D01*
X0168006Y0072063D02*
X0186885Y0072063D01*
X0186476Y0070864D02*
X0168006Y0070864D01*
X0168006Y0069666D02*
X0186476Y0069666D01*
X0186476Y0068467D02*
X0168006Y0068467D01*
X0168006Y0067269D02*
X0186476Y0067269D01*
X0186476Y0066070D02*
X0168006Y0066070D01*
X0168006Y0064872D02*
X0186476Y0064872D01*
X0186476Y0063673D02*
X0168006Y0063673D01*
X0168006Y0062475D02*
X0186476Y0062475D01*
X0186476Y0061276D02*
X0168006Y0061276D01*
X0168006Y0060078D02*
X0186476Y0060078D01*
X0186476Y0058879D02*
X0168006Y0058879D01*
X0167686Y0079254D02*
X0169776Y0079254D01*
X0153506Y0099629D02*
X0121459Y0099629D01*
X0113613Y0099629D02*
X0100199Y0099629D01*
X0100832Y0100827D02*
X0112980Y0100827D01*
X0131439Y0100827D02*
X0154151Y0100827D01*
X0155350Y0102026D02*
X0132638Y0102026D01*
X0133836Y0103224D02*
X0156548Y0103224D01*
X0156806Y0104423D02*
X0135035Y0104423D01*
X0136233Y0105621D02*
X0156806Y0105621D01*
X0156806Y0106820D02*
X0137432Y0106820D01*
X0138630Y0108018D02*
X0156806Y0108018D01*
X0156806Y0109217D02*
X0139829Y0109217D01*
X0141027Y0110415D02*
X0156806Y0110415D01*
X0156806Y0111614D02*
X0142226Y0111614D01*
X0143424Y0112812D02*
X0156806Y0112812D01*
X0156806Y0114011D02*
X0144623Y0114011D01*
X0145821Y0115209D02*
X0156806Y0115209D01*
X0156806Y0116408D02*
X0147020Y0116408D01*
X0148218Y0117606D02*
X0157479Y0117606D01*
X0153012Y0122400D02*
X0181224Y0122400D01*
X0180026Y0121202D02*
X0151814Y0121202D01*
X0150615Y0120003D02*
X0178827Y0120003D01*
X0177629Y0118805D02*
X0149417Y0118805D01*
X0154211Y0123599D02*
X0182423Y0123599D01*
X0183621Y0124797D02*
X0155409Y0124797D01*
X0156608Y0125996D02*
X0184820Y0125996D01*
X0186018Y0127194D02*
X0157806Y0127194D01*
X0159005Y0128393D02*
X0187217Y0128393D01*
X0188415Y0129591D02*
X0160203Y0129591D01*
X0161402Y0130790D02*
X0189614Y0130790D01*
X0190812Y0131988D02*
X0181101Y0131988D01*
X0182299Y0133187D02*
X0192011Y0133187D01*
X0193209Y0134385D02*
X0183498Y0134385D01*
X0184696Y0135584D02*
X0194408Y0135584D01*
X0195606Y0136782D02*
X0185895Y0136782D01*
X0187093Y0137981D02*
X0196805Y0137981D01*
X0196350Y0139179D02*
X0188292Y0139179D01*
X0189490Y0140378D02*
X0195573Y0140378D01*
X0195325Y0141577D02*
X0190689Y0141577D01*
X0191887Y0142775D02*
X0195480Y0142775D01*
X0196127Y0143974D02*
X0193086Y0143974D01*
X0194284Y0145172D02*
X0197959Y0145172D01*
X0199853Y0145172D02*
X0203647Y0145172D01*
X0204846Y0146371D02*
X0195483Y0146371D01*
X0196681Y0147569D02*
X0206044Y0147569D01*
X0201406Y0161688D02*
X0201406Y0191688D01*
X0205906Y0196188D01*
X0205906Y0199188D01*
X0207717Y0200999D01*
X0176657Y0183524D02*
X0175888Y0183524D01*
X0175888Y0182326D02*
X0176657Y0182326D01*
X0176657Y0181127D02*
X0175888Y0181127D01*
X0175888Y0179929D02*
X0176657Y0179929D01*
X0176054Y0178730D02*
X0173851Y0178730D01*
X0173987Y0177532D02*
X0174856Y0177532D01*
X0170406Y0177688D02*
X0170406Y0176688D01*
X0166906Y0173188D01*
X0158312Y0173188D01*
X0156312Y0175188D01*
X0164406Y0177688D02*
X0164406Y0185133D01*
X0164461Y0185188D01*
X0170367Y0185188D02*
X0170406Y0185228D01*
X0164406Y0177688D02*
X0164461Y0177633D01*
X0169850Y0172738D02*
X0170062Y0172738D01*
X0171048Y0173936D02*
X0171260Y0173936D01*
X0168863Y0171539D02*
X0168651Y0171539D01*
X0174906Y0151688D02*
X0195906Y0172688D01*
X0195906Y0168188D02*
X0177406Y0149688D01*
X0134406Y0149688D01*
X0131406Y0146688D01*
X0123642Y0146688D01*
X0123642Y0151688D02*
X0174906Y0151688D01*
X0180906Y0144188D02*
X0166406Y0144188D01*
X0136406Y0144188D01*
X0128906Y0136688D01*
X0123642Y0136688D01*
X0123642Y0131688D02*
X0128906Y0131688D01*
X0137906Y0140688D01*
X0180406Y0140688D01*
X0201406Y0161688D01*
X0199406Y0162688D02*
X0180906Y0144188D01*
X0147406Y0131188D02*
X0142906Y0126688D01*
X0123642Y0126688D01*
X0123642Y0156688D02*
X0115406Y0156688D01*
X0167334Y0117606D02*
X0176430Y0117606D01*
X0175232Y0116408D02*
X0168006Y0116408D01*
X0168006Y0115209D02*
X0174033Y0115209D01*
X0172835Y0114011D02*
X0168006Y0114011D01*
X0168006Y0112812D02*
X0171636Y0112812D01*
X0170438Y0111614D02*
X0168006Y0111614D01*
X0168006Y0110415D02*
X0169239Y0110415D01*
X0168041Y0109217D02*
X0168006Y0109217D01*
X0210353Y0111614D02*
X0210506Y0111614D01*
X0217306Y0111614D02*
X0260444Y0111614D01*
X0258974Y0112812D02*
X0217306Y0112812D01*
X0217306Y0114011D02*
X0227247Y0114011D01*
X0226882Y0115209D02*
X0224965Y0115209D01*
X0225942Y0116408D02*
X0226882Y0116408D01*
X0228529Y0110415D02*
X0217306Y0110415D01*
X0217306Y0109217D02*
X0227527Y0109217D01*
X0227527Y0108018D02*
X0217306Y0108018D01*
X0217487Y0106820D02*
X0227527Y0106820D01*
X0227527Y0105621D02*
X0217487Y0105621D01*
X0217051Y0104423D02*
X0227527Y0104423D01*
X0227527Y0103224D02*
X0216007Y0103224D01*
X0217306Y0115209D02*
X0217808Y0115209D01*
X0239566Y0114011D02*
X0257775Y0114011D01*
X0256577Y0115209D02*
X0253016Y0115209D01*
X0257662Y0110415D02*
X0241150Y0110415D01*
X0242151Y0109217D02*
X0256661Y0109217D01*
X0256661Y0108018D02*
X0242151Y0108018D01*
X0242151Y0106820D02*
X0256661Y0106820D01*
X0256661Y0105621D02*
X0242151Y0105621D01*
X0242151Y0104423D02*
X0256661Y0104423D01*
X0256661Y0103224D02*
X0242151Y0103224D01*
X0242151Y0102026D02*
X0256661Y0102026D01*
X0252981Y0100827D02*
X0242151Y0100827D01*
X0242151Y0099629D02*
X0252127Y0099629D01*
X0251825Y0098430D02*
X0242151Y0098430D01*
X0242151Y0097232D02*
X0251926Y0097232D01*
X0252497Y0096033D02*
X0242151Y0096033D01*
X0242151Y0094835D02*
X0254145Y0094835D01*
X0256661Y0093636D02*
X0242151Y0093636D01*
X0241626Y0092438D02*
X0242893Y0092438D01*
X0242378Y0092224D02*
X0241370Y0091217D01*
X0240825Y0089900D01*
X0240825Y0088476D01*
X0241006Y0088039D01*
X0241006Y0086555D01*
X0238936Y0086555D01*
X0237882Y0085501D01*
X0237882Y0074561D01*
X0238936Y0073506D01*
X0249876Y0073506D01*
X0250931Y0074561D01*
X0250931Y0085501D01*
X0249876Y0086555D01*
X0247806Y0086555D01*
X0247806Y0088039D01*
X0247987Y0088476D01*
X0247987Y0089900D01*
X0247442Y0091217D01*
X0246435Y0092224D01*
X0245118Y0092769D01*
X0243694Y0092769D01*
X0242378Y0092224D01*
X0241393Y0091239D02*
X0233806Y0091239D01*
X0233806Y0090041D02*
X0240883Y0090041D01*
X0240825Y0088842D02*
X0233806Y0088842D01*
X0233806Y0087644D02*
X0241006Y0087644D01*
X0238826Y0086445D02*
X0233806Y0086445D01*
X0233806Y0085246D02*
X0237882Y0085246D01*
X0237882Y0084048D02*
X0236005Y0084048D01*
X0236537Y0082849D02*
X0237882Y0082849D01*
X0237882Y0081651D02*
X0236537Y0081651D01*
X0236537Y0080452D02*
X0237882Y0080452D01*
X0237882Y0079254D02*
X0236537Y0079254D01*
X0236537Y0078055D02*
X0237882Y0078055D01*
X0237882Y0076857D02*
X0236537Y0076857D01*
X0236537Y0075658D02*
X0237882Y0075658D01*
X0237983Y0074460D02*
X0236058Y0074460D01*
X0233898Y0073261D02*
X0259957Y0073261D01*
X0259957Y0072063D02*
X0233345Y0072063D01*
X0231740Y0070864D02*
X0260791Y0070864D01*
X0259957Y0074460D02*
X0250830Y0074460D01*
X0250931Y0075658D02*
X0259957Y0075658D01*
X0259957Y0076857D02*
X0250931Y0076857D01*
X0250931Y0078055D02*
X0259957Y0078055D01*
X0259957Y0079254D02*
X0250931Y0079254D01*
X0250931Y0080452D02*
X0259957Y0080452D01*
X0259957Y0081651D02*
X0250931Y0081651D01*
X0250931Y0082849D02*
X0259957Y0082849D01*
X0259957Y0084048D02*
X0250931Y0084048D01*
X0250931Y0085246D02*
X0260202Y0085246D01*
X0269506Y0086445D02*
X0249986Y0086445D01*
X0247806Y0087644D02*
X0269506Y0087644D01*
X0269506Y0088842D02*
X0247987Y0088842D01*
X0247929Y0090041D02*
X0269506Y0090041D01*
X0268547Y0091239D02*
X0247420Y0091239D01*
X0245919Y0092438D02*
X0257186Y0092438D01*
X0277806Y0109217D02*
X0280294Y0109217D01*
X0280294Y0110415D02*
X0277806Y0110415D01*
X0277703Y0111614D02*
X0280294Y0111614D01*
X0280294Y0112812D02*
X0277090Y0112812D01*
X0287430Y0096033D02*
X0288008Y0096033D01*
X0301688Y0079254D02*
X0301882Y0079254D01*
X0301882Y0078055D02*
X0300838Y0078055D01*
X0301882Y0076857D02*
X0298818Y0076857D01*
X0297619Y0075658D02*
X0301882Y0075658D01*
X0301882Y0074460D02*
X0295105Y0074460D01*
X0295105Y0073261D02*
X0301882Y0073261D01*
X0301882Y0072063D02*
X0295305Y0072063D01*
X0245006Y0066070D02*
X0243806Y0066070D01*
X0243806Y0064872D02*
X0245006Y0064872D01*
X0245006Y0063673D02*
X0243806Y0063673D01*
X0243806Y0062475D02*
X0245006Y0062475D01*
X0245006Y0061276D02*
X0243806Y0061276D01*
X0243806Y0060078D02*
X0236337Y0060078D01*
X0236337Y0061276D02*
X0238082Y0061276D01*
X0238082Y0062475D02*
X0236337Y0062475D01*
X0236018Y0063673D02*
X0238082Y0063673D01*
X0238082Y0058879D02*
X0231006Y0058879D01*
X0231006Y0057681D02*
X0229806Y0057681D01*
X0229806Y0056482D02*
X0231006Y0056482D01*
X0231006Y0055284D02*
X0229806Y0055284D01*
X0230406Y0054688D02*
X0244406Y0054688D01*
X0243806Y0054085D02*
X0245006Y0054085D01*
X0239232Y0054085D02*
X0235245Y0054085D01*
X0236307Y0055284D02*
X0238116Y0055284D01*
X0238082Y0056482D02*
X0236337Y0056482D01*
X0236337Y0057681D02*
X0238082Y0057681D01*
X0239931Y0115209D02*
X0241993Y0115209D01*
X0141406Y0204688D02*
X0062906Y0204688D01*
X0278919Y0217083D02*
X0280617Y0217083D01*
X0279419Y0218281D02*
X0278919Y0218281D01*
D38*
X0270406Y0206688D02*
X0270406Y0171688D01*
X0264717Y0171688D01*
X0252906Y0171688D01*
X0252906Y0188688D01*
X0247406Y0188688D02*
X0235406Y0188688D01*
X0235406Y0199688D01*
X0235406Y0206688D01*
X0270406Y0206688D01*
X0235406Y0188688D02*
X0235406Y0171688D01*
X0247001Y0171688D01*
X0252906Y0171688D01*
X0220406Y0160688D02*
X0217406Y0160688D01*
X0205406Y0148688D01*
X0199406Y0148688D01*
X0175906Y0125188D01*
X0159906Y0125188D01*
X0145406Y0110688D01*
X0145406Y0054688D01*
X0178906Y0058688D02*
X0178906Y0105188D01*
X0203906Y0130188D01*
X0209906Y0130188D01*
X0219249Y0139531D01*
X0233406Y0139531D01*
X0233406Y0137243D02*
X0247505Y0137243D01*
X0239406Y0129688D02*
X0240906Y0128188D01*
X0247505Y0128188D01*
X0259906Y0128188D01*
X0272308Y0128188D01*
X0287406Y0128188D01*
X0287406Y0138590D01*
X0287406Y0128188D02*
X0289906Y0128188D01*
X0311906Y0106188D01*
X0316406Y0101688D01*
X0332906Y0101688D01*
X0334906Y0103688D01*
X0334906Y0107688D01*
X0334906Y0127688D02*
X0356406Y0127688D01*
X0323095Y0086999D02*
X0296308Y0113787D01*
X0287406Y0113787D01*
X0274406Y0110688D02*
X0274406Y0098188D01*
X0279406Y0098188D01*
X0281594Y0096001D01*
X0272906Y0091688D02*
X0263406Y0101188D01*
X0263973Y0101188D01*
X0260973Y0098188D02*
X0255406Y0098188D01*
X0244406Y0089188D02*
X0244406Y0080031D01*
X0230406Y0079228D02*
X0230406Y0098688D01*
X0231406Y0099121D01*
X0234382Y0099709D01*
X0198906Y0099709D01*
X0198906Y0104176D01*
X0213906Y0106188D02*
X0213906Y0125688D01*
X0217906Y0129688D01*
X0239406Y0129688D01*
X0233406Y0119846D02*
X0223268Y0119846D01*
X0221386Y0119688D01*
X0233406Y0119133D02*
X0247505Y0119133D01*
X0257461Y0119133D01*
X0261906Y0114688D01*
X0270406Y0114688D01*
X0274406Y0110688D01*
X0272906Y0091688D02*
X0272906Y0077850D01*
X0265906Y0077850D01*
X0264906Y0078350D01*
X0264906Y0061027D02*
X0264906Y0054688D01*
X0244406Y0054688D02*
X0244406Y0060346D01*
X0230406Y0059149D02*
X0230406Y0054688D01*
X0234382Y0099709D02*
X0234839Y0101188D01*
X0206426Y0119688D02*
X0206406Y0119688D01*
X0206406Y0125688D01*
X0170406Y0177688D02*
X0170406Y0185188D01*
X0170406Y0185228D02*
X0170406Y0177688D01*
X0190406Y0227188D02*
X0190406Y0231688D01*
X0190406Y0244688D01*
X0314406Y0232688D02*
X0324406Y0232688D01*
X0324406Y0222688D02*
X0314406Y0222688D01*
X0324406Y0222688D02*
X0356406Y0222688D01*
X0324595Y0086999D02*
X0324406Y0086999D01*
X0323095Y0086999D01*
X0079406Y0131188D02*
X0075906Y0127688D01*
X0070406Y0127688D01*
X0048406Y0127688D01*
D39*
X0079406Y0131188D02*
X0079406Y0151188D01*
X0076705Y0153889D01*
X0072764Y0153889D01*
X0089406Y0153688D02*
X0089406Y0151688D01*
X0089406Y0153688D02*
X0092406Y0156688D01*
X0103170Y0156688D01*
X0103170Y0151688D02*
X0095406Y0151688D01*
X0103170Y0146688D02*
X0108406Y0146688D01*
X0114156Y0140938D01*
X0115406Y0139688D01*
X0115406Y0122688D01*
X0109406Y0116688D01*
X0109406Y0112188D01*
X0117536Y0112188D01*
X0117536Y0107188D02*
X0113906Y0107188D01*
X0109906Y0103188D01*
X0109906Y0102188D01*
X0104406Y0107688D01*
X0104406Y0117188D01*
X0111406Y0124188D01*
X0111406Y0128688D01*
X0110406Y0129688D01*
X0108406Y0131688D01*
X0103170Y0131688D01*
X0103170Y0126688D02*
X0103170Y0124452D01*
X0100906Y0122188D01*
X0095406Y0123688D02*
X0095406Y0128688D01*
X0095406Y0135188D01*
X0096906Y0136688D01*
X0103170Y0136688D01*
X0103170Y0141688D02*
X0094406Y0141688D01*
X0089406Y0136688D01*
X0089406Y0128688D01*
X0089406Y0123188D01*
X0076906Y0110688D01*
X0076906Y0095188D01*
X0071906Y0090188D01*
X0068906Y0090188D01*
X0064406Y0085688D01*
X0064406Y0080188D01*
X0066906Y0077688D01*
X0075406Y0077688D01*
X0080406Y0082688D01*
X0070406Y0082688D02*
X0080906Y0093188D01*
X0080906Y0109188D01*
X0095406Y0123688D01*
X0096276Y0112188D02*
X0089406Y0112188D01*
X0084906Y0107688D01*
X0084906Y0094877D01*
X0093595Y0086188D01*
X0100095Y0086188D01*
X0105406Y0092688D02*
X0093406Y0092688D01*
X0089406Y0096688D01*
X0089406Y0105188D01*
X0091406Y0107188D01*
X0096276Y0107188D01*
X0109906Y0102188D02*
X0109906Y0095188D01*
X0138906Y0095188D01*
X0138906Y0054688D01*
X0111906Y0086188D02*
X0105406Y0092688D01*
X0070406Y0062688D02*
X0070406Y0054688D01*
X0198906Y0065200D02*
X0208894Y0075188D01*
X0213406Y0075188D01*
X0230406Y0074188D02*
X0230406Y0079228D01*
X0260973Y0098188D02*
X0263973Y0101188D01*
X0280906Y0084688D02*
X0289906Y0093688D01*
X0305906Y0093688D01*
X0324406Y0075188D01*
X0308406Y0077350D02*
X0308406Y0083688D01*
X0306719Y0085376D01*
X0292219Y0085376D01*
X0286406Y0080063D01*
X0286406Y0070688D01*
X0280906Y0070688D01*
X0280906Y0064948D01*
X0282666Y0063188D01*
X0290146Y0063188D02*
X0291536Y0064578D01*
X0291536Y0070688D01*
X0291536Y0074428D02*
X0296406Y0074428D01*
X0296406Y0054688D01*
X0308406Y0054688D02*
X0308406Y0060027D01*
X0295886Y0078168D02*
X0291536Y0078168D01*
X0295886Y0078168D02*
X0298406Y0080688D01*
X0280906Y0078168D02*
X0280906Y0084688D01*
X0272906Y0077850D02*
X0276406Y0074428D01*
X0280906Y0074428D01*
X0233406Y0119133D02*
X0233406Y0119846D01*
X0233406Y0137243D02*
X0233406Y0139531D01*
X0239127Y0154188D02*
X0216906Y0154188D01*
X0204406Y0141688D01*
X0198906Y0141688D01*
X0144501Y0174783D02*
X0144406Y0174688D01*
X0144501Y0174783D02*
X0144501Y0175188D01*
X0176272Y0185188D02*
X0176272Y0231448D01*
X0183162Y0231448D01*
X0182406Y0231688D02*
X0190406Y0231688D01*
X0176272Y0231448D02*
X0176272Y0236369D01*
X0176272Y0242688D01*
X0176406Y0244688D01*
X0252906Y0188688D02*
X0258406Y0188688D01*
X0270406Y0171688D02*
X0274560Y0167535D01*
X0287906Y0154188D01*
X0290406Y0151688D01*
X0307906Y0151688D02*
X0307906Y0140188D01*
X0313406Y0134688D01*
X0356406Y0134688D01*
X0266123Y0144972D02*
X0259906Y0138755D01*
X0259906Y0128188D01*
D40*
X0167406Y0162688D02*
X0140406Y0162688D01*
X0133406Y0169688D01*
X0085406Y0169688D01*
X0082205Y0166487D01*
X0072764Y0166487D01*
M02*
