G75*
%MOIN*%
%OFA0B0*%
%FSLAX25Y25*%
%IPPOS*%
%LPD*%
%AMOC8*
5,1,8,0,0,1.08239X$1,22.5*
%
%ADD10R,0.06306X0.05518*%
%ADD11R,0.05518X0.06306*%
%ADD12C,0.03943*%
%ADD13R,0.12802X0.08274*%
%ADD14OC8,0.06400*%
%ADD15OC8,0.05600*%
%ADD16C,0.07487*%
%ADD17C,0.06400*%
D10*
X0090406Y0072448D03*
X0090406Y0079928D03*
X0093406Y0108448D03*
X0102406Y0108448D03*
X0102406Y0115928D03*
X0093406Y0115928D03*
X0120906Y0122448D03*
X0120906Y0129928D03*
X0130406Y0129928D03*
X0139406Y0129928D03*
X0139406Y0122448D03*
X0130406Y0122448D03*
X0107406Y0136448D03*
X0107406Y0143928D03*
X0098406Y0143928D03*
X0089406Y0143928D03*
X0089406Y0136448D03*
X0098406Y0136448D03*
X0150406Y0189448D03*
X0150406Y0196928D03*
X0160406Y0196928D03*
X0170406Y0196928D03*
X0170406Y0189448D03*
X0160406Y0189448D03*
X0119406Y0228448D03*
X0119406Y0235928D03*
X0109406Y0235928D03*
X0109406Y0228448D03*
X0090406Y0228948D03*
X0080406Y0228948D03*
X0080406Y0236428D03*
X0090406Y0236428D03*
X0070406Y0236428D03*
X0070406Y0228948D03*
X0234406Y0157428D03*
X0234406Y0149948D03*
X0243406Y0149948D03*
X0253406Y0149948D03*
X0253406Y0157428D03*
X0243406Y0157428D03*
X0240406Y0172948D03*
X0240406Y0180428D03*
X0252906Y0180428D03*
X0252906Y0172948D03*
X0265406Y0172948D03*
X0265406Y0180428D03*
X0265406Y0195448D03*
X0265406Y0202928D03*
X0240406Y0202928D03*
X0240406Y0195448D03*
X0291406Y0218948D03*
X0291406Y0226428D03*
X0300406Y0226428D03*
X0300406Y0218948D03*
X0274906Y0123928D03*
X0274906Y0116448D03*
X0265406Y0116448D03*
X0265406Y0123928D03*
X0308406Y0121928D03*
X0308406Y0114448D03*
X0255406Y0069428D03*
X0255406Y0061948D03*
X0245406Y0061948D03*
X0245406Y0069428D03*
X0235406Y0069428D03*
X0235406Y0061948D03*
X0223406Y0061448D03*
X0213406Y0061448D03*
X0213406Y0068928D03*
X0223406Y0068928D03*
X0203406Y0068928D03*
X0203406Y0061448D03*
X0172406Y0062448D03*
X0172406Y0069928D03*
X0162406Y0069928D03*
X0152406Y0069928D03*
X0152406Y0062448D03*
X0162406Y0062448D03*
D11*
X0174166Y0144188D03*
X0181646Y0144188D03*
X0179666Y0169188D03*
X0187146Y0169188D03*
X0215166Y0183688D03*
X0222646Y0183688D03*
X0222646Y0192688D03*
X0215166Y0192688D03*
X0282166Y0083188D03*
X0289646Y0083188D03*
X0289646Y0073188D03*
X0282166Y0073188D03*
X0282166Y0063188D03*
X0289646Y0063188D03*
D12*
X0063906Y0153298D03*
X0063906Y0167078D03*
D13*
X0187906Y0085334D03*
X0187906Y0066042D03*
D14*
X0314406Y0142688D03*
X0324406Y0142688D03*
X0324406Y0152688D03*
X0314406Y0152688D03*
X0314406Y0162688D03*
X0324406Y0162688D03*
X0324406Y0172688D03*
X0314406Y0172688D03*
X0314406Y0182688D03*
X0324406Y0182688D03*
X0324406Y0192688D03*
X0314406Y0192688D03*
X0314406Y0202688D03*
X0324406Y0202688D03*
X0324406Y0212688D03*
X0314406Y0212688D03*
X0314406Y0222688D03*
X0324406Y0222688D03*
X0324406Y0232688D03*
X0314406Y0232688D03*
D15*
X0058906Y0227688D03*
X0058906Y0218688D03*
X0058906Y0208688D03*
X0058906Y0199688D03*
X0058906Y0189688D03*
X0058906Y0237688D03*
D16*
X0100095Y0086188D03*
X0111906Y0086188D03*
X0123717Y0086188D03*
X0324406Y0086999D03*
X0324406Y0075188D03*
X0324406Y0063377D03*
D17*
X0070406Y0062688D03*
X0080406Y0062688D03*
X0080406Y0072688D03*
X0070406Y0072688D03*
X0070406Y0082688D03*
X0080406Y0082688D03*
X0070406Y0097688D03*
X0070406Y0107688D03*
X0070406Y0117688D03*
X0070406Y0127688D03*
X0197800Y0213082D03*
X0204871Y0220153D03*
X0211942Y0227224D03*
X0219013Y0234295D03*
X0324906Y0127688D03*
X0334906Y0127688D03*
X0334906Y0117688D03*
X0324906Y0117688D03*
X0324906Y0107688D03*
X0334906Y0107688D03*
M02*
