G75*
%MOIN*%
%OFA0B0*%
%FSLAX25Y25*%
%IPPOS*%
%LPD*%
%AMOC8*
5,1,8,0,0,1.08239X$1,22.5*
%
%ADD10C,0.00000*%
%ADD11C,0.00600*%
%ADD12C,0.00400*%
%ADD13C,0.00300*%
%ADD14C,0.00500*%
D10*
X0045406Y0051688D02*
X0045406Y0247688D01*
X0359406Y0247688D01*
X0359406Y0051688D01*
X0045406Y0051688D01*
X0062134Y0153298D02*
X0062136Y0153382D01*
X0062142Y0153465D01*
X0062152Y0153548D01*
X0062166Y0153631D01*
X0062183Y0153713D01*
X0062205Y0153794D01*
X0062230Y0153873D01*
X0062259Y0153952D01*
X0062292Y0154029D01*
X0062328Y0154104D01*
X0062368Y0154178D01*
X0062411Y0154250D01*
X0062458Y0154319D01*
X0062508Y0154386D01*
X0062561Y0154451D01*
X0062617Y0154513D01*
X0062675Y0154573D01*
X0062737Y0154630D01*
X0062801Y0154683D01*
X0062868Y0154734D01*
X0062937Y0154781D01*
X0063008Y0154826D01*
X0063081Y0154866D01*
X0063156Y0154903D01*
X0063233Y0154937D01*
X0063311Y0154967D01*
X0063390Y0154993D01*
X0063471Y0155016D01*
X0063553Y0155034D01*
X0063635Y0155049D01*
X0063718Y0155060D01*
X0063801Y0155067D01*
X0063885Y0155070D01*
X0063969Y0155069D01*
X0064052Y0155064D01*
X0064136Y0155055D01*
X0064218Y0155042D01*
X0064300Y0155026D01*
X0064381Y0155005D01*
X0064462Y0154981D01*
X0064540Y0154953D01*
X0064618Y0154921D01*
X0064694Y0154885D01*
X0064768Y0154846D01*
X0064840Y0154804D01*
X0064910Y0154758D01*
X0064978Y0154709D01*
X0065043Y0154657D01*
X0065106Y0154602D01*
X0065166Y0154544D01*
X0065224Y0154483D01*
X0065278Y0154419D01*
X0065330Y0154353D01*
X0065378Y0154285D01*
X0065423Y0154214D01*
X0065464Y0154141D01*
X0065503Y0154067D01*
X0065537Y0153991D01*
X0065568Y0153913D01*
X0065595Y0153834D01*
X0065619Y0153753D01*
X0065638Y0153672D01*
X0065654Y0153590D01*
X0065666Y0153507D01*
X0065674Y0153423D01*
X0065678Y0153340D01*
X0065678Y0153256D01*
X0065674Y0153173D01*
X0065666Y0153089D01*
X0065654Y0153006D01*
X0065638Y0152924D01*
X0065619Y0152843D01*
X0065595Y0152762D01*
X0065568Y0152683D01*
X0065537Y0152605D01*
X0065503Y0152529D01*
X0065464Y0152455D01*
X0065423Y0152382D01*
X0065378Y0152311D01*
X0065330Y0152243D01*
X0065278Y0152177D01*
X0065224Y0152113D01*
X0065166Y0152052D01*
X0065106Y0151994D01*
X0065043Y0151939D01*
X0064978Y0151887D01*
X0064910Y0151838D01*
X0064840Y0151792D01*
X0064768Y0151750D01*
X0064694Y0151711D01*
X0064618Y0151675D01*
X0064540Y0151643D01*
X0064462Y0151615D01*
X0064381Y0151591D01*
X0064300Y0151570D01*
X0064218Y0151554D01*
X0064136Y0151541D01*
X0064052Y0151532D01*
X0063969Y0151527D01*
X0063885Y0151526D01*
X0063801Y0151529D01*
X0063718Y0151536D01*
X0063635Y0151547D01*
X0063553Y0151562D01*
X0063471Y0151580D01*
X0063390Y0151603D01*
X0063311Y0151629D01*
X0063233Y0151659D01*
X0063156Y0151693D01*
X0063081Y0151730D01*
X0063008Y0151770D01*
X0062937Y0151815D01*
X0062868Y0151862D01*
X0062801Y0151913D01*
X0062737Y0151966D01*
X0062675Y0152023D01*
X0062617Y0152083D01*
X0062561Y0152145D01*
X0062508Y0152210D01*
X0062458Y0152277D01*
X0062411Y0152346D01*
X0062368Y0152418D01*
X0062328Y0152492D01*
X0062292Y0152567D01*
X0062259Y0152644D01*
X0062230Y0152723D01*
X0062205Y0152802D01*
X0062183Y0152883D01*
X0062166Y0152965D01*
X0062152Y0153048D01*
X0062142Y0153131D01*
X0062136Y0153214D01*
X0062134Y0153298D01*
X0062134Y0167078D02*
X0062136Y0167162D01*
X0062142Y0167245D01*
X0062152Y0167328D01*
X0062166Y0167411D01*
X0062183Y0167493D01*
X0062205Y0167574D01*
X0062230Y0167653D01*
X0062259Y0167732D01*
X0062292Y0167809D01*
X0062328Y0167884D01*
X0062368Y0167958D01*
X0062411Y0168030D01*
X0062458Y0168099D01*
X0062508Y0168166D01*
X0062561Y0168231D01*
X0062617Y0168293D01*
X0062675Y0168353D01*
X0062737Y0168410D01*
X0062801Y0168463D01*
X0062868Y0168514D01*
X0062937Y0168561D01*
X0063008Y0168606D01*
X0063081Y0168646D01*
X0063156Y0168683D01*
X0063233Y0168717D01*
X0063311Y0168747D01*
X0063390Y0168773D01*
X0063471Y0168796D01*
X0063553Y0168814D01*
X0063635Y0168829D01*
X0063718Y0168840D01*
X0063801Y0168847D01*
X0063885Y0168850D01*
X0063969Y0168849D01*
X0064052Y0168844D01*
X0064136Y0168835D01*
X0064218Y0168822D01*
X0064300Y0168806D01*
X0064381Y0168785D01*
X0064462Y0168761D01*
X0064540Y0168733D01*
X0064618Y0168701D01*
X0064694Y0168665D01*
X0064768Y0168626D01*
X0064840Y0168584D01*
X0064910Y0168538D01*
X0064978Y0168489D01*
X0065043Y0168437D01*
X0065106Y0168382D01*
X0065166Y0168324D01*
X0065224Y0168263D01*
X0065278Y0168199D01*
X0065330Y0168133D01*
X0065378Y0168065D01*
X0065423Y0167994D01*
X0065464Y0167921D01*
X0065503Y0167847D01*
X0065537Y0167771D01*
X0065568Y0167693D01*
X0065595Y0167614D01*
X0065619Y0167533D01*
X0065638Y0167452D01*
X0065654Y0167370D01*
X0065666Y0167287D01*
X0065674Y0167203D01*
X0065678Y0167120D01*
X0065678Y0167036D01*
X0065674Y0166953D01*
X0065666Y0166869D01*
X0065654Y0166786D01*
X0065638Y0166704D01*
X0065619Y0166623D01*
X0065595Y0166542D01*
X0065568Y0166463D01*
X0065537Y0166385D01*
X0065503Y0166309D01*
X0065464Y0166235D01*
X0065423Y0166162D01*
X0065378Y0166091D01*
X0065330Y0166023D01*
X0065278Y0165957D01*
X0065224Y0165893D01*
X0065166Y0165832D01*
X0065106Y0165774D01*
X0065043Y0165719D01*
X0064978Y0165667D01*
X0064910Y0165618D01*
X0064840Y0165572D01*
X0064768Y0165530D01*
X0064694Y0165491D01*
X0064618Y0165455D01*
X0064540Y0165423D01*
X0064462Y0165395D01*
X0064381Y0165371D01*
X0064300Y0165350D01*
X0064218Y0165334D01*
X0064136Y0165321D01*
X0064052Y0165312D01*
X0063969Y0165307D01*
X0063885Y0165306D01*
X0063801Y0165309D01*
X0063718Y0165316D01*
X0063635Y0165327D01*
X0063553Y0165342D01*
X0063471Y0165360D01*
X0063390Y0165383D01*
X0063311Y0165409D01*
X0063233Y0165439D01*
X0063156Y0165473D01*
X0063081Y0165510D01*
X0063008Y0165550D01*
X0062937Y0165595D01*
X0062868Y0165642D01*
X0062801Y0165693D01*
X0062737Y0165746D01*
X0062675Y0165803D01*
X0062617Y0165863D01*
X0062561Y0165925D01*
X0062508Y0165990D01*
X0062458Y0166057D01*
X0062411Y0166126D01*
X0062368Y0166198D01*
X0062328Y0166272D01*
X0062292Y0166347D01*
X0062259Y0166424D01*
X0062230Y0166503D01*
X0062205Y0166582D01*
X0062183Y0166663D01*
X0062166Y0166745D01*
X0062152Y0166828D01*
X0062142Y0166911D01*
X0062136Y0166994D01*
X0062134Y0167078D01*
D11*
X0344706Y0164127D02*
X0348976Y0164127D01*
X0346841Y0164127D02*
X0348976Y0166262D01*
X0348976Y0167330D01*
X0347909Y0169498D02*
X0348976Y0170566D01*
X0348976Y0172701D01*
X0347909Y0173769D01*
X0346841Y0173769D01*
X0346841Y0169498D01*
X0345774Y0169498D02*
X0347909Y0169498D01*
X0345774Y0169498D02*
X0344706Y0170566D01*
X0344706Y0172701D01*
X0345774Y0175944D02*
X0346841Y0177011D01*
X0346841Y0180214D01*
X0347909Y0180214D02*
X0344706Y0180214D01*
X0344706Y0177011D01*
X0345774Y0175944D01*
X0348976Y0177011D02*
X0348976Y0179147D01*
X0347909Y0180214D01*
X0347909Y0182389D02*
X0348976Y0183457D01*
X0348976Y0186660D01*
X0351112Y0186660D02*
X0344706Y0186660D01*
X0344706Y0183457D01*
X0345774Y0182389D01*
X0347909Y0182389D01*
X0347909Y0188835D02*
X0348976Y0189902D01*
X0348976Y0192038D01*
X0347909Y0193105D01*
X0346841Y0193105D01*
X0346841Y0188835D01*
X0345774Y0188835D02*
X0347909Y0188835D01*
X0345774Y0188835D02*
X0344706Y0189902D01*
X0344706Y0192038D01*
X0344706Y0195280D02*
X0348976Y0195280D01*
X0346841Y0195280D02*
X0348976Y0197415D01*
X0348976Y0198483D01*
X0347909Y0200652D02*
X0347909Y0204922D01*
X0351112Y0207097D02*
X0344706Y0211367D01*
X0344706Y0213543D02*
X0344706Y0217813D01*
X0344706Y0213543D02*
X0351112Y0213543D01*
X0351112Y0211367D02*
X0344706Y0207097D01*
X0344706Y0161952D02*
X0351112Y0161952D01*
X0351112Y0157682D02*
X0344706Y0157682D01*
X0344706Y0155506D02*
X0348976Y0155506D01*
X0351112Y0153371D01*
X0348976Y0151236D01*
X0344706Y0151236D01*
X0345774Y0149061D02*
X0344706Y0147993D01*
X0344706Y0145858D01*
X0345774Y0144791D01*
X0350044Y0144791D01*
X0351112Y0145858D01*
X0351112Y0147993D01*
X0350044Y0149061D01*
X0347909Y0151236D02*
X0347909Y0155506D01*
X0351112Y0157682D02*
X0344706Y0161952D01*
D12*
X0347675Y0224888D02*
X0344606Y0226423D01*
X0347675Y0227957D01*
X0348443Y0229492D02*
X0345373Y0229492D01*
X0348443Y0232561D01*
X0345373Y0232561D01*
X0344606Y0231794D01*
X0344606Y0230259D01*
X0345373Y0229492D01*
X0348443Y0229492D02*
X0349210Y0230259D01*
X0349210Y0231794D01*
X0348443Y0232561D01*
X0345373Y0234096D02*
X0345373Y0234863D01*
X0344606Y0234863D01*
X0344606Y0234096D01*
X0345373Y0234096D01*
X0344606Y0236398D02*
X0344606Y0239467D01*
X0344606Y0237933D02*
X0349210Y0237933D01*
X0347675Y0236398D01*
D13*
X0341459Y0233892D02*
X0338556Y0233892D01*
X0338556Y0235827D01*
X0338556Y0232880D02*
X0341459Y0230945D01*
X0340007Y0229934D02*
X0340007Y0227999D01*
X0340491Y0226994D02*
X0340491Y0226511D01*
X0339524Y0225543D01*
X0340491Y0225543D02*
X0338556Y0225543D01*
X0339524Y0224532D02*
X0339524Y0222597D01*
X0340007Y0222597D02*
X0340491Y0223080D01*
X0340491Y0224048D01*
X0340007Y0224532D01*
X0339524Y0224532D01*
X0338556Y0224048D02*
X0338556Y0223080D01*
X0339040Y0222597D01*
X0340007Y0222597D01*
X0340491Y0221585D02*
X0340491Y0220134D01*
X0340007Y0219650D01*
X0339040Y0219650D01*
X0338556Y0220134D01*
X0338556Y0221585D01*
X0341459Y0221585D01*
X0340007Y0218639D02*
X0338556Y0218639D01*
X0338556Y0217187D01*
X0339040Y0216704D01*
X0339524Y0217187D01*
X0339524Y0218639D01*
X0340007Y0218639D02*
X0340491Y0218155D01*
X0340491Y0217187D01*
X0340007Y0215692D02*
X0339524Y0215692D01*
X0339524Y0213757D01*
X0340007Y0213757D02*
X0340491Y0214241D01*
X0340491Y0215208D01*
X0340007Y0215692D01*
X0338556Y0215208D02*
X0338556Y0214241D01*
X0339040Y0213757D01*
X0340007Y0213757D01*
X0340491Y0212753D02*
X0340491Y0212269D01*
X0339524Y0211302D01*
X0340491Y0211302D02*
X0338556Y0211302D01*
X0338556Y0210290D02*
X0341459Y0210290D01*
X0341459Y0208355D02*
X0338556Y0210290D01*
X0338556Y0208355D02*
X0341459Y0208355D01*
X0340491Y0207344D02*
X0338556Y0207344D01*
X0340007Y0207344D02*
X0340007Y0205409D01*
X0340491Y0205409D02*
X0341459Y0206376D01*
X0340491Y0207344D01*
X0340491Y0205409D02*
X0338556Y0205409D01*
X0339040Y0204397D02*
X0338556Y0203913D01*
X0338556Y0202946D01*
X0339040Y0202462D01*
X0340975Y0202462D01*
X0341459Y0202946D01*
X0341459Y0203913D01*
X0340975Y0204397D01*
X0341459Y0201451D02*
X0338556Y0199516D01*
X0339040Y0198504D02*
X0338556Y0198020D01*
X0338556Y0196569D01*
X0337589Y0196569D02*
X0340491Y0196569D01*
X0340491Y0198020D01*
X0340007Y0198504D01*
X0339040Y0198504D01*
X0339040Y0195558D02*
X0340491Y0195558D01*
X0339040Y0195558D02*
X0338556Y0195074D01*
X0339040Y0194590D01*
X0338556Y0194106D01*
X0339040Y0193623D01*
X0340491Y0193623D01*
X0340007Y0192611D02*
X0340491Y0192127D01*
X0340491Y0191160D01*
X0340007Y0190676D01*
X0339040Y0190676D01*
X0338556Y0191160D01*
X0338556Y0192127D01*
X0339040Y0192611D01*
X0340007Y0192611D01*
X0340491Y0189679D02*
X0340491Y0188712D01*
X0340975Y0189195D02*
X0339040Y0189195D01*
X0338556Y0189679D01*
X0338556Y0187700D02*
X0340491Y0187700D01*
X0338556Y0187700D02*
X0338556Y0186249D01*
X0339040Y0185765D01*
X0340491Y0185765D01*
X0340007Y0184754D02*
X0338556Y0184754D01*
X0338556Y0183302D01*
X0339040Y0182819D01*
X0339524Y0183302D01*
X0339524Y0184754D01*
X0340007Y0184754D02*
X0340491Y0184270D01*
X0340491Y0183302D01*
X0341459Y0181807D02*
X0338556Y0179872D01*
X0338556Y0178861D02*
X0340007Y0178861D01*
X0340491Y0178377D01*
X0340007Y0177893D01*
X0338556Y0177893D01*
X0338556Y0176926D02*
X0340491Y0176926D01*
X0340491Y0177409D01*
X0340007Y0177893D01*
X0340007Y0175914D02*
X0340491Y0175430D01*
X0340491Y0174463D01*
X0340007Y0173979D01*
X0339040Y0173979D01*
X0338556Y0174463D01*
X0338556Y0175430D01*
X0339040Y0175914D01*
X0340007Y0175914D01*
X0340491Y0172968D02*
X0340491Y0171516D01*
X0340007Y0171033D01*
X0339040Y0171033D01*
X0338556Y0171516D01*
X0338556Y0172968D01*
X0338556Y0170043D02*
X0338556Y0169559D01*
X0339040Y0169559D01*
X0339040Y0170043D01*
X0338556Y0170043D01*
X0339040Y0168548D02*
X0340007Y0168548D01*
X0340491Y0168064D01*
X0340491Y0166613D01*
X0341459Y0166613D02*
X0338556Y0166613D01*
X0338556Y0168064D01*
X0339040Y0168548D01*
X0338556Y0165601D02*
X0340491Y0165601D01*
X0340491Y0163666D02*
X0339040Y0163666D01*
X0338556Y0164150D01*
X0338556Y0165601D01*
X0338556Y0162655D02*
X0340007Y0162655D01*
X0340491Y0162171D01*
X0340491Y0161204D01*
X0340007Y0160720D01*
X0340491Y0159723D02*
X0340491Y0158755D01*
X0340975Y0159239D02*
X0339040Y0159239D01*
X0338556Y0159723D01*
X0338556Y0160720D02*
X0341459Y0160720D01*
X0341459Y0157275D02*
X0341942Y0157275D01*
X0340491Y0157275D02*
X0340491Y0156791D01*
X0340491Y0157275D02*
X0338556Y0157275D01*
X0338556Y0156791D02*
X0338556Y0157759D01*
X0338556Y0155780D02*
X0338556Y0154328D01*
X0339040Y0153845D01*
X0340007Y0153845D01*
X0340491Y0154328D01*
X0340491Y0155780D01*
X0338072Y0155780D01*
X0337589Y0155296D01*
X0337589Y0154812D01*
X0338556Y0150898D02*
X0341459Y0152833D01*
X0341459Y0149887D02*
X0338556Y0147952D01*
X0338556Y0146962D02*
X0338556Y0146478D01*
X0339040Y0146478D01*
X0339040Y0146962D01*
X0338556Y0146962D01*
X0340007Y0146962D02*
X0340007Y0146478D01*
X0340491Y0146478D01*
X0340491Y0146962D01*
X0340007Y0146962D01*
X0340491Y0145467D02*
X0340491Y0144015D01*
X0340007Y0143532D01*
X0339524Y0144015D01*
X0339524Y0144983D01*
X0339040Y0145467D01*
X0338556Y0144983D01*
X0338556Y0143532D01*
X0339040Y0142520D02*
X0338556Y0142036D01*
X0338556Y0140585D01*
X0337589Y0140585D02*
X0340491Y0140585D01*
X0340491Y0142036D01*
X0340007Y0142520D01*
X0339040Y0142520D01*
X0338556Y0139588D02*
X0339040Y0139105D01*
X0340975Y0139105D01*
X0340491Y0139588D02*
X0340491Y0138621D01*
X0340491Y0137624D02*
X0340491Y0136657D01*
X0340975Y0137140D02*
X0339040Y0137140D01*
X0338556Y0137624D01*
X0338556Y0135645D02*
X0340007Y0135645D01*
X0340491Y0135161D01*
X0340491Y0134194D01*
X0340007Y0133710D01*
X0338556Y0133710D02*
X0341459Y0133710D01*
X0341173Y0132149D02*
X0343642Y0132149D01*
X0344259Y0131531D01*
X0344259Y0129680D01*
X0340556Y0129680D01*
X0340556Y0131531D01*
X0341173Y0132149D01*
X0340556Y0128465D02*
X0344259Y0128465D01*
X0344259Y0125997D02*
X0340556Y0125997D01*
X0341173Y0124782D02*
X0342408Y0124782D01*
X0342408Y0123548D01*
X0343642Y0124782D02*
X0344259Y0124165D01*
X0344259Y0122931D01*
X0343642Y0122313D01*
X0341173Y0122313D01*
X0340556Y0122931D01*
X0340556Y0124165D01*
X0341173Y0124782D01*
X0344259Y0125997D02*
X0340556Y0128465D01*
X0348556Y0127838D02*
X0349173Y0127838D01*
X0351642Y0130307D01*
X0352259Y0130307D01*
X0352259Y0127838D01*
X0351025Y0126624D02*
X0348556Y0126624D01*
X0350408Y0126624D02*
X0350408Y0124155D01*
X0351025Y0124155D02*
X0352259Y0125389D01*
X0351025Y0126624D01*
X0351025Y0124155D02*
X0348556Y0124155D01*
X0349173Y0120307D02*
X0349791Y0120307D01*
X0350408Y0119690D01*
X0350408Y0117838D01*
X0349173Y0117838D01*
X0348556Y0118455D01*
X0348556Y0119690D01*
X0349173Y0120307D01*
X0351642Y0119073D02*
X0350408Y0117838D01*
X0350408Y0116624D02*
X0350408Y0114155D01*
X0351025Y0114155D02*
X0352259Y0115389D01*
X0351025Y0116624D01*
X0348556Y0116624D01*
X0348556Y0114155D02*
X0351025Y0114155D01*
X0350408Y0110307D02*
X0350408Y0107838D01*
X0352259Y0109690D01*
X0348556Y0109690D01*
X0344259Y0109376D02*
X0344259Y0110611D01*
X0343642Y0111228D01*
X0343025Y0111228D01*
X0342408Y0110611D01*
X0341791Y0111228D01*
X0341173Y0111228D01*
X0340556Y0110611D01*
X0340556Y0109376D01*
X0341173Y0108759D01*
X0341173Y0107535D02*
X0340556Y0107535D01*
X0340556Y0106917D01*
X0341173Y0106917D01*
X0341173Y0107535D01*
X0341173Y0105703D02*
X0340556Y0105086D01*
X0340556Y0103851D01*
X0341173Y0103234D01*
X0342408Y0104469D02*
X0342408Y0105086D01*
X0341791Y0105703D01*
X0341173Y0105703D01*
X0342408Y0105086D02*
X0343025Y0105703D01*
X0343642Y0105703D01*
X0344259Y0105086D01*
X0344259Y0103851D01*
X0343642Y0103234D01*
X0348556Y0104155D02*
X0351025Y0104155D01*
X0352259Y0105389D01*
X0351025Y0106624D01*
X0348556Y0106624D01*
X0350408Y0106624D02*
X0350408Y0104155D01*
X0344259Y0109376D02*
X0343642Y0108759D01*
X0342408Y0109993D02*
X0342408Y0110611D01*
X0342408Y0114155D02*
X0342408Y0116624D01*
X0343025Y0116624D02*
X0340556Y0116624D01*
X0341173Y0117838D02*
X0340556Y0118455D01*
X0340556Y0119690D01*
X0341173Y0120307D01*
X0342408Y0120307D01*
X0343025Y0119690D01*
X0343025Y0119073D01*
X0342408Y0117838D01*
X0344259Y0117838D01*
X0344259Y0120307D01*
X0343025Y0116624D02*
X0344259Y0115389D01*
X0343025Y0114155D01*
X0340556Y0114155D01*
X0351642Y0119073D02*
X0352259Y0120307D01*
X0305176Y0120138D02*
X0305176Y0123041D01*
X0303725Y0123041D01*
X0303241Y0122557D01*
X0303241Y0121589D01*
X0303725Y0121106D01*
X0305176Y0121106D01*
X0304208Y0121106D02*
X0303241Y0120138D01*
X0302229Y0120138D02*
X0300294Y0120138D01*
X0301262Y0120138D02*
X0301262Y0123041D01*
X0302229Y0122073D01*
X0299283Y0122557D02*
X0299283Y0120622D01*
X0297348Y0122557D01*
X0297348Y0120622D01*
X0297832Y0120138D01*
X0298799Y0120138D01*
X0299283Y0120622D01*
X0299283Y0122557D02*
X0298799Y0123041D01*
X0297832Y0123041D01*
X0297348Y0122557D01*
X0278756Y0128722D02*
X0278272Y0128238D01*
X0277305Y0128238D01*
X0276821Y0128722D01*
X0275810Y0128238D02*
X0273875Y0128238D01*
X0274842Y0128238D02*
X0274842Y0131141D01*
X0275810Y0130173D01*
X0276821Y0130657D02*
X0277305Y0131141D01*
X0278272Y0131141D01*
X0278756Y0130657D01*
X0278756Y0128722D01*
X0272863Y0128722D02*
X0272863Y0129206D01*
X0272379Y0129689D01*
X0271412Y0129689D01*
X0270928Y0129206D01*
X0270928Y0128722D01*
X0271412Y0128238D01*
X0272379Y0128238D01*
X0272863Y0128722D01*
X0272379Y0129689D02*
X0272863Y0130173D01*
X0272863Y0130657D01*
X0272379Y0131141D01*
X0271412Y0131141D01*
X0270928Y0130657D01*
X0270928Y0130173D01*
X0271412Y0129689D01*
X0268756Y0128722D02*
X0268272Y0128238D01*
X0267305Y0128238D01*
X0266821Y0128722D01*
X0265810Y0128238D02*
X0263875Y0128238D01*
X0264842Y0128238D02*
X0264842Y0131141D01*
X0265810Y0130173D01*
X0266821Y0130657D02*
X0267305Y0131141D01*
X0268272Y0131141D01*
X0268756Y0130657D01*
X0268756Y0128722D01*
X0262863Y0128722D02*
X0262863Y0128238D01*
X0262863Y0128722D02*
X0260928Y0130657D01*
X0260928Y0131141D01*
X0262863Y0131141D01*
X0261676Y0142838D02*
X0261676Y0145741D01*
X0260225Y0145741D01*
X0259741Y0145257D01*
X0259741Y0144289D01*
X0260225Y0143806D01*
X0261676Y0143806D01*
X0260708Y0143806D02*
X0259741Y0142838D01*
X0258729Y0142838D02*
X0256794Y0144773D01*
X0256794Y0145257D01*
X0257278Y0145741D01*
X0258246Y0145741D01*
X0258729Y0145257D01*
X0258729Y0142838D02*
X0256794Y0142838D01*
X0255783Y0143322D02*
X0253848Y0145257D01*
X0253848Y0143322D01*
X0254332Y0142838D01*
X0255299Y0142838D01*
X0255783Y0143322D01*
X0255783Y0145257D01*
X0255299Y0145741D01*
X0254332Y0145741D01*
X0253848Y0145257D01*
X0248096Y0146141D02*
X0248096Y0143238D01*
X0248096Y0144206D02*
X0246644Y0144206D01*
X0246161Y0144689D01*
X0246161Y0145657D01*
X0246644Y0146141D01*
X0248096Y0146141D01*
X0247128Y0144206D02*
X0246161Y0143238D01*
X0245149Y0143238D02*
X0243214Y0145173D01*
X0243214Y0145657D01*
X0243698Y0146141D01*
X0244665Y0146141D01*
X0245149Y0145657D01*
X0245149Y0143238D02*
X0243214Y0143238D01*
X0242203Y0144689D02*
X0240268Y0144689D01*
X0240751Y0143238D02*
X0240751Y0146141D01*
X0242203Y0144689D01*
X0237165Y0144190D02*
X0235714Y0144190D01*
X0235230Y0144674D01*
X0235230Y0145641D01*
X0235714Y0146125D01*
X0237165Y0146125D01*
X0237165Y0143222D01*
X0236197Y0144190D02*
X0235230Y0143222D01*
X0234218Y0143706D02*
X0233735Y0143222D01*
X0232767Y0143222D01*
X0232283Y0143706D01*
X0232283Y0145641D01*
X0232767Y0146125D01*
X0233735Y0146125D01*
X0234218Y0145641D01*
X0234218Y0145157D01*
X0233735Y0144674D01*
X0232283Y0144674D01*
X0251456Y0163929D02*
X0251456Y0164896D01*
X0251940Y0165380D01*
X0252907Y0166392D02*
X0252907Y0168327D01*
X0251456Y0167843D02*
X0254359Y0167843D01*
X0252907Y0166392D01*
X0253875Y0165380D02*
X0254359Y0164896D01*
X0254359Y0163929D01*
X0253875Y0163445D01*
X0251940Y0163445D01*
X0251456Y0163929D01*
X0235759Y0170375D02*
X0235275Y0169892D01*
X0233340Y0169892D01*
X0232856Y0170375D01*
X0232856Y0171343D01*
X0233340Y0171827D01*
X0233340Y0172838D02*
X0232856Y0173322D01*
X0232856Y0174289D01*
X0233340Y0174773D01*
X0233824Y0174773D01*
X0234307Y0174289D01*
X0234307Y0172838D01*
X0233340Y0172838D01*
X0234307Y0172838D02*
X0235275Y0173806D01*
X0235759Y0174773D01*
X0235275Y0171827D02*
X0235759Y0171343D01*
X0235759Y0170375D01*
X0223676Y0176138D02*
X0223676Y0179041D01*
X0222225Y0179041D01*
X0221741Y0178557D01*
X0221741Y0177589D01*
X0222225Y0177106D01*
X0223676Y0177106D01*
X0222708Y0177106D02*
X0221741Y0176138D01*
X0220729Y0176138D02*
X0218794Y0176138D01*
X0219762Y0176138D02*
X0219762Y0179041D01*
X0220729Y0178073D01*
X0217783Y0178557D02*
X0217299Y0179041D01*
X0216332Y0179041D01*
X0215848Y0178557D01*
X0215848Y0178073D01*
X0217783Y0176138D01*
X0215848Y0176138D01*
X0238956Y0186429D02*
X0238956Y0187396D01*
X0239440Y0187880D01*
X0239440Y0188892D02*
X0238956Y0188892D01*
X0239440Y0188892D02*
X0241375Y0190827D01*
X0241859Y0190827D01*
X0241859Y0188892D01*
X0241375Y0187880D02*
X0241859Y0187396D01*
X0241859Y0186429D01*
X0241375Y0185945D01*
X0239440Y0185945D01*
X0238956Y0186429D01*
X0223676Y0197838D02*
X0223676Y0200741D01*
X0222225Y0200741D01*
X0221741Y0200257D01*
X0221741Y0199289D01*
X0222225Y0198806D01*
X0223676Y0198806D01*
X0222708Y0198806D02*
X0221741Y0197838D01*
X0220729Y0197838D02*
X0218794Y0197838D01*
X0219762Y0197838D02*
X0219762Y0200741D01*
X0220729Y0199773D01*
X0217783Y0199773D02*
X0216815Y0200741D01*
X0216815Y0197838D01*
X0215848Y0197838D02*
X0217783Y0197838D01*
X0185756Y0176641D02*
X0184305Y0176641D01*
X0183821Y0176157D01*
X0183821Y0175189D01*
X0184305Y0174706D01*
X0185756Y0174706D01*
X0184789Y0174706D02*
X0183821Y0173738D01*
X0182810Y0173738D02*
X0180875Y0175673D01*
X0180875Y0176157D01*
X0181358Y0176641D01*
X0182326Y0176641D01*
X0182810Y0176157D01*
X0182810Y0173738D02*
X0180875Y0173738D01*
X0179863Y0174222D02*
X0179379Y0173738D01*
X0178412Y0173738D01*
X0177928Y0174222D01*
X0177928Y0174706D01*
X0178412Y0175189D01*
X0178896Y0175189D01*
X0178412Y0175189D02*
X0177928Y0175673D01*
X0177928Y0176157D01*
X0178412Y0176641D01*
X0179379Y0176641D01*
X0179863Y0176157D01*
X0185756Y0176641D02*
X0185756Y0173738D01*
X0174256Y0182722D02*
X0173772Y0182238D01*
X0172805Y0182238D01*
X0172321Y0182722D01*
X0171310Y0182238D02*
X0169375Y0184173D01*
X0169375Y0184657D01*
X0169858Y0185141D01*
X0170826Y0185141D01*
X0171310Y0184657D01*
X0172321Y0184657D02*
X0172805Y0185141D01*
X0173772Y0185141D01*
X0174256Y0184657D01*
X0174256Y0182722D01*
X0171310Y0182238D02*
X0169375Y0182238D01*
X0168363Y0182722D02*
X0167879Y0182238D01*
X0166912Y0182238D01*
X0166428Y0182722D01*
X0166428Y0183689D01*
X0166912Y0184173D01*
X0167396Y0184173D01*
X0168363Y0183689D01*
X0168363Y0185141D01*
X0166428Y0185141D01*
X0163256Y0185141D02*
X0163256Y0182238D01*
X0163256Y0183206D02*
X0161805Y0183206D01*
X0161321Y0183689D01*
X0161321Y0184657D01*
X0161805Y0185141D01*
X0163256Y0185141D01*
X0162289Y0183206D02*
X0161321Y0182238D01*
X0160310Y0182238D02*
X0158375Y0182238D01*
X0159342Y0182238D02*
X0159342Y0185141D01*
X0160310Y0184173D01*
X0157363Y0185141D02*
X0155428Y0185141D01*
X0155428Y0184657D01*
X0157363Y0182722D01*
X0157363Y0182238D01*
X0152256Y0182722D02*
X0152256Y0184657D01*
X0151772Y0185141D01*
X0150805Y0185141D01*
X0150321Y0184657D01*
X0149310Y0184657D02*
X0148826Y0185141D01*
X0147858Y0185141D01*
X0147375Y0184657D01*
X0147375Y0184173D01*
X0149310Y0182238D01*
X0147375Y0182238D01*
X0146363Y0182238D02*
X0146363Y0182722D01*
X0144428Y0184657D01*
X0144428Y0185141D01*
X0146363Y0185141D01*
X0150321Y0182722D02*
X0150805Y0182238D01*
X0151772Y0182238D01*
X0152256Y0182722D01*
X0117649Y0149157D02*
X0117165Y0149641D01*
X0116198Y0149641D01*
X0115714Y0149157D01*
X0114703Y0149157D02*
X0114703Y0148673D01*
X0114219Y0148189D01*
X0112768Y0148189D01*
X0112768Y0147222D02*
X0112768Y0149157D01*
X0113251Y0149641D01*
X0114219Y0149641D01*
X0114703Y0149157D01*
X0114703Y0147222D02*
X0114219Y0146738D01*
X0113251Y0146738D01*
X0112768Y0147222D01*
X0115714Y0147222D02*
X0116198Y0146738D01*
X0117165Y0146738D01*
X0117649Y0147222D01*
X0117649Y0149157D01*
X0106649Y0148706D02*
X0105198Y0148706D01*
X0104714Y0149189D01*
X0104714Y0150157D01*
X0105198Y0150641D01*
X0106649Y0150641D01*
X0106649Y0147738D01*
X0105682Y0148706D02*
X0104714Y0147738D01*
X0103703Y0147738D02*
X0101768Y0147738D01*
X0102735Y0147738D02*
X0102735Y0150641D01*
X0103703Y0149673D01*
X0086703Y0137041D02*
X0085251Y0137041D01*
X0084768Y0136557D01*
X0084768Y0135589D01*
X0085251Y0135106D01*
X0086703Y0135106D01*
X0085735Y0135106D02*
X0084768Y0134138D01*
X0083756Y0134138D02*
X0081821Y0136073D01*
X0081821Y0136557D01*
X0082305Y0137041D01*
X0083272Y0137041D01*
X0083756Y0136557D01*
X0083756Y0134138D02*
X0081821Y0134138D01*
X0086703Y0134138D02*
X0086703Y0137041D01*
X0064259Y0131531D02*
X0064259Y0129680D01*
X0060556Y0129680D01*
X0060556Y0131531D01*
X0061173Y0132149D01*
X0063642Y0132149D01*
X0064259Y0131531D01*
X0064259Y0128465D02*
X0060556Y0128465D01*
X0064259Y0125997D01*
X0060556Y0125997D01*
X0061173Y0124782D02*
X0060556Y0124165D01*
X0060556Y0122931D01*
X0061173Y0122313D01*
X0063642Y0122313D01*
X0064259Y0122931D01*
X0064259Y0124165D01*
X0063642Y0124782D01*
X0062408Y0124782D02*
X0062408Y0123548D01*
X0062408Y0124782D02*
X0061173Y0124782D01*
X0060556Y0120307D02*
X0064259Y0117838D01*
X0064259Y0116624D02*
X0064259Y0114155D01*
X0064259Y0115389D02*
X0060556Y0115389D01*
X0060556Y0117838D02*
X0064259Y0120307D01*
X0064259Y0110307D02*
X0060556Y0107838D01*
X0060556Y0106624D02*
X0061791Y0105389D01*
X0061791Y0106007D02*
X0061791Y0104155D01*
X0060556Y0104155D02*
X0064259Y0104155D01*
X0064259Y0106007D01*
X0063642Y0106624D01*
X0062408Y0106624D01*
X0061791Y0106007D01*
X0064259Y0107838D02*
X0060556Y0110307D01*
X0061173Y0101228D02*
X0060556Y0100611D01*
X0060556Y0099376D01*
X0061173Y0098759D01*
X0061173Y0097535D02*
X0060556Y0097535D01*
X0060556Y0096917D01*
X0061173Y0096917D01*
X0061173Y0097535D01*
X0061173Y0095703D02*
X0060556Y0095086D01*
X0060556Y0093851D01*
X0061173Y0093234D01*
X0062408Y0094469D02*
X0062408Y0095086D01*
X0061791Y0095703D01*
X0061173Y0095703D01*
X0062408Y0095086D02*
X0063025Y0095703D01*
X0063642Y0095703D01*
X0064259Y0095086D01*
X0064259Y0093851D01*
X0063642Y0093234D01*
X0064259Y0089149D02*
X0060556Y0089149D01*
X0062408Y0089149D02*
X0062408Y0086680D01*
X0064259Y0086680D02*
X0060556Y0086680D01*
X0060556Y0084231D02*
X0064259Y0084231D01*
X0064259Y0082997D02*
X0064259Y0085465D01*
X0057259Y0085465D02*
X0057259Y0082997D01*
X0057259Y0081782D02*
X0057259Y0079313D01*
X0053556Y0079313D01*
X0055408Y0079313D02*
X0055408Y0080548D01*
X0057259Y0084231D02*
X0053556Y0084231D01*
X0053556Y0086680D02*
X0053556Y0089149D01*
X0053556Y0086680D02*
X0057259Y0086680D01*
X0062408Y0080548D02*
X0062408Y0079313D01*
X0064259Y0079313D02*
X0064259Y0081782D01*
X0064259Y0079313D02*
X0060556Y0079313D01*
X0060556Y0077149D02*
X0064259Y0077149D01*
X0062408Y0077149D02*
X0062408Y0074680D01*
X0061791Y0073465D02*
X0061173Y0073465D01*
X0060556Y0072848D01*
X0060556Y0071614D01*
X0061173Y0070997D01*
X0060556Y0069782D02*
X0064259Y0069782D01*
X0063642Y0070997D02*
X0063025Y0070997D01*
X0062408Y0071614D01*
X0062408Y0072848D01*
X0061791Y0073465D01*
X0060556Y0074680D02*
X0064259Y0074680D01*
X0063642Y0073465D02*
X0064259Y0072848D01*
X0064259Y0071614D01*
X0063642Y0070997D01*
X0062408Y0069782D02*
X0062408Y0067313D01*
X0064259Y0067313D02*
X0060556Y0067313D01*
X0057259Y0067313D02*
X0053556Y0067313D01*
X0055408Y0067313D02*
X0055408Y0069782D01*
X0056025Y0070997D02*
X0055408Y0071614D01*
X0055408Y0072848D01*
X0054791Y0073465D01*
X0054173Y0073465D01*
X0053556Y0072848D01*
X0053556Y0071614D01*
X0054173Y0070997D01*
X0053556Y0069782D02*
X0057259Y0069782D01*
X0056642Y0070997D02*
X0057259Y0071614D01*
X0057259Y0072848D01*
X0056642Y0073465D01*
X0057259Y0074680D02*
X0053556Y0074680D01*
X0053556Y0077149D01*
X0056025Y0070997D02*
X0056642Y0070997D01*
X0056642Y0065149D02*
X0057259Y0064531D01*
X0057259Y0062680D01*
X0053556Y0062680D01*
X0053556Y0064531D01*
X0054173Y0065149D01*
X0056642Y0065149D01*
X0060556Y0063611D02*
X0060556Y0062376D01*
X0061173Y0061759D01*
X0061173Y0060535D02*
X0060556Y0060535D01*
X0060556Y0059917D01*
X0061173Y0059917D01*
X0061173Y0060535D01*
X0061173Y0058703D02*
X0060556Y0058086D01*
X0060556Y0056851D01*
X0061173Y0056234D01*
X0062408Y0057469D02*
X0062408Y0058086D01*
X0061791Y0058703D01*
X0061173Y0058703D01*
X0062408Y0058086D02*
X0063025Y0058703D01*
X0063642Y0058703D01*
X0064259Y0058086D01*
X0064259Y0056851D01*
X0063642Y0056234D01*
X0057259Y0055931D02*
X0056642Y0055313D01*
X0054173Y0055313D01*
X0053556Y0055931D01*
X0053556Y0057165D01*
X0054173Y0057782D01*
X0055408Y0057782D01*
X0055408Y0056548D01*
X0056642Y0057782D02*
X0057259Y0057165D01*
X0057259Y0055931D01*
X0057259Y0058997D02*
X0053556Y0058997D01*
X0053556Y0061465D02*
X0057259Y0061465D01*
X0057259Y0058997D02*
X0053556Y0061465D01*
X0060556Y0063611D02*
X0061173Y0064228D01*
X0061791Y0064228D01*
X0062408Y0063611D01*
X0062408Y0062993D01*
X0062408Y0063611D02*
X0063025Y0064228D01*
X0063642Y0064228D01*
X0064259Y0063611D01*
X0064259Y0062376D01*
X0063642Y0061759D01*
X0087768Y0084238D02*
X0089703Y0084238D01*
X0087768Y0086173D01*
X0087768Y0086657D01*
X0088251Y0087141D01*
X0089219Y0087141D01*
X0089703Y0086657D01*
X0090714Y0086657D02*
X0091198Y0087141D01*
X0092165Y0087141D01*
X0092649Y0086657D01*
X0093661Y0086657D02*
X0093661Y0085689D01*
X0094144Y0085206D01*
X0095596Y0085206D01*
X0094628Y0085206D02*
X0093661Y0084238D01*
X0092649Y0084238D02*
X0090714Y0086173D01*
X0090714Y0086657D01*
X0090714Y0084238D02*
X0092649Y0084238D01*
X0093661Y0086657D02*
X0094144Y0087141D01*
X0095596Y0087141D01*
X0095596Y0084238D01*
X0095756Y0101238D02*
X0095756Y0104141D01*
X0094305Y0104141D01*
X0093821Y0103657D01*
X0093821Y0102689D01*
X0094305Y0102206D01*
X0095756Y0102206D01*
X0094789Y0102206D02*
X0093821Y0101238D01*
X0092810Y0101722D02*
X0092326Y0101238D01*
X0091358Y0101238D01*
X0090875Y0101722D01*
X0090875Y0102206D01*
X0091358Y0102689D01*
X0092810Y0102689D01*
X0092810Y0101722D01*
X0092810Y0102689D02*
X0091842Y0103657D01*
X0090875Y0104141D01*
X0100768Y0104141D02*
X0101735Y0103657D01*
X0102703Y0102689D01*
X0101251Y0102689D01*
X0100768Y0102206D01*
X0100768Y0101722D01*
X0101251Y0101238D01*
X0102219Y0101238D01*
X0102703Y0101722D01*
X0102703Y0102689D01*
X0103714Y0103173D02*
X0103714Y0103657D01*
X0104198Y0104141D01*
X0105165Y0104141D01*
X0105649Y0103657D01*
X0106661Y0103657D02*
X0107144Y0104141D01*
X0108112Y0104141D01*
X0108596Y0103657D01*
X0108596Y0101722D01*
X0108112Y0101238D01*
X0107144Y0101238D01*
X0106661Y0101722D01*
X0105649Y0101238D02*
X0103714Y0103173D01*
X0103714Y0101238D02*
X0105649Y0101238D01*
X0118251Y0115238D02*
X0117768Y0115722D01*
X0117768Y0117657D01*
X0119703Y0115722D01*
X0119219Y0115238D01*
X0118251Y0115238D01*
X0119703Y0115722D02*
X0119703Y0117657D01*
X0119219Y0118141D01*
X0118251Y0118141D01*
X0117768Y0117657D01*
X0120714Y0115238D02*
X0122649Y0115238D01*
X0121682Y0115238D02*
X0121682Y0118141D01*
X0122649Y0117173D01*
X0123661Y0117657D02*
X0124144Y0118141D01*
X0125112Y0118141D01*
X0125596Y0117657D01*
X0125596Y0115722D01*
X0125112Y0115238D01*
X0124144Y0115238D01*
X0123661Y0115722D01*
X0128768Y0115722D02*
X0129251Y0115238D01*
X0130219Y0115238D01*
X0130703Y0115722D01*
X0131714Y0115238D02*
X0132682Y0116206D01*
X0132198Y0116206D02*
X0133649Y0116206D01*
X0133649Y0115238D02*
X0133649Y0118141D01*
X0132198Y0118141D01*
X0131714Y0117657D01*
X0131714Y0116689D01*
X0132198Y0116206D01*
X0130703Y0117657D02*
X0130219Y0118141D01*
X0129251Y0118141D01*
X0128768Y0117657D01*
X0128768Y0117173D01*
X0129251Y0116689D01*
X0128768Y0116206D01*
X0128768Y0115722D01*
X0129251Y0116689D02*
X0129735Y0116689D01*
X0137768Y0116689D02*
X0139703Y0116689D01*
X0138251Y0118141D01*
X0138251Y0115238D01*
X0140714Y0115238D02*
X0141682Y0116206D01*
X0141198Y0116206D02*
X0142649Y0116206D01*
X0142649Y0115238D02*
X0142649Y0118141D01*
X0141198Y0118141D01*
X0140714Y0117657D01*
X0140714Y0116689D01*
X0141198Y0116206D01*
X0175821Y0136822D02*
X0175821Y0137789D01*
X0176305Y0138273D01*
X0176789Y0138273D01*
X0177756Y0137789D01*
X0177756Y0139241D01*
X0175821Y0139241D01*
X0175821Y0136822D02*
X0176305Y0136338D01*
X0177272Y0136338D01*
X0177756Y0136822D01*
X0178768Y0136338D02*
X0179735Y0137306D01*
X0179251Y0137306D02*
X0180703Y0137306D01*
X0180703Y0136338D02*
X0180703Y0139241D01*
X0179251Y0139241D01*
X0178768Y0138757D01*
X0178768Y0137789D01*
X0179251Y0137306D01*
X0198735Y0090641D02*
X0198735Y0087738D01*
X0197768Y0087738D02*
X0199703Y0087738D01*
X0199703Y0089673D02*
X0198735Y0090641D01*
X0200714Y0090641D02*
X0202649Y0090641D01*
X0202649Y0087738D01*
X0202649Y0089189D02*
X0201682Y0089189D01*
X0209412Y0081141D02*
X0208928Y0080657D01*
X0208928Y0078722D01*
X0209412Y0078238D01*
X0210379Y0078238D01*
X0210863Y0078722D01*
X0210379Y0079689D02*
X0208928Y0079689D01*
X0210379Y0079689D02*
X0210863Y0080173D01*
X0210863Y0080657D01*
X0210379Y0081141D01*
X0209412Y0081141D01*
X0212842Y0081141D02*
X0212842Y0078238D01*
X0211875Y0078238D02*
X0213810Y0078238D01*
X0214821Y0078722D02*
X0215305Y0078238D01*
X0216272Y0078238D01*
X0216756Y0078722D01*
X0216756Y0080657D01*
X0216272Y0081141D01*
X0215305Y0081141D01*
X0214821Y0080657D01*
X0213810Y0080173D02*
X0212842Y0081141D01*
X0219896Y0076141D02*
X0219896Y0073238D01*
X0220863Y0073238D02*
X0218928Y0073238D01*
X0220863Y0075173D02*
X0219896Y0076141D01*
X0221875Y0075657D02*
X0222358Y0076141D01*
X0223326Y0076141D01*
X0223810Y0075657D01*
X0224821Y0075657D02*
X0225305Y0076141D01*
X0226272Y0076141D01*
X0226756Y0075657D01*
X0226756Y0073722D01*
X0226272Y0073238D01*
X0225305Y0073238D01*
X0224821Y0073722D01*
X0223810Y0073238D02*
X0221875Y0075173D01*
X0221875Y0075657D01*
X0221875Y0073238D02*
X0223810Y0073238D01*
X0231428Y0074238D02*
X0233363Y0074238D01*
X0231428Y0076173D01*
X0231428Y0076657D01*
X0231912Y0077141D01*
X0232879Y0077141D01*
X0233363Y0076657D01*
X0234375Y0076657D02*
X0234858Y0077141D01*
X0235826Y0077141D01*
X0236310Y0076657D01*
X0237321Y0076657D02*
X0237805Y0077141D01*
X0238772Y0077141D01*
X0239256Y0076657D01*
X0239256Y0074722D01*
X0238772Y0074238D01*
X0237805Y0074238D01*
X0237321Y0074722D01*
X0236310Y0074238D02*
X0234375Y0074238D01*
X0236310Y0074238D02*
X0234375Y0076173D01*
X0234375Y0076657D01*
X0241428Y0075689D02*
X0243363Y0075689D01*
X0241912Y0077141D01*
X0241912Y0074238D01*
X0244375Y0074238D02*
X0246310Y0074238D01*
X0244375Y0076173D01*
X0244375Y0076657D01*
X0244858Y0077141D01*
X0245826Y0077141D01*
X0246310Y0076657D01*
X0247321Y0076657D02*
X0247805Y0077141D01*
X0248772Y0077141D01*
X0249256Y0076657D01*
X0249256Y0074722D01*
X0248772Y0074238D01*
X0247805Y0074238D01*
X0247321Y0074722D01*
X0252428Y0074722D02*
X0252912Y0074238D01*
X0253879Y0074238D01*
X0254363Y0074722D01*
X0255375Y0074238D02*
X0257310Y0074238D01*
X0255375Y0076173D01*
X0255375Y0076657D01*
X0255858Y0077141D01*
X0256826Y0077141D01*
X0257310Y0076657D01*
X0258321Y0076657D02*
X0258805Y0077141D01*
X0259772Y0077141D01*
X0260256Y0076657D01*
X0260256Y0074722D01*
X0259772Y0074238D01*
X0258805Y0074238D01*
X0258321Y0074722D01*
X0254363Y0076657D02*
X0253879Y0077141D01*
X0252912Y0077141D01*
X0252428Y0076657D01*
X0252428Y0076173D01*
X0252912Y0075689D01*
X0252428Y0075206D01*
X0252428Y0074722D01*
X0252912Y0075689D02*
X0253396Y0075689D01*
X0273375Y0073657D02*
X0273375Y0073173D01*
X0273858Y0072689D01*
X0274826Y0072689D01*
X0275310Y0073173D01*
X0275310Y0073657D01*
X0274826Y0074141D01*
X0273858Y0074141D01*
X0273375Y0073657D01*
X0273858Y0072689D02*
X0273375Y0072206D01*
X0273375Y0071722D01*
X0273858Y0071238D01*
X0274826Y0071238D01*
X0275310Y0071722D01*
X0275310Y0072206D01*
X0274826Y0072689D01*
X0276321Y0072689D02*
X0276805Y0072206D01*
X0278256Y0072206D01*
X0277289Y0072206D02*
X0276321Y0071238D01*
X0276321Y0072689D02*
X0276321Y0073657D01*
X0276805Y0074141D01*
X0278256Y0074141D01*
X0278256Y0071238D01*
X0277772Y0064641D02*
X0276805Y0064641D01*
X0276321Y0064157D01*
X0275310Y0063673D02*
X0274342Y0064641D01*
X0274342Y0061738D01*
X0273375Y0061738D02*
X0275310Y0061738D01*
X0276321Y0062222D02*
X0276805Y0061738D01*
X0277772Y0061738D01*
X0278256Y0062222D01*
X0278256Y0064157D01*
X0277772Y0064641D01*
X0272363Y0064157D02*
X0271879Y0064641D01*
X0270912Y0064641D01*
X0270428Y0064157D01*
X0270428Y0063673D01*
X0270912Y0063189D01*
X0270428Y0062706D01*
X0270428Y0062222D01*
X0270912Y0061738D01*
X0271879Y0061738D01*
X0272363Y0062222D01*
X0271396Y0063189D02*
X0270912Y0063189D01*
X0275310Y0081738D02*
X0275310Y0082222D01*
X0273375Y0084157D01*
X0273375Y0084641D01*
X0275310Y0084641D01*
X0276321Y0084157D02*
X0276321Y0083189D01*
X0276805Y0082706D01*
X0278256Y0082706D01*
X0277289Y0082706D02*
X0276321Y0081738D01*
X0278256Y0081738D02*
X0278256Y0084641D01*
X0276805Y0084641D01*
X0276321Y0084157D01*
X0205756Y0075657D02*
X0205756Y0073722D01*
X0205272Y0073238D01*
X0204305Y0073238D01*
X0203821Y0073722D01*
X0202810Y0073238D02*
X0200875Y0075173D01*
X0200875Y0075657D01*
X0201358Y0076141D01*
X0202326Y0076141D01*
X0202810Y0075657D01*
X0203821Y0075657D02*
X0204305Y0076141D01*
X0205272Y0076141D01*
X0205756Y0075657D01*
X0202810Y0073238D02*
X0200875Y0073238D01*
X0199863Y0073722D02*
X0197928Y0075657D01*
X0197928Y0073722D01*
X0198412Y0073238D01*
X0199379Y0073238D01*
X0199863Y0073722D01*
X0199863Y0075657D01*
X0199379Y0076141D01*
X0198412Y0076141D01*
X0197928Y0075657D01*
X0174756Y0074722D02*
X0174272Y0074238D01*
X0173305Y0074238D01*
X0172821Y0074722D01*
X0171810Y0074722D02*
X0171326Y0074238D01*
X0170358Y0074238D01*
X0169875Y0074722D01*
X0169875Y0075206D01*
X0170358Y0075689D01*
X0170842Y0075689D01*
X0170358Y0075689D02*
X0169875Y0076173D01*
X0169875Y0076657D01*
X0170358Y0077141D01*
X0171326Y0077141D01*
X0171810Y0076657D01*
X0172821Y0076657D02*
X0173305Y0077141D01*
X0174272Y0077141D01*
X0174756Y0076657D01*
X0174756Y0074722D01*
X0164756Y0074722D02*
X0164272Y0074238D01*
X0163305Y0074238D01*
X0162821Y0074722D01*
X0161810Y0074238D02*
X0159875Y0076173D01*
X0159875Y0076657D01*
X0160358Y0077141D01*
X0161326Y0077141D01*
X0161810Y0076657D01*
X0162821Y0076657D02*
X0163305Y0077141D01*
X0164272Y0077141D01*
X0164756Y0076657D01*
X0164756Y0074722D01*
X0161810Y0074238D02*
X0159875Y0074238D01*
X0154756Y0074722D02*
X0154272Y0074238D01*
X0153305Y0074238D01*
X0152821Y0074722D01*
X0151810Y0074238D02*
X0149875Y0074238D01*
X0150842Y0074238D02*
X0150842Y0077141D01*
X0151810Y0076173D01*
X0152821Y0076657D02*
X0153305Y0077141D01*
X0154272Y0077141D01*
X0154756Y0076657D01*
X0154756Y0074722D01*
X0064259Y0099376D02*
X0064259Y0100611D01*
X0063642Y0101228D01*
X0063025Y0101228D01*
X0062408Y0100611D01*
X0061791Y0101228D01*
X0061173Y0101228D01*
X0062408Y0100611D02*
X0062408Y0099993D01*
X0063642Y0098759D02*
X0064259Y0099376D01*
X0106751Y0221238D02*
X0107719Y0221238D01*
X0108203Y0221722D01*
X0108203Y0222689D02*
X0107235Y0223173D01*
X0106751Y0223173D01*
X0106268Y0222689D01*
X0106268Y0221722D01*
X0106751Y0221238D01*
X0108203Y0222689D02*
X0108203Y0224141D01*
X0106268Y0224141D01*
X0110182Y0224141D02*
X0110182Y0221238D01*
X0111149Y0221238D02*
X0109214Y0221238D01*
X0111149Y0223173D02*
X0110182Y0224141D01*
X0112161Y0223657D02*
X0112644Y0224141D01*
X0114096Y0224141D01*
X0114096Y0221238D01*
X0114096Y0222206D02*
X0112644Y0222206D01*
X0112161Y0222689D01*
X0112161Y0223657D01*
X0113128Y0222206D02*
X0112161Y0221238D01*
X0116268Y0221722D02*
X0116268Y0222206D01*
X0116751Y0222689D01*
X0118203Y0222689D01*
X0118203Y0221722D01*
X0117719Y0221238D01*
X0116751Y0221238D01*
X0116268Y0221722D01*
X0117235Y0223657D02*
X0118203Y0222689D01*
X0117235Y0223657D02*
X0116268Y0224141D01*
X0120182Y0224141D02*
X0121149Y0223173D01*
X0122161Y0222689D02*
X0122644Y0222206D01*
X0124096Y0222206D01*
X0123128Y0222206D02*
X0122161Y0221238D01*
X0121149Y0221238D02*
X0119214Y0221238D01*
X0120182Y0221238D02*
X0120182Y0224141D01*
X0122161Y0223657D02*
X0122161Y0222689D01*
X0122161Y0223657D02*
X0122644Y0224141D01*
X0124096Y0224141D01*
X0124096Y0221238D01*
X0095096Y0222238D02*
X0095096Y0225141D01*
X0093644Y0225141D01*
X0093161Y0224657D01*
X0093161Y0223689D01*
X0093644Y0223206D01*
X0095096Y0223206D01*
X0094128Y0223206D02*
X0093161Y0222238D01*
X0092149Y0222238D02*
X0090214Y0224173D01*
X0090214Y0224657D01*
X0090698Y0225141D01*
X0091665Y0225141D01*
X0092149Y0224657D01*
X0092149Y0222238D02*
X0090214Y0222238D01*
X0089203Y0222238D02*
X0087268Y0222238D01*
X0088235Y0222238D02*
X0088235Y0225141D01*
X0089203Y0224173D01*
X0085096Y0223206D02*
X0083644Y0223206D01*
X0083161Y0223689D01*
X0083161Y0224657D01*
X0083644Y0225141D01*
X0085096Y0225141D01*
X0085096Y0222238D01*
X0084128Y0223206D02*
X0083161Y0222238D01*
X0082149Y0222238D02*
X0080214Y0222238D01*
X0081182Y0222238D02*
X0081182Y0225141D01*
X0082149Y0224173D01*
X0079203Y0223689D02*
X0077268Y0223689D01*
X0077751Y0222238D02*
X0077751Y0225141D01*
X0079203Y0223689D01*
X0075096Y0223206D02*
X0073644Y0223206D01*
X0073161Y0223689D01*
X0073161Y0224657D01*
X0073644Y0225141D01*
X0075096Y0225141D01*
X0075096Y0222238D01*
X0074128Y0223206D02*
X0073161Y0222238D01*
X0072149Y0222238D02*
X0070214Y0222238D01*
X0071182Y0222238D02*
X0071182Y0225141D01*
X0072149Y0224173D01*
X0069203Y0224657D02*
X0068719Y0225141D01*
X0067751Y0225141D01*
X0067268Y0224657D01*
X0067268Y0224173D01*
X0067751Y0223689D01*
X0067268Y0223206D01*
X0067268Y0222722D01*
X0067751Y0222238D01*
X0068719Y0222238D01*
X0069203Y0222722D01*
X0068235Y0223689D02*
X0067751Y0223689D01*
X0263956Y0190343D02*
X0263956Y0189375D01*
X0264440Y0188892D01*
X0264924Y0188892D01*
X0265407Y0189375D01*
X0265407Y0190343D01*
X0264924Y0190827D01*
X0264440Y0190827D01*
X0263956Y0190343D01*
X0265407Y0190343D02*
X0265891Y0190827D01*
X0266375Y0190827D01*
X0266859Y0190343D01*
X0266859Y0189375D01*
X0266375Y0188892D01*
X0265891Y0188892D01*
X0265407Y0189375D01*
X0264440Y0187880D02*
X0263956Y0187396D01*
X0263956Y0186429D01*
X0264440Y0185945D01*
X0266375Y0185945D01*
X0266859Y0186429D01*
X0266859Y0187396D01*
X0266375Y0187880D01*
X0270040Y0175273D02*
X0269556Y0174789D01*
X0269556Y0173822D01*
X0270040Y0173338D01*
X0271007Y0173338D02*
X0271491Y0174306D01*
X0271491Y0174789D01*
X0271007Y0175273D01*
X0270040Y0175273D01*
X0271007Y0173338D02*
X0272459Y0173338D01*
X0272459Y0175273D01*
X0271975Y0172327D02*
X0272459Y0171843D01*
X0272459Y0170875D01*
X0271975Y0170392D01*
X0270040Y0170392D01*
X0269556Y0170875D01*
X0269556Y0171843D01*
X0270040Y0172327D01*
X0288251Y0212238D02*
X0289219Y0212238D01*
X0289703Y0212722D01*
X0289703Y0213206D01*
X0289219Y0213689D01*
X0288251Y0213689D01*
X0287768Y0213206D01*
X0287768Y0212722D01*
X0288251Y0212238D01*
X0288251Y0213689D02*
X0287768Y0214173D01*
X0287768Y0214657D01*
X0288251Y0215141D01*
X0289219Y0215141D01*
X0289703Y0214657D01*
X0289703Y0214173D01*
X0289219Y0213689D01*
X0290714Y0212238D02*
X0292649Y0212238D01*
X0291682Y0212238D02*
X0291682Y0215141D01*
X0292649Y0214173D01*
X0293661Y0214657D02*
X0293661Y0213689D01*
X0294144Y0213206D01*
X0295596Y0213206D01*
X0294628Y0213206D02*
X0293661Y0212238D01*
X0295596Y0212238D02*
X0295596Y0215141D01*
X0294144Y0215141D01*
X0293661Y0214657D01*
X0297268Y0214657D02*
X0297268Y0212722D01*
X0297751Y0212238D01*
X0298719Y0212238D01*
X0299203Y0212722D01*
X0298719Y0213689D02*
X0297268Y0213689D01*
X0297268Y0214657D02*
X0297751Y0215141D01*
X0298719Y0215141D01*
X0299203Y0214657D01*
X0299203Y0214173D01*
X0298719Y0213689D01*
X0300214Y0212238D02*
X0302149Y0212238D01*
X0301182Y0212238D02*
X0301182Y0215141D01*
X0302149Y0214173D01*
X0303161Y0214657D02*
X0303161Y0213689D01*
X0303644Y0213206D01*
X0305096Y0213206D01*
X0304128Y0213206D02*
X0303161Y0212238D01*
X0305096Y0212238D02*
X0305096Y0215141D01*
X0303644Y0215141D01*
X0303161Y0214657D01*
X0338556Y0230945D02*
X0341459Y0232880D01*
D14*
X0195406Y0090688D02*
X0180406Y0090688D01*
X0180406Y0060688D01*
X0195406Y0060688D01*
X0195406Y0090688D01*
M02*
